<svg xmlns="http://www.w3.org/2000/svg" xmlns:xlink="http://www.w3.org/1999/xlink" viewBox="0 0 856.89 412.17"><defs><clipPath id="e9a08766-e001-4dc5-8f73-c8c79592fcd0"><path d="M835.33,60.09H21.56V280.22h335l71.86,71.86,71.87-71.86h335Zm-18,202.13H39.56V78.09H817.33Z" style="fill:none"/></clipPath><linearGradient id="e7934e73-a427-4767-b45c-b759b18397ad" x1="-696.56" y1="2187.38" x2="-695.56" y2="2187.38" gradientTransform="matrix(0, 321.32, 321.32, 0, -702426.58, 223849.49)" gradientUnits="userSpaceOnUse"><stop offset="0" stop-color="#804c1b"/><stop offset="0.09" stop-color="#804c1b"/><stop offset="0.36" stop-color="#d4a442"/><stop offset="0.44" stop-color="#c49238"/><stop offset="0.64" stop-color="#a16821"/><stop offset="0.65" stop-color="#a26a21"/><stop offset="0.87" stop-color="#aa8323"/><stop offset="1" stop-color="#ad8c24"/></linearGradient></defs><title>categoryHeader</title><g id="f1a2b2d2-2bce-47db-b4b4-c90ce01b0199" data-name="Layer 2"><g id="f2130b2a-2dee-486a-bd10-4b2cc5620508" data-name="Layer 1"><rect x="21.56" y="60.09" width="813.77" height="220.13" style="fill:#fff"/><path d="M141.59,160a20.66,20.66,0,0,0-6.49-4.51,16.34,16.34,0,0,0-6.33-1.45,8.12,8.12,0,0,0-4.84,1.37,4.45,4.45,0,0,0-1.93,3.87,3.48,3.48,0,0,0,1.65,2.82,24,24,0,0,0,4.07,2.34c1.61.75,3.39,1.56,5.32,2.42a26.24,26.24,0,0,1,5.32,3.14,18,18,0,0,1,4.08,4.36,10.84,10.84,0,0,1,1.65,6.12,17.35,17.35,0,0,1-1.37,6.74,19.07,19.07,0,0,1-3.87,5.84,17.56,17.56,0,0,1-6,4,18,18,0,0,1-7.7,1.29,24.46,24.46,0,0,1-9.07-2.34,38.76,38.76,0,0,1-10-6.85l5.08-7.17a20,20,0,0,0,5.85,5.6,16.37,16.37,0,0,0,6.16,2.38,7.69,7.69,0,0,0,4.92-.73,3.91,3.91,0,0,0,2-3.71,3.15,3.15,0,0,0-1.61-2.62,27,27,0,0,0-4.08-2.17l-5.28-2.34a25,25,0,0,1-5.28-3.19,16.75,16.75,0,0,1-4.07-4.67,13.14,13.14,0,0,1-1.61-6.78,17.86,17.86,0,0,1,1.85-8.42,16.61,16.61,0,0,1,4.88-5.73,18.7,18.7,0,0,1,6.81-3.1,23.49,23.49,0,0,1,15,1.41,18,18,0,0,1,6.05,4.31Z" style="fill:#171d29"/><path d="M186.34,191.33l-1.7,7.5H156.18V146.34h25.48l1.29,7.49H169.49v11.86h8.95v7.5h-8.95v18.14Z" style="fill:#171d29"/><path d="M227.3,191.33l-1.78,7.5H197.06V146.42h13.3v44.91Z" style="fill:#171d29"/><path d="M267.93,191.33l-1.69,7.5H237.78V146.34h25.48l1.29,7.49H251.08v11.86H260v7.5h-8.95v18.14Z" style="fill:#171d29"/><path d="M313.89,191.57a14.61,14.61,0,0,1-3.35,3.83,17.7,17.7,0,0,1-4.11,2.42,19.29,19.29,0,0,1-4.68,1.29,34.73,34.73,0,0,1-5,.36,16.42,16.42,0,0,1-8.07-2.1,21.49,21.49,0,0,1-6.61-5.72,28.81,28.81,0,0,1-4.47-8.47,33.16,33.16,0,0,1,0-20.72A28.88,28.88,0,0,1,282,154a21.65,21.65,0,0,1,6.61-5.73,16.41,16.41,0,0,1,8.07-2.09,32.21,32.21,0,0,1,4.67.32,17.33,17.33,0,0,1,4.36,1.21,20.11,20.11,0,0,1,4.11,2.38,23.61,23.61,0,0,1,4,3.91l-5.08,6.45a9.69,9.69,0,0,0-2.38-3.35,11.41,11.41,0,0,0-3.67-2.38,8.3,8.3,0,0,0-4.19-.52,6.46,6.46,0,0,0-3.95,2.22,14.64,14.64,0,0,0-2.9,5.88,39.1,39.1,0,0,0-1.13,10.48,35.58,35.58,0,0,0,1.09,9.72,14.74,14.74,0,0,0,2.82,5.72,7,7,0,0,0,3.79,2.42,7.39,7.39,0,0,0,4-.2,8.92,8.92,0,0,0,3.43-2.1,8.55,8.55,0,0,0,2.13-3.22Z" style="fill:#171d29"/><path d="M358.15,153.83H347.83v45h-13.3v-45H324.29l1.29-7.49h31.28Z" style="fill:#171d29"/><path d="M425.4,191.57a14.8,14.8,0,0,1-3.35,3.83,17.7,17.7,0,0,1-4.11,2.42,19.29,19.29,0,0,1-4.68,1.29,34.77,34.77,0,0,1-5,.36,16.35,16.35,0,0,1-8.06-2.1,21.37,21.37,0,0,1-6.61-5.72,28.83,28.83,0,0,1-4.48-8.47,33.35,33.35,0,0,1,0-20.72,28.9,28.9,0,0,1,4.48-8.46,21.54,21.54,0,0,1,6.61-5.73,16.34,16.34,0,0,1,8.06-2.09,32.45,32.45,0,0,1,4.68.32,17.37,17.37,0,0,1,4.35,1.21,19.6,19.6,0,0,1,4.11,2.38,23.28,23.28,0,0,1,4,3.91l-5.08,6.45a9.82,9.82,0,0,0-2.38-3.35,11.52,11.52,0,0,0-3.67-2.38,8.31,8.31,0,0,0-4.19-.52,6.46,6.46,0,0,0-3.95,2.22,14.51,14.51,0,0,0-2.91,5.88,39.52,39.52,0,0,0-1.13,10.48,36,36,0,0,0,1.09,9.72,15,15,0,0,0,2.82,5.72,7,7,0,0,0,3.79,2.42,7.43,7.43,0,0,0,4-.2,8.81,8.81,0,0,0,3.42-2.1,8.46,8.46,0,0,0,2.14-3.22Z" style="fill:#171d29"/><path d="M476.59,198.83h-14l-3-9.92H445.87l-2.9,9.92h-8l13.79-52.41h14ZM457.4,181.41l-4.67-18.79-4.6,18.79Z" style="fill:#171d29"/><path d="M516.1,153.83H505.78v45h-13.3v-45H482.24l1.29-7.49h31.28Z" style="fill:#171d29"/><path d="M557.06,191.33l-1.69,7.5H526.9V146.34h25.48l1.29,7.49H540.21v11.86h8.95v7.5h-8.95v18.14Z" style="fill:#171d29"/><path d="M589.8,171.49h13.3v20.16a16.14,16.14,0,0,1-3.31,3.79,15.12,15.12,0,0,1-4.07,2.42,22.31,22.31,0,0,1-4.72,1.29,31.65,31.65,0,0,1-5.08.4,16.48,16.48,0,0,1-8.06-2.09,21.54,21.54,0,0,1-6.61-5.73,28.67,28.67,0,0,1-4.47-8.51,33.66,33.66,0,0,1,0-20.88,28.79,28.79,0,0,1,4.47-8.51,21.64,21.64,0,0,1,6.61-5.72,16.38,16.38,0,0,1,8.06-2.1,32.09,32.09,0,0,1,4.72.33,17.94,17.94,0,0,1,8.47,3.62,27,27,0,0,1,4,4l-5,6.45a9.44,9.44,0,0,0-2.42-3.35,12,12,0,0,0-3.71-2.38,8.19,8.19,0,0,0-4.19-.52,6.38,6.38,0,0,0-3.95,2.26,14.84,14.84,0,0,0-2.9,5.92,39.1,39.1,0,0,0-1.13,10.48,38.36,38.36,0,0,0,.88,9,17.23,17.23,0,0,0,2.34,5.69,7.75,7.75,0,0,0,3.23,2.86,7.16,7.16,0,0,0,3.55.6Z" style="fill:#171d29"/><path d="M635.43,146.42a16.45,16.45,0,0,1,8.06,2.09,21.81,21.81,0,0,1,6.61,5.69,28.07,28.07,0,0,1,4.48,8.42,33.1,33.1,0,0,1,0,20.64,28,28,0,0,1-4.48,8.43,21.64,21.64,0,0,1-6.61,5.68,16.67,16.67,0,0,1-16.2,0,21.64,21.64,0,0,1-6.61-5.68,28,28,0,0,1-4.48-8.43,33.1,33.1,0,0,1,0-20.64,28.07,28.07,0,0,1,4.48-8.42,21.81,21.81,0,0,1,6.61-5.69A16.61,16.61,0,0,1,635.43,146.42Zm0,45.39a3.29,3.29,0,0,0,2.54-1.45,13.68,13.68,0,0,0,2.06-4,33.69,33.69,0,0,0,1.41-6,48.13,48.13,0,0,0,.52-7.3,47.37,47.37,0,0,0-.52-7.25,34.06,34.06,0,0,0-1.41-5.93,14.37,14.37,0,0,0-2.06-4,3.29,3.29,0,0,0-2.54-1.49,3.4,3.4,0,0,0-2.58,1.49,13.4,13.4,0,0,0-2.1,4,34.06,34.06,0,0,0-1.41,5.93,47.37,47.37,0,0,0-.52,7.25,48.13,48.13,0,0,0,.52,7.3,33.69,33.69,0,0,0,1.41,6,12.79,12.79,0,0,0,2.1,4A3.4,3.4,0,0,0,635.43,191.81Z" style="fill:#171d29"/><path d="M705.58,165.36a18.42,18.42,0,0,1-.45,3.87,19.19,19.19,0,0,1-1.45,4.24,18.35,18.35,0,0,1-2.66,4.07,16.44,16.44,0,0,1-4.07,3.39l7.74,17.9H690l-6.53-15.48h-1.69v15.48H668.57V146.42h19.19a19.12,19.12,0,0,1,7.74,1.45,15.9,15.9,0,0,1,5.56,4,16.89,16.89,0,0,1,3.39,6A24.14,24.14,0,0,1,705.58,165.36Zm-23.87,9.12h3.06a6.26,6.26,0,0,0,3-.77,7.92,7.92,0,0,0,2.46-2.1,10.42,10.42,0,0,0,1.65-3.1,12.27,12.27,0,0,0,0-7.58,10.42,10.42,0,0,0-1.65-3.1,7.92,7.92,0,0,0-2.46-2.1,6.26,6.26,0,0,0-3-.77h-3.06Z" style="fill:#171d29"/><path d="M752.1,146.42l-13.23,29v23.39h-13.3V175.2l-12.26-28.78h14.52l7.82,18.14,8.63-18.14Z" style="fill:#171d29"/><g style="clip-path:url(#e9a08766-e001-4dc5-8f73-c8c79592fcd0)"><rect x="11.87" y="30.36" width="833.15" height="351.45" transform="translate(-14.08 32.29) rotate(-4.25)" style="fill:url(#e7934e73-a427-4767-b45c-b759b18397ad)"/></g></g></g></svg>