<svg xmlns="http://www.w3.org/2000/svg" xmlns:xlink="http://www.w3.org/1999/xlink" viewBox="0 0 162.78 162.78"><defs><linearGradient id="a3e7f022-29c3-49bf-b74a-cb6e36d5fd38" x1="110.61" y1="37.98" x2="43.97" y2="137" gradientUnits="userSpaceOnUse"><stop offset="0" stop-color="#c69a43"/><stop offset="1" stop-color="#a97026"/></linearGradient></defs><title>closeButton</title><g id="be48e505-120a-43bb-962a-3b087a28b25c" data-name="Layer 2"><g id="a58db16d-fafe-4bf7-a3e6-f96bd29929a1" data-name="Layer 1"><path d="M9,81.39A72.39,72.39,0,1,0,81.39,9,72.39,72.39,0,0,0,9,81.39" style="fill:url(#a3e7f022-29c3-49bf-b74a-cb6e36d5fd38)"/><path d="M81.39,162.78a81.39,81.39,0,1,1,81.39-81.39A81.48,81.48,0,0,1,81.39,162.78ZM81.39,18a63.39,63.39,0,1,0,63.39,63.39A63.47,63.47,0,0,0,81.39,18Z" style="fill:#fff"/><path d="M112.78,109.53,85.59,82.35l27.19-27.19a2.92,2.92,0,0,0-2.07-5,2.89,2.89,0,0,0-2.06.85L81.46,78.21l-.07-.07-.07.07L54.14,51A2.92,2.92,0,0,0,50,55.16L77.19,82.35,50,109.53a2.92,2.92,0,0,0,0,4.13,2.93,2.93,0,0,0,4.13,0L81.32,86.48l.07.07.07-.07,27.19,27.18a2.92,2.92,0,0,0,4.13-4.13Z" style="fill:#fff"/></g></g></svg>