<svg xmlns="http://www.w3.org/2000/svg" viewBox="0 0 63.63 59.35"><title>close</title><g id="bda3abb6-bd04-40d2-b8bd-7adc6e3813c6" data-name="Layer 2"><g id="bcf8a781-6523-4bbf-813d-bfe58f7d576d" data-name="Layer 1"><path d="M62.78,54.75,36,29.68,62.78,4.6a2.56,2.56,0,0,0,0-3.81,3,3,0,0,0-4.07,0L31.88,25.87l-.07-.07-.07.06L4.92.79A3,3,0,0,0,.84.79a2.58,2.58,0,0,0,0,3.81L27.67,29.68.84,54.75a2.58,2.58,0,0,0,0,3.81,3,3,0,0,0,2,.79,3,3,0,0,0,2-.79L31.74,33.49l.07.06.07-.06L58.71,58.56a3,3,0,0,0,4.07,0A2.56,2.56,0,0,0,62.78,54.75Z" style="fill:#fff"/></g></g></svg>