<svg xmlns="http://www.w3.org/2000/svg" xmlns:xlink="http://www.w3.org/1999/xlink" viewBox="0 0 2250 2453.96"><defs><linearGradient id="bd37d7e5-b8e3-475b-99d3-4d28bc9a2626" x1="-0.09" y1="2448.46" x2="0.91" y2="2448.46" gradientTransform="matrix(2141.62, 0, 0, -2141.62, 248.56, 5244918.46)" gradientUnits="userSpaceOnUse"><stop offset="0" stop-color="#a56e29"/><stop offset="0.36" stop-color="#e5b450"/><stop offset="0.41" stop-color="#dca646"/><stop offset="0.58" stop-color="#c17e2a"/><stop offset="0.82" stop-color="#be9131"/><stop offset="1" stop-color="#bc9a34"/></linearGradient></defs><title>collectionBg</title><g id="bbb1d905-4477-478f-b001-524a5d697ccd" data-name="Layer 2"><g id="b93f565e-02b3-47c3-81ab-174bff57dc96" data-name="Layer 1"><path d="M0,2448.46V62A62,62,0,0,1,62,0H2188a62,62,0,0,1,62,62V2448.46" style="fill:#ebe6dd"/><path d="M158.34,222.13a4.76,4.76,0,0,0-1.59-6.46c-25.13-15.62-56.94-32.33-93.2-44.75V189.5c52.71,14.51,87.91,34.1,88.36,34.35a4.76,4.76,0,0,0,6.43-1.72" style="fill:#c2b7a1"/><path d="M2195.36,226.42c-6.48,3.6-12.57,7.26-18.23,10.88A328,328,0,0,0,2138.72,266a554.89,554.89,0,0,0-66.33,60.21c-23,24.75-33.81,41.49-34.26,42.19a4.28,4.28,0,0,0,6.41,5.54,3.49,3.49,0,0,0,.43-.43c13.46-15.52,26.52-29.05,38.74-40.75q-1.58,3.21-2.8,6.22l-1,1.33a6.83,6.83,0,0,0-1.28,5,51.81,51.81,0,0,0-1.42,5.76c-3.93,21.92-29.19,38.53-49.5,51.88-5,3.32-9.8,6.45-13.89,9.44-17.73,13-21.11,22.43-18,40.73A171.41,171.41,0,0,1,1941,516.28a4.28,4.28,0,0,0,4,7.51c1.16-.45,19.36-7.63,39.06-24.73a152.28,152.28,0,0,0,18.09-18.6c6.27,30.39-24.86,51.07-26.21,51.95a7.5,7.5,0,0,0-1.05.83c-17.87,17.23-34.95,25.11-50.75,23.41-10.69-1.15-19.07-6.6-24.6-11.5a26.34,26.34,0,0,0,10-6.11,20.39,20.39,0,0,0,5.8-15.06c-.35-17.34,3.09-49.55,29.89-70.32a6.84,6.84,0,0,0,2.34-3.29.27.27,0,0,1,.08-.07q6.65-5.78,13.61-13c16.4-17.08,31.63-36.28,47.74-56.6,43.53-54.9,92.09-116.13,186.42-167.37V167.94c-40.05,12.63-75.08,30.82-102.3,47.73a4.76,4.76,0,0,0,4.85,8.18c.47-.26,38.08-21.19,93.8-35.81a493.58,493.58,0,0,0-50.82,23.87c-59.81,32.19-101.09,68.14-102.8,69.64-23.29,20.51-41.65,35.22-56.07,44.72q3.75-3.07,7.49-6.32c25-21.68,48.46-47.63,50-49.3a4.28,4.28,0,0,0-6.13-6c-48.32,45.93-80,63.15-97.46,69.59,14.72-8,42.39-24.77,65.62-48.19a4.28,4.28,0,0,0-5.94-6.16c-.57.54-59,53.65-119,50.9-25.3-1.17-47.53-12.18-66.09-32.73a4.29,4.29,0,0,0-7,4.83c.23.44,2.84,5.46,7.19,12.32-29.35-28.08-43-59.68-43.14-60.09a4.28,4.28,0,0,0-8.23,1.65c0,10.29,4.09,23.47,8.72,33.29-6.43-1.81-12.65-5.78-18.83-17.94a6.13,6.13,0,0,0-.54-.85,148.47,148.47,0,0,1,.78-47.33c6.92-37,28.5-67.08,64.13-89.43,25.41-15.94,52.52-22.17,78.4-18,22.59,3.61,44,15.17,60.41,32.53,30.26,32.12,36.47,75.47,15.1,105.42l.67.48c-44.63,35.62-70.53,54.26-111.16,27.53-22.48-14.79-33.52-33.34-32.83-55.13.57-17.92,6.79-32.35,18.48-42.9,14.49-13.08,33.41-16.53,39.8-16.08,14.8,1.05,28.44,10.06,34.74,22.94a31,31,0,0,1,2.91,19.33,15.71,15.71,0,0,0-3.41-2.41c-3-1.53-7.85-2.75-14.27.11-5.65,2.52-7.54,8-9.2,12.92-2.19,6.41-4.45,13-14.74,17.11a6.54,6.54,0,0,0-.65.32,27.11,27.11,0,0,1-2.21-4.62c-6.86-18.94,14.82-35.58,15.18-35.85a4.76,4.76,0,0,0-5.31-7.88c-.94.57-23,14.09-27,34.06-1.82,9.19.42,18.15,6.66,26.62,9.58,13,20.65,20.27,32.9,21.64a41.88,41.88,0,0,0,23.26-4.48c6.31-2.35,13-6.8,19.32-14.61,12.56-15.42,14.16-38.91,4.1-59.86a65.76,65.76,0,0,0-33.14-32.11c14.2,3.43,26.17,11.67,35.69,24.67a89.34,89.34,0,0,1,13.85,28.88,4.27,4.27,0,0,0,7,2.27,4.24,4.24,0,0,0,1.44-2.72c.83-6.94-7.75-30.41-24.25-48-16.3-17.33-36.9-25.81-59.56-24.52-27.65,1.58-45,12.43-55.64,24,.46-.64.91-1.25,1.35-1.82a49.69,49.69,0,0,1,11.32-10.86l.65-.41a4.28,4.28,0,0,0-4.23-7.44c-.1.06-.4.23-.88.53-4.75,3-28,18.87-36.37,49.39-6.13,22.32-4.08,41.5,7.66,62.21-3.92-3.95-7.21-7.52-9.47-10.14a4.76,4.76,0,0,0-7.9,5.14c.93,2,23.44,48.56,67.59,61.37,36.66,10.63,77.39-18.49,95.14-33.39,7.51-5.57,15.33-11.79,23.61-18.42l.1.07.21-.31,1.88-1.5c44.73-35.78,106-84.78,212.67-117l1.85-.54V75.17c-.69-.87-1.36-1.77-2-2.67h-127.1c1.69,1.17,3.4,2.33,5.15,3.48-2.07-1.15-4.08-2.31-6.07-3.48h-52.53a269,269,0,0,0,91.31,45.31,289.64,289.64,0,0,0,38.18,7.92c2.53.58,5,1.06,7.43,1.48s4.94.91,7.35,1.31c-47.63.68-106.22-8.2-162.72-56h-20.62c34.17,32.22,73,53.42,115.72,63.17a262.54,262.54,0,0,0,35,5.45c-30.49,11-80.93,32.49-130.64,67.64-1.35-24-12-48.67-31.33-69.19-31.33-33.25-91-57.58-156.18-16.72-39,24.48-62.7,57.65-70.35,98.58-7.08,37.82,1.17,76.48,14.9,105.66-19.74-17.64-34.16-17.63-48.2-15.55a46.7,46.7,0,0,1-6.71.7c-12.5-.05-24.17-5.93-24.28-6a6.9,6.9,0,0,0-10.05,6.18c0,7.62,2.46,15.24,4.74,20.76-19.68,6.09-33.47,21.08-36,40-2.61,19.16,7,36.71,24.44,44.71,18.72,8.58,39.85-9.46,40.74-10.24a6.9,6.9,0,0,0-3.16-12,18.23,18.23,0,0,1,4.39-6.87c3-3.16,14.11-13.42,33.34-12.58,15.73.69,39,7.67,58.53,14.58a27.77,27.77,0,0,0-9.52,5.33c-13.8,12-12.66,24.42-12.48,25.8a6.9,6.9,0,0,0,7.56,6c4.1-.43,16.65-.65,25.28,3.39.9.42,2,1,3.3,1.69,9.7,5.13,31.23,16.51,61,11.92.83,2.34,8.5,22.54,28.7,27.08a41,41,0,0,0,20.68-1.06c-10.23,19.54-11.91,40.16-11.65,53.31a6.49,6.49,0,0,1-1.81,5.08c-3.48,3.56-11.12,4.36-13.51,4.37a6.9,6.9,0,0,0-5.79,10.69c.62.94,15.41,23,42.08,26,20,2.22,40.66-6.77,61.54-26.75a89.79,89.79,0,0,0,19-18.06c6.77-8.71,11.07-17.92,12.83-27.32,18.58-17.31,44.77-36.89,44.77-36.89.71-10,3.62-22.06,7.45-34.27-2.23,16.67-1.05,26.87-1,27.54a6.9,6.9,0,0,0,13.69-1.69c-.12-1-10.32-96,109.41-186.66,1.72-1.31,3.45-2.57,5.18-3.83Zm-261.7-27.37c.6,1.24,1.13,2.49,1.62,3.75a40,40,0,0,0-2.29-4s-.13.37-.37,1a43.36,43.36,0,0,0-.79-4.28c.65,1.14,1.26,2.3,1.83,3.5m59.63,25.61a6.92,6.92,0,0,0,3.82-1.31c45-32.65,92-53.89,123.28-65.89-56.8,25.13-97.37,54.25-129.5,79.41a83.68,83.68,0,0,0,2.4-12.21M1730.65,362.45c-29.57-1.29-51,18.87-52.22,32.78a13.56,13.56,0,0,0,1.07,6.78c-5.7,3.24-13.24,6-19,3.34A28.46,28.46,0,0,1,1644,375c1.68-12.32,11.34-26.74,33.43-30.29a6.9,6.9,0,0,0,4.85-10.31,62.4,62.4,0,0,1-4.92-11.31,67.32,67.32,0,0,0,18.55,2.9,57.92,57.92,0,0,0,8.8-.84c9.94-1.48,21.94-3.24,41.93,16.92-21.59-3.77-42.47,0-43.83.29a4.28,4.28,0,0,0,.6,8.48c.09,0,8.42.45,24.86,5.39a303.87,303.87,0,0,1,28.92,10.51c-9.6-2.35-18.77-4-26.49-4.33m78.51,58.37c-1.49-.79-2.77-1.47-3.9-2-7.68-3.59-16.65-4.64-23.23-4.85a25.44,25.44,0,0,1,6.06-7.41c6.27-5.45,17.88-4,23.38-2.64,18.85,17.67,43.13,25,70.74,21.55-36.08,14.9-61.57,1.42-73-4.65m65.43-17.76c-46.73-3-78.95-33.72-97.76-58.92-8.38-11.24-16.3-26.85-21.84-44.7,6.47,3.88,12.8,4.87,18.13,5.7a37.06,37.06,0,0,1,6.59,1.39,35.11,35.11,0,0,1,6.6,10.16c.16.79.31,1.61.44,2.53,4.43,29.71,26.92,48.09,27.88,48.86a6.9,6.9,0,0,0,11.13-6.46c-.77-4.86,2.06-9.11,4.79-12,37.28,41.32,70,38.41,79.44,36.44,8.86-1.85,14.81-5.86,16.31-11a8.62,8.62,0,0,0-2.26-8.7c-.76-.74-2.17-2.13-.36-5.39,3-5.43,11.88-10.15,19.8-8.24,20.12,4.83,47.28-11.09,103.71-60.85.26-.23,14.88-13,38.88-29.82-21.89,18.14-39.28,36.54-56.41,54.68-5.45,5.77-11.08,11.74-16.76,17.59-47.08,48.49-93.61,71.6-138.31,68.7m21,55.51a23.15,23.15,0,0,1-12.11-7.33c11-1,26.68-6.94,44.9-27.35,10.57-11.85,28.33-25.8,28.51-25.94a6.79,6.79,0,0,0,2.18-3q26.52-15.12,53.14-40.48c-4.83,6-9.5,11.9-14.07,17.66-15.9,20.06-30.93,39-46.88,55.61-22.37,23.27-41.61,33.93-55.67,30.84" style="fill:#c2b7a1"/><path d="M583.49,333.19c2.28-5.52,4.7-13.14,4.74-20.76a6.9,6.9,0,0,0-10.05-6.18c-.11.06-11.78,5.94-24.28,6a46.7,46.7,0,0,1-6.71-.7c-14-2.08-28.46-2.09-48.2,15.55,13.73-29.18,22-67.84,14.9-105.66-7.65-40.93-31.32-74.1-70.35-98.58C378.38,82,318.68,106.32,287.36,139.57c-19.34,20.52-30,45.22-31.33,69.19-49.71-35.15-100.15-56.59-130.64-67.64a262.15,262.15,0,0,0,35-5.45c42.76-9.75,81.56-30.95,115.72-63.17H255.48c-56.51,47.82-115.1,56.7-162.72,56q3.61-.6,7.35-1.31c2.43-.42,4.89-.9,7.43-1.48a289.64,289.64,0,0,0,38.18-7.92A269,269,0,0,0,237,72.5H184.5c-2,1.17-4,2.33-6.07,3.48,1.75-1.15,3.46-2.31,5.15-3.48h-120v73.36C165.77,178.11,225.27,225.69,269,260.65l1.88,1.5.21.31.09-.07c8.29,6.63,16.11,12.85,23.62,18.42,17.75,14.9,58.48,44,95.13,33.39,44.16-12.81,66.67-59.39,67.6-61.37a4.76,4.76,0,0,0-7.9-5.14c-2.26,2.62-5.55,6.19-9.47,10.14,11.74-20.71,13.79-39.89,7.65-62.21-8.38-30.52-31.61-46.41-36.36-49.39-.48-.3-.78-.47-.88-.53a4.28,4.28,0,0,0-4.24,7.44s.27.16.65.41a49.65,49.65,0,0,1,11.33,10.86c.44.57.89,1.18,1.35,1.82-10.69-11.59-28-22.44-55.65-24-22.65-1.29-43.25,7.19-59.55,24.52-16.5,17.54-25.08,41-24.25,48a4.19,4.19,0,0,0,1.44,2.72,4.27,4.27,0,0,0,7-2.27,89.34,89.34,0,0,1,13.85-28.88c9.52-13,21.48-21.24,35.69-24.67A65.76,65.76,0,0,0,305,193.69c-10.07,20.95-8.46,44.44,4.1,59.86,6.36,7.81,13,12.26,19.32,14.61a41.88,41.88,0,0,0,23.26,4.48C363.94,271.27,375,264,384.59,251c6.24-8.47,8.48-17.43,6.66-26.62-4-20-26-33.49-26.95-34.06A4.76,4.76,0,0,0,359,198.2c.35.27,22,16.91,15.18,35.85a27.11,27.11,0,0,1-2.21,4.62,6.54,6.54,0,0,0-.65-.32c-10.29-4.07-12.55-10.7-14.74-17.11-1.66-4.88-3.55-10.4-9.2-12.92-6.42-2.86-11.3-1.64-14.27-.11a15.71,15.71,0,0,0-3.41,2.41,30.92,30.92,0,0,1,2.91-19.33c6.3-12.88,19.94-21.89,34.74-22.94,6.38-.45,25.31,3,39.8,16.08,11.69,10.55,17.9,25,18.48,42.9.69,21.79-10.35,40.34-32.83,55.13-40.63,26.73-66.53,8.09-111.16-27.53l.67-.48c-21.37-29.95-15.16-73.3,15.1-105.42,16.36-17.36,37.81-28.92,60.41-32.53,25.88-4.13,53,2.1,78.4,18C471.84,156.89,493.42,187,500.33,224a148.19,148.19,0,0,1,.79,47.33,7.29,7.29,0,0,0-.55.85c-6.17,12.16-12.39,16.13-18.82,17.94,4.63-9.82,8.76-23,8.72-33.29a4.28,4.28,0,0,0-8.23-1.65c-.17.41-13.79,32-43.14,60.09,4.35-6.86,7-11.88,7.19-12.32a4.29,4.29,0,0,0-7-4.83c-18.56,20.55-40.79,31.56-66.1,32.73-60,2.75-118.38-50.36-118.95-50.9a4.28,4.28,0,0,0-5.94,6.16c23.22,23.42,50.9,40.16,65.62,48.19-17.46-6.44-49.14-23.65-97.46-69.59a4.28,4.28,0,0,0-6.13,6c1.5,1.67,25,27.62,50,49.3q3.74,3.24,7.49,6.32c-14.42-9.5-32.78-24.21-56.07-44.72-1.71-1.5-43-37.45-102.8-69.64a502,502,0,0,0-45.38-21.65v28.11C152,268.55,198.77,327.58,240.88,380.69c16.11,20.32,31.33,39.52,47.74,56.6q7,7.23,13.61,13a.27.27,0,0,1,.08.07,6.88,6.88,0,0,0,2.33,3.29c26.81,20.77,30.25,53,29.9,70.32A20.42,20.42,0,0,0,340.33,539a26.5,26.5,0,0,0,10,6.11c-5.52,4.9-13.9,10.35-24.59,11.5-15.8,1.7-32.88-6.18-50.75-23.41a7.5,7.5,0,0,0-1-.83c-1.35-.88-32.49-21.56-26.21-51.95a151.55,151.55,0,0,0,18.09,18.6c19.7,17.1,37.89,24.28,39.06,24.73a4.28,4.28,0,0,0,4-7.51A171.31,171.31,0,0,1,254,453.2c3.09-18.3-.29-27.75-18-40.73-4.09-3-8.86-6.12-13.9-9.44-20.3-13.35-45.56-30-49.49-51.88a51.81,51.81,0,0,0-1.42-5.76,6.83,6.83,0,0,0-1.28-5l-1-1.33q-1.23-3-2.8-6.22c12.22,11.7,25.28,25.23,38.74,40.75a3.49,3.49,0,0,0,.43.43,4.28,4.28,0,0,0,6.41-5.54c-.45-.7-11.24-17.44-34.26-42.19A555.68,555.68,0,0,0,111.1,266,328,328,0,0,0,72.69,237.3c-2.93-1.87-6-3.76-9.14-5.64v37.6C179.13,359,169.16,452,169.05,452.91a6.9,6.9,0,1,0,13.69,1.69c.08-.67,1.25-10.87-1-27.54,3.83,12.21,6.73,24.27,7.44,34.27,0,0,26.2,19.58,44.78,36.89,1.76,9.4,6.06,18.61,12.83,27.32a90.08,90.08,0,0,0,19,18.06c20.88,20,41.58,29,61.55,26.75,26.67-3,41.46-25,42.08-26a6.9,6.9,0,0,0-5.79-10.69c-2.39,0-10-.81-13.51-4.37a6.53,6.53,0,0,1-1.82-5.08c.27-13.15-1.41-33.77-11.65-53.31A41,41,0,0,0,357.36,472c20.21-4.54,27.88-24.74,28.71-27.08,29.8,4.59,51.34-6.79,61-11.92,1.3-.69,2.4-1.27,3.3-1.69,8.63-4,21.17-3.82,25.28-3.39a6.9,6.9,0,0,0,7.56-6c.18-1.38,1.32-13.83-12.48-25.8a27.86,27.86,0,0,0-9.52-5.33c19.56-6.91,42.8-13.89,58.52-14.58,19.24-.84,30.39,9.42,33.35,12.58a18.23,18.23,0,0,1,4.39,6.87,6.9,6.9,0,0,0-3.16,12c.89.78,22,18.82,40.74,10.24,17.45-8,27-25.55,24.44-44.71-2.57-18.91-16.36-33.9-36-40M129.43,157.46c31.27,12,78.3,33.24,123.28,65.89a6.92,6.92,0,0,0,3.82,1.31,83.66,83.66,0,0,0,2.39,12.21c-32.12-25.16-72.69-54.28-129.49-79.41m187.76,42.37-.36-1a40,40,0,0,0-2.29,4c.49-1.26,1-2.51,1.61-3.75s1.19-2.36,1.84-3.5a43.43,43.43,0,0,0-.8,4.28m37.05,258.74c-14.06,3.09-33.3-7.57-55.67-30.84-16-16.6-31-35.55-46.88-55.61q-6.85-8.64-14.07-17.66,26.59,25.35,53.14,40.48a6.79,6.79,0,0,0,2.18,3c.18.14,17.94,14.09,28.51,25.94,18.22,20.41,33.92,26.38,44.9,27.35a23.19,23.19,0,0,1-12.11,7.33m107.49-52a25.44,25.44,0,0,1,6.06,7.41c-6.58.21-15.55,1.26-23.23,4.85-1.13.53-2.42,1.21-3.9,2-11.49,6.07-37,19.55-73.05,4.65,27.61,3.48,51.89-3.88,70.74-21.55,5.5-1.37,17.11-2.81,23.38,2.64m-86.5-3.5c-44.7,2.9-91.24-20.21-138.31-68.7-5.68-5.85-11.31-11.82-16.76-17.59-17.13-18.14-34.52-36.54-56.41-54.68,24,16.86,38.62,29.59,38.88,29.82,56.43,49.76,83.59,65.68,103.71,60.85,7.92-1.91,16.79,2.81,19.8,8.24,1.81,3.26.39,4.65-.36,5.39a8.6,8.6,0,0,0-2.26,8.7c1.5,5.15,7.45,9.16,16.31,11,9.42,2,42.16,4.88,79.44-36.44,2.72,2.85,5.56,7.1,4.79,12a6.9,6.9,0,0,0,11.13,6.46c1-.77,23.45-19.15,27.88-48.86.13-.92.28-1.74.43-2.53a35.1,35.1,0,0,1,6.61-10.16,37.06,37.06,0,0,1,6.59-1.39c5.32-.83,11.66-1.82,18.13-5.7-5.54,17.85-13.46,33.46-21.85,44.7-18.8,25.2-51,55.88-97.75,58.92m214.11,2.29c-5.79,2.65-13.32-.1-19-3.34a13.56,13.56,0,0,0,1.07-6.78c-1.21-13.91-22.65-34.07-52.22-32.78-7.72.34-16.89,2-26.49,4.33a303.85,303.85,0,0,1,28.91-10.51c16.44-4.94,24.78-5.39,24.86-5.39a4.28,4.28,0,0,0,.61-8.48c-1.36-.26-22.24-4.06-43.83-.29,20-20.16,32-18.4,41.93-16.92a57.92,57.92,0,0,0,8.8.84,67.32,67.32,0,0,0,18.55-2.9,63.22,63.22,0,0,1-4.92,11.31,6.89,6.89,0,0,0,4.85,10.31c22.09,3.55,31.75,18,33.42,30.29a28.45,28.45,0,0,1-16.52,30.31" style="fill:#c2b7a1"/><path d="M2184,2448.46V84.51a11.86,11.86,0,0,0-11.85-11.85H77.65A11.88,11.88,0,0,0,65.79,84.51v2364a5.5,5.5,0,0,1-11,0V84.51A22.86,22.86,0,0,1,77.65,61.66H2172.17A22.85,22.85,0,0,1,2195,84.51v2364a5.5,5.5,0,0,1-11,0Z" style="fill:url(#bd37d7e5-b8e3-475b-99d3-4d28bc9a2626)"/><path d="M690.46,222.69l-7.1,43.57,8.5,31.22-17.77,4.84-8.59-31.55-26.83-34,19.38-5.27,17,21.38L680,225.54Z" style="fill:#948c7b"/><path d="M734.78,213a22.66,22.66,0,0,1,11.52.56,30.09,30.09,0,0,1,10.56,5.84,39.14,39.14,0,0,1,8.44,10.15,45.74,45.74,0,0,1,5.82,28,39.18,39.18,0,0,1-3.68,12.68,30.16,30.16,0,0,1-7.36,9.56,22.63,22.63,0,0,1-10.33,5.12,22.93,22.93,0,0,1-11.63-.54,30.27,30.27,0,0,1-10.56-5.84,39.14,39.14,0,0,1-8.44-10.15,45.74,45.74,0,0,1-5.82-28A38.94,38.94,0,0,1,717,227.71a30.14,30.14,0,0,1,7.35-9.57A23,23,0,0,1,734.78,213Zm12.81,61.5a4.55,4.55,0,0,0,3-2.68,18.59,18.59,0,0,0,1.66-6,47,47,0,0,0,.23-8.48,70.14,70.14,0,0,0-4.11-19.72,46.68,46.68,0,0,0-3.58-7.63,19.42,19.42,0,0,0-3.92-4.88,4.53,4.53,0,0,0-3.87-1.31,4.7,4.7,0,0,0-3.07,2.75,18.55,18.55,0,0,0-1.7,6.05,45.57,45.57,0,0,0-.24,8.43,66.1,66.1,0,0,0,1.33,10,66.82,66.82,0,0,0,2.77,9.74,46.68,46.68,0,0,0,3.6,7.69,17.89,17.89,0,0,0,4,4.81A4.69,4.69,0,0,0,747.59,274.51Z" style="fill:#948c7b"/><path d="M838.3,195l8,52a19.78,19.78,0,0,1-.62,9.52,19,19,0,0,1-4.56,7.37,24.11,24.11,0,0,1-7.63,5.07,43.4,43.4,0,0,1-20.19,3.11,24.22,24.22,0,0,1-8.8-2.54,18.91,18.91,0,0,1-6.57-5.65,19.9,19.9,0,0,1-3.46-8.9l-8-51.94,18.19-2.8,8.23,53.37a10.53,10.53,0,0,0,3,6,6.71,6.71,0,0,0,6.16,1.88,6.62,6.62,0,0,0,3.08-1.27,7.61,7.61,0,0,0,2.11-2.41,9.87,9.87,0,0,0,1.1-3.16,10.79,10.79,0,0,0,0-3.4l-8.23-53.37Z" style="fill:#948c7b"/><path d="M917.6,212.2a25.63,25.63,0,0,1,0,5.39,26.25,26.25,0,0,1-1.35,6,25.56,25.56,0,0,1-3,6,22.8,22.8,0,0,1-5.09,5.27l13.35,23.45-20.18,2.23-11.33-20.31-2.33.26,2.34,21.29-18.19,2-7.93-72.09,26.4-2.91a26.4,26.4,0,0,1,10.87.83,21.83,21.83,0,0,1,8.25,4.64,23.22,23.22,0,0,1,5.57,7.76A33.48,33.48,0,0,1,917.6,212.2Zm-31.45,16.15,4.21-.47a8.51,8.51,0,0,0,4-1.51,10.9,10.9,0,0,0,3.07-3.26,14.08,14.08,0,0,0,1.8-4.52,15.81,15.81,0,0,0,.26-5.3,16.08,16.08,0,0,0-1.4-5.12,14.29,14.29,0,0,0-2.75-4,10.85,10.85,0,0,0-3.7-2.51,8.65,8.65,0,0,0-4.27-.6l-4.22.46Z" style="fill:#948c7b"/><path d="M1022.17,241.13a20.27,20.27,0,0,1-4.31,5.57,24.65,24.65,0,0,1-5.49,3.68,27.18,27.18,0,0,1-6.35,2.16,47.52,47.52,0,0,1-6.94.91,22.69,22.69,0,0,1-11.31-2.23,30,30,0,0,1-9.6-7.37,39.82,39.82,0,0,1-6.87-11.33,46,46,0,0,1-1.7-28.63,40.1,40.1,0,0,1,5.49-12.06,29.77,29.77,0,0,1,8.67-8.45,22.76,22.76,0,0,1,11-3.56,45,45,0,0,1,6.48.07,24.13,24.13,0,0,1,6.12,1.31,28.08,28.08,0,0,1,5.87,3,33,33,0,0,1,5.89,5.08l-6.49,9.32a13.47,13.47,0,0,0-3.56-4.43,15.88,15.88,0,0,0-5.26-3,11.41,11.41,0,0,0-5.83-.38,8.93,8.93,0,0,0-5.28,3.38,20.2,20.2,0,0,0-3.53,8.37,54.1,54.1,0,0,0-.7,14.57,49.18,49.18,0,0,0,2.3,13.34,20.75,20.75,0,0,0,4.36,7.68,9.84,9.84,0,0,0,5.44,3,10.23,10.23,0,0,0,5.49-.61,12.32,12.32,0,0,0,4.57-3.17,11.81,11.81,0,0,0,2.68-4.63Z" style="fill:#948c7b"/><path d="M1064.14,177.26a22.65,22.65,0,0,1,11.23,2.6,30.11,30.11,0,0,1,9.36,7.62,39.26,39.26,0,0,1,6.5,11.5,45.75,45.75,0,0,1,.75,28.55,39.17,39.17,0,0,1-5.88,11.82,30.31,30.31,0,0,1-8.94,8.11,23.15,23.15,0,0,1-22.42.59,30.11,30.11,0,0,1-9.36-7.62,39.11,39.11,0,0,1-6.5-11.49,45.78,45.78,0,0,1-.75-28.56,39.17,39.17,0,0,1,5.88-11.82,30.19,30.19,0,0,1,8.94-8.11A22.88,22.88,0,0,1,1064.14,177.26Zm1.66,62.8a4.59,4.59,0,0,0,3.46-2.1,18.85,18.85,0,0,0,2.7-5.6,47,47,0,0,0,1.73-8.31,66,66,0,0,0,.46-10.11,64.66,64.66,0,0,0-1-10,47.08,47.08,0,0,0-2.17-8.15,19.6,19.6,0,0,0-3-5.5,4.53,4.53,0,0,0-3.57-2,4.65,4.65,0,0,0-3.51,2.16,18.59,18.59,0,0,0-2.76,5.65,47.24,47.24,0,0,0-1.73,8.25,70.39,70.39,0,0,0,.53,20.14,47,47,0,0,0,2.17,8.2,17.77,17.77,0,0,0,3,5.44A4.71,4.71,0,0,0,1065.8,240.06Z" style="fill:#948c7b"/><path d="M1157.64,238.75l-2.51,10.36-39.39-.19.36-72.53,18.41.09-.31,62.15Z" style="fill:#948c7b"/><path d="M1218.17,240.45l-2.79,10.29L1176,249.48l2.33-72.5,18.4.59-2,62.12Z" style="fill:#948c7b"/><path d="M1278.52,243.84l-3,10.22-39.32-2.38,4.39-72.51,35.2,2.13,1.15,10.46-18.6-1.12-1,16.37,12.36.75-.62,10.36-12.37-.75-1.52,25.06Z" style="fill:#948c7b"/><path d="M1346,250a20.11,20.11,0,0,1-5.1,4.86,24.36,24.36,0,0,1-6,2.82,27.35,27.35,0,0,1-6.61,1.19,48.22,48.22,0,0,1-7-.14,22.76,22.76,0,0,1-10.85-3.9,30,30,0,0,1-8.39-8.72,39.81,39.81,0,0,1-5.1-12.24,44.2,44.2,0,0,1-1-14.54,43.65,43.65,0,0,1,3.58-14,39.79,39.79,0,0,1,7.23-11.11,29.93,29.93,0,0,1,9.83-7.06A22.79,22.79,0,0,1,1328,185.3a46,46,0,0,1,6.4,1,24.34,24.34,0,0,1,5.85,2.22,27.55,27.55,0,0,1,5.37,3.79,32.83,32.83,0,0,1,5.07,5.9l-7.82,8.25a13.43,13.43,0,0,0-2.85-4.91,16.05,16.05,0,0,0-4.76-3.74,11.37,11.37,0,0,0-5.71-1.25,8.94,8.94,0,0,0-5.73,2.56,20.29,20.29,0,0,0-4.74,7.75,54.07,54.07,0,0,0-2.87,14.3,49.37,49.37,0,0,0,.27,13.53,20.74,20.74,0,0,0,3.17,8.24,9.79,9.79,0,0,0,4.92,3.81,10.32,10.32,0,0,0,5.53.23,12.26,12.26,0,0,0,5-2.46,11.86,11.86,0,0,0,3.35-4.18Z" style="fill:#948c7b"/><path d="M1417.45,206.29l-14.17-1.83-8,61.76-18.26-2.36,8-61.75L1371,200.29l3.1-10.06,42.94,5.54Z" style="fill:#948c7b"/><path d="M1428.05,271l11.54-71.61,18.17,2.93-11.54,71.61Z" style="fill:#948c7b"/><path d="M1509.37,211.84a22.76,22.76,0,0,1,10.35,5.07,30.15,30.15,0,0,1,7.4,9.53,39.16,39.16,0,0,1,3.74,12.67,45.66,45.66,0,0,1-5.69,28,39.22,39.22,0,0,1-8.4,10.19,30.08,30.08,0,0,1-10.53,5.88,22.67,22.67,0,0,1-11.52.62,22.94,22.94,0,0,1-10.46-5.09,30.08,30.08,0,0,1-7.4-9.54,39,39,0,0,1-3.74-12.66,45.76,45.76,0,0,1,5.7-28,39,39,0,0,1,8.39-10.19,30,30,0,0,1,10.54-5.88A22.89,22.89,0,0,1,1509.37,211.84Zm-12.53,61.56a4.54,4.54,0,0,0,3.84-1.27,18.38,18.38,0,0,0,3.89-4.84,46.1,46.1,0,0,0,3.56-7.7,69.91,69.91,0,0,0,4-19.74,46,46,0,0,0-.28-8.42,19.41,19.41,0,0,0-1.67-6,4.53,4.53,0,0,0-3-2.72,4.66,4.66,0,0,0-3.92,1.31,18.52,18.52,0,0,0-4,4.89,46,46,0,0,0-3.55,7.64,65.28,65.28,0,0,0-2.71,9.7,66.37,66.37,0,0,0-1.31,10,45.8,45.8,0,0,0,.27,8.48,17.53,17.53,0,0,0,1.74,6A4.67,4.67,0,0,0,1496.84,273.4Z" style="fill:#948c7b"/><path d="M1611,236.78l-19.11,70-10-2.73-18.33-47.23-10.73,39.29-10-2.73,19.1-70,10,2.73,18.19,47.77L1601,234.05Z" style="fill:#948c7b"/><line x1="870.36" y1="386.14" x2="1379.45" y2="386.14" style="fill:none;stroke:#c2b7a1;stroke-miterlimit:10;stroke-width:7px"/></g></g></svg>