<svg xmlns="http://www.w3.org/2000/svg" viewBox="0 0 580.98 580.98"><title>collectionItemBg</title><g id="fa7767ed-8832-4a75-882a-72ab905a7f7c" data-name="Layer 2"><g id="b39f3419-922d-48c7-9111-d45972accc16" data-name="Layer 1"><circle cx="290.49" cy="290.49" r="192.98" style="fill:#e6dcca"/><path d="M222.26,504.46c-.78-.22-1.56-.45-2.33-.69h0a1.89,1.89,0,0,0-2.34,1.19l-5.24,15.12a1.89,1.89,0,0,0,1.17,2.41l2.32.81a1.89,1.89,0,0,0,2.41-1.17l5.28-15.23a1.9,1.9,0,0,0-1.26-2.44Z" style="fill:#cc9312"/><path d="M291.67,513.32c-.81,0-1.62,0-2.44.06h0a1.9,1.9,0,0,0-1.86,1.89v63.81a1.9,1.9,0,0,0,1.89,1.9h2.46a1.9,1.9,0,0,0,1.9-1.9V515.22a1.9,1.9,0,0,0-1.95-1.9Z" style="fill:#cc9312"/><path d="M247.54,510.24l-2.4-.42h0a1.9,1.9,0,0,0-2.19,1.45l-5.64,25.58a1.9,1.9,0,0,0,1.44,2.26l2.41.53a1.89,1.89,0,0,0,2.25-1.44l5.67-25.69a1.9,1.9,0,0,0-1.53-2.27Z" style="fill:#cc9312"/><path d="M270.91,513l-2.08-.15-.36,0a1.89,1.89,0,0,0-2,1.69l-4.13,39.15A1.89,1.89,0,0,0,264,555.7l2.45.26a1.89,1.89,0,0,0,2.08-1.69L272.67,515a1.88,1.88,0,0,0-1.76-2.08Z" style="fill:#cc9312"/><path d="M170.5,482.08l-2.09-1.25h0a1.89,1.89,0,0,0-2.58.6l-3.29,5.16a1.88,1.88,0,0,0,.57,2.61l2.08,1.33a1.89,1.89,0,0,0,2.61-.58l3.34-5.22a1.9,1.9,0,0,0-.64-2.65Z" style="fill:#cc9312"/><path d="M196,495l-2.07-.9h0a1.9,1.9,0,0,0-2.47.9l-4,8.29a1.89,1.89,0,0,0,.87,2.53l2.21,1.08a1.9,1.9,0,0,0,2.53-.88l4-8.3a1.11,1.11,0,0,0,.07-.16l0-.09a1.88,1.88,0,0,0-1-2.4Z" style="fill:#cc9312"/><path d="M409.65,476.38h0l-2,1.32h0a1.9,1.9,0,0,0-.57,2.62l6.15,9.63a1.89,1.89,0,0,0,2.62.57l2.07-1.32a1.88,1.88,0,0,0,.57-2.61l-6.15-9.65A1.9,1.9,0,0,0,409.65,476.38Z" style="fill:#cc9312"/><path d="M360,500.88h0l-2.3.79h0a1.89,1.89,0,0,0-1.18,2.41l6.25,18.05a1.9,1.9,0,0,0,2.41,1.17l2.33-.81a1.9,1.9,0,0,0,1.17-2.41l-6.25-18A1.9,1.9,0,0,0,360,500.88Z" style="fill:#cc9312"/><path d="M335.34,507.91h0l-2.38.51h0a1.9,1.9,0,0,0-1.46,2.26l6.07,27.52a1.9,1.9,0,0,0,2.26,1.44l2.4-.53a1.9,1.9,0,0,0,1.44-2.26l-6.06-27.51A1.9,1.9,0,0,0,335.34,507.91Z" style="fill:#cc9312"/><path d="M312.33,511.83h0l-2.42.28h0a1.9,1.9,0,0,0-1.68,2.08l4.23,40.08a1.9,1.9,0,0,0,2.08,1.69l2.45-.26a1.89,1.89,0,0,0,1.68-2.08l-4.22-40.11A1.9,1.9,0,0,0,312.33,511.83Z" style="fill:#cc9312"/><path d="M385.15,490.36h0L383,491.42h0a1.89,1.89,0,0,0-.89,2.54l5.87,12.09a1.9,1.9,0,0,0,2.53.88l2.21-1.08a1.89,1.89,0,0,0,.88-2.53l-5.87-12.09A1.89,1.89,0,0,0,385.15,490.36Z" style="fill:#cc9312"/><path d="M212.35,60.9,217.59,76a1.89,1.89,0,0,0,2.34,1.19h0c.77-.24,1.55-.47,2.33-.69h0a1.9,1.9,0,0,0,1.26-2.44l-5.28-15.23a1.89,1.89,0,0,0-2.41-1.17l-2.32.81A1.89,1.89,0,0,0,212.35,60.9Z" style="fill:#cc9312"/><path d="M291.72,0h-2.46a1.89,1.89,0,0,0-1.89,1.89V65.71a1.9,1.9,0,0,0,1.86,1.89h0c.82,0,1.63,0,2.44.06h0a1.9,1.9,0,0,0,1.95-1.9V1.89A1.9,1.9,0,0,0,291.72,0Z" style="fill:#cc9312"/><path d="M237.31,44.13,243,69.7a1.9,1.9,0,0,0,2.19,1.46h0l2.4-.42h0a1.9,1.9,0,0,0,1.53-2.27l-5.66-25.69a1.9,1.9,0,0,0-2.26-1.44l-2.41.53A1.89,1.89,0,0,0,237.31,44.13Z" style="fill:#cc9312"/><path d="M262.32,27.36l4.13,39.15a1.89,1.89,0,0,0,2,1.69l.36,0,2.08-.15h0A1.89,1.89,0,0,0,272.67,66l-4.14-39.24A1.89,1.89,0,0,0,266.45,25l-2.45.26A1.89,1.89,0,0,0,262.32,27.36Z" style="fill:#cc9312"/><path d="M162.54,94.39l3.29,5.16a1.89,1.89,0,0,0,2.58.6h0l2.09-1.25h0a1.9,1.9,0,0,0,.64-2.65L167.8,91a1.89,1.89,0,0,0-2.61-.58l-2.08,1.33A1.88,1.88,0,0,0,162.54,94.39Z" style="fill:#cc9312"/><path d="M187.43,77.66l4,8.28a1.9,1.9,0,0,0,2.47.91h0c.69-.31,1.38-.6,2.24-1h0a1.9,1.9,0,0,0,1-2.57L193,74.93a1.9,1.9,0,0,0-2.53-.88l-2.21,1.08A1.89,1.89,0,0,0,187.43,77.66Z" style="fill:#cc9312"/><path d="M417.87,91.78l-2.07-1.33a1.9,1.9,0,0,0-2.62.58L407,100.66a1.88,1.88,0,0,0,.58,2.61h0c.68.43,1.36.88,2,1.32h0a1.9,1.9,0,0,0,2.64-.56l6.16-9.65A1.89,1.89,0,0,0,417.87,91.78Z" style="fill:#cc9312"/><path d="M365.14,57.68a1.89,1.89,0,0,0-2.41,1.17L356.48,76.9a1.89,1.89,0,0,0,1.18,2.41h0l2.3.79h0a1.9,1.9,0,0,0,2.42-1.17l6.25-18a1.9,1.9,0,0,0-1.17-2.41Z" style="fill:#cc9312"/><path d="M339.83,41.34a1.89,1.89,0,0,0-2.26,1.44L331.5,70.29A1.91,1.91,0,0,0,333,72.56h0l2.38.51h0a1.9,1.9,0,0,0,2.27-1.44l6.06-27.5a1.89,1.89,0,0,0-1.44-2.26Z" style="fill:#cc9312"/><path d="M309.9,68.87h0l2.42.28h0a1.9,1.9,0,0,0,2.11-1.68l4.22-40.11A1.89,1.89,0,0,0,317,25.28L314.53,25a1.9,1.9,0,0,0-2.08,1.69l-4.23,40.08A1.9,1.9,0,0,0,309.9,68.87Z" style="fill:#cc9312"/><path d="M383,89.55h0c.73.34,1.46.7,2.19,1.06h0a1.9,1.9,0,0,0,2.54-.87l5.87-12.09a1.89,1.89,0,0,0-.88-2.53l-2.21-1.08a1.9,1.9,0,0,0-2.53.88L382.07,87A1.89,1.89,0,0,0,383,89.55Z" style="fill:#cc9312"/><path d="M58.49,213.51l-.81,2.33a1.89,1.89,0,0,0,1.17,2.41l15.23,5.28a1.9,1.9,0,0,0,2.44-1.27h0c.22-.78.46-1.56.69-2.33h0A1.88,1.88,0,0,0,76,217.59L60.9,212.34A1.9,1.9,0,0,0,58.49,213.51Z" style="fill:#cc9312"/><path d="M0,291.72a1.89,1.89,0,0,0,1.9,1.89H65.77a1.89,1.89,0,0,0,1.89-1.94h0c0-.82,0-1.63-.06-2.44h0a1.9,1.9,0,0,0-1.89-1.87H1.9a1.9,1.9,0,0,0-1.9,1.9Z" style="fill:#cc9312"/><path d="M44.13,237.31a1.89,1.89,0,0,0-2.26,1.44l-.53,2.41a1.89,1.89,0,0,0,1.44,2.25l25.69,5.67a1.9,1.9,0,0,0,2.27-1.54h0l.42-2.4h0A1.89,1.89,0,0,0,69.7,243Z" style="fill:#cc9312"/><path d="M26.71,268.53l39.23,4.14A1.89,1.89,0,0,0,68,270.91h0c.06-.81.11-1.62.17-2.43a1.88,1.88,0,0,0-1.69-2l-39.15-4.13A1.89,1.89,0,0,0,25.28,264L25,266.45A1.9,1.9,0,0,0,26.71,268.53Z" style="fill:#cc9312"/><path d="M91,167.8l5.22,3.34a1.9,1.9,0,0,0,2.65-.64h0c.41-.7.83-1.4,1.25-2.09h0a1.89,1.89,0,0,0-.6-2.58l-5.16-3.29a1.88,1.88,0,0,0-2.61.57l-1.33,2.08A1.89,1.89,0,0,0,91,167.8Z" style="fill:#cc9312"/><path d="M83.23,197.07l.16.07.09,0a1.88,1.88,0,0,0,2.4-1L86,196l.9-2.06h0a1.9,1.9,0,0,0-.9-2.47l-8.29-4a1.9,1.9,0,0,0-2.53.88l-1.08,2.21a1.9,1.9,0,0,0,.88,2.53Z" style="fill:#cc9312"/><path d="M91.78,417.87a1.89,1.89,0,0,0,2.61.57l9.65-6.16a1.88,1.88,0,0,0,.56-2.63h0c-.44-.68-.89-1.36-1.33-2h0a1.88,1.88,0,0,0-2.61-.57L91,413.18a1.89,1.89,0,0,0-.58,2.61Z" style="fill:#cc9312"/><path d="M58.49,367.46a1.89,1.89,0,0,0,2.41,1.17l18-6.22.15-.06.07,0a1.89,1.89,0,0,0,1-2.36l0-.14-.74-2.16h0a1.88,1.88,0,0,0-2.41-1.18l-18.05,6.25a1.89,1.89,0,0,0-1.17,2.41Z" style="fill:#cc9312"/><path d="M41.87,342.23a1.89,1.89,0,0,0,2.26,1.44l27.5-6.07a1.88,1.88,0,0,0,1.44-2.26h0L72.56,333h0a1.9,1.9,0,0,0-2.26-1.46l-27.52,6.07a1.89,1.89,0,0,0-1.44,2.25Z" style="fill:#cc9312"/><path d="M66.79,308.22l-40.08,4.23A1.9,1.9,0,0,0,25,314.53l.26,2.45a1.89,1.89,0,0,0,2.08,1.68l40.11-4.23a1.89,1.89,0,0,0,1.68-2.1h0c-.1-.81-.19-1.62-.28-2.42h0A1.89,1.89,0,0,0,66.79,308.22Z" style="fill:#cc9312"/><path d="M75.13,392.68a1.9,1.9,0,0,0,2.53.88l12.09-5.87a1.9,1.9,0,0,0,.87-2.54c-.36-.73-.71-1.46-1.06-2.19h0a1.9,1.9,0,0,0-2.54-.89l-12.09,5.86a1.91,1.91,0,0,0-.88,2.54Z" style="fill:#cc9312"/><path d="M503.77,219.92h0c.24.77.46,1.55.69,2.34a1.9,1.9,0,0,0,2.44,1.26l15.23-5.28a1.89,1.89,0,0,0,1.17-2.41l-.81-2.32a1.89,1.89,0,0,0-2.41-1.17L505,217.59A1.88,1.88,0,0,0,503.77,219.92Z" style="fill:#cc9312"/><path d="M581,291.72v-2.46a1.9,1.9,0,0,0-1.89-1.9H515.26a1.9,1.9,0,0,0-1.89,1.86l0,2.46a1.88,1.88,0,0,0,1.89,1.93h63.88A1.89,1.89,0,0,0,581,291.72Z" style="fill:#cc9312"/><path d="M539.11,238.75a1.9,1.9,0,0,0-2.26-1.44L511.27,243a1.89,1.89,0,0,0-1.45,2.19h0l.42,2.4h0a1.9,1.9,0,0,0,2.27,1.54l25.69-5.67a1.89,1.89,0,0,0,1.44-2.26Z" style="fill:#cc9312"/><path d="M515,272.67l39.23-4.14a1.9,1.9,0,0,0,1.69-2.08L555.7,264a1.9,1.9,0,0,0-2.09-1.68l-39.15,4.13a1.9,1.9,0,0,0-1.69,2c.07.81.12,1.62.18,2.43h0A1.89,1.89,0,0,0,515,272.67Z" style="fill:#cc9312"/><path d="M484.73,171.14,490,167.8a1.89,1.89,0,0,0,.58-2.61l-1.33-2.08a1.88,1.88,0,0,0-2.61-.57l-5.16,3.29a1.89,1.89,0,0,0-.6,2.58h0c.42.69.84,1.39,1.25,2.09h0A1.9,1.9,0,0,0,484.73,171.14Z" style="fill:#cc9312"/><path d="M505.85,188.3a1.9,1.9,0,0,0-2.53-.88l-8.29,4a1.9,1.9,0,0,0-.9,2.47h0c.33.74.65,1.49,1,2.23h0a1.9,1.9,0,0,0,2.57,1l8.38-4.07a1.9,1.9,0,0,0,.88-2.53Z" style="fill:#cc9312"/><path d="M476.94,412.28l9.65,6.16a1.88,1.88,0,0,0,2.61-.57l1.33-2.08a1.89,1.89,0,0,0-.58-2.61L480.32,407a1.89,1.89,0,0,0-2.61.57h0c-.43.69-.87,1.37-1.32,2h0A1.88,1.88,0,0,0,476.94,412.28Z" style="fill:#cc9312"/><path d="M522.49,367.46l.81-2.32a1.89,1.89,0,0,0-1.17-2.41l-18.05-6.25a1.88,1.88,0,0,0-2.41,1.18h0l-.79,2.31h0a1.89,1.89,0,0,0,1.17,2.41l18,6.25A1.89,1.89,0,0,0,522.49,367.46Z" style="fill:#cc9312"/><path d="M539.11,342.23l.53-2.4a1.89,1.89,0,0,0-1.44-2.26l-27.52-6.07a1.89,1.89,0,0,0-2.26,1.45l-.53,2.4a1.9,1.9,0,0,0,1.45,2.25l27.51,6.07A1.9,1.9,0,0,0,539.11,342.23Z" style="fill:#cc9312"/><path d="M555.7,317l.26-2.45a1.9,1.9,0,0,0-1.69-2.08l-40.08-4.23a1.89,1.89,0,0,0-2.08,1.68h0c-.09.81-.18,1.62-.28,2.43a1.89,1.89,0,0,0,1.68,2.1l40.1,4.23A1.9,1.9,0,0,0,555.7,317Z" style="fill:#cc9312"/><path d="M503.32,393.56a1.9,1.9,0,0,0,2.53-.88l1.08-2.21a1.91,1.91,0,0,0-.88-2.54L494,382.07a1.89,1.89,0,0,0-2.54.89h0c-.35.73-.7,1.46-1.06,2.19a1.9,1.9,0,0,0,.87,2.54Z" style="fill:#cc9312"/></g></g></svg>