<svg xmlns="http://www.w3.org/2000/svg" xmlns:xlink="http://www.w3.org/1999/xlink" viewBox="0 0 2250 2604.36"><defs><linearGradient id="f684e6c9-1b81-4a65-9c3d-8806838cb416" x1="318.64" y1="3042.95" x2="319.5" y2="3042.95" gradientTransform="matrix(0, -2423.25, -2423.25, 0, 7374965.31, 774674.72)" gradientUnits="userSpaceOnUse"><stop offset="0" stop-color="#999"/><stop offset="0.12" stop-color="#909090"/><stop offset="0.33" stop-color="#767676"/><stop offset="0.59" stop-color="#4d4d4d"/><stop offset="0.9" stop-color="#141414"/><stop offset="1"/></linearGradient><mask id="e5f8a708-ac16-4470-ba9b-120268b30dfd" x="0" y="229.62" width="2247.36" height="2374.74" maskUnits="userSpaceOnUse"><rect y="229.62" width="2247.36" height="2374.74" style="fill:url(#f684e6c9-1b81-4a65-9c3d-8806838cb416)"/></mask><linearGradient id="a65a66f7-9d26-42e6-bd06-08ce81a04d3b" x1="318.64" y1="3042.95" x2="319.5" y2="3042.95" gradientTransform="matrix(0, -2423.25, -2423.25, 0, 7374966.05, 774674.8)" gradientUnits="userSpaceOnUse"><stop offset="0" stop-opacity="0.5"/><stop offset="1" stop-opacity="0"/></linearGradient><radialGradient id="ecc5bb71-68e3-40d2-8b58-91d186289dd4" cx="318.2" cy="3043.14" r="1" gradientTransform="matrix(1050.91, 0, 0, -1095.31, -333279.01, 3334633.31)" gradientUnits="userSpaceOnUse"><stop offset="0" stop-color="#fff"/><stop offset="0.11" stop-color="#fff"/><stop offset="0.38" stop-color="#fcfcfa"/><stop offset="0.7" stop-color="#f4f2ec"/><stop offset="1" stop-color="#e9e5d8"/></radialGradient></defs><title>collectionBg</title><g id="a6ce7426-9353-469b-b83a-a44540096d5d" data-name="Layer 2"><g id="ed5f360f-2c34-446f-ad92-36a00ef9486a" data-name="Layer 1"><rect width="2250" height="2604.36" style="fill:#ccc6ba"/><path d="M1687.57,847.3c-74-70-160.17-125-256.12-163.41C1332.14,644.14,1226.62,624,1117.84,624s-214.3,20.16-313.62,59.91C708.28,722.3,622.11,777.27,548.11,847.3A760.41,760.41,0,0,0,457,950.57h9c147.8-188.51,384.73-310.7,651.83-310.7s504,122.19,651.83,310.7h9.06A762.92,762.92,0,0,0,1687.57,847.3Z" style="fill:#afa594"/><path d="M2250,60.08V40.41H1977.43a8.32,8.32,0,0,0-1.44-.23,404.64,404.64,0,0,0-63.86.23H323.57a404.77,404.77,0,0,0-63.87-.23,8.64,8.64,0,0,0-1.44.23H0v16.7H3.44c-1.16.5-2.3,1-3.44,1.56V71.09A146.22,146.22,0,0,1,33.58,59a5.86,5.86,0,0,0,3.14-1.85h9.7A261.11,261.11,0,0,0,0,83.75v14.1C22,81.11,48.28,66,78.37,57.42a5.11,5.11,0,0,0,.8-.31H95.38A279.31,279.31,0,0,0,28.43,92.85,329.64,329.64,0,0,0,0,115.82v15.64a322.63,322.63,0,0,1,35.69-29.85c30.89-22.15,64.18-37,98.94-44.07a6.88,6.88,0,0,0,1.28-.43H150.5a337.35,337.35,0,0,0-98.83,49.55A377.48,377.48,0,0,0,0,152v24.79q12.62-14.57,26.22-27.48A388,388,0,0,0,0,182.25v105a284.16,284.16,0,0,1,52.6-54.36,278.94,278.94,0,0,1,54.63-33.45Q51.55,242,0,289.08V311.6A1585.81,1585.81,0,0,1,160.92,180.25c7.31-1.89,14.73-3.58,22.32-5a284.88,284.88,0,0,1,30-4.12A1572.57,1572.57,0,0,0,58.46,289.18a218.16,218.16,0,0,0-50.8,30.19Q3.79,322.43,0,325.69v22.53a227.35,227.35,0,0,1,18.6-16.46c24.61-19.46,51.9-32.43,81.11-38.56a191.51,191.51,0,0,1,65.86-2.15c-9.6,6.58-13.94,13.91-18.2,21.08-9.1,15.33-19.41,32.71-91.95,54.07A203.68,203.68,0,0,0,0,391.76v29.41q12.17-12.63,24.62-25a191,191,0,0,1,35.86-14.58c6.27-1.84,12.11-3.67,17.57-5.49q-6.67,6.15-13.26,12.38Q31.34,420.15,0,453.83v24.68q36.86-40.68,76.86-78.6,23.73-22.46,48.59-43.91c15.65-8.89,24-17.3,29.78-25.06a1477.19,1477.19,0,0,1,139.83-101.4q14.08-9,28.41-17.68a69.17,69.17,0,0,1,3.54,6.93,61.65,61.65,0,0,1,3.7,11.23c.17,1.08.3,2.13.4,3.16q-11.66,7.14-23.16,14.48Q298.43,253.75,289,260a47.58,47.58,0,0,0-23.55,13.09,42.79,42.79,0,0,0-4.92,6.23q-16,11.13-31.63,22.66c-7.53.2-14.7,1.78-19.79,5.91a7.72,7.72,0,0,0-1.76,10.26,1436.7,1436.7,0,0,0-114.18,97.2q-32.28,30.54-62.54,63A86.83,86.83,0,0,0,0,481v16.92a69.86,69.86,0,0,1,36.16-2.4c9.3,1.84,15.86,6.14,20.08,13.16,5.5,9.18,7.06,23.21,4.48,40.58-.52,3.55-1.17,6.9-1.85,9.94a52,52,0,0,0-23.79-12.35c-11.1-2.39-22.84-1-35.08,4v18q3-1.65,6-2.91-3,3.64-6,7.34v26.76q15-19,30.69-37.61l.45.08c8.85,1.86,15.28,7.21,19.23,11.59Q24.18,604.94,0,637.18v28.28q29.82-41.37,63.1-80.6h.21a8.47,8.47,0,0,0,7.47-5.38c.14-.39.88-2.45,1.87-5.73Q114.9,525.06,162,480.47a1338.65,1338.65,0,0,1,111-94,130.42,130.42,0,0,0,19.28,13.36A1317.57,1317.57,0,0,0,178.3,495.91,1286.55,1286.55,0,0,0,15.79,682.29Q7.77,693.54,0,705v30.31Q14.49,713,29.93,691.33a1269.9,1269.9,0,0,1,160.43-184A1305.09,1305.09,0,0,1,309,407.79,129.5,129.5,0,0,0,336.8,415,1282,1282,0,0,0,206.68,522.76,1247.54,1247.54,0,0,0,49.07,703.52Q23.15,739.84,0,777.91V811q29.1-50.6,63.21-98.4A1230.81,1230.81,0,0,1,218.74,534.18,1265.79,1265.79,0,0,1,363.28,416.44a180.3,180.3,0,0,0,34.17-4.68,145.54,145.54,0,0,0,24.73-8.08A1243.22,1243.22,0,0,0,235.05,549.61c-96.13,91-175,194.48-235,308.45v37.22C60.93,771,143.92,658.69,247.12,561c113.29-107.21,245.21-191.38,392.1-250.17q20.49-8.21,41.23-15.67l6.63,21q-19.55,7.08-38.89,14.81C504.05,388.68,374.6,471.27,263.43,576.47S65,804.16,4,940.57c-1.36,3-2.69,6.07-4,9.11V994q9.3-23.7,19.73-47.1c60.11-134.48,146.16-255.26,255.76-359s237.24-185.15,379.35-242q18.46-7.39,37.14-14.16l4,12.52a1206.45,1206.45,0,0,0-135.31,58.65c-164.73,83.76-308,205.22-414.34,351.23l-4.64,6.38,7.13,6.75A1086.43,1086.43,0,0,0,41,955.35,1067.17,1067.17,0,0,0,0,1062v60.42A1043.53,1043.53,0,0,1,56.71,961.64,1070.52,1070.52,0,0,1,161.09,778.87l16.63,15.74A1049.79,1049.79,0,0,0,78,970.13,1015,1015,0,0,0,0,1237.31v298.23a1011.19,1011.19,0,0,0,56.79,216.21,168.84,168.84,0,0,0-24.54,0A1036.41,1036.41,0,0,1,0,1650.46v60.39q7,21.63,15,43c-3.12.56-6.24,1.2-9.36,2-1.89.46-3.75,1-5.6,1.5v17c3.21-1,6.49-2,9.85-2.82A141.46,141.46,0,0,1,31.73,1768l.1,1.32c47.28-3.32,72.54,20.59,85.41,41.23,20.63,33,22.28,80,3.78,106.83-10.4,15.09-22.77,23.71-36.77,25.6-10.54,1.42-20.76-1.08-29.06-4.44,10.78-2.31,22.33-7.63,33.61-17.74,17-15.21,25.4-38,23.16-62.46-2.46-26.91-17-51.15-38.79-64.86s-49.81-13.5-73.17-5v58.38a31.14,31.14,0,0,1,3.69.56c5.14,1.11,8.65,5.25,10.49,12.3a30.37,30.37,0,0,0-2.82,1.15A34.7,34.7,0,0,0,0,1869.35v37.29a28.73,28.73,0,0,0,12,7.94c-4.33,7.69-7.91,19.18-9,36.36-3.61,58.66,16.47,107.32,34,137.81,2.92,5.11,5.87,9.88,8.76,14.3-3-3.44-6.19-7.27-9.36-11.55C19.59,2069,8,2042.88,0,2016.93v94.26a431.26,431.26,0,0,0,34.87,38l-1.42,1A339.65,339.65,0,0,1,0,2120.38v40.34c.68.28,1.36.56,2,.81.52,5.35,1.14,12.12,1.8,20.1-1.35,2.13-2.62,4.3-3.83,6.52v130.43a84.74,84.74,0,0,0,9.05,14.17c-.63,41.18-3.17,85.29-9,127.91v68c4.57-3.82,8.57-7,12.15-9.78,13.3-10.48,21.9-17.24,32.87-36.94,14,11.53,20.72,31,20.87,50.86-3.09,20.61-10,46.77-25.25,71.61H88.35q16.58-8.49,34.64-16.16c118.76-50.32,211.79-56.41,281.39-59.19q3,.13,6.07.14a9.07,9.07,0,0,0,2.91-.49l3.18-.12,3-.12.45.12,0-.13c13.12-.5,25.46-1,37-1.84,28.66-.44,90.3-5.94,115.92-43.45,30.87-45.19,14.14-103.64,13.42-106.11a5.91,5.91,0,0,0-6.48-4,5.7,5.7,0,0,0-5.08,5.54c0,.1,0,6.68-.66,16.11-5.82-27.25-19.45-45.75-43.23-60.75-32.57-20.55-67.15-16.78-74-15.77-.69.09-1.12.17-1.25.2a5,5,0,0,0-4.11,5.89,5.29,5.29,0,0,0,6.18,3.94l.66-.1a65.2,65.2,0,0,1,20.65,1.14c-18-1.47-42.73,2-69.71,21.76-22.22,16.23-34.59,39.53-35.77,67.36-1.19,28.16,9.82,55.49,16.21,61a5.54,5.54,0,0,0,6.81.25,4.85,4.85,0,0,0,1.43-6.31,100.34,100.34,0,0,1-10.47-36.16c-1.64-18.84,2.86-35.33,13.39-49.28a73.26,73.26,0,0,0-5,53.91c7.58,26.23,28.12,45.77,52.35,49.77a73,73,0,0,0,12,1,53.07,53.07,0,0,0,18-3c7.61-1.86,17.39-5.75,25.3-13.86,10.33-10.61,14.76-25.54,13.19-44.37-1-12.28-6.2-21.92-15.36-28.64-19.88-14.62-51.45-9.66-52.78-9.44a5.63,5.63,0,0,0-4.84,6.17,5.83,5.83,0,0,0,6.27,4.87,70.36,70.36,0,0,1,19,1.85c12.42,3,20.57,9.15,24.25,18.19a30.27,30.27,0,0,1,1.68,5.78c-.29.08-.58.13-.86.22-12.91,4.29-20.4.17-27.65-3.82-5.5-3-11.74-6.47-19.06-4.36-8.32,2.39-11.89,7.22-13.42,10.85a17.38,17.38,0,0,0-1.24,4.71,34.81,34.81,0,0,1-12.95-19.29c-4.55-16.23.89-34.65,13.87-46.93,3.54-3.35,23.63-16.83,50.21-16.31,19.47.36,37,8.35,52,23.75,18.31,18.73,23,43.6,14,73.92-8.06,27.12-21.22,42.24-44,50.56-20.64,7.53-48,9-82.14,10.37l.23-.94c-22.45-5.12-41.12-18.28-54-38.06-12.23-18.78-18.39-42.48-17.34-66.72A121.37,121.37,0,0,1,382.7,2333c20.82-23.51,51.2-38.78,87.86-44.19,51.41-7.57,95.95,2.48,132.4,29.88A177.31,177.31,0,0,1,642,2359.86a7.19,7.19,0,0,0,.21,1.2c4.09,15.49,1.5,23.77-3,30.3-3.64-12.23-10.47-27.05-18.85-36.11a5.5,5.5,0,0,0-6.61-1.06,4.9,4.9,0,0,0-2.41,5.91c.21.61,13,39,8.4,86.22-1.49-9.4-3.13-15.84-3.27-16.41a5.28,5.28,0,0,0-5.73-3.79A5.12,5.12,0,0,0,606,2431c-.68,32.4-12.53,59.19-35.23,79.63-15.46,13.92-44.74,32.41-96.43,41.44a311.91,311.91,0,0,1-56,4.8,5.19,5.19,0,0,0-5.44,4.75,5.11,5.11,0,0,0,4.89,5.26c40.68,2.89,80.1-3.54,100.37-7.73-21.52,7.69-65.08,16.78-147.47,13.23a5.19,5.19,0,0,0-5.51,4.59,5.08,5.08,0,0,0,4.63,5.39c2.76.33,45.73,5.25,86.64,5.25,4.09,0,8.17-.05,12.18-.16-21.17,2.67-50.27,3.76-88.69,3.47-2.66,0-60.1-.1-133.1,13.44H463.83c34.78-3.56,53-10.81,62.28-23.05,5.85-7.76,18-10.39,25.18-7.89,4.33,1.49,4.13,3.8,4,5a9.93,9.93,0,0,0,4.94,9.43c5.58,3.39,14.39,2.37,24.17-2.78,10.4-5.49,43.33-28,44.68-93.16,4.85.43,10.94,2,14.16,6.91a8.76,8.76,0,0,0,8.85,3.66,8.32,8.32,0,0,0,6.79-6.49c.27-1.42,6.39-34.92-13.56-64.59-.63-.92-1.17-1.78-1.67-2.6a38.85,38.85,0,0,1-2-14,43.47,43.47,0,0,1,5-6.29c4.3-4.82,9.41-10.55,12.33-18.94,9.28,20,14.53,39.9,15.81,56.27,2.86,36.71-2.37,88.55-43.57,127.07-14.12,13.21-31.51,23.73-51.82,31.42H676.3c-.42-1.28-.77-2.19-1-2.64a109.76,109.76,0,0,0,13.23-9.16c21.44-17.36,29.68-37.47,34.1-48.27.68-1.64,1.26-3.05,1.71-4,4.79-10.19,16.7-19.61,20.88-22.39a7.8,7.8,0,0,0,2.21-11.09c-1-1.35-10-13.24-32.58-13.24a36,36,0,0,0-13.21,2.59c12.67-21.11,28.72-45.11,42.86-57.78,17.29-15.5,36-15,41.35-14.45,5,.48,8.17,1.77,9.67,2.7a7.74,7.74,0,0,0-1,8.24,8.57,8.57,0,0,0,7.78,4.77c1.46,0,35.82-.25,46.36-22.2,9.83-20.46,4.56-43.33-13.4-58.27-17.74-14.75-42.77-17.43-66.09-7.71-2.35-6.63-6.27-15.23-12.4-22a8.82,8.82,0,0,0-7.87-2.71,8.47,8.47,0,0,0-6.53,5s-.85,2-2.46,4.83q-19.21-6.87-38.22-14.45c-127.77-51.15-242.53-124.36-341.08-217.62-71.16-67.34-131.28-142.69-179.55-224.9.67-24.33-4.14-56.18-26.87-84.09-6.74-8.28-16.14-16-27.41-22.59a968.39,968.39,0,0,1,3.87-781.67,994.93,994.93,0,0,1,76-139.09L294.27,935c-83.9,136.79-128.08,292.11-128.08,451.46A853.7,853.7,0,0,0,241,1737c47.94,107.24,116.55,203.55,203.94,286.25s189.17,147.63,302.49,193c117.33,47,242,70.77,370.43,70.77s253.09-23.81,370.42-70.77c113.33-45.36,215.1-110.29,302.49-193s156-179,203.94-286.25a853.54,853.54,0,0,0,74.79-350.53c0-159.34-44.17-314.66-128.06-451.45L2029,852.11a992.87,992.87,0,0,1,76,139.09,968.45,968.45,0,0,1,3.88,781.67c-11.28,6.6-20.67,14.31-27.42,22.59-22.73,27.91-27.54,59.76-26.87,84.09-48.27,82.21-108.38,157.56-179.55,224.9-98.55,93.26-213.3,166.47-341.08,217.62q-19,7.6-38.22,14.45c-1.61-2.87-2.44-4.78-2.46-4.83a8.46,8.46,0,0,0-6.52-5,8.81,8.81,0,0,0-7.87,2.71c-6.14,6.77-10.06,15.37-12.4,22-23.32-9.72-48.36-7-66.09,7.71-18,14.94-23.23,37.81-13.4,58.27,10.54,22,44.89,22.2,46.35,22.2a8.56,8.56,0,0,0,7.78-4.77,7.7,7.7,0,0,0-1-8.24c1.51-.93,4.71-2.22,9.67-2.7,5.34-.54,24.07-1.05,41.36,14.45,14.13,12.67,30.19,36.67,42.85,57.78a36,36,0,0,0-13.21-2.59c-22.59,0-31.62,11.89-32.57,13.24a7.79,7.79,0,0,0,2.2,11.09c4.19,2.78,16.1,12.2,20.88,22.39.46,1,1,2.39,1.71,4,4.43,10.8,12.66,30.91,34.1,48.27a110.56,110.56,0,0,0,13.23,9.16c-.18.45-.54,1.36-1,2.64h96.89c-20.32-7.69-37.7-18.21-51.83-31.42-41.19-38.52-46.43-90.36-43.57-127.07,1.28-16.37,6.53-36.25,15.82-56.27,2.91,8.39,8,14.12,12.32,18.94a42.79,42.79,0,0,1,5,6.29,38.85,38.85,0,0,1-2,14c-.5.82-1,1.68-1.66,2.6-19.95,29.67-13.83,63.17-13.56,64.59a8.31,8.31,0,0,0,6.79,6.49,8.74,8.74,0,0,0,8.84-3.66c3.22-4.9,9.31-6.48,14.17-6.91,1.34,65.13,34.28,87.67,44.68,93.16,9.78,5.15,18.59,6.17,24.16,2.78a9.93,9.93,0,0,0,4.94-9.43c-.1-1.24-.3-3.55,4-5,7.22-2.5,19.33.13,25.19,7.89,9.24,12.24,27.5,19.49,62.27,23.05H1988.8c-73-13.54-130.44-13.44-133.11-13.44-38.42.29-67.51-.8-88.69-3.47q6,.16,12.19.16c40.91,0,83.87-4.92,86.64-5.25a5.09,5.09,0,0,0,4.63-5.39,5.2,5.2,0,0,0-5.52-4.59c-82.39,3.55-125.94-5.54-147.46-13.23,20.26,4.19,59.69,10.62,100.36,7.73a5.12,5.12,0,0,0,4.9-5.26,5.2,5.2,0,0,0-5.45-4.75,312,312,0,0,1-56-4.8c-51.69-9-81-27.52-96.43-41.44-22.69-20.44-34.55-47.23-35.22-79.63a5.13,5.13,0,0,0-4.72-4.88,5.27,5.27,0,0,0-5.72,3.79c-.15.57-1.79,7-3.28,16.41-4.65-47.26,8.2-85.61,8.4-86.22a4.88,4.88,0,0,0-2.41-5.91,5.49,5.49,0,0,0-6.6,1.06c-8.38,9.06-15.22,23.88-18.85,36.11-4.54-6.53-7.13-14.81-3-30.3a10.05,10.05,0,0,0,.21-1.2,177.1,177.1,0,0,1,39.07-41.21c36.45-27.4,81-37.45,132.39-29.88,36.66,5.41,67,20.68,87.87,44.19a121.42,121.42,0,0,1,30.07,75.1c1,24.24-5.1,47.94-17.34,66.72-12.88,19.78-31.55,32.94-54,38.06l.24.94c-34.18-1.33-61.51-2.84-82.15-10.37-22.79-8.32-36-23.44-44-50.56-9-30.32-4.3-55.19,14-73.92,15.06-15.4,32.56-23.39,52-23.75,26.58-.52,46.66,13,50.21,16.31,13,12.28,18.42,30.7,13.86,46.93a34.81,34.81,0,0,1-13,19.29,17.73,17.73,0,0,0-1.23-4.71c-1.53-3.63-5.1-8.46-13.42-10.85-7.33-2.11-13.56,1.33-19.07,4.36-7.24,4-14.73,8.11-27.64,3.82-.29-.09-.58-.14-.87-.22a31,31,0,0,1,1.69-5.78c3.67-9,11.83-15.16,24.24-18.19a70.42,70.42,0,0,1,19-1.85,5.81,5.81,0,0,0,6.26-4.87,5.62,5.62,0,0,0-4.84-6.17c-1.33-.22-32.89-5.18-52.78,9.44-9.16,6.72-14.32,16.36-15.35,28.64-1.58,18.83,2.86,33.76,13.19,44.37,7.91,8.11,17.69,12,25.29,13.86a53.18,53.18,0,0,0,18,3,73.05,73.05,0,0,0,12-1c24.22-4,44.77-23.54,52.34-49.77a73.26,73.26,0,0,0-5-53.91c10.53,13.95,15,30.44,13.39,49.28a100.57,100.57,0,0,1-10.47,36.16,4.84,4.84,0,0,0,1.42,6.31,5.55,5.55,0,0,0,6.82-.25c6.39-5.5,17.39-32.83,16.2-61-1.18-27.83-13.55-51.13-35.77-67.36-27-19.72-51.66-23.23-69.71-21.76a65.2,65.2,0,0,1,20.65-1.14l.67.1a5.29,5.29,0,0,0,6.18-3.94,5,5,0,0,0-4.11-5.89c-.14,0-.57-.11-1.25-.2-6.87-1-41.44-4.78-74,15.77-23.78,15-37.41,33.5-43.24,60.75-.67-9.43-.66-16-.66-16.11a5.69,5.69,0,0,0-5.08-5.54,5.89,5.89,0,0,0-6.47,4c-.73,2.47-17.46,60.92,13.41,106.11,25.62,37.51,87.27,43,115.92,43.45,11.55.84,23.9,1.34,37,1.84l0,.13.44-.12,3,.12,3.18.12a9,9,0,0,0,2.91.49q3.07,0,6.07-.14c69.59,2.78,162.62,8.87,281.39,59.19q18.08,7.66,34.64,16.16h47.71c-15.23-24.84-22.16-51-25.25-71.61.14-19.83,6.85-39.33,20.86-50.86,11,19.7,19.57,26.46,32.88,36.94,6.88,5.42,15.34,12.08,26.45,22.4v-19.92c-1.37-1.18-2.69-2.31-4-3.37-13.5-58.84-18.48-125.12-19.39-185.19a87.76,87.76,0,0,0,13.2-23.62c-.93,81,3.62,143.82,10.15,191.68V2105.12a355.85,355.85,0,0,1-47.76,45.05l-1.42-1a445.15,445.15,0,0,0,49.18-56.39V1948.17c-5.26,43.28-18.4,99.95-50.63,143.33-3.18,4.28-6.32,8.11-9.36,11.55,2.89-4.42,5.83-9.19,8.76-14.3,17.48-30.49,37.55-79.15,33.94-137.81-1.06-17.18-4.64-28.67-9-36.36a28.11,28.11,0,0,0,18.58-21.39c2.49-13.29-4.57-26-18-32.33a29.12,29.12,0,0,0-2.81-1.15c1.83-7,5.34-11.19,10.49-12.3a27,27,0,0,1,18,2.13v-54.47c-25.38-14.38-60.9-18.3-87.47-1.62-21.83,13.71-36.34,38-38.8,64.86-2.24,24.48,6.21,47.25,23.17,62.46,11.27,10.11,22.83,15.43,33.6,17.74-8.29,3.36-18.51,5.86-29.06,4.44-14-1.89-26.36-10.51-36.77-25.6-18.5-26.86-16.84-73.78,3.78-106.83,12.88-20.64,38.13-44.55,85.41-41.23l.11-1.32a141.84,141.84,0,0,1,21.88,3.49A127.27,127.27,0,0,1,2250,1780v-39.71q-3.39,9.7-6.95,19.37c-4.21-1.44-8.52-2.72-13-3.8-3.11-.75-6.23-1.39-9.35-2q16.74-45,29.26-91.09V1588.2a1033.74,1033.74,0,0,1-46.55,163.51,169,169,0,0,0-24.55,0,1020,1020,0,0,0-21.18-781.62A1048.13,1048.13,0,0,0,2058,794.6l16.64-15.74A1070.28,1070.28,0,0,1,2179,961.64a1038.87,1038.87,0,0,1,71,223v-74.55a1060.25,1060.25,0,0,0-55.3-154.73,1086.14,1086.14,0,0,0-107.79-188.14l7.12-6.74-4.65-6.38c-106.32-146-249.6-267.47-414.34-351.23a1204.22,1204.22,0,0,0-125.63-55.09l4-12.54q13.8,5.14,27.49,10.62c142.11,56.88,269.74,138.31,379.34,242s195.66,224.5,255.76,359q18.93,42.33,34,85.72V984q-8.67-21.84-18.32-43.43c-61-136.41-148.25-258.91-259.42-364.1S1731.65,388.68,1587.5,331q-14.55-5.82-29.23-11.27,3.32-10.5,6.64-21,15.84,5.86,31.57,12.14c146.89,58.79,278.81,143,392.1,250.17C2100.1,666.57,2188,789.2,2250,925.6V886.08C2188.34,761,2104.6,648,2000.64,549.61a1242.72,1242.72,0,0,0-187.13-145.93,145.65,145.65,0,0,0,24.74,8.08,180.09,180.09,0,0,0,34.17,4.68A1265.69,1265.69,0,0,1,2017,534.18a1231.48,1231.48,0,0,1,155.54,178.38,1193.69,1193.69,0,0,1,77.51,124V802.07q-29.22-50.66-63.38-98.55A1248.07,1248.07,0,0,0,2029,522.76,1283.25,1283.25,0,0,0,1898.89,415a129.5,129.5,0,0,0,27.76-7.25,1303.72,1303.72,0,0,1,118.68,99.53,1269.9,1269.9,0,0,1,160.43,184Q2229,723.85,2250,757.79V726.45q-14.57-22.38-30.1-44.16a1285.94,1285.94,0,0,0-162.51-186.38,1318.94,1318.94,0,0,0-113.91-96.08,131,131,0,0,0,19.28-13.36,1341.94,1341.94,0,0,1,111,94q47,44.47,89.34,93.28c1,3.28,1.73,5.34,1.87,5.73a8.46,8.46,0,0,0,7.46,5.38h.21q35.1,41.35,66.45,85.24,5.53,7.75,11,15.6v-29q-30.54-42.39-64.68-82.54c4-4.38,10.38-9.73,19.23-11.59l.46-.08q23.28,27.51,45,56.12V591.2q-10-12.74-20.31-25.24a89.77,89.77,0,0,1,17.49,10.21c.94.69,1.88,1.43,2.82,2.21V558.24c-17.45-10.89-34-14.73-49.38-11.42a52,52,0,0,0-23.8,12.35c-.68-3-1.33-6.39-1.85-9.94-2.57-17.37-1-31.4,4.49-40.58,4.21-7,10.78-11.32,20.07-13.16,17.25-3.4,34.56-.3,50.47,8.94v-35q-37.9-41.93-79.1-80.95-6.58-6.24-13.26-12.38,8.19,2.73,17.57,5.49a191.36,191.36,0,0,1,35.87,14.58q19.85,19.65,38.92,40v-34a200.2,200.2,0,0,0-69.72-36c-72.55-21.36-82.86-38.74-92-54.07-4.25-7.17-8.6-14.5-18.19-21.08A191.45,191.45,0,0,1,2136,293.2c29.22,6.13,56.5,19.1,81.11,38.56A242,242,0,0,1,2250,363.5V339a247.81,247.81,0,0,0-22-19.64,218.1,218.1,0,0,0-50.79-30.19,1571.52,1571.52,0,0,0-154.8-118.06,284.53,284.53,0,0,1,30,4.12c7.59,1.43,15,3.12,22.32,5A1585.48,1585.48,0,0,1,2244,319.35c2,1.92,4,3.86,6,5.79V203.81q-6.64-10.71-13.8-20.85a386.29,386.29,0,0,0-26.72-33.66A395.59,395.59,0,0,1,2250,194.23V167.81a384.11,384.11,0,0,0-66-61.15,337.3,337.3,0,0,0-98.82-49.55h14.59a6.42,6.42,0,0,0,1.28.43c34.75,7.09,68,21.92,98.93,44.07a334.26,334.26,0,0,1,50,44.44V129.48a338.72,338.72,0,0,0-42.74-36.63,279.31,279.31,0,0,0-67-35.74h16.21a5.52,5.52,0,0,0,.8.31c36.94,10.54,68.17,30.89,92.68,52V94.63a270.67,270.67,0,0,0-60.72-37.52H2199a5.85,5.85,0,0,0,3.15,1.85c17.42,3.88,33.48,11.21,47.88,20.17V66a184.72,184.72,0,0,0-17.74-8.9h6.21C2242.41,57.92,2246.26,58.92,2250,60.08ZM412.26,2442.58c-.58-1.53-1.11-3.09-1.57-4.69s-.81-3-1.12-4.49a50.28,50.28,0,0,0,2.72,4.39l-1.17-.63A45.85,45.85,0,0,0,412.26,2442.58Zm-354-485.9c.95,14.4,10.51,27.16,27.81,37a108.12,108.12,0,0,0,10,5,1157.16,1157.16,0,0,0,152,182.85,20,20,0,0,0-8.4,7.31c-13.66-21.39-31.39-38.54-52-50.09a133.19,133.19,0,0,0-19.48-9A1158.2,1158.2,0,0,1,37.79,1948.29,96.79,96.79,0,0,0,58.21,1956.68Zm235.67,444.7a9.2,9.2,0,0,0-1.09-.54,200.6,200.6,0,0,0,8.5-21q17,12.58,34.47,24.64c-.06,1-.14,1.93-.18,2.89a135.79,135.79,0,0,0,1.16,24.66q-20.37-13.68-40.21-28.11A8.33,8.33,0,0,0,293.88,2401.38Zm.38,68.46q17.88,12.22,36.12,23.91l3.47,2.18c-11.19,1.56-22.08,3.37-32.6,5.35q-9.58-6.3-19.06-12.76a50.35,50.35,0,0,0,8.83-11.45A59.89,59.89,0,0,0,294.26,2469.84ZM306.21,2363a192,192,0,0,0,4.32-24.66q16.91,12.89,34.25,25.22a137.45,137.45,0,0,0-6.59,22.6Q322,2374.79,306.21,2363ZM305,2240.82c-4.82,18.38-8.39,47.55-10.63,86.69a182,182,0,0,1-25.51,82.59,231.48,231.48,0,0,0,8.48-32.9c.1-.57.19-1.14.29-1.71a5.35,5.35,0,0,0,.47-2.26c0-.15,0-.31,0-.46a255,255,0,0,0,1.52-68c3.15-45.08,9.62-67.64,9.71-67.95a5.46,5.46,0,0,0-2.82-6.37,6.12,6.12,0,0,0-7.19,1.12,92.81,92.81,0,0,0-11.82,15.87,258.6,258.6,0,0,0-15.78-39.29c.26-7.71,2.13-11.32,3.89-12.12,4.12-1.88,15.11,3.39,21.18,8a8.91,8.91,0,0,0,7.78,1.43c9.82-2.79,23.15-4.91,30.92.83a17.37,17.37,0,0,1,5.77,8C314.1,2216.91,309,2225.22,305,2240.82Zm-21.22-52a74.85,74.85,0,0,0-8.66-4.84l-1.15-.52a1147.21,1147.21,0,0,1-152.25-177c.59.1,1.16.19,1.67.25L133,2000a105.75,105.75,0,0,1,3-12.78,1123.29,1123.29,0,0,0,155.88,182.35q9.44,8.94,19.07,17.65C303.12,2185.81,294.05,2186.35,283.73,2188.86ZM82.14,1834.1A55.58,55.58,0,0,0,70.72,1812c13.47,11.45,22.54,29,24.24,47.66,1.79,19.56-4.73,37.54-17.9,49.35-20.5,18.38-39.84,15.68-49.68,12.36a17.84,17.84,0,0,1,4.45-5.26,56.42,56.42,0,0,0,36.71-18.27C83.54,1881.49,88.63,1857.65,82.14,1834.1Zm-72,56.27a13,13,0,0,1,5.31-13,72.59,72.59,0,0,1-.86,7.86,7.83,7.83,0,0,0,2.37,7.11,8.84,8.84,0,0,0,7.51,2.24c.67-.11,16.37-2.87,25.72-16.34,6.94-10,8.5-22.8,4.66-38.07-3.19-12.68-12.68-23.15-25.74-29.69a48.74,48.74,0,0,1,17.34,3.76c9.61,4.26,15.88,12.08,19.13,23.91,5.08,18.4,1.35,36.76-10,49.12a39.52,39.52,0,0,1-23.23,12.47l0-.73a17.31,17.31,0,0,0-5.22,1.23,47.55,47.55,0,0,1-6.61-.23A11.55,11.55,0,0,1,10.18,1890.37Zm16.29,47.72-.88,1c-.55-.53-1.09-1.07-1.59-1.61C24.8,1937.67,25.63,1937.88,26.47,1938.09Zm-4,61.24A212.19,212.19,0,0,1,20,1951.88c0-.22,0-.43,0-.64a1171.15,1171.15,0,0,0,120.15,171.57,141.27,141.27,0,0,0-30-1q-24.52-30.09-47-61.52Q41.86,2030.45,22.45,1999.33Zm16.27,55.27q5.13,7.41,10.35,14.77,20.07,28.13,41.86,55.21c-2.16.46-4.32,1-6.47,1.51a261.74,261.74,0,0,1-45.74-71.49Zm-20,438.8a88.73,88.73,0,0,1-8.21,7.72c7.48-38.64,13.58-88.69,15.33-152.32a90,90,0,0,0,12.85,7.64C36.34,2399.43,30.68,2448,18.76,2493.4Zm27.31-28.57a7.81,7.81,0,0,0-3.13-.95c6.75-34.3,10.53-69.07,12.5-101.05.41.12.82.25,1.24.36,4,1.12,8,2,11.8,2.63-3,31.69-8.61,67-18.7,101.29C48.57,2466.31,47.34,2465.54,46.07,2464.83Zm19.75,17.84c-.72-1-1.45-2-2.2-2.88,9.28-29.32,17.5-66.37,21.84-112.2,1.91.08,3.68.11,5.29.11,3.74,0,6.63-.16,8.37-.3C94.42,2402.49,84.82,2443.82,65.82,2482.67Zm4.05,114.88,2.8-3.15,1.19,1Q71.85,2596.47,69.87,2597.55Zm20-124c-.69.61-1.38,1.22-2.08,1.82,16.65-38.7,25-78.62,29.08-112.25a83.72,83.72,0,0,0,9.68-4C124.7,2378.66,117.53,2420.91,89.86,2473.51Zm37.07-134c-6.9,5.34-16.51,9.37-28.34,11.71a111.4,111.4,0,0,1-37.65-3.69c-13.68-3.87-24.86-10.28-33.52-19.11,1.29.61,2.59,1.2,3.93,1.76A100.57,100.57,0,0,0,70,2338.08a95.7,95.7,0,0,0,23.68-3,5.57,5.57,0,0,0,4.26-6.4,5.86,5.86,0,0,0-6.41-4.51,105.89,105.89,0,0,1-32.6-2.9c-.3-.07-.58-.16-.88-.25a87.23,87.23,0,0,0,32.06-10.38,5.4,5.4,0,0,0,2.26-6.87,6,6,0,0,0-6.79-3.24c-18.58,4.24-32.12,2.91-41.68-.18.41-.05.81-.1,1.21-.17,13.5-2.38,19.71-13.08,22.57-22.11.55-.9,1-1.74,1.52-2.52q1-.3,2.19-.54c0,.13,0,.26,0,.39l.62-.52c10.75-2,28.3-.72,42.35,7,17.32,9.56,26.91,25,24.42,39.3-1.19,6.84-5.06,12.88-11.23,17.84h-.62Zm17.29,7.14v-.5a46.8,46.8,0,0,0,6.54-9c0,6-.2,12.32-.81,18.88q-3.47,37.59-20.6,68.77C144.94,2378.71,144.28,2348.55,144.22,2346.67Zm.6,200.21q2.55-2.91,5.12-6,3.24-3.71,6.42-7.83a341.19,341.19,0,0,0,29.24-36.29c27.39-39.2,58.92-103,54.56-185.13-.06-1.54-.14-2.48-.16-2.73a5.77,5.77,0,0,0-6.27-5.11,5.68,5.68,0,0,0-5.47,5.88l.09,1.41a141.9,141.9,0,0,1-5.43,44.21c0-32.88-6.22-66.22-18.72-99.6a6,6,0,0,0-7.41-3.42,5.51,5.51,0,0,0-3.75,7c.14.42,13.7,42.21,7.39,100.94a296.18,296.18,0,0,1-18.33,75.39,246.54,246.54,0,0,0,6.79-27.69c6.81-37.43,2.73-71-12.12-99.65-15.09-29.16-33.67-50-55.21-62.05a87.61,87.61,0,0,0-60.07-9.89,94.06,94.06,0,0,0-43.28,21.3c2.7-18.49,10.07-32.48,22-41.74,28.94-22.39,76.14-10.49,76.62-10.37A6,6,0,0,0,124,2202a5.46,5.46,0,0,0-3.12-7c-31.76-13.52-65-12.79-91.16,2-2.16,1.22-4.23,2.53-6.21,3.9,12-13.74,29.37-23.21,51.85-28.25a169.15,169.15,0,0,1,49.74-3.23,5.86,5.86,0,0,0,6.48-4.42,5.57,5.57,0,0,0-4.15-6.46c-29.11-7.87-54.16-8.37-74.78-1.54q4.85-3,10.17-5.61a130,130,0,0,1,58-14.06A118.32,118.32,0,0,1,179,2152.62c22.33,12.55,40.3,31.84,53.41,57.34,14.71,28.62,22.5,63.74,23.14,104.39C257.41,2435.34,199.29,2503.43,144.82,2546.88Zm69-45.53a275.26,275.26,0,0,0,17.54-25.49,8.56,8.56,0,0,0,3.36-1.44c.27-.2,2.79-2,6.77-5.47,12.05-.72,26.33-6.39,39.3-24.14a45.26,45.26,0,0,1-5,25c-3.23,6.12-15.26,19.86-59.45,43.1-7.61,4-15.08,7.71-21.85,11C201.08,2516.87,207.56,2509.37,213.77,2501.35Zm64.82,4.58c-10.09,2.25-19.77,4.61-28.95,7,7-4.33,13.74-8.81,19.7-13.34C272.42,2501.74,275.5,2503.85,278.59,2505.93Zm-75.66,38.28c33.22-11.39,82.45-25.57,138.56-33a109.85,109.85,0,0,0,12.23,6.09C310.5,2520.67,260.37,2527.55,202.93,2544.21Zm152.51-61a109.42,109.42,0,0,0,6.82,9.36l-2.4.23c-6.67-4.11-13.33-8.26-19.92-12.47q-21.31-13.63-42.11-28c.49-9.15-1-17.41-2.27-24.3-.28-1.55-.6-3.35-.87-5.13q23.37,16.7,47.44,32.41A119.31,119.31,0,0,0,355.44,2483.25Zm-3.67-134.94q-20.2-14.46-39.81-29.68c.65-9.93,1.38-18.77,2.15-26.63q24.39,19.47,49.71,37.66A134.25,134.25,0,0,0,351.77,2348.31Zm22.89-31.1q-29.81-21.4-58.31-44.59c1.47-10.9,3-19.1,4.48-25.27q34.62,28.82,71.25,55A138.46,138.46,0,0,0,374.66,2317.21Zm32.44-24.44q-40.2-28.36-78-60a9.4,9.4,0,0,0,4.23.09,8.35,8.35,0,0,0,6.56-7.64A43.5,43.5,0,0,0,338,2211a1160.81,1160.81,0,0,0,92.7,71.1A161.81,161.81,0,0,0,407.1,2292.77Zm60.84-19.95c-5.79.85-11.43,1.94-16.93,3.23a1146.36,1146.36,0,0,1-147.14-117.89,1105.83,1105.83,0,0,1-160.34-189.67c2.69-4.76,5.79-8.71,9.27-10.91a29.09,29.09,0,0,0,6.68-6.13,1082.34,1082.34,0,0,0,160.7,191.27A1122.38,1122.38,0,0,0,483.68,2271Q475.91,2271.65,467.94,2272.82Zm198.26,93.7c4.4,1.82,8.8,3.64,13.23,5.41,5.7,2.28,11.41,4.49,17.13,6.67a62.23,62.23,0,0,0-8.93,20.14l-7.46-2.87A215.3,215.3,0,0,0,666.2,2366.52Zm48.69,143.17a33.39,33.39,0,0,1,11.68,1.89c-6,5.24-13.51,13-17.78,22.12-.62,1.34-1.27,2.92-2,4.76-5.81,14.17-18.7,45.64-64.48,60.14,28.62-18.1,45.33-43.23,48.62-73.32C694.94,2519.86,704.62,2509.69,714.89,2509.69ZM750.77,2351a70.33,70.33,0,0,1,4.56,13.76,8.17,8.17,0,0,0,4.95,5.92,9,9,0,0,0,7.94-.51c23.51-13.81,44.23-8.47,55.78,1.13,12.2,10.15,15.78,25.64,9.13,39.47-3.25,6.79-12.53,10.14-20.47,11.64a15.79,15.79,0,0,0-4.51-6.81c-12.4-11.37-48.77-12.75-75.35,11.07-6.95,6.23-14.19,14.73-21.25,24.18a346.17,346.17,0,0,1,18.51-31.5c11.36-17,18.78-23.77,18.86-23.83a4.82,4.82,0,0,0,.57-6.64,5.48,5.48,0,0,0-6.89-1.32c-1.47.81-24.06,13.46-41.17,33.35,2.33-33.17,15-40.79,25.45-47.12a72,72,0,0,0,8.91-6A80.39,80.39,0,0,0,750.77,2351ZM177.94,1906.9a1040.28,1040.28,0,0,0,170.62,209C448.67,2210.6,565.25,2285,695.05,2336.94q17.43,7,35.05,13.34a55.09,55.09,0,0,1-5.55,5.32,56.29,56.29,0,0,1-6.84,4.53,103.85,103.85,0,0,0-8.72,5.8q-11.49-4.3-22.91-8.87-18.41-7.36-36.44-15.34A192.29,192.29,0,0,0,613.57,2306c-29-21.8-62.51-33.7-100-35.57a1106.67,1106.67,0,0,1-181.34-139.12,1065,1065,0,0,1-163.19-195.94A137.74,137.74,0,0,0,177.94,1906.9Zm-37.25-101.58c27,33.17,24.92,73.47,21.25,94.53-4.49,25.85-14.33,41.61-18.6,44.3-15.15,9.56-22.49,32.34-25.51,45-14.65-3.92-37.71-13.91-42-29.69.73,0,1.46,0,2.2,0a64.38,64.38,0,0,0,8.47-.55c19.13-2.54,35.55-13.57,48.78-32.78,22.11-32.09,20.66-85.34-3.38-123.86a111.67,111.67,0,0,0-9.16-12.65A79.24,79.24,0,0,1,140.69,1805.32ZM115,984.91A983.74,983.74,0,0,0,103.8,1762,169.43,169.43,0,0,0,76,1754.28,1004.71,1004.71,0,0,1,93.68,976.42,1033.38,1033.38,0,0,1,190,806.25l10.78,10.2L201.94,829A1011,1011,0,0,0,115,984.91ZM1826.13,2433.4c-.32,1.5-.69,3-1.12,4.49s-1,3.16-1.57,4.69a44.31,44.31,0,0,0,1.13-5.42s-.42.24-1.17.63A50.37,50.37,0,0,0,1826.13,2433.4Zm407.54-271.87a126.51,126.51,0,0,0,13.69-6.24c-1.21,14.28-2.52,31.57-3.71,51.07a114.5,114.5,0,0,0-11.78-24.73C2232.52,2173.65,2233.14,2166.88,2233.67,2161.53Zm-740.58,226a5.48,5.48,0,0,0-6.89,1.32,4.83,4.83,0,0,0,.58,6.64c.07.06,7.5,6.85,18.85,23.83a345.86,345.86,0,0,1,18.52,31.5c-7.07-9.45-14.31-17.95-21.26-24.18-26.57-23.82-63-22.44-75.35-11.07a15.68,15.68,0,0,0-4.5,6.81c-8-1.5-17.22-4.85-20.48-11.64-6.65-13.83-3.06-29.32,9.13-39.47,11.55-9.6,32.27-14.94,55.78-1.13a9,9,0,0,0,8,.51,8.14,8.14,0,0,0,4.94-5.92,70.79,70.79,0,0,1,4.57-13.76,80.39,80.39,0,0,0,15,16.79,71.9,71.9,0,0,0,8.9,6c10.49,6.33,23.13,13.95,25.46,47.12C1517.16,2401,1494.56,2388.33,1493.09,2387.52Zm100.32,211.08c-45.78-14.5-58.67-46-64.48-60.14-.75-1.84-1.4-3.42-2-4.76-4.26-9.08-11.8-16.88-17.78-22.12a33.48,33.48,0,0,1,11.68-1.89c10.28,0,20,10.17,24,15.59C1548.08,2555.37,1564.79,2580.5,1593.41,2598.6Zm-37.88-202.73-7.46,2.87a62,62,0,0,0-8.94-20.14c5.73-2.18,11.44-4.39,17.13-6.67,4.43-1.77,8.84-3.59,13.24-5.41A213,213,0,0,0,1555.53,2395.87Zm166.57-125.44c-37.47,1.87-71,13.77-100,35.57a192.59,192.59,0,0,0-36.07,35.72q-18,8-36.43,15.34-11.43,4.56-22.92,8.87a103.85,103.85,0,0,0-8.72-5.8,57.09,57.09,0,0,1-6.84-4.53,56.18,56.18,0,0,1-5.55-5.32q17.61-6.37,35.05-13.34c129.81-52,246.39-126.34,346.5-221.07a1040.23,1040.23,0,0,0,170.61-209,137.74,137.74,0,0,0,8.89,28.47,1065.42,1065.42,0,0,1-163.19,195.94A1106.75,1106.75,0,0,1,1722.1,2270.43Zm45.65,2.39q-8-1.17-15.74-1.83a1122.38,1122.38,0,0,0,163.5-128.27,1082.34,1082.34,0,0,0,160.7-191.27,29.29,29.29,0,0,0,6.68,6.13c3.48,2.2,6.59,6.15,9.27,10.91a1105.38,1105.38,0,0,1-160.34,189.67,1145,1145,0,0,1-147.14,117.89C1779.18,2274.76,1773.54,2273.67,1767.75,2272.82Zm178.67-36c.1.31,6.56,22.87,9.72,67.95a254.61,254.61,0,0,0,1.52,68c0,.15,0,.31,0,.46a5.21,5.21,0,0,0,.47,2.26c.1.57.18,1.14.29,1.71a230.14,230.14,0,0,0,8.48,32.9,182,182,0,0,1-25.52-82.59c-2.23-39.14-5.81-68.31-10.63-86.69-4.08-15.6-9.14-23.91-16.24-26.57a17.35,17.35,0,0,1,5.76-8c7.77-5.74,21.1-3.62,30.92-.83A8.9,8.9,0,0,0,1959,2204c6.07-4.59,17.07-9.86,21.19-8,1.76.8,3.62,4.41,3.88,12.12a258.6,258.6,0,0,0-15.78,39.29,92.22,92.22,0,0,0-11.82-15.87,6.12,6.12,0,0,0-7.19-1.12A5.47,5.47,0,0,0,1946.42,2236.79Zm-46.3,170.6c0-1-.13-1.92-.19-2.89q17.44-12,34.48-24.64a198.45,198.45,0,0,0,8.5,21,8.5,8.5,0,0,0-1.09.54,8.26,8.26,0,0,0-2.66,2.56q-19.85,14.4-40.21,28.11A136.7,136.7,0,0,0,1900.12,2407.39Zm-2.61-21.26a139.44,139.44,0,0,0-6.59-22.6q17.32-12.34,34.25-25.22a192,192,0,0,0,4.31,24.66Q1913.67,2374.78,1897.51,2386.13Zm47.16,90.94a50.71,50.71,0,0,0,8.84,11.45q-9.48,6.46-19.06,12.76c-10.52-2-21.41-3.79-32.61-5.35l3.47-2.18q18.26-11.67,36.13-23.91A59.78,59.78,0,0,0,1944.67,2477.07Zm17.11-293.57-1.16.52a76.58,76.58,0,0,0-8.66,4.84c-10.31-2.51-19.38-3.05-27.15-1.64q9.63-8.71,19.08-17.65a1123.72,1123.72,0,0,0,155.87-182.35,105.75,105.75,0,0,1,2.95,12.78l9.64,6.8c.51-.06,1.08-.15,1.68-.25A1147.76,1147.76,0,0,1,1961.78,2183.5ZM1805,2282.09a1162.77,1162.77,0,0,0,92.71-71.1,43.19,43.19,0,0,0-2,14.2,8.32,8.32,0,0,0,6.56,7.64,9.36,9.36,0,0,0,4.22-.09q-37.75,31.64-78,60A162.41,162.41,0,0,0,1805,2282.09Zm38.61,20.21q36.63-26.12,71.24-55c1.47,6.17,3,14.37,4.49,25.27q-28.5,23.18-58.31,44.59A139.17,139.17,0,0,0,1843.62,2302.3Zm28.26,27.36q25.3-18.21,49.7-37.66c.78,7.86,1.5,16.7,2.16,26.63q-19.6,15.21-39.81,29.68A136.1,136.1,0,0,0,1871.88,2329.66Zm1.56,163a113.92,113.92,0,0,0,6.82-9.36,120.11,120.11,0,0,0,13.31-27.94q24.06-15.7,47.44-32.41c-.28,1.78-.6,3.58-.88,5.13-1.25,6.89-2.75,15.15-2.27,24.3q-20.79,14.39-42.1,28-9.9,6.32-19.93,12.47Zm8.53,24.71a111.29,111.29,0,0,0,12.24-6.09c56.1,7.41,105.33,21.59,138.56,33C1975.32,2527.55,1925.2,2520.67,1882,2517.32Zm75.13-11.39c3.1-2.08,6.18-4.19,9.26-6.3,6,4.53,12.66,9,19.69,13.34C1976.87,2510.54,1967.2,2508.18,1957.1,2505.93Zm62.28,7c-44.19-23.24-56.21-37-59.45-43.1a45.33,45.33,0,0,1-5-25c13,17.75,27.24,23.42,39.3,24.14,4,3.44,6.5,5.27,6.77,5.47a8.58,8.58,0,0,0,3.35,1.44,277.22,277.22,0,0,0,17.54,25.49c6.22,8,12.69,15.52,19.32,22.55C2034.46,2520.66,2027,2517,2019.38,2513Zm87-88.1q-17.1-31.14-20.61-68.77c-.6-6.56-.84-12.88-.81-18.88a46.88,46.88,0,0,0,6.55,9l0,.5C2091.41,2348.55,2090.75,2378.71,2106.36,2424.85Zm1.81-85.78c-6.17-5-10.05-11-11.23-17.84-2.49-14.31,7.09-29.74,24.42-39.3,14-7.76,31.59-9.09,42.35-7l.61.52c0-.13,0-.26,0-.39q1.15.24,2.19.54l1.52,2.52c2.87,9,9.08,19.73,22.57,22.11.4.07.81.12,1.21.17-9.56,3.09-23.1,4.42-41.67.18a6,6,0,0,0-6.8,3.24,5.41,5.41,0,0,0,2.27,6.87,87.14,87.14,0,0,0,32.05,10.38c-.29.09-.57.18-.87.25a106,106,0,0,1-32.61,2.9,5.84,5.84,0,0,0-6.4,4.51,5.56,5.56,0,0,0,4.25,6.4,95.78,95.78,0,0,0,23.69,3,100.61,100.61,0,0,0,38.62-7.88c1.33-.56,2.64-1.15,3.93-1.76-8.67,8.83-19.85,15.24-33.52,19.11a111.42,111.42,0,0,1-37.65,3.69c-11.84-2.34-21.45-6.37-28.34-11.71v-.45Zm37.66,134.44c-27.66-52.6-34.83-94.85-36.68-114.47a83.17,83.17,0,0,0,9.69,4c4.06,33.63,12.43,73.55,29.08,112.25C2147.21,2474.73,2146.52,2474.12,2145.83,2473.51Zm16,121.89,1.19-1c.95,1.06,1.88,2.12,2.81,3.15C2164.51,2596.83,2163.17,2596.11,2161.83,2595.4Zm8.05-112.73c-19-38.85-28.6-80.18-33.31-115.27,1.74.14,4.63.3,8.37.3,1.61,0,3.39,0,5.29-.11,4.35,45.83,12.57,82.88,21.85,112.2C2171.32,2480.72,2170.59,2481.69,2169.88,2482.67Zm19.74-17.84c-1.27.71-2.5,1.48-3.71,2.28-10.09-34.33-15.7-69.6-18.7-101.29,3.79-.65,7.75-1.51,11.81-2.63l1.24-.36c2,32,5.74,66.75,12.49,101.05A7.91,7.91,0,0,0,2189.62,2464.83Zm27.31,28.57c-11.92-45.43-17.58-94-20-137a90,90,0,0,0,12.85-7.64c1.74,63.63,7.84,113.68,15.32,152.32A90,90,0,0,1,2216.93,2493.4Zm-4.7-292.44c-2-1.37-4.06-2.68-6.21-3.9-26.18-14.79-59.4-15.52-91.17-2a5.46,5.46,0,0,0-3.12,7,6,6,0,0,0,7.1,3.48c.47-.12,47.67-12,76.61,10.37,12,9.26,19.35,23.25,22,41.74a94.15,94.15,0,0,0-43.29-21.3,87.59,87.59,0,0,0-60.06,9.89c-21.55,12-40.12,32.89-55.22,62.05-14.85,28.69-18.92,62.22-12.12,99.65a243.8,243.8,0,0,0,6.8,27.68,296.44,296.44,0,0,1-18.34-75.38c-6.31-58.73,7.25-100.52,7.39-100.94a5.51,5.51,0,0,0-3.74-7,6,6,0,0,0-7.41,3.42c-12.5,33.38-18.76,66.72-18.73,99.6a141.78,141.78,0,0,1-5.42-44.21c0-.46.05-.94.08-1.41a5.68,5.68,0,0,0-5.46-5.88,5.78,5.78,0,0,0-6.28,5.11c0,.25-.09,1.19-.16,2.73-4.36,82.13,27.17,145.93,54.56,185.13a339.93,339.93,0,0,0,29.25,36.29q3.18,4.13,6.41,7.83,2.57,3,5.12,6c-54.46-43.45-112.58-111.54-110.67-232.53.64-40.65,8.42-75.77,23.13-104.39,13.11-25.5,31.08-44.79,53.41-57.34a118.32,118.32,0,0,1,58.18-15.23,130.06,130.06,0,0,1,58,14.06q5.31,2.64,10.17,5.61c-20.62-6.83-45.67-6.33-74.78,1.54a5.55,5.55,0,0,0-4.15,6.46,5.85,5.85,0,0,0,6.47,4.42,169.15,169.15,0,0,1,49.74,3.23C2182.86,2177.75,2200.2,2187.22,2212.23,2201ZM2184,2080.58a258.69,258.69,0,0,1-32.8,45.51c-2.16-.56-4.32-1.05-6.48-1.51q21.75-27.07,41.86-55.21,5.25-7.35,10.35-14.77A258.72,258.72,0,0,1,2184,2080.58Zm29.21-81.25q-19.42,31.08-40.76,61-22.42,31.41-47,61.52a141.34,141.34,0,0,0-30,1,1171.15,1171.15,0,0,0,120.15-171.57c0,.21,0,.42,0,.64A213.38,213.38,0,0,1,2213.25,1999.33Zm-4-61.24c.84-.21,1.67-.42,2.47-.65-.51.54-1,1.08-1.59,1.61Zm-39.16-99.91c3.26-11.83,9.52-19.65,19.14-23.91a48.69,48.69,0,0,1,17.34-3.76c-13.06,6.54-22.56,17-25.74,29.69-3.85,15.27-2.28,28.08,4.65,38.07,9.35,13.47,25.06,16.23,25.72,16.34a8.84,8.84,0,0,0,7.51-2.24,7.81,7.81,0,0,0,2.38-7.11,74,74,0,0,1-.87-7.86,13,13,0,0,1,5.32,13,11.55,11.55,0,0,1-10.38,9.67,47.4,47.4,0,0,1-6.6.23,17.34,17.34,0,0,0-5.23-1.23l0,.73a39.46,39.46,0,0,1-23.22-12.47C2168.73,1874.94,2165,1856.58,2170.07,1838.18Zm-11.44,70.87c-13.16-11.81-19.69-29.79-17.9-49.35,1.71-18.66,10.77-36.21,24.24-47.66a55.44,55.44,0,0,0-11.41,22.06c-6.49,23.55-1.41,47.39,13.6,63.78a56.39,56.39,0,0,0,36.7,18.27,17.84,17.84,0,0,1,4.45,5.26C2198.47,1924.73,2179.13,1927.43,2158.63,1909.05Zm18.86,47.63a96.47,96.47,0,0,0,20.41-8.39,1158.14,1158.14,0,0,1-130.38,181.49,133.3,133.3,0,0,0-19.49,9c-20.55,11.55-38.28,28.7-51.94,50.09a20,20,0,0,0-8.41-7.31,1157.16,1157.16,0,0,0,152-182.85,106.88,106.88,0,0,0,10-5C2167,1983.84,2176.54,1971.08,2177.49,1956.68Zm-73.73-154.37c-24,38.52-25.49,91.77-3.38,123.86,13.24,19.21,29.65,30.24,48.79,32.78a64.27,64.27,0,0,0,8.47.55c.73,0,1.46,0,2.19,0-4.26,15.78-27.32,25.77-42,29.69-3-12.66-10.36-35.44-25.51-45-4.28-2.69-14.12-18.45-18.61-44.3-3.66-21.06-5.77-61.36,21.26-94.53a79,79,0,0,1,17.91-15.66A112.92,112.92,0,0,0,2103.76,1802.31Zm-68.87-985.88,10.77-10.19A1033.21,1033.21,0,0,1,2142,976.42a1004.59,1004.59,0,0,1,17.71,777.86,169.31,169.31,0,0,0-27.82,7.73,983.74,983.74,0,0,0-11.15-777.1,1011.87,1011.87,0,0,0-87-155.94Zm-204-759.32c-1.75.61-3.5,1.22-5.24,1.85l-3.88-1.85Zm-9.56,21c-31.06,18.41-52.87,42.31-67.55,63.34-27.94,40-36.48,77.52-36.83,79.1a7.62,7.62,0,0,0,.54,4.89,41.12,41.12,0,0,1-31.14,2.89c9.21-9.75,23-28,34-57.79,12.87-35,44.21-65.85,88.23-86.78Q1814.81,80.76,1821.31,78.08ZM1739.8,316.73A1317.74,1317.74,0,0,0,1618.74,261q-18.6-7.46-37.4-14.3,3.32-10.5,6.64-21,20,7.28,39.74,15.17,54.21,21.69,106.42,48.1A184.24,184.24,0,0,0,1739.8,316.73ZM1783,57.11q11.13,5,22.18,10.2-2.16,1-4.29,2-10.68,5.08-20.43,10.89-26.34-12-53.1-23.08Zm-99.74,0q11.31,4.32,22.57,8.81,29.46,11.79,58.41,24.84A202.12,202.12,0,0,0,1745,106.33Q1721.1,95.77,1696.85,86,1658,70.47,1618.39,57.11Zm-118,0q63.27,19.14,124.93,43.8,21.4,8.57,42.54,17.83a157.55,157.55,0,0,0-14,18q-18.69-8.08-37.56-15.66a1500,1500,0,0,0-198.91-63.92Zm-158.06,0a1482,1482,0,0,1,267.37,78.79q18,7.23,35.9,14.95a131.48,131.48,0,0,0-6.29,14.35c-.75,2.05-1.52,4-2.3,6q-18-7.82-36.29-15.12a1461.87,1461.87,0,0,0-414.08-98.92ZM1659,170.9q18.19,7.28,36.19,15.09a154.92,154.92,0,0,1-11.44,19.07q-16.77-7.25-33.73-14c-168.1-67.29-346.61-101.57-530.61-102h-3c-184,.38-362.52,34.66-530.62,102q-17,6.78-33.72,14A154.87,154.87,0,0,1,540.54,186q18-7.8,36.2-15.09c171.4-68.61,353.44-103.48,541.11-103.66C1305.51,67.42,1487.56,102.29,1659,170.9ZM984.18,57.11A1461.86,1461.86,0,0,0,570.09,156q-18.24,7.29-36.28,15.12c-.78-1.93-1.55-3.9-2.31-6a129.5,129.5,0,0,0-6.28-14.35q17.85-7.71,35.9-14.95A1481.62,1481.62,0,0,1,828.48,57.11Zm-230.8,0A1500,1500,0,0,0,554.47,121q-18.88,7.56-37.56,15.66a158.8,158.8,0,0,0-14-18q21.15-9.24,42.54-17.83,61.63-24.66,124.93-43.8Zm-200.93,0h64.86Q577.76,70.51,538.85,86q-24.26,9.7-48.17,20.29a203.24,203.24,0,0,0-19.21-15.57q28.95-13,58.4-24.84Q541.14,61.42,552.45,57.11Zm-99.75,0h55.64q-26.74,11-53.09,23.08Q445.5,74.4,434.81,69.3l-4.28-2Q441.57,62.14,452.7,57.11ZM427.15,83.73c44,20.93,75.36,51.75,88.24,86.78,11,29.81,24.77,48,34,57.79a41.12,41.12,0,0,1-31.14-2.89,7.62,7.62,0,0,0,.54-4.89c-.35-1.58-8.89-39.09-36.83-79.1-14.68-21-36.49-44.93-67.54-63.34Q420.89,80.77,427.15,83.73ZM501.56,289q52.11-26.34,106.42-48.1,24.56-9.82,49.41-18.66l6.63,21Q640.35,251.65,617,261a1319,1319,0,0,0-121.06,55.73A184.27,184.27,0,0,0,501.56,289ZM413.94,57.11,410.06,59c-1.74-.63-3.48-1.24-5.24-1.85ZM139,273a209,209,0,0,0-40.46,3.93,1558,1558,0,0,1,145-106.09,177,177,0,0,1,31.58,6.23q-6,3.76-12.05,7.6Q198.86,225.72,139,273Zm146.48-56.84q-47.52,30.38-92.6,64.32a160.61,160.61,0,0,0-29-6Q216.52,234,272.62,198.05q10.83-6.92,21.81-13.64a79.38,79.38,0,0,1,19,14.34Q299.39,207.32,285.51,216.17Zm44.28,37.12a49.41,49.41,0,0,1-2.17,6.56,17.33,17.33,0,0,1-2.07,2.62,47.37,47.37,0,0,0-6.49-2.42Q324.4,256.65,329.79,253.29ZM67.82,496a43.19,43.19,0,0,0-18.27-13.42q27-28.65,55.68-55.79a1417.35,1417.35,0,0,1,116.16-98.53,94.06,94.06,0,0,1,16.23,15.63A1399.3,1399.3,0,0,0,121.55,442.2Q93.92,468.35,67.82,496Zm82.1-26.93q-37,35.07-71.25,72.83c.71-9.92.23-20.55-2.77-30.24q27.94-29.83,57.71-58a1381.11,1381.11,0,0,1,113.25-96.05A139.83,139.83,0,0,0,260.78,375,1357.71,1357.71,0,0,0,149.92,469.05Zm243.47-73c-37.53,8.71-70.39,4.27-97.68-13.18a119.68,119.68,0,0,1-37.41-38.64,101.65,101.65,0,0,0-22.79-25.92,110.26,110.26,0,0,1,23.37,5A8.94,8.94,0,0,0,267,322a7.87,7.87,0,0,0,3.21-7.14c-1.41-13.34,1.33-24,7.92-30.93,7.62-8,19-9.64,27.14-9.64,15.09,0,23.79,10,27.75,16.31-5.82,5.9-12.91,17.27-8.16,35.27,5.5,20.83,23.67,33.89,45.72,33.89a58.05,58.05,0,0,0,9.19-.74,64.83,64.83,0,0,0,20.42-6.9c14.15-4.58,26.34-14.56,35.87-29.56,13.64-21.48,20.07-50.61,19.25-79.37,5.68,25.36,4.53,50.58-3.95,73-10.19,26.94-29.67,45.79-54.84,53.07C329.85,388.51,296,340,295.67,339.54a6.07,6.07,0,0,0-8.13-1.67,5.38,5.38,0,0,0-1.76,7.69c.39.58,9.88,14.36,28.7,25.49a100.28,100.28,0,0,0,51.46,13.88,121.77,121.77,0,0,0,34-5c28.83-8.33,51-29.62,62.49-59.95,16.75-44.29,7.32-98.4-25.24-144.74-.06-.08-.13-.14-.18-.21s-.27-.32-.41-.47-.23-.23-.35-.33-.31-.25-.47-.37-.26-.18-.4-.26l-.54-.27a3.3,3.3,0,0,0-.43-.19,4.17,4.17,0,0,0-.63-.18,2.79,2.79,0,0,0-.39-.1,5.25,5.25,0,0,0-.88-.09l-.2,0a6.53,6.53,0,0,0-1.07.09c-.15,0-.29.08-.44.12a5.73,5.73,0,0,0-.56.14l-.07,0c-.14,0-.27.13-.41.19a5.76,5.76,0,0,0-.61.3l-.12.06c-.09.06-.16.13-.24.19s-.36.26-.52.4l-.34.33c-.13.14-.26.29-.38.44s-.19.26-.28.4a3.84,3.84,0,0,0-.27.49c-.07.14-.14.27-.2.41a3.89,3.89,0,0,0-.18.58,2.62,2.62,0,0,0-.11.4,4.48,4.48,0,0,0-.07.64c0,.13,0,.26,0,.39a4.62,4.62,0,0,0,.06.64c0,.13,0,.27,0,.4a0,0,0,0,1,0,0c.09.45,5.81,28.13,4.21,57.12-3.86-33-17.85-62.27-41.15-85.65a6.11,6.11,0,0,0-7.78-.66,5.38,5.38,0,0,0-1.61,7.23A197,197,0,0,1,400,209.13c5.89,26,5.23,49.43-1.93,69.9-3.25-29.1-14.83-82.37-55.8-115.58a122.17,122.17,0,0,0-41.77-22c4.72-.09,9.15,0,13.19.12a5.8,5.8,0,0,0,6.09-4.81,5.6,5.6,0,0,0-4.5-6.18c-1.44-.31-35.9-7.71-86.17-3.82C193.48,129.51,144.44,138.67,94,164.6c35.14-29.72,81.61-42.64,116.12-48.24a5.63,5.63,0,0,0,4.86-6.1,5.78,5.78,0,0,0-6.16-4.94c-2.77.13-60.27,3.44-125.34,42,21.35-19.17,54.64-39.8,105.32-51.79,65.56-15.51,115-7,144.92,2.88,32.43,10.7,49.62,25.28,49.79,25.42a6.13,6.13,0,0,0,8-.11,5.35,5.35,0,0,0,.43-7.59c-.63-.71-15.81-17.49-50.21-30.44-31.23-11.75-85.21-22.49-165-6.93-36.7,7.16-69.29,20-97.34,38.44q1.62-1.53,3.2-3A244.34,244.34,0,0,1,112,91.4q6.15-3.86,12.49-7.45a308.24,308.24,0,0,1,115.23-25c50.87-1.07,100.11,10.23,142.55,32.68,40.6,21.47,71.35,51.84,86.6,85.52,10.33,22.81,16.44,50.81,17.21,78.84.86,31.4-5.09,60.13-17.19,83.09C453.14,368.92,427.73,388.11,393.39,396.08ZM632.57,296a1276.09,1276.09,0,0,0-178.73,88.2,126,126,0,0,0,30.31-37.94c1.12-2.11,2.16-4.26,3.17-6.42a1298.37,1298.37,0,0,1,136.28-64q22.53-9,45.32-17.18l6.63,21Q653.93,287.44,632.57,296ZM2047,1386.45a833.51,833.51,0,0,1-73,342.24c-46.8,104.71-113.8,198.74-199.14,279.49s-184.7,144.16-295.34,188.44c-114.55,45.85-236.23,69.1-361.67,69.1s-247.12-23.25-361.67-69.1c-110.64-44.28-210-107.68-295.35-188.44S308.49,1833.4,261.69,1728.69a833.35,833.35,0,0,1-73-342.24c0-153.68,42.08-303.53,122.05-435.89H441.4a6.42,6.42,0,0,1,1.22-3.82,772.76,772.76,0,0,1,95.5-108.89c75.3-71.26,163-127.2,260.6-166.27,101.07-40.46,208.44-61,319.12-61s218.05,20.51,319.11,61c97.63,39.07,185.31,95,260.6,166.27a777.07,777.07,0,0,1,93.37,105.86,6.35,6.35,0,0,1,.43,6.85H1925C2004.92,1082.93,2047,1232.77,2047,1386.45Zm-314.13-582C1653,728.84,1560,669.49,1456.39,628c-107.22-42.91-221.12-64.67-338.55-64.67S886.5,585.12,779.29,628c-103.58,41.46-196.6,100.81-276.48,176.41a809.1,809.1,0,0,0-94,105.88,7.19,7.19,0,0,1-5.79,2.85,7.34,7.34,0,0,1-4-1.21,6.46,6.46,0,0,1-1.73-9.31A823.07,823.07,0,0,1,492.82,795c81.18-76.82,175.71-137.13,281-179.26,109-43.62,224.72-65.73,344-65.73s235.08,22.11,344.05,65.73c105.25,42.13,199.78,102.44,281,179.26a828.87,828.87,0,0,1,94,105.36,6.46,6.46,0,0,1-1.68,9.32,7.32,7.32,0,0,1-9.84-1.6A816.41,816.41,0,0,0,1732.87,804.44Zm79.26,126.9a7.32,7.32,0,0,1-9.83-1.65,788.53,788.53,0,0,0-92.08-103.82c-76.94-72.81-166.54-130-266.3-169.9-103.27-41.34-213-62.3-326.08-62.3S895,614.63,791.75,656C692,695.89,602.4,753.06,525.46,825.87A783.08,783.08,0,0,0,431.54,932.3a7.2,7.2,0,0,1-5.82,2.88,7.35,7.35,0,0,1-4-1.19,6.47,6.47,0,0,1-1.79-9.29,798,798,0,0,1,95.55-108.28c78.24-74,169.34-132.16,270.78-172.76,105-42,216.58-63.35,331.59-63.35s226.56,21.31,331.58,63.35c101.44,40.6,192.55,98.73,270.78,172.76A801.46,801.46,0,0,1,1813.87,922,6.44,6.44,0,0,1,1812.13,931.34ZM1755.52,783c-82.83-78.38-179.28-139.91-286.66-182.89-111.17-44.5-229.27-67.06-351-67.06s-239.86,22.56-351,67.06C659.43,643.09,563,704.62,480.16,783A838.69,838.69,0,0,0,386,888.34a7.19,7.19,0,0,1-5.76,2.81,7.31,7.31,0,0,1-4.08-1.23,6.46,6.46,0,0,1-1.67-9.32,851.57,851.57,0,0,1,95.64-107C554.3,694,652.25,631.46,761.32,587.8c112.91-45.19,232.86-68.11,356.52-68.11s243.6,22.92,356.52,68.11c109.07,43.66,207,106.15,291.14,185.76a857.57,857.57,0,0,1,94.29,105.11,6.45,6.45,0,0,1-1.63,9.32,7.32,7.32,0,0,1-9.85-1.54A844.52,844.52,0,0,0,1755.52,783Zm22.65-21.43c-85.78-81.16-185.65-144.89-296.85-189.39-115.11-46.08-237.4-69.44-363.48-69.44S869.46,526.1,754.35,572.18c-111.2,44.51-211.07,108.23-296.84,189.39a869.35,869.35,0,0,0-94.22,104.79,7.19,7.19,0,0,1-5.73,2.78,7.31,7.31,0,0,1-4.12-1.26,6.45,6.45,0,0,1-1.61-9.33,882.71,882.71,0,0,1,95.69-106.43C534.59,669.74,636,605.05,748.85,559.87c116.86-46.77,241-70.49,369-70.49s252.12,23.72,369,70.49c112.89,45.18,214.27,109.87,301.33,192.25A888.32,888.32,0,0,1,1882.75,857a6.45,6.45,0,0,1-1.57,9.33,7.34,7.34,0,0,1-9.86-1.49A875.42,875.42,0,0,0,1778.17,761.57Zm22.65-21.43c-88.72-83.95-192-149.86-307-195.89-119.06-47.66-245.55-71.82-376-71.82s-256.9,24.16-376,71.82c-115,46-218.31,111.94-307,195.89a901.66,901.66,0,0,0-94.32,104.24,7.34,7.34,0,0,1-9.86,1.46,6.46,6.46,0,0,1-1.55-9.34,916.64,916.64,0,0,1,95.75-105.81c90-85.17,194.81-152,311.5-198.75,120.81-48.35,249.15-72.87,381.46-72.87s260.64,24.52,381.45,72.87C1616,578.65,1720.8,645.52,1810.8,730.69a920.48,920.48,0,0,1,94.91,104.62,6.45,6.45,0,0,1-1.52,9.34,7.34,7.34,0,0,1-9.87-1.44A908.57,908.57,0,0,0,1800.82,740.14Zm22.65-21.43c-91.66-86.74-198.38-154.83-317.21-202.39-123-49.24-253.7-74.2-388.42-74.2s-265.41,25-388.42,74.2C610.59,563.88,503.87,632,412.21,718.71A937.83,937.83,0,0,0,317.79,822.4a7.19,7.19,0,0,1-5.68,2.71,7.31,7.31,0,0,1-4.19-1.31,6.44,6.44,0,0,1-1.48-9.34,950.77,950.77,0,0,1,95.79-105.2c92.94-88,201.17-157,321.69-205.25,124.76-49.93,257.29-75.25,393.92-75.25S1387,454.08,1511.76,504c120.51,48.24,228.74,117.29,321.69,205.25a958.7,958.7,0,0,1,95.22,104.36,6.46,6.46,0,0,1-1.46,9.35,7.32,7.32,0,0,1-9.88-1.39A945.06,945.06,0,0,0,1823.47,718.71Zm126.75,82.59a7.33,7.33,0,0,1-9.88-1.34,983.68,983.68,0,0,0-94.22-102.69c-94.6-89.51-204.75-159.79-327.39-208.88-127-50.82-261.84-76.58-400.89-76.58S843.91,437.57,717,488.39C594.31,537.48,484.16,607.76,389.56,697.27A978.51,978.51,0,0,0,295,800.42a7.18,7.18,0,0,1-5.65,2.67,7.28,7.28,0,0,1-4.23-1.33,6.44,6.44,0,0,1-1.42-9.35,991.26,991.26,0,0,1,95.84-104.59c95.89-90.74,207.54-162,331.87-211.74,128.71-51.51,265.44-77.63,406.39-77.63s277.68,26.12,406.39,77.63c124.32,49.76,236,121,331.87,211.74a997.21,997.21,0,0,1,95.53,104.12A6.45,6.45,0,0,1,1950.22,801.3Zm23-21.68a7.34,7.34,0,0,1-9.9-1.28,1024.07,1024.07,0,0,0-94.58-102.5c-97.53-92.3-211.11-164.77-337.56-215.38-130.91-52.4-270-79-413.36-79s-282.45,26.56-413.36,79C578,511.07,464.45,583.54,366.91,675.84a1021,1021,0,0,0-94.62,102.6,7.21,7.21,0,0,1-5.63,2.64,7.29,7.29,0,0,1-4.26-1.36,6.45,6.45,0,0,1-1.36-9.36,1035.71,1035.71,0,0,1,95.89-104C455.76,572.87,570.84,499.44,699,448.15c132.66-53.09,273.58-80,418.86-80s286.2,26.93,418.85,80c128.14,51.29,243.23,124.72,342.06,218.24a1038.89,1038.89,0,0,1,95.84,103.87A6.45,6.45,0,0,1,1973.24,779.62ZM1901.4,645a1084.17,1084.17,0,0,1,96.15,103.62,6.45,6.45,0,0,1-1.3,9.37,7.31,7.31,0,0,1-4.3,1.38,7.2,7.2,0,0,1-5.6-2.61,1068,1068,0,0,0-94.94-102.31c-100.48-95.09-217.48-169.74-347.75-221.88-134.85-54-278.12-81.34-425.82-81.34s-291,27.36-425.83,81.34C561.74,484.67,444.74,559.32,344.26,654.41a1069.05,1069.05,0,0,0-94.72,102.05,7.33,7.33,0,0,1-9.9,1.22,6.44,6.44,0,0,1-1.29-9.37A1083.75,1083.75,0,0,1,334.28,645C436.05,548.65,554.56,473,686.51,420.22c136.61-54.67,281.73-82.4,431.33-82.4s294.72,27.73,431.32,82.4C1681.12,473,1799.63,548.65,1901.4,645ZM1492.75,178.07c-120.57-33.63-245.61-50.75-373.38-51v0h-3v0c-178.59.38-351.84,33.65-515,99q-50,20-98.25,43.94a229.73,229.73,0,0,0-.45-24.37q5-2.42,10-4.78a57.64,57.64,0,0,0,24.49,5.53c9.35,0,19.9-2.29,31.46-8.37a8,8,0,0,0,4.37-6.55,7.91,7.91,0,0,0-3.47-7,55.92,55.92,0,0,1-6.78-6.22q14.74-6.31,29.65-12.28C758.81,139.26,935.6,105.4,1117.85,105.21c182.24.19,359,34.05,525.49,100.68q14.9,6,29.65,12.28a55.44,55.44,0,0,1-6.79,6.22,7.93,7.93,0,0,0-3.47,7,8.05,8.05,0,0,0,4.38,6.55c11.55,6.08,22.1,8.37,31.45,8.37a57.6,57.6,0,0,0,24.49-5.53q5,2.37,10,4.78a229.73,229.73,0,0,0-.45,24.37q-48.21-23.89-98.25-43.94-20.62-8.26-41.48-15.82Q1543.38,192.21,1492.75,178.07ZM1603.12,296q-16.57-6.63-33.31-12.79l6.63-21q17.91,6.57,35.66,13.65a1298.37,1298.37,0,0,1,136.28,64c1,2.16,2,4.31,3.16,6.42a126.19,126.19,0,0,0,30.31,37.94A1276.09,1276.09,0,0,0,1603.12,296ZM2157,541.88q-34.19-37.69-71.26-72.83A1356,1356,0,0,0,1974.91,375a140,140,0,0,0,13.93-17.43,1381,1381,0,0,1,113.24,96.05q29.74,28.14,57.71,58C2156.79,521.33,2156.31,532,2157,541.88Zm10.85-45.9q-26.1-27.6-53.73-53.78a1399.45,1399.45,0,0,0-116.08-98.33,93.72,93.72,0,0,1,16.24-15.63,1418.88,1418.88,0,0,1,116.15,98.53q28.65,27.11,55.69,55.79A43.07,43.07,0,0,0,2167.88,496Zm-87.41-165c5.72,7.76,14.12,16.17,29.78,25.06q24.83,21.45,48.59,43.91,41.58,39.36,79.84,81.89a87.07,87.07,0,0,0-33.62-3.43q-30.22-32.44-62.54-63a1436.7,1436.7,0,0,0-114.18-97.2,7.7,7.7,0,0,0,1.17-3.29,7.83,7.83,0,0,0-2.93-7c-5.08-4.13-12.26-5.71-19.79-5.91q-15.66-11.53-31.63-22.66a42.72,42.72,0,0,0-4.91-6.23A47.61,47.61,0,0,0,1946.69,260q-9.43-6.24-18.94-12.34-11.51-7.35-23.17-14.48c.11-1,.24-2.08.4-3.16a62.49,62.49,0,0,1,3.71-11.23,65.19,65.19,0,0,1,3.54-6.93q14.31,8.69,28.4,17.68A1478.61,1478.61,0,0,1,2080.47,330.94Zm-163.84-70.89a47.37,47.37,0,0,0-6.49,2.42,16.68,16.68,0,0,1-2.06-2.62,48,48,0,0,1-2.17-6.56Q1911.28,256.65,1916.63,260.05Zm126.16,20.44q-45-33.85-92.61-64.32-13.86-8.86-28-17.42a79.78,79.78,0,0,1,19-14.34q11,6.75,21.81,13.64,56,35.82,108.7,76.46A160.38,160.38,0,0,0,2042.79,280.49Zm94.33-3.55a208.94,208.94,0,0,0-40.46-3.93q-59.7-47.13-124-88.33-6-3.84-12-7.6a177.08,177.08,0,0,1,31.57-6.23A1556.68,1556.68,0,0,1,2137.12,276.94Zm102.56,15.76q-53.26-49-111.21-93.3a279.53,279.53,0,0,1,54.63,33.45A285.53,285.53,0,0,1,2239.68,292.7ZM2111.2,84q6.33,3.6,12.49,7.45A243.55,243.55,0,0,1,2153,114.25c1.05,1,2.13,2,3.2,3-28-18.39-60.63-31.28-97.34-38.44-79.76-15.56-133.73-4.82-165,6.93-34.4,13-49.58,29.73-50.21,30.44a5.35,5.35,0,0,0,.43,7.59,6.13,6.13,0,0,0,8,.11c.17-.14,17.37-14.72,49.8-25.42,29.92-9.88,79.35-18.39,144.92-2.88,50.67,12,84,32.62,105.31,51.79-65.06-38.58-122.56-41.89-125.34-42a5.77,5.77,0,0,0-6.15,4.94,5.61,5.61,0,0,0,4.85,6.1c34.51,5.6,81,18.52,116.13,48.24-50.45-25.93-99.5-35.09-135.17-37.84-50.27-3.89-84.72,3.51-86.17,3.82a5.59,5.59,0,0,0-4.49,6.18,5.8,5.8,0,0,0,6.08,4.81c4-.16,8.47-.21,13.2-.12a122,122,0,0,0-41.77,22c-41,33.21-52.55,86.48-55.81,115.58-7.15-20.47-7.82-43.86-1.92-69.9a196.16,196.16,0,0,1,19.87-51.71,5.38,5.38,0,0,0-1.62-7.23,6.12,6.12,0,0,0-7.78.66c-23.29,23.38-37.28,52.65-41.14,85.65-1.61-29,4.11-56.67,4.21-57.12v0c0-.13,0-.27,0-.4s.06-.43.06-.64,0-.26,0-.39,0-.43-.07-.64-.07-.27-.11-.4-.11-.39-.18-.58-.13-.27-.2-.41-.18-.34-.28-.49a3.6,3.6,0,0,0-.28-.4,5.2,5.2,0,0,0-.38-.44l-.33-.33c-.17-.14-.34-.27-.53-.4l-.23-.19a.75.75,0,0,1-.13-.06c-.19-.11-.4-.21-.6-.3s-.28-.14-.42-.19l-.07,0a5.54,5.54,0,0,0-.55-.14l-.45-.12a6.35,6.35,0,0,0-1.07-.09l-.19,0a5.15,5.15,0,0,0-.88.09,2.6,2.6,0,0,0-.4.1,5,5,0,0,0-.63.18,3.3,3.3,0,0,0-.43.19,5.28,5.28,0,0,0-.53.27l-.41.26c-.16.12-.32.24-.47.37a3.51,3.51,0,0,0-.34.33,4.6,4.6,0,0,0-.41.47,1.81,1.81,0,0,0-.18.21c-32.56,46.34-42,100.45-25.24,144.74,11.47,30.33,33.66,51.62,62.48,59.95a121.79,121.79,0,0,0,34,5,100.28,100.28,0,0,0,51.46-13.88c18.81-11.13,28.3-24.91,28.7-25.49a5.39,5.39,0,0,0-1.77-7.69,6.08,6.08,0,0,0-8.13,1.67c-.33.49-34.18,49-100.81,29.71-25.18-7.28-44.66-26.13-54.84-53.07-8.48-22.41-9.63-47.63-4-73-.82,28.76,5.62,57.89,19.26,79.37,9.52,15,21.71,25,35.87,29.56A64.78,64.78,0,0,0,1856,359a58.15,58.15,0,0,0,9.19.74c22.06,0,40.22-13.06,45.72-33.89,4.76-18-2.34-29.37-8.15-35.27,4-6.26,12.65-16.31,27.75-16.31,8.17,0,19.52,1.67,27.14,9.64,6.59,6.89,9.32,17.59,7.91,30.93a7.87,7.87,0,0,0,3.21,7.14,8.94,8.94,0,0,0,8.09,1.29,110.35,110.35,0,0,1,23.38-5,101.67,101.67,0,0,0-22.8,25.92A119.62,119.62,0,0,1,1940,382.9c-27.29,17.45-60.16,21.89-97.68,13.18-34.35-8-59.75-27.16-75.5-57-12.11-23-18-51.69-17.19-83.09.76-28,6.87-56,17.2-78.84,15.25-33.68,46-64.05,86.6-85.52,42.44-22.45,91.69-33.75,142.55-32.68A308.2,308.2,0,0,1,2111.2,84Z" style="fill:#afa594"/><path d="M813.69,215.52l-5,33.15,6,24.2L802.26,276l-6.1-24.45-19-26.91,13.65-3.41,12,16.94,3.43-20.8Z" style="fill:#fff"/><path d="M846.2,208.82a14.81,14.81,0,0,1,8.1.69,21.84,21.84,0,0,1,7.46,4.71,31.26,31.26,0,0,1,6,8A38.7,38.7,0,0,1,872,243.81a31.3,31.3,0,0,1-2.53,9.65,21.83,21.83,0,0,1-5.12,7.19,14.93,14.93,0,0,1-15.42,3,21.63,21.63,0,0,1-7.46-4.72,31.26,31.26,0,0,1-6-8,38.65,38.65,0,0,1-4.24-21.6,31.44,31.44,0,0,1,2.53-9.66,21.78,21.78,0,0,1,5.12-7.18A14.9,14.9,0,0,1,846.2,208.82Zm9.33,47.51a3.12,3.12,0,0,0,2.12-2,15.13,15.13,0,0,0,1.14-4.56,39.2,39.2,0,0,0,.11-6.51,55.5,55.5,0,0,0-1-7.74,54.68,54.68,0,0,0-2-7.49,39.27,39.27,0,0,0-2.56-5.94,15.63,15.63,0,0,0-2.79-3.84,3.09,3.09,0,0,0-2.72-1.08,3.23,3.23,0,0,0-2.15,2,14.8,14.8,0,0,0-1.16,4.61,38.59,38.59,0,0,0-.13,6.47,55.33,55.33,0,0,0,1,7.69,58.61,58.61,0,0,0,2,7.54,39.51,39.51,0,0,0,2.57,6,14.05,14.05,0,0,0,2.82,3.78A3.2,3.2,0,0,0,855.53,256.33Z" style="fill:#fff"/><path d="M920.49,196.5l5.94,40.06a16.61,16.61,0,0,1-.38,7.32,14.22,14.22,0,0,1-3.16,5.6,16.18,16.18,0,0,1-5.33,3.79,27.65,27.65,0,0,1-14.15,2.1,16.2,16.2,0,0,1-6.2-2.08,14.26,14.26,0,0,1-4.65-4.44,16.59,16.59,0,0,1-2.48-6.89l-6-40.07L896.9,200l6.1,41.17a8.79,8.79,0,0,0,2.11,4.64,4.57,4.57,0,0,0,4.34,1.53,4.31,4.31,0,0,0,2.16-.93,5.57,5.57,0,0,0,1.47-1.82,8,8,0,0,0,.74-2.42,8.46,8.46,0,0,0,0-2.61l-6.11-41.17Z" style="fill:#fff"/><path d="M977.79,210.3a22,22,0,0,1,0,4.15,22.41,22.41,0,0,1-.92,4.64,20.2,20.2,0,0,1-2.1,4.6,16.5,16.5,0,0,1-3.54,4l9.5,18.18L966.6,247.4l-8.06-15.74-1.64.18,1.77,16.41-12.75,1.37L940,194l18.5-2a17.16,17.16,0,0,1,7.63.73,15.64,15.64,0,0,1,5.82,3.66,18.47,18.47,0,0,1,4,6A27.75,27.75,0,0,1,977.79,210.3Zm-22,12.14,2.95-.32A5.59,5.59,0,0,0,961.6,221a7.94,7.94,0,0,0,2.13-2.48,11.54,11.54,0,0,0,1.24-3.46,14.28,14.28,0,0,0-.86-8,11.66,11.66,0,0,0-2-3.12,7.87,7.87,0,0,0-2.61-2,5.59,5.59,0,0,0-3-.5l-3,.32Z" style="fill:#fff"/><path d="M1054.39,233a15.19,15.19,0,0,1-3,4.27,16.79,16.79,0,0,1-3.84,2.8,17.15,17.15,0,0,1-4.44,1.64,31.07,31.07,0,0,1-4.86.67,14.77,14.77,0,0,1-7.94-1.78,21.53,21.53,0,0,1-6.75-5.72,32,32,0,0,1-4.86-8.77,37.39,37.39,0,0,1-2.24-11,36.67,36.67,0,0,1,1-11.08,32,32,0,0,1,3.81-9.27,21.59,21.59,0,0,1,6-6.46,14.81,14.81,0,0,1,7.68-2.69,29.72,29.72,0,0,1,4.54.08,16,16,0,0,1,4.29,1,19.2,19.2,0,0,1,4.13,2.31,24.09,24.09,0,0,1,4.15,3.93l-4.52,7.16a10.44,10.44,0,0,0-2.51-3.43,11.08,11.08,0,0,0-3.7-2.33,7.33,7.33,0,0,0-4.09-.32,6.09,6.09,0,0,0-3.69,2.58,16.28,16.28,0,0,0-2.45,6.43,46.34,46.34,0,0,0-.44,11.23,41.35,41.35,0,0,0,1.65,10.28,16.72,16.72,0,0,0,3.09,5.94,6.78,6.78,0,0,0,3.82,2.36,6.57,6.57,0,0,0,3.85-.44,8.66,8.66,0,0,0,3.19-2.42,9.4,9.4,0,0,0,1.87-3.56Z" style="fill:#fff"/><path d="M1085.29,183.77a14.81,14.81,0,0,1,7.88,2,21.89,21.89,0,0,1,6.57,5.89,31.44,31.44,0,0,1,4.57,8.87,38.55,38.55,0,0,1,.57,22,31.5,31.5,0,0,1-4.1,9.1,22,22,0,0,1-6.26,6.23,14.88,14.88,0,0,1-7.75,2.44,15,15,0,0,1-8-2,21.91,21.91,0,0,1-6.57-5.9,31.3,31.3,0,0,1-4.57-8.87,38.54,38.54,0,0,1-.57-22,31.44,31.44,0,0,1,4.1-9.09,21.71,21.71,0,0,1,6.26-6.23A14.83,14.83,0,0,1,1085.29,183.77Zm1.26,48.4a3.14,3.14,0,0,0,2.43-1.61,15.23,15.23,0,0,0,1.88-4.31,40,40,0,0,0,1.2-6.4,59.26,59.26,0,0,0-.4-15.52,40.09,40.09,0,0,0-1.54-6.28,15.85,15.85,0,0,0-2.1-4.25,3.14,3.14,0,0,0-2.51-1.52,3.22,3.22,0,0,0-2.46,1.65,15.11,15.11,0,0,0-1.92,4.36,40,40,0,0,0-1.2,6.35,55.27,55.27,0,0,0-.31,7.75,58.37,58.37,0,0,0,.71,7.77,39.57,39.57,0,0,0,1.54,6.32,14.31,14.31,0,0,0,2.14,4.21A3.25,3.25,0,0,0,1086.55,232.17Z" style="fill:#fff"/><path d="M1152.41,231.19l-1.77,8L1123,239l.29-55.9,12.91.07-.25,47.9Z" style="fill:#fff"/><path d="M1196.4,232.38l-2,7.94-27.59-.87,1.76-55.87,12.9.41L1180,231.87Z" style="fill:#fff"/><path d="M1240.24,234.79l-2.12,7.88L1210.57,241l3.32-55.89,24.66,1.47.78,8-13-.77-.75,12.62,8.67.51-.48,8-8.66-.52-1.15,19.32Z" style="fill:#fff"/><path d="M1289.18,239.18a15.56,15.56,0,0,1-3.6,3.78,17.07,17.07,0,0,1-4.2,2.21,17.67,17.67,0,0,1-4.64,1,30.89,30.89,0,0,1-4.9,0,14.8,14.8,0,0,1-7.59-2.92,21.63,21.63,0,0,1-5.85-6.65,32,32,0,0,1-3.52-9.38,38.85,38.85,0,0,1,2-22,31.88,31.88,0,0,1,5.12-8.61,21.84,21.84,0,0,1,6.93-5.51,14.73,14.73,0,0,1,8-1.53,30.13,30.13,0,0,1,4.48.74,16.19,16.19,0,0,1,4.1,1.66,18.9,18.9,0,0,1,3.74,2.89,24,24,0,0,1,3.53,4.5l-5.52,6.41a10.69,10.69,0,0,0-2-3.76,11.13,11.13,0,0,0-3.32-2.84,7.36,7.36,0,0,0-4-.92,6.18,6.18,0,0,0-4,2,16.39,16.39,0,0,0-3.36,6,45.67,45.67,0,0,0-2.08,11,41.25,41.25,0,0,0,.13,10.41,16.6,16.6,0,0,0,2.18,6.33,6.86,6.86,0,0,0,3.43,2.9,6.67,6.67,0,0,0,3.88.13,8.6,8.6,0,0,0,3.51-1.94,9.29,9.29,0,0,0,2.37-3.24Z" style="fill:#fff"/><path d="M1341.13,204.88l-9.93-1.24-6,47.62-12.8-1.6,6-47.62-9.86-1.23,2.24-7.78,30.1,3.76Z" style="fill:#fff"/><path d="M1349.76,254.68l8.55-55.25,12.75,2-8.55,55.24Z" style="fill:#fff"/><path d="M1409,208.11a14.8,14.8,0,0,1,7.26,3.67,22,22,0,0,1,5.15,7.17,31.31,31.31,0,0,1,2.56,9.65,38.54,38.54,0,0,1-4.17,21.61,31.32,31.32,0,0,1-6,8,21.89,21.89,0,0,1-7.45,4.74,14.94,14.94,0,0,1-15.43-3,22,22,0,0,1-5.15-7.17,31.24,31.24,0,0,1-2.56-9.64,38.6,38.6,0,0,1,4.17-21.62,31.27,31.27,0,0,1,6-8,21.89,21.89,0,0,1,7.45-4.74A14.83,14.83,0,0,1,1409,208.11Zm-9.16,47.54a3.12,3.12,0,0,0,2.71-1.05,14.66,14.66,0,0,0,2.76-3.81,37.8,37.8,0,0,0,2.55-6,56.66,56.66,0,0,0,2-7.54,55.23,55.23,0,0,0,1-7.7,39.37,39.37,0,0,0-.15-6.46,15.5,15.5,0,0,0-1.14-4.6,3.1,3.1,0,0,0-2.12-2,3.2,3.2,0,0,0-2.76,1.09,15.13,15.13,0,0,0-2.81,3.83,39.94,39.94,0,0,0-2.54,6,60,60,0,0,0-2.94,15.24,40,40,0,0,0,.14,6.51,14.6,14.6,0,0,0,1.19,4.57A3.26,3.26,0,0,0,1399.86,255.65Z" style="fill:#fff"/><path d="M1481.85,224.68l-13.57,54.23-7.06-1.77-12.86-35.57L1440.74,272l-7-1.77L1447.26,216l7,1.77,12.76,36,7.72-30.86Z" style="fill:#fff"/><g style="mask:url(#e5f8a708-ac16-4470-ba9b-120268b30dfd)"><rect y="229.62" width="2247.36" height="2374.74" style="fill:url(#a65a66f7-9d26-42e6-bd06-08ce81a04d3b)"/></g><path d="M2070.35,318.18H169.92c-30.6,0-55.41,25.87-55.41,57.77V2599.29H2125.76V375.94C2125.75,344,2101,318.19,2070.35,318.18Z" style="fill:url(#ecc5bb71-68e3-40d2-8b58-91d186289dd4)"/><path d="M2135.76,2599.29h-20V376c0-26.34-20.38-47.77-45.42-47.77H169.93c-25,0-45.42,21.43-45.42,47.77V2599.29h-20V376c0-37.37,29.35-67.77,65.42-67.77H2070.34c36.07,0,65.42,30.4,65.42,67.77Z" style="fill:#afa594"/></g></g></svg>