<svg xmlns="http://www.w3.org/2000/svg" xmlns:xlink="http://www.w3.org/1999/xlink" viewBox="0 0 492.13 194.84"><defs><linearGradient id="b8558797-1002-4c6d-a9d7-f2b9fab8f068" x1="1909.44" y1="1077.62" x2="1910.44" y2="1077.62" gradientTransform="matrix(51.57, 0, 0, -51.57, -98375.81, 55637.84)" gradientUnits="userSpaceOnUse"><stop offset="0" stop-color="#c79333"/><stop offset="0.36" stop-color="#f0b948"/><stop offset="0.58" stop-color="#d7ab2d"/><stop offset="0.61" stop-color="#d7ab2e"/><stop offset="1" stop-color="#d3a636"/></linearGradient><linearGradient id="a5ede850-45cb-4131-9160-9c527cfa7957" x1="1909.44" y1="1077.29" x2="1910.44" y2="1077.29" xlink:href="#b8558797-1002-4c6d-a9d7-f2b9fab8f068"/><linearGradient id="b94abe25-5437-40e8-a902-574d8f6558c3" x1="1909.44" y1="1077.33" x2="1910.44" y2="1077.33" xlink:href="#b8558797-1002-4c6d-a9d7-f2b9fab8f068"/><linearGradient id="b625c356-7439-438a-880e-59d2f2df23bf" x1="1909.44" y1="1077.29" x2="1910.44" y2="1077.29" gradientTransform="matrix(51.57, 0, 0, -51.57, -98129.11, 55640.97)" xlink:href="#b8558797-1002-4c6d-a9d7-f2b9fab8f068"/><linearGradient id="e9120194-8ce7-4778-842e-a53ab9e24a7a" x1="1909.44" y1="1077.33" x2="1910.44" y2="1077.33" gradientTransform="matrix(51.57, 0, 0, -51.57, -98129.11, 55640.97)" xlink:href="#b8558797-1002-4c6d-a9d7-f2b9fab8f068"/><linearGradient id="f9fdd076-740e-4b49-93b7-1fc1410c41da" x1="1909.44" y1="1077.62" x2="1910.44" y2="1077.62" gradientTransform="matrix(51.57, 0, 0, -51.57, -98129.11, 55640.97)" xlink:href="#b8558797-1002-4c6d-a9d7-f2b9fab8f068"/><linearGradient id="ace3e52f-4efd-4fe1-8b78-8c51d218daef" x1="1933.96" y1="1078.99" x2="1934.96" y2="1078.99" gradientTransform="matrix(86.7, 0, 0, -86.7, -167621.34, 93651.67)" xlink:href="#b8558797-1002-4c6d-a9d7-f2b9fab8f068"/><linearGradient id="b4a403f4-4463-42ba-835d-2fd6a2f2c762" x1="1909.44" y1="1077.48" x2="1910.44" y2="1077.48" xlink:href="#b8558797-1002-4c6d-a9d7-f2b9fab8f068"/><linearGradient id="b451ef42-da40-48b2-8e17-b76035648c7f" x1="1933.96" y1="1079.35" x2="1934.96" y2="1079.35" gradientTransform="matrix(86.7, 0, 0, -86.7, -167621.34, 93651.67)" xlink:href="#b8558797-1002-4c6d-a9d7-f2b9fab8f068"/><linearGradient id="b875474d-2397-417a-8284-d4227ecd9566" x1="1933.51" y1="1078.96" x2="1934.51" y2="1078.96" gradientTransform="matrix(85.65, 0, 0, -85.65, -165253.58, 92517.44)" xlink:href="#b8558797-1002-4c6d-a9d7-f2b9fab8f068"/><linearGradient id="af7c2c41-909b-407d-a1b7-a4dd0ccd255d" x1="1909.44" y1="1077.48" x2="1910.44" y2="1077.48" gradientTransform="matrix(51.57, 0, 0, -51.57, -98129.11, 55640.97)" xlink:href="#b8558797-1002-4c6d-a9d7-f2b9fab8f068"/><linearGradient id="f4603eeb-fc20-453d-a14e-3f3d3b71b5df" x1="1933.51" y1="1079.32" x2="1934.51" y2="1079.32" gradientTransform="matrix(85.65, 0, 0, -85.65, -165253.58, 92517.44)" xlink:href="#b8558797-1002-4c6d-a9d7-f2b9fab8f068"/><linearGradient id="af3d6bfb-1d53-4b9c-aa3d-f2d46c46c35c" x1="1964.08" y1="1075.43" x2="1965.08" y2="1075.43" gradientTransform="matrix(275.45, 248.21, 248.21, -275.45, -807818.95, -191268.79)" xlink:href="#b8558797-1002-4c6d-a9d7-f2b9fab8f068"/></defs><title>cultureBanner</title><g id="a8dd9987-0838-4f57-9cca-21f57b2bf235" data-name="Layer 2"><g id="eb1beb18-54ce-4d57-ba16-3532d26aace1" data-name="Layer 1"><path d="M489.59,128c-10.09-13.51-28.38-34.11-41.17-45.84-26.63-24.41-56.23-44.59-90.75-58a304.46,304.46,0,0,0-111.61-21A301.21,301.21,0,0,0,135,23.79C100.46,37.18,71.08,56.1,44.45,80.51c-12.33,11.3-21.72,22.13-32.54,34C4.83,122.34,1.59,126.73,3.06,128l47,45.23,3.65,3.51,14.49,13.95c33-54,94.34-99.95,178.74-99.95,72.73,0,149.49,46.8,182.35,101.3l11.38-11.74,3.56-3.68L486.5,133C488,131.74,490.74,129.56,489.59,128Z" style="fill:#29273a"/><path d="M182.05,70A8.73,8.73,0,0,1,181,72.68a9.42,9.42,0,0,1-1.71,2,9.75,9.75,0,0,1-2.21,1.52,17.76,17.76,0,0,1-2.57,1.06,8.51,8.51,0,0,1-4.59.18,12.14,12.14,0,0,1-4.5-2.1,17.47,17.47,0,0,1-3.88-4,21.21,21.21,0,0,1-3.78-11.67,17.66,17.66,0,0,1,.8-5.52A12.17,12.17,0,0,1,161,49.85a8.58,8.58,0,0,1,3.83-2.55,16.78,16.78,0,0,1,2.5-.6,8.72,8.72,0,0,1,2.5-.06,11.26,11.26,0,0,1,2.59.64,13.79,13.79,0,0,1,2.81,1.52l-1.48,4.49a5.89,5.89,0,0,0-1.85-1.48,6.45,6.45,0,0,0-2.35-.72,4.32,4.32,0,0,0-2.29.42,3.49,3.49,0,0,0-1.66,1.91,9.11,9.11,0,0,0-.45,3.81,25.32,25.32,0,0,0,1.32,6.09,22.83,22.83,0,0,0,2.34,5.29,9,9,0,0,0,2.52,2.74,3.66,3.66,0,0,0,4.47-.07,4.91,4.91,0,0,0,1.41-1.76,5.14,5.14,0,0,0,.53-2.17Z" style="fill:#fff"/><path d="M202.62,38.2l4.49,22a9.09,9.09,0,0,1,0,4.06,8,8,0,0,1-1.63,3.21,9.28,9.28,0,0,1-2.91,2.27,15.21,15.21,0,0,1-3.87,1.32,14.72,14.72,0,0,1-4.08.29,9.12,9.12,0,0,1-3.56-1,7.81,7.81,0,0,1-2.75-2.31,9,9,0,0,1-1.6-3.74l-4.48-22,7.16-1.45L194,63.52a4.71,4.71,0,0,0,1.32,2.5,2.57,2.57,0,0,0,2.5.71,2.42,2.42,0,0,0,1.19-.58,3.17,3.17,0,0,0,.78-1.06,4.19,4.19,0,0,0,.35-1.36,5,5,0,0,0-.06-1.45l-4.61-22.62Z" style="fill:#fff"/><path d="M231.92,61.72l-.56,4.51-15.57,1.45-2.87-30.87,7.28-.68,2.46,26.46Z" style="fill:#fff"/><path d="M253.11,39.14l-5.67.1.43,26.61-7.31.12-.43-26.62-5.62.1.63-4.45,17.19-.28Z" style="fill:#fff"/><path d="M282.77,37.19l-2.19,22.36a9.14,9.14,0,0,1-1.2,3.89,8,8,0,0,1-2.5,2.58,9.39,9.39,0,0,1-3.45,1.32,15.28,15.28,0,0,1-4.08.13,15.12,15.12,0,0,1-4-.92,9.15,9.15,0,0,1-3.12-2,8,8,0,0,1-2-3,9.06,9.06,0,0,1-.42-4L262,35.17l7.28.71-2.25,23a4.77,4.77,0,0,0,.53,2.78,2.61,2.61,0,0,0,2.18,1.41,2.41,2.41,0,0,0,1.31-.21,3.1,3.1,0,0,0,1.06-.78,4.5,4.5,0,0,0,.74-1.2,5.07,5.07,0,0,0,.36-1.4l2.24-23Z" style="fill:#fff"/><path d="M310.7,54.11a12.38,12.38,0,0,1-2,4.47,11,11,0,0,1-1.94,2,9,9,0,0,1-2.61,1.48L306,73.36l-7.89-1.71-1.56-9.71-.91-.2-1.94,8.95-7.1-1.54,6.57-30.3,10.3,2.23a9.8,9.8,0,0,1,4,1.74,8.7,8.7,0,0,1,2.48,3A9.92,9.92,0,0,1,311,49.64,15.65,15.65,0,0,1,310.7,54.11Zm-14,2.49,1.64.36a3.35,3.35,0,0,0,1.72-.09,4.61,4.61,0,0,0,1.59-.93,6.23,6.23,0,0,0,1.27-1.6,7.39,7.39,0,0,0,.8-2.12,7.28,7.28,0,0,0,.15-2.26,6.19,6.19,0,0,0-.5-2,4.4,4.4,0,0,0-1.05-1.5,3.42,3.42,0,0,0-1.53-.8l-1.65-.35Z" style="fill:#fff"/><path d="M329.72,76.22l-2.28,3.92-14.85-4.91,9.75-29.48,13.29,4.39-.72,4.44-7-2.33-2.2,6.66,4.67,1.55L329,64.67l-4.67-1.55-3.37,10.2Z" style="fill:#fff"/><path d="M132.42,63.86l-1.72,1,.94,1.59,1.64-.8Z" style="fill:url(#b8558797-1002-4c6d-a9d7-f2b9fab8f068)"/><path d="M131.56,62.06q-9.3,4.43-18.27,9.57-9.74,5.61-18.94,12l2.28,3.28q9.06-6.3,18.66-11.83,8-4.62,16.35-8.63l-.94-1.59,1.72-1,.86,1.81-1.64.8,2.78,4.69,3-1.42,1.69,3.63h0c-.88.41-1.74.83-2.61,1.25l2.78,4.7,2-.95.85,1.81-1.73,1-1.11-1.88q-8.42,4-16.53,8.67-9.15,5.28-17.81,11.31l2.28,3.28q8.52-5.92,17.53-11.13T142.92,82l2-.93L133.21,61.27Z" style="fill:url(#a5ede850-45cb-4131-9160-9c527cfa7957)"/><path d="M142.08,80.18l-.85-1.81-2,.95,1.11,1.88Z" style="fill:url(#b94abe25-5437-40e8-a902-574d8f6558c3)"/><path d="M387.21,99.3q-8.34-5.82-17.18-11c-5.6-3.25-11.34-6.24-17.16-9l-1.11,1.88-1.72-1,.84-1.81,2,.95,2.78-4.7-1.56-.76,1.71-3.62,1.9.92,2.77-4.69-1.64-.8.86-1.81,1.72,1-.94,1.59q8.67,4.19,17,9,9.24,5.36,18,11.44h0l2.28-3.29Q388.89,77.47,379.5,72t-18.95-10l-1.65-.79L347.19,81.06l2,.93q9.62,4.5,18.83,9.82,8.69,5,16.91,10.77Z" style="fill:url(#b625c356-7439-438a-880e-59d2f2df23bf)"/><path d="M350,80.18l1.72,1,1.11-1.88-2-.95Z" style="fill:url(#e9120194-8ce7-4778-842e-a53ab9e24a7a)"/><path d="M359.69,63.86l-.86,1.81,1.64.8.94-1.59Z" style="fill:url(#f9fdd076-740e-4b49-93b7-1fc1410c41da)"/><path d="M118,79.81a258.29,258.29,0,0,0-65,53.33l3,2.64a254.22,254.22,0,0,1,64-52.5q8.07-4.65,16.46-8.66l-2-3.46Q126.07,75.19,118,79.81Z" style="fill:url(#ace3e52f-4efd-4fe1-8b78-8c51d218daef)"/><path d="M139.07,73.37l-1.69-3.63-3,1.42,2,3.46c.87-.42,1.73-.84,2.61-1.25Z" style="fill:url(#b4a403f4-4463-42ba-835d-2fd6a2f2c762)"/><path d="M137.38,69.74l-3,1.42,2,3.46c.87-.42,1.73-.84,2.61-1.25" style="fill:url(#b451ef42-da40-48b2-8e17-b76035648c7f)"/><path d="M372.76,83.65a254.18,254.18,0,0,1,63.39,52.14h0l3-2.64a258,258,0,0,0-64.39-53q-8.36-4.84-17.06-9l-2.05,3.46Q364.37,78.8,372.76,83.65Z" style="fill:url(#b875474d-2397-417a-8284-d4227ecd9566)"/><path d="M354.09,73.86l1.56.76,2.05-3.46-1.9-.92Z" style="fill:url(#af7c2c41-909b-407d-a1b7-a4dd0ccd255d)"/><path d="M354.09,73.86l1.56.76,2.05-3.46-1.9-.92Z" style="fill:url(#f4603eeb-fc20-453d-a14e-3f3d3b71b5df)"/><path d="M426.42,194.84,490.78,133a4.4,4.4,0,0,0,.54-5.72,303.27,303.27,0,0,0-33.06-39.17,300.66,300.66,0,0,0-425.56,0A304.13,304.13,0,0,0,.83,125.63a4.39,4.39,0,0,0,.52,5.74l65,62.41a210.06,210.06,0,0,1,360.1,1.06ZM246.06,87.44A214.87,214.87,0,0,0,65.35,185.91L5.19,128.13a300.27,300.27,0,0,1,31-36.46,295.66,295.66,0,0,1,418.49,0,298.45,298.45,0,0,1,32.22,38.11l-59.52,57.16a214.89,214.89,0,0,0-181.36-99.5Z" style="fill:url(#af3d6bfb-1d53-4b9c-aa3d-f2d46c46c35c)"/></g></g></svg>