<svg xmlns="http://www.w3.org/2000/svg" xmlns:xlink="http://www.w3.org/1999/xlink" viewBox="0 0 1755.13 999.4"><defs><linearGradient id="bb7aff61-7e74-4dd3-a4e8-59d35e1f6a5e" x1="1122.29" y1="73.47" x2="1607.54" y2="73.47" gradientUnits="userSpaceOnUse"><stop offset="0" stop-color="#a56e29"/><stop offset="0.36" stop-color="#e5b450"/><stop offset="0.39" stop-color="#dfab4a"/><stop offset="0.58" stop-color="#c17e2a"/><stop offset="0.82" stop-color="#be9131"/><stop offset="1" stop-color="#bc9a34"/></linearGradient><linearGradient id="f98be9ed-d241-479f-af1c-b8df0feb4aa8" x1="1122.29" y1="93.97" x2="1607.54" y2="93.97" xlink:href="#bb7aff61-7e74-4dd3-a4e8-59d35e1f6a5e"/><linearGradient id="eb05526c-8d8a-48d8-9b80-9d13b8002300" x1="1122.29" y1="113.86" x2="1607.54" y2="113.86" xlink:href="#bb7aff61-7e74-4dd3-a4e8-59d35e1f6a5e"/><linearGradient id="ef7d9c58-a98b-461b-815e-ed10f8a56d3b" x1="441.23" y1="73.47" x2="669.91" y2="73.47" xlink:href="#bb7aff61-7e74-4dd3-a4e8-59d35e1f6a5e"/><linearGradient id="a5597201-06b9-4806-b96e-b115cf8405f4" x1="441.23" y1="93.97" x2="669.91" y2="93.97" xlink:href="#bb7aff61-7e74-4dd3-a4e8-59d35e1f6a5e"/><linearGradient id="f886555b-a8c4-46e5-bc42-fc1f7042aa43" x1="441.23" y1="113.86" x2="669.91" y2="113.86" xlink:href="#bb7aff61-7e74-4dd3-a4e8-59d35e1f6a5e"/></defs><title>culturePanel</title><g id="bc275ad8-728f-41c4-af33-83c00f99b0a0" data-name="Layer 2"><g id="f78c040a-2f2c-443f-afac-6375ede83580" data-name="CAT - CULTURE"><rect width="1755.13" height="999.4" rx="42.86" style="fill:#29273a"/><polygon points="38.38 160.72 38.38 29.23 387.49 29.23 415.65 95.82 387.49 160.72 38.38 160.72" style="fill:#645f8c"/><path d="M115.5,102.86v14.5c0,4-2.56,6.76-6.59,6.76H97.37a6.38,6.38,0,0,1-6.67-6.76v-43c0-4.2,2.72-6.84,6.67-6.84h11.54c4,0,6.59,2.64,6.59,6.84V88.61h-9.23V76.5c0-.49-.33-.9-.58-.9h-5.1c-.33,0-.58.41-.58.9v38.72c0,.5.25.82.58.82h5.1a.75.75,0,0,0,.58-.82V102.86Z" style="fill:#b7b6c2"/><path d="M148.05,123.62h-9.14V107.48h-6.59v16.14h-9.14V73.7a5.42,5.42,0,0,1,5.6-5.68h13.59a5.44,5.44,0,0,1,5.68,5.68Zm-9.14-23.8V77.33a1.15,1.15,0,0,0-1.15-1.24h-4.29a1.15,1.15,0,0,0-1.15,1.24V99.82Z" style="fill:#b7b6c2"/><path d="M171.1,76v47.61h-9.22V76h-7V68H178.1v8Z" style="fill:#b7b6c2"/><path d="M185.15,68h20.51v8h-11.2V91.66h9.14V99.4h-9.14v16.23h11.2v8H185.15Z" style="fill:#b7b6c2"/><path d="M220,124c-4.12,0-6.67-2.72-6.67-6.76V74.36c0-4.2,2.55-6.84,6.67-6.84h17.71v8.65h-14.5c-.24,0-.57.42-.57.91v37.56c0,.5.33.83.57.83h5.44c.41,0,.66-.33.66-.83V97.51h-3.13V89.68h14.17v7.83h-2.72v19.77a6.36,6.36,0,0,1-6.76,6.76Z" style="fill:#b7b6c2"/><path d="M267.66,67.52a5.5,5.5,0,0,1,5.69,5.69v45.14a5.5,5.5,0,0,1-5.69,5.69H253.41a5.45,5.45,0,0,1-5.68-5.69V73.21a5.45,5.45,0,0,1,5.68-5.69ZM264,76.17c0-.49-.33-.9-.5-.9h-6.09c-.41,0-.41.57-.41.9V115.3c0,.25.08.74.41.74h6.09a.75.75,0,0,0,.5-.74Z" style="fill:#b7b6c2"/><path d="M294.59,105.09h-3.13v18.53h-9.31V68h18.7c4.12,0,6.67,2.72,6.67,6.84V98.25c0,3.21-1.56,5.52-4.11,6.43l4.2,18.94h-9.15Zm3.87-28.26c0-.41-.33-.82-.57-.82h-6.43V97.43h6.43c.24,0,.57-.41.57-.74Z" style="fill:#b7b6c2"/><path d="M332.46,106.49v17.13h-9.14V106.49H322c-4.12,0-6.76-2.55-6.76-6.59V68h9.23V97.67a.9.9,0,0,0,.66.83H331c.33,0,.33-.41.33-.83V68h9.22V99.9c0,4-2.63,6.59-6.83,6.59Z" style="fill:#b7b6c2"/><g style="opacity:0.25"><line x1="1124.79" y1="73.47" x2="1605.04" y2="73.47" style="fill:none;stroke-linecap:round;stroke-miterlimit:10;stroke-width:5px;stroke:url(#bb7aff61-7e74-4dd3-a4e8-59d35e1f6a5e)"/><line x1="1124.79" y1="93.97" x2="1605.04" y2="93.97" style="fill:none;stroke-linecap:round;stroke-miterlimit:10;stroke-width:5px;stroke:url(#f98be9ed-d241-479f-af1c-b8df0feb4aa8)"/><line x1="1124.79" y1="113.86" x2="1605.04" y2="113.86" style="fill:none;stroke-linecap:round;stroke-miterlimit:10;stroke-width:5px;stroke:url(#eb05526c-8d8a-48d8-9b80-9d13b8002300)"/></g><g style="opacity:0.25"><line x1="443.73" y1="73.47" x2="667.41" y2="73.47" style="fill:none;stroke-linecap:round;stroke-miterlimit:10;stroke-width:5px;stroke:url(#ef7d9c58-a98b-461b-815e-ed10f8a56d3b)"/><line x1="443.73" y1="93.97" x2="667.41" y2="93.97" style="fill:none;stroke-linecap:round;stroke-miterlimit:10;stroke-width:5px;stroke:url(#a5597201-06b9-4806-b96e-b115cf8405f4)"/><line x1="443.73" y1="113.86" x2="667.41" y2="113.86" style="fill:none;stroke-linecap:round;stroke-miterlimit:10;stroke-width:5px;stroke:url(#f886555b-a8c4-46e5-bc42-fc1f7042aa43)"/></g><path d="M767.47,112.68a15.31,15.31,0,0,1-8,5.33,37.36,37.36,0,0,1-10.5,1.44,21.41,21.41,0,0,1-8.68-1.79,22.23,22.23,0,0,1-7.11-4.91,23.3,23.3,0,0,1-4.82-7.32,23.32,23.32,0,0,1,0-17.87,23.7,23.7,0,0,1,4.82-7.28,22.36,22.36,0,0,1,7.11-4.9A21.25,21.25,0,0,1,749,73.59a45.77,45.77,0,0,1,5,.27,23.48,23.48,0,0,1,4.68,1,21.11,21.11,0,0,1,4.43,2.07,27.31,27.31,0,0,1,4.34,3.34L762,85.89A9.33,9.33,0,0,0,759.44,83a12.32,12.32,0,0,0-4-2.1,10.86,10.86,0,0,0-4.51-.47,7.27,7.27,0,0,0-4.25,2,12.19,12.19,0,0,0-3.13,5.1,27.23,27.23,0,0,0-1.21,9,25,25,0,0,0,1.17,8.37,12.16,12.16,0,0,0,3,4.94,7.76,7.76,0,0,0,4.07,2.07,10.35,10.35,0,0,0,4.3-.2,10.07,10.07,0,0,0,3.69-1.79,7.43,7.43,0,0,0,2.3-2.8Z" style="fill:#fff"/><path d="M818,74.29v30.6a12.71,12.71,0,0,1-1.61,6.5A13.74,13.74,0,0,1,812,116a19.74,19.74,0,0,1-6.47,2.68,37.08,37.08,0,0,1-15.88,0,19.68,19.68,0,0,1-6.46-2.68,13.67,13.67,0,0,1-4.39-4.6,12.71,12.71,0,0,1-1.6-6.5V74.29h14.32V105.9a6.91,6.91,0,0,0,1.56,4.44,5.43,5.43,0,0,0,4.51,2,5.62,5.62,0,0,0,2.52-.55A5.84,5.84,0,0,0,802,110.3a6.51,6.51,0,0,0,1.21-2.06,6.68,6.68,0,0,0,.44-2.34V74.29Z" style="fill:#fff"/><path d="M862.15,111.59l-1.91,7.24H829.61V74.29h14.32v37.3Z" style="fill:#fff"/><path d="M900.42,81.53H889.31v37.3H875V81.53H864l1.39-7.24H899Z" style="fill:#fff"/><path d="M952.06,74.29v30.6a12.71,12.71,0,0,1-1.61,6.5,13.74,13.74,0,0,1-4.38,4.6,19.74,19.74,0,0,1-6.47,2.68,37.08,37.08,0,0,1-15.88,0,19.68,19.68,0,0,1-6.46-2.68,13.64,13.64,0,0,1-4.38-4.6,12.61,12.61,0,0,1-1.61-6.5V74.29h14.32V105.9a6.91,6.91,0,0,0,1.56,4.44,5.44,5.44,0,0,0,4.51,2,5.62,5.62,0,0,0,2.52-.55,5.84,5.84,0,0,0,1.91-1.44,6.54,6.54,0,0,0,1.22-2.06,6.9,6.9,0,0,0,.43-2.34V74.29Z" style="fill:#fff"/><path d="M1003.52,90.41a13.21,13.21,0,0,1-.47,3.27,13.77,13.77,0,0,1-1.57,3.58,16.62,16.62,0,0,1-2.86,3.46,15.79,15.79,0,0,1-4.38,2.85l8.33,15.26h-15.8l-7-13.16h-1.82v13.16H963.69V74.29h20.65a25.23,25.23,0,0,1,8.33,1.24,17.75,17.75,0,0,1,6,3.39,13.66,13.66,0,0,1,3.65,5.1A16.64,16.64,0,0,1,1003.52,90.41Zm-25.69,7.7h3.3a8.12,8.12,0,0,0,3.26-.66A8.5,8.5,0,0,0,987,95.66a8.4,8.4,0,0,0,1.78-2.61,7.71,7.71,0,0,0,.65-3.19,8,8,0,0,0-.65-3.23,8.37,8.37,0,0,0-4.42-4.44,8.12,8.12,0,0,0-3.26-.66h-3.3Z" style="fill:#fff"/><path d="M1046.31,111.59l-1.83,7.24h-30.63V74.29h27.42l1.39,7.24h-14.49V92.9h9.63v7.24h-9.63v11.45Z" style="fill:#fff"/></g></g></svg>