<svg xmlns="http://www.w3.org/2000/svg" xmlns:xlink="http://www.w3.org/1999/xlink" viewBox="0 0 1051.06 137.2"><defs><linearGradient id="a7ea7095-3b18-4a61-9f7f-b1a60e373ba5" x1="1429.13" y1="2468.33" x2="1430.13" y2="2468.33" gradientTransform="matrix(5, 0, 0, -5, -6848.77, 12413.23)" gradientUnits="userSpaceOnUse"><stop offset="0" stop-color="#a56e29"/><stop offset="0.36" stop-color="#e5b450"/><stop offset="0.41" stop-color="#dca646"/><stop offset="0.58" stop-color="#c17e2a"/><stop offset="0.82" stop-color="#be9131"/><stop offset="1" stop-color="#bc9a34"/></linearGradient><linearGradient id="ef219102-f0b5-4ff0-bc05-c96badae7d93" x1="2147.54" y1="2190.52" x2="2148.54" y2="2190.52" gradientTransform="matrix(0, 5, 5, 0, -10710.02, -10691.61)" xlink:href="#a7ea7095-3b18-4a61-9f7f-b1a60e373ba5"/><linearGradient id="e539190b-a7cf-4ca7-a41b-0f5a9cfc0088" x1="2147.54" y1="2190.52" x2="2148.54" y2="2190.52" gradientTransform="matrix(0, 5, 5, 0, -10801.93, -10668.62)" xlink:href="#a7ea7095-3b18-4a61-9f7f-b1a60e373ba5"/><linearGradient id="f2c87639-0aa8-40c5-81dd-bd49ae701edc" x1="2147.54" y1="2190.52" x2="2148.54" y2="2190.52" gradientTransform="matrix(0, 5, 5, 0, -10710.02, -10645.62)" xlink:href="#a7ea7095-3b18-4a61-9f7f-b1a60e373ba5"/><linearGradient id="b51c45cc-deb7-42ab-a0ea-619ce4a6d7f0" x1="2425.35" y1="2908.94" x2="2426.35" y2="2908.94" gradientTransform="matrix(-5, 0, 0, 5, 12880.89, -14473.09)" xlink:href="#a7ea7095-3b18-4a61-9f7f-b1a60e373ba5"/><linearGradient id="f375082b-4b71-45ee-9b10-28c782a3ae48" x1="1706.93" y1="3186.74" x2="1707.93" y2="3186.74" gradientTransform="matrix(0, -5, -5, 0, 16742.15, 8631.77)" xlink:href="#a7ea7095-3b18-4a61-9f7f-b1a60e373ba5"/><linearGradient id="ad52f28f-0732-4b64-ad26-236f1cfa4ca5" x1="1706.93" y1="3186.74" x2="1707.93" y2="3186.74" gradientTransform="matrix(0, -5, -5, 0, 16834.06, 8608.77)" xlink:href="#a7ea7095-3b18-4a61-9f7f-b1a60e373ba5"/><linearGradient id="a00b1bd2-e4f0-4aaa-863c-1171955450ab" x1="1706.93" y1="3186.74" x2="1707.93" y2="3186.74" gradientTransform="matrix(0, -5, -5, 0, 16742.15, 8585.78)" xlink:href="#a7ea7095-3b18-4a61-9f7f-b1a60e373ba5"/><linearGradient id="b343f19b-1333-4702-b706-0cc9398397bb" x1="1941.29" y1="2656.86" x2="1942.29" y2="2656.86" gradientTransform="matrix(0, 78.39, 78.39, 0, -207924.37, -152164.73)" gradientUnits="userSpaceOnUse"><stop offset="0" stop-color="#ced9df"/><stop offset="0.22" stop-color="#ced9df"/><stop offset="0.3" stop-color="#c9d4da"/><stop offset="1" stop-color="#9faab0"/></linearGradient><linearGradient id="aeee895a-ec89-4628-bf71-44c1ead31d16" x1="1941.29" y1="2656.86" x2="1942.29" y2="2656.86" gradientTransform="matrix(0, 78.39, 78.39, 0, -207853.33, -152164.73)" gradientUnits="userSpaceOnUse"><stop offset="0" stop-color="#ced9df"/><stop offset="0.1" stop-color="#c9d4da"/><stop offset="1" stop-color="#9faab0"/></linearGradient><linearGradient id="b966a67a-0ddd-4310-907f-076a4d6b21f6" x1="1941.29" y1="2656.86" x2="1942.29" y2="2656.86" gradientTransform="matrix(0, 78.39, 78.39, 0, -207800.26, -152164.73)" xlink:href="#aeee895a-ec89-4628-bf71-44c1ead31d16"/><linearGradient id="be9a700c-8dad-411c-ab66-39ba57fe1816" x1="1941.29" y1="2656.86" x2="1942.29" y2="2656.86" gradientTransform="matrix(0, 78.39, 78.39, 0, -207739.41, -152164.73)" xlink:href="#aeee895a-ec89-4628-bf71-44c1ead31d16"/><linearGradient id="bb7e91ad-f98b-4bb6-b49a-6c950e747f74" x1="1941.29" y1="2656.86" x2="1942.29" y2="2656.86" gradientTransform="matrix(0, 78.39, 78.39, 0, -207663.82, -152164.73)" xlink:href="#aeee895a-ec89-4628-bf71-44c1ead31d16"/><linearGradient id="f3ffa0a2-64bb-496b-81ee-49f275860b84" x1="1941.29" y1="2656.86" x2="1942.29" y2="2656.86" gradientTransform="matrix(0, 78.39, 78.39, 0, -207594.73, -152164.73)" xlink:href="#aeee895a-ec89-4628-bf71-44c1ead31d16"/><linearGradient id="e54dce4c-f44e-4714-ae4a-6acb28214e00" x1="1926.56" y1="2683.46" x2="1927.56" y2="2683.46" gradientTransform="matrix(268.33, 441.83, 441.83, -268.33, -1702304.47, -131267.75)" gradientUnits="userSpaceOnUse"><stop offset="0" stop-color="#ced9df"/><stop offset="0.25" stop-color="#f0fcff"/><stop offset="0.34" stop-color="#e0ebef"/><stop offset="0.51" stop-color="#c3ced3"/><stop offset="0.61" stop-color="#b8c3c9"/><stop offset="0.64" stop-color="#b9c5cc"/><stop offset="0.81" stop-color="#c1d1da"/><stop offset="0.84" stop-color="#bccbd3"/><stop offset="0.94" stop-color="#a7b3ba"/><stop offset="1" stop-color="#9faab0"/></linearGradient><linearGradient id="f944b12f-e516-48a3-a9e9-c5f4235cedc1" x1="1926.56" y1="2683.4" x2="1927.56" y2="2683.4" xlink:href="#e54dce4c-f44e-4714-ae4a-6acb28214e00"/><linearGradient id="e0ba4fa2-fe0d-4a18-85a9-daffc07b634a" x1="1926.56" y1="2683.38" x2="1927.56" y2="2683.38" xlink:href="#e54dce4c-f44e-4714-ae4a-6acb28214e00"/><linearGradient id="a5e67530-52dc-4453-9e9c-22af5c47feb8" x1="1926.56" y1="2683.42" x2="1927.56" y2="2683.42" gradientTransform="matrix(268.33, 441.83, 441.83, -268.33, -1702251.98, -131299.63)" xlink:href="#e54dce4c-f44e-4714-ae4a-6acb28214e00"/><linearGradient id="f86145f9-9003-4412-970c-52c18a2c7622" x1="1926.56" y1="2683.38" x2="1927.56" y2="2683.38" gradientTransform="matrix(268.33, 441.83, 441.83, -268.33, -1702251.98, -131299.63)" xlink:href="#e54dce4c-f44e-4714-ae4a-6acb28214e00"/><linearGradient id="e1ab4100-64d4-4063-800c-f2fee3f2b61f" x1="1926.56" y1="2683.41" x2="1927.56" y2="2683.41" gradientTransform="matrix(268.33, 441.83, 441.83, -268.33, -1702206.16, -131327.46)" xlink:href="#e54dce4c-f44e-4714-ae4a-6acb28214e00"/><linearGradient id="ee9bf7bf-ee25-4e86-a286-98e7734ff5fb" x1="1927.29" y1="2676.03" x2="1928.29" y2="2676.03" gradientTransform="matrix(86.5, 197.94, 197.94, -86.5, -695894.12, -150020.36)" xlink:href="#e54dce4c-f44e-4714-ae4a-6acb28214e00"/><linearGradient id="abc004ba-4aac-4a9e-a85a-2841f0f041c8" x1="1927.29" y1="2676.16" x2="1928.29" y2="2676.16" gradientTransform="matrix(86.5, 197.94, 197.94, -86.5, -695894.12, -150020.36)" xlink:href="#e54dce4c-f44e-4714-ae4a-6acb28214e00"/><linearGradient id="b423acf3-8cb3-4365-a8e2-75ea3afb7bc1" x1="1927.29" y1="2675.92" x2="1928.29" y2="2675.92" gradientTransform="matrix(86.5, 197.94, 197.94, -86.5, -695894.12, -150020.36)" xlink:href="#e54dce4c-f44e-4714-ae4a-6acb28214e00"/><linearGradient id="ae2194a5-126e-46a7-a01b-c084dd767280" x1="1926.8" y1="2676.86" x2="1927.8" y2="2676.86" gradientTransform="matrix(100.24, 205.57, 205.57, -100.24, -742824.88, -127802.59)" xlink:href="#e54dce4c-f44e-4714-ae4a-6acb28214e00"/><linearGradient id="a66db5d5-eaa2-4d41-884b-b67ccf533308" x1="1926.8" y1="2676.69" x2="1927.8" y2="2676.69" gradientTransform="matrix(100.24, 205.57, 205.57, -100.24, -742824.88, -127802.59)" xlink:href="#e54dce4c-f44e-4714-ae4a-6acb28214e00"/><linearGradient id="b833b1b3-dbd6-42c6-9263-02e0b5fa9fb1" x1="1926.8" y1="2676.77" x2="1927.8" y2="2676.77" gradientTransform="matrix(100.24, 205.57, 205.57, -100.24, -742824.88, -127802.59)" xlink:href="#e54dce4c-f44e-4714-ae4a-6acb28214e00"/><linearGradient id="a44e4cbf-6b3f-4c83-a02d-c4a3c25968dc" x1="1926.8" y1="2676.65" x2="1927.8" y2="2676.65" gradientTransform="matrix(100.24, 205.57, 205.57, -100.24, -742824.88, -127802.59)" xlink:href="#e54dce4c-f44e-4714-ae4a-6acb28214e00"/><linearGradient id="e46376c9-cd09-4721-a52c-1f746b1483d7" x1="1927.28" y1="2672.83" x2="1928.28" y2="2672.83" gradientTransform="matrix(69.71, 158.76, 158.76, -69.71, -558047.04, -119648.4)" xlink:href="#e54dce4c-f44e-4714-ae4a-6acb28214e00"/><linearGradient id="e005253d-4d90-4200-b821-cd9bd01a0d5e" x1="1927.28" y1="2672.77" x2="1928.28" y2="2672.77" gradientTransform="matrix(69.71, 158.76, 158.76, -69.71, -558047.04, -119648.4)" xlink:href="#e54dce4c-f44e-4714-ae4a-6acb28214e00"/><linearGradient id="ba5c74d9-9d31-4469-83eb-121aa477b8fd" x1="1927.28" y1="2672.99" x2="1928.28" y2="2672.99" gradientTransform="matrix(69.71, 158.76, 158.76, -69.71, -558047.04, -119648.4)" xlink:href="#e54dce4c-f44e-4714-ae4a-6acb28214e00"/><linearGradient id="bc815d55-e78a-40ef-a1e3-9799fb301a25" x1="1927.28" y1="2672.97" x2="1928.28" y2="2672.97" gradientTransform="matrix(69.71, 158.76, 158.76, -69.71, -558047.04, -119648.4)" xlink:href="#e54dce4c-f44e-4714-ae4a-6acb28214e00"/></defs><title>header</title><g id="a413b622-4981-4c80-a5ac-6044ee045db3" data-name="Layer 2"><g id="a33fb219-4074-49bb-bcdc-ea97bb8ef59b" data-name="Layer 1"><path d="M301.39,48.61v46a2,2,0,1,1-4,0v-46a2,2,0,0,1,4,0" style="fill:url(#a7ea7095-3b18-4a61-9f7f-b1a60e373ba5)"/><path d="M299.39,50.61H185.82a2,2,0,0,1,0-4H299.39a2,2,0,0,1,0,4" style="fill:url(#ef219102-f0b5-4ff0-bc05-c96badae7d93)"/><path d="M299.39,73.6H2a2,2,0,0,1,0-4H299.39a2,2,0,0,1,0,4" style="fill:url(#e539190b-a7cf-4ca7-a41b-0f5a9cfc0088)"/><path d="M299.39,96.6H185.82a2,2,0,0,1,0-4H299.39a2,2,0,0,1,0,4" style="fill:url(#f2c87639-0aa8-40c5-81dd-bd49ae701edc)"/><path d="M749.67,94.6v-46a2,2,0,0,1,4,0v46a2,2,0,1,1-4,0" style="fill:url(#b51c45cc-deb7-42ab-a0ea-619ce4a6d7f0)"/><path d="M751.67,92.6H865.25a2,2,0,0,1,0,4H751.67a2,2,0,0,1,0-4" style="fill:url(#f375082b-4b71-45ee-9b10-28c782a3ae48)"/><path d="M751.67,69.6h297.39a2,2,0,0,1,0,4H751.67a2,2,0,0,1,0-4" style="fill:url(#ad52f28f-0732-4b64-ad26-236f1cfa4ca5)"/><path d="M751.67,46.61H865.25a2,2,0,0,1,0,4H751.67a2,2,0,0,1,0-4" style="fill:url(#a00b1bd2-e4f0-4aaa-863c-1171955450ab)"/><polygon points="341.4 24.45 341.4 24.45 341.41 24.45 341.4 24.45" style="fill:none"/><path d="M341.41,24.46h0q-4.77,4.34-9.54,8.59V126.5q4.77,5,9.54,9.84c12.52.68,25,.93,37.56.84q4.71-4.67,9.44-9.41V93.31Q379,95,369.62,96.51v19.63l-2,2.2q-8.47-.07-16.95-.38V43.23q8.48.29,16.95.32l2,2.22V65.2Q379,63.71,388.4,62V34.05q-4.72-4.45-9.44-9C366.44,25.24,353.92,25.06,341.41,24.46Z" style="fill:url(#b343f19b-1333-4702-b706-0cc9398397bb)"/><polygon points="449.99 21.03 449.99 21.03 449.99 21.03 449.99 21.03" style="fill:none"/><rect x="402.9" y="33.53" height="93.79" style="fill:none"/><path d="M423.8,42c-.7.76-1.41,1.51-2.13,2.27v70.56l2.13,1.89q7.17-.47,14.32-1l2.23-2.2V42.9L438.12,41Q431,41.55,423.8,42Z" style="fill:none"/><rect x="459.43" y="29.33" height="94.07" style="fill:none"/><path d="M450,21h0c-12.52,1.16-25,2.13-37.55,2.84q-4.77,4.86-9.54,9.66v93.8q4.77,4.44,9.54,8.84c12.52-.63,25-1.53,37.55-2.62q4.72-5.06,9.44-10.15V29.33Q454.72,25.21,450,21Zm-9.64,92.5-2.23,2.2q-7.15.55-14.32,1l-2.13-1.89V44.3c.72-.76,1.43-1.51,2.13-2.27Q431,41.55,438.12,41l2.23,1.94Z" style="fill:url(#aeee895a-ec89-4628-bf71-44c1ead31d16)"/><polygon points="495.9 16.17 495.9 16.17 495.9 16.17 495.9 16.17" style="fill:none"/><path d="M493.47,23.75l2.43-7.58h0q-11.67,1.36-23.34,2.61c.78,2.35,1.56,4.69,2.33,7v98.29c-.77,2.44-1.55,4.89-2.33,7.33q11.67-1.19,23.34-2.48l-2.43-6.82Z" style="fill:url(#b966a67a-0ddd-4310-907f-076a4d6b21f6)"/><path d="M577.46,13.91c.81-2.53,1.63-5.06,2.44-7.59Q568.08,7.58,556.25,9q1.17,3.53,2.33,7V77.63Q544.89,44.71,531.18,12q-10.45,1.28-20.91,2.52l2.34,7V120l-2.34,7.37,23.35-2.68c-.82-2.28-1.63-4.55-2.44-6.83V56.22q13.7,32.75,27.4,65.63c7.11-.77,14.21-1.53,21.32-2.24-.81-2.3-1.63-4.59-2.44-6.88Z" style="fill:url(#be9a700c-8dad-411c-ab66-39ba57fe1816)"/><polygon points="643.46 1.06 643.46 1.06 643.46 1.06 643.46 1.06" style="fill:none"/><polygon points="646.91 21.82 646.91 21.82 646.91 21.82 646.91 21.82" style="fill:none"/><polygon points="646.91 93.22 646.91 93.21 646.91 93.21 646.91 93.22" style="fill:none"/><path d="M639.2,95.83q-11.93.63-23.85,1.55V59.45q5.88-.47,11.77-.86l7.31,1.88V36.69l-7.31,2.92q-5.88.41-11.77.87V21.62q11.92-1,23.85-1.64c2.57.6,5.14,1.22,7.71,1.84h0L643.46,1.06h0c-16.34.86-32.68,2.18-49,3.78.78,3,1.55,6,2.33,9v96.88c-.78,2.48-1.55,5-2.33,7.44,16.34-1.5,32.68-2.72,49-3.49l3.45-21.5h0C644.34,94.07,641.77,95,639.2,95.83Z" style="fill:url(#bb7e91ad-f98b-4bb6-b49a-6c950e747f74)"/><path d="M681.24,18.72v76q8.32,0,16.65.28l2.23-2.18V21.25l-2.23-2.31Q689.57,18.71,681.24,18.72Z" style="fill:none"/><polygon points="719.2 10.48 719.2 105.81 719.2 105.81 719.2 10.48 719.2 10.48" style="fill:none"/><path d="M709.66.62Q695.89,0,682.13,0q-10.9,0-21.8.35c.68,2.36,1.35,4.73,2,7.09v99.35l-2,7.31c16.44-.42,32.89-.3,49.33.56q4.77-4.47,9.54-8.85V10.48Q714.43,5.5,709.66.62Zm-9.54,92.22L697.89,95q-8.32-.26-16.65-.28v-76q8.32,0,16.65.22l2.23,2.31Z" style="fill:url(#f3ffa0a2-64bb-496b-81ee-49f275860b84)"/><polygon points="579.9 6.33 579.9 6.33 579.9 6.33 579.9 6.33" style="fill:none"/><path d="M709.13,100.59c-1.63,1.53-3.25,3-4.87,4.59l-.4.19q-16-.66-32-.47h-.51v-1h-.12q-5.73,5.07-11.47,10.23h0c.68-2.43,1.35-4.87,2-7.3V7.46q-1-3.55-2-7.09H331.86V33.05q4.77-4.24,9.54-8.59,2.18,4.5,4.34,9l.23-.13q13.61.54,27.2.47l.41.2c1.93,1.87,3.85,3.74,5.78,5.59l.21.2V57.2H379q4.71,2.41,9.44,4.77Q379,63.71,369.62,65.2V45.77l-2-2.22q-8.47,0-16.95-.32l-4.41-8.81h-.06l-4.46,4v83.75l4.53,4.41c1.46-2.88,2.93-5.75,4.4-8.64q8.48.32,16.95.38l2-2.2V96.51Q379,95,388.4,93.31q-4.72,4.09-9.44,8.11h.61v20.85l-.21.2c-1.93,1.9-3.85,3.79-5.78,5.67l-.41.2q-13.6,0-27.2-.61l-.22-.16-4.35,8.77H709.13Zm-103-88.08q14.86-1.32,29.74-2.24v.62h0q3.81-4.94,7.61-9.83l3.45,20.76c-2.57-.62-5.14-1.24-7.71-1.84q-11.93.68-23.85,1.64-4.36-4-8.73-8V50.18q9.23-.8,18.47-1.45v.51h0q4.67-6.29,9.34-12.55V60.47l-7.31-1.88q-5.88.39-11.77.86-4.36-4.14-8.73-8.24v55.84h.08q4.32-4.85,8.65-9.66,11.92-.91,23.85-1.55c2.57-.88,5.14-1.76,7.71-2.62l-3.45,21.5q-3.81-4.56-7.61-9.1h0v.51q-14.86.82-29.74,2.09l-.51.05v-.1q-5.58,5-11.16,10c.78-2.48,1.55-5,2.33-7.44V13.88c-.78-3-1.55-6-2.33-9Q600,8.77,605.6,12.76v-.2ZM443.94,125.07c-8.59.7-17.18,1.32-25.78,1.81l-.26,0-5.42,9.34q-4.77-4.39-9.54-8.85V33.53q4.77-4.8,9.54-9.66l5.91,8.51.28-.21q12.39-.78,24.77-1.86l.3.18,6.6,5.47a.94.94,0,0,1,.1.1v82.59c0,.08-.07.15-.1.22-2,2-4,4-6,6.06Zm28.64,6.36h0q1.17-3.66,2.33-7.32V25.82c-.77-2.35-1.55-4.69-2.33-7q11.67-1.25,23.34-2.61L484.76,26.36v94.7l11.16,7.9q-11.67,1.29-23.34,2.47Zm58.6-75.21q-2.4-16.17-4.78-32.34l-.6-1.43-3.35.4v94l11.17,7.84-23.35,2.68c.78-2.46,1.56-4.91,2.33-7.37V21.5q-1.16-3.53-2.33-7,10.46-1.24,20.91-2.52l-4.74,9.31h.07c0,.13.07.26.1.39q18.63,44.65,37.25,89.57l3.66-.39v-1.35q-4.47-15.94-8.94-31.84V16q-1.16-3.52-2.33-7,11.82-1.38,23.65-2.65h0l-11.37,10.2v95.1q5.69,4,11.37,8-10.67,1.08-21.32,2.25Q544.89,88.94,531.18,56.22Z" style="fill:none"/><path d="M378.45,40.19,373,34.89q-13.38.06-26.74-.47l4.41,8.81q8.48.29,16.95.32l2,2.22V65.2Q379,63.71,388.4,62q-4.72-2.36-9.44-4.77h-.51Z" style="fill:url(#e54dce4c-f44e-4714-ae4a-6acb28214e00)"/><path d="M373,127.23c1.82-1.78,3.65-3.56,5.48-5.36V101.43H379q4.71-4,9.44-8.11Q379,95,369.62,96.51v19.63l-2,2.2q-8.47-.07-16.95-.38c-1.47,2.89-2.94,5.76-4.4,8.64l0,0Q359.62,127.23,373,127.23Z" style="fill:url(#f944b12f-e516-48a3-a9e9-c5f4235cedc1)"/><path d="M345.66,127.51c-1.59-1.61-3.18-3.24-4.77-4.86l-.2-.12V38l.2-.19c1.59-1.43,3.18-2.86,4.77-4.31l.08-.05q-2.16-4.48-4.34-9-4.77,4.34-9.54,8.59V126.5q4.77,5,9.54,9.84h0l4.35-8.77Z" style="fill:url(#e0ba4fa2-fe0d-4a18-85a9-daffc07b634a)"/><path d="M449.43,118.34V36.65l-6.2-5.21q-12.14,1.05-24.29,1.83L423.85,42Q431,41.55,438.16,41l2.23,1.94v70.63l-2.23,2.2q-7.16.55-14.31,1l-5.38,9.11q12.63-.73,25.27-1.78C445.64,122.17,447.53,120.25,449.43,118.34Z" style="fill:url(#a5e67530-52dc-4453-9e9c-22af5c47feb8)"/><path d="M412,121.67l-.2-.19V38.84l.2-.11,6.4-6.33,0,0-5.91-8.51q-4.77,4.86-9.54,9.66v93.79q4.77,4.45,9.54,8.85l5.42-9.34-.14,0C415.83,125.1,413.9,123.38,412,121.67Z" style="fill:url(#f86145f9-9003-4412-970c-52c18a2c7622)"/><path d="M484.76,121.06v.1l-1,.1v-95l1-.12v.21l11.16-10.19q-11.67,1.35-23.34,2.61c.78,2.35,1.56,4.69,2.33,7v98.29q-1.16,3.66-2.33,7.32h0q11.67-1.17,23.34-2.47Z" style="fill:url(#e1ab4100-64d4-4063-800c-f2fee3f2b61f)"/><path d="M568.53,111.63v.1l-.51,0-4.46.48-.41,0c0-.1-.07-.2-.1-.3Q544.72,67.77,526.4,23.88q2.39,16.17,4.78,32.34,13.7,32.75,27.4,65.63,10.67-1.17,21.32-2.25Q574.22,115.6,568.53,111.63Z" style="fill:url(#ee9bf7bf-ee25-4e86-a286-98e7734ff5fb)"/><path d="M567.52,17v-.61l1-.12v.22L579.9,6.33h0Q568.08,7.58,556.25,9q1.17,3.53,2.33,7V77.63q4.47,15.9,8.94,31.84Z" style="fill:url(#abc004ba-4aac-4a9e-a85a-2841f0f041c8)"/><path d="M521.43,117V21.86l.51-.06,4.16-.5.34,0L531.18,12q-10.45,1.26-20.91,2.52,1.17,3.51,2.33,7V120c-.77,2.46-1.55,4.91-2.33,7.37l23.35-2.68-11.17-7.84v.09Z" style="fill:url(#b423acf3-8cb3-4365-a8e2-75ea3afb7bc1)"/><path d="M606.62,13.59h0q4.36,4,8.73,8,11.92-1,23.85-1.64c2.57.6,5.14,1.22,7.71,1.84L643.46,1.06q-3.81,4.9-7.61,9.83h0v.51Q621.23,12.29,606.62,13.59Z" style="fill:url(#ae2194a5-126e-46a7-a01b-c084dd767280)"/><path d="M635.85,105v.61h0q3.81,4.53,7.61,9.1l3.45-21.5c-2.57.86-5.14,1.74-7.71,2.62q-11.93.63-23.85,1.55Q611,102.2,606.7,107,621.28,105.83,635.85,105Z" style="fill:url(#a66db5d5-eaa2-4d41-884b-b67ccf533308)"/><path d="M606.62,51.2h0q4.36,4.11,8.73,8.24,5.88-.47,11.77-.86l7.31,1.88V36.69q-4.66,6.26-9.34,12.55h0v.51Q615.85,50.4,606.62,51.2Z" style="fill:url(#b833b1b3-dbd6-42c6-9263-02e0b5fa9fb1)"/><path d="M605.6,13.17v-.41q-5.58-4-11.16-7.92c.78,3,1.55,6,2.33,9v96.88c-.78,2.48-1.55,5-2.33,7.44q5.58-5,11.16-10v-95Z" style="fill:url(#a44e4cbf-6b3f-4c83-a02d-c4a3c25968dc)"/><path d="M661.82,106.81c-.68,2.43-1.35,4.87-2,7.3h0q5.75-5.16,11.47-10.23V9.09Q665.53,4.68,659.79.37h0q1,3.54,2,7.09Z" style="fill:url(#e46376c9-cd09-4721-a52c-1f746b1483d7)"/><path d="M671.26,103.88h.12v-.11Z" style="fill:url(#e005253d-4d90-4200-b821-cd9bd01a0d5e)"/><path d="M671.38,9.09h-.12l.12.12Z" style="fill:url(#ba5c74d9-9d31-4469-83eb-121aa477b8fd)"/><path d="M672.49,10v.36q4.11,4.15,8.21,8.37,8.32,0,16.65.2c.74.77,1.49,1.54,2.23,2.32V92.82L697.35,95q-8.33-.24-16.65-.26-4.1,3.95-8.21,8v1.08q15.38-.15,30.75.45L709.12,99V16.15l-5.67-5.85C693.13,9.93,682.81,9.85,672.49,10Z" style="fill:url(#bc815d55-e78a-40ef-a1e3-9799fb301a25)"/><path d="M373.37,127.73q-13.69,0-27.4-.61l-.22.45.22.16q13.61.61,27.2.61l.41-.2c1.93-1.88,3.85-3.77,5.78-5.67l.21-.2V101.42H379v20.65C377.1,124,375.24,125.85,373.37,127.73Z" style="fill:#fff"/><path d="M373.17,34.39,379,40V57.2h.61V39.77l-.21-.2c-1.93-1.85-3.85-3.72-5.78-5.59l-.41-.2q-13.6.06-27.2-.47l-.23.13.23.47Q359.58,34.47,373.17,34.39Z" style="fill:#fff"/><path d="M341.2,38.22v84.14l4.77,4.76.27-.52-4.53-4.41V38.44l4.46-4h.06c-.09-.17-.18-.34-.26-.51Z" style="fill:#fff"/><path d="M340.89,37.8l-.2.19v84.54l.2.12c1.59,1.62,3.18,3.25,4.77,4.86l.09.06.22-.45-4.77-4.76V38.22L346,33.91l-.23-.47-.08.05C344.07,34.94,342.48,36.37,340.89,37.8Z" style="fill:#fff"/><path d="M373.37,127.73c1.87-1.88,3.73-3.76,5.59-5.66V101.42h-.51v20.44c-1.83,1.8-3.66,3.58-5.48,5.36q-13.35,0-26.7-.6l0,0-.27.52Q359.67,127.75,373.37,127.73Z" style="fill:#fff"/><path d="M373.17,34.39q-13.6.06-27.2-.48c.08.17.17.34.26.51q13.36.54,26.74.47l5.48,5.3v17H379V40Z" style="fill:#fff"/><path d="M412.28,121.25l5.88,5.13.31-.53h-.1L412.78,121V39.29l6.09-6h.07l-.27-.49q-3.19,3.13-6.39,6.23Z" style="fill:#fff"/><path d="M450.44,118.65V36.06a.94.94,0,0,0-.1-.1l-6.6-5.47-.3-.18q-12.39,1.07-24.77,1.86l-.28.21.28.4q12.39-.78,24.77-1.86l6.49,5.48v82.1c-2,2-4,4-6,6.06q-12.88,1.06-25.78,1.82c-.08.15-.17.3-.26.45l.26,0c8.6-.49,17.19-1.11,25.78-1.81l.41-.14c2-2,4-4,6-6.06C450.37,118.8,450.41,118.73,450.44,118.65Z" style="fill:#fff"/><path d="M443.23,31.44l6.2,5.21v81.69c-1.9,1.91-3.79,3.83-5.69,5.73q-12.63,1-25.27,1.78l-.31.53q12.9-.75,25.78-1.82c2-2,4-4,6-6.06V36.4l-6.49-5.48Q431.05,32,418.67,32.78l.27.49Q431.09,32.49,443.23,31.44Z" style="fill:#fff"/><path d="M412.28,121.25V39q3.2-3.1,6.39-6.23l-.28-.4,0,0L412,38.73l-.2.11v82.64l.2.19c1.93,1.71,3.86,3.43,5.79,5.13l.14,0c.09-.15.18-.3.26-.45Z" style="fill:#fff"/><path d="M484.25,120.7l.51.36V26.36l-.51.46Z" style="fill:#fff"/><path d="M483.75,26.27v95l1-.1v-.1l-.51-.36V26.82l.51-.46v-.21Z" style="fill:#fff"/><path d="M563.56,111.75l4.46-.48c-.17-.6-.33-1.2-.5-1.8v1.35l-3.66.39q-18.61-45-37.25-89.57c0-.13-.07-.26-.1-.39h-.07c-.12.21-.23.43-.34.64Q544.84,66.69,563.56,111.75Z" style="fill:#fff"/><path d="M521.94,22.4v94.07l.51.36v-94l3.35-.4.6,1.43-.3-2Z" style="fill:#fff"/><path d="M568,111.27l.51.36V16.53L568,17Z" style="fill:#fff"/><path d="M563.15,112.31l.41,0,4.46-.48.51,0v-.1l-.51-.36-4.46.48Q544.83,66.66,526.1,21.9l.3,2Q544.72,67.82,563.05,112C563.08,112.11,563.12,112.21,563.15,112.31Z" style="fill:#fff"/><path d="M568,17l.51-.45v-.22l-1,.12v93c.17.6.33,1.2.5,1.8Z" style="fill:#fff"/><path d="M521.94,22.4l4.16-.5c.11-.21.22-.43.34-.64l-.34,0-4.16.5-.51.06V117l1-.12v-.09l-.51-.36Z" style="fill:#fff"/><path d="M606.11,13.13c9.91-.88,19.82-1.65,29.74-2.24v-.62q-14.86.9-29.74,2.24l-.51.05v.2Z" style="fill:#fff"/><path d="M606.11,50.73q9.5-.82,19-1.49v-.51q-9.24.65-18.47,1.45V13.59l-.51-.46Z" style="fill:#fff"/><path d="M606.11,107.7l.59-.66h-.08V51.21l-.51-.48Z" style="fill:#fff"/><path d="M606.11,107.7l-.51.46v.1l.51-.05Q621,107,635.85,106.12v-.51Q621,106.44,606.11,107.7Z" style="fill:#fff"/><path d="M606.11,13.13l.51.46h0q14.61-1.29,29.23-2.19v-.51C625.93,11.48,616,12.25,606.11,13.13Z" style="fill:#fff"/><path d="M606.11,50.73V13.13l-.51-.37v95.4l.51-.46Z" style="fill:#fff"/><path d="M606.62,51.21h0q9.23-.8,18.47-1.45v-.51q-9.5.66-19,1.49Z" style="fill:#fff"/><path d="M635.85,105.61V105q-14.58.81-29.15,2l-.59.66Q621,106.46,635.85,105.61Z" style="fill:#fff"/><path d="M672.49,10.35l-1.11-1.14v94.56l1.11-1.08Z" style="fill:#fff"/><path d="M703.65,104.24l-.41,0-.11.1c-10.58-.43-21.17-.55-31.75-.44v1h.51q16-.16,32,.47l.4-.19c1.62-1.54,3.24-3.06,4.87-4.59V99.07C707.3,100.78,705.48,102.5,703.65,104.24Z" style="fill:#fff"/><path d="M709.14,16.17V99.06h0v1.52l.92-.87.2-.2V15.81l-.2-.21-.92-1v1.52Z" style="fill:#fff"/><path d="M703.65,9.18c-10.58-.38-21.18-.46-31.76-.31h-.51v.21q15.61-.25,31.24.26,3.25,3.18,6.5,6.41v.39h0V14.64L704.06,9.4Z" style="fill:#fff"/><path d="M703.13,104.32l.11-.1q-15.37-.61-30.75-.45v-1.08l-1.11,1.08v.11C682,103.77,692.55,103.89,703.13,104.32Z" style="fill:#fff"/><path d="M672.49,10.35V10c10.32-.14,20.64-.06,31,.31l5.67,5.85v-.39q-3.24-3.22-6.5-6.41Q687,8.82,671.38,9.09v.12Z" style="fill:#fff"/></g></g></svg>