<svg xmlns="http://www.w3.org/2000/svg" xmlns:xlink="http://www.w3.org/1999/xlink" viewBox="0 0 492.13 194.84"><defs><linearGradient id="eb1af984-90b9-484e-b032-b53bb043a68f" x1="1969.15" y1="1479.46" x2="1970.15" y2="1479.46" gradientTransform="matrix(275.45, 248.21, 248.21, -275.45, -909497.39, -81239.35)" gradientUnits="userSpaceOnUse"><stop offset="0" stop-color="#c79333"/><stop offset="0.36" stop-color="#f0b948"/><stop offset="0.58" stop-color="#d7ab2d"/><stop offset="0.61" stop-color="#d7ab2e"/><stop offset="1" stop-color="#d3a636"/></linearGradient><linearGradient id="a1efee8e-a5b9-44a4-8e1f-71e2a6fea721" x1="1928.75" y1="1487" x2="1929.75" y2="1487" gradientTransform="matrix(55.1, 0, 0, -55.1, -106186.71, 82018.3)" xlink:href="#eb1af984-90b9-484e-b032-b53bb043a68f"/><linearGradient id="b9543d0f-5874-433e-bd7c-ac78fc367703" x1="1928.75" y1="1487" x2="1929.75" y2="1487" gradientTransform="matrix(55.11, 0, 0, -55.11, -105943.16, 82022.01)" xlink:href="#eb1af984-90b9-484e-b032-b53bb043a68f"/><linearGradient id="ec8d259f-582a-4266-aa43-97d82431824a" x1="1946.86" y1="1485.67" x2="1947.86" y2="1485.67" gradientTransform="matrix(91.14, 0, 0, -91.14, -177390.52, 135510.08)" xlink:href="#eb1af984-90b9-484e-b032-b53bb043a68f"/><linearGradient id="fd43c7f2-90eb-4c76-b73e-1a086ec4963e" x1="1946.85" y1="1485.67" x2="1947.85" y2="1485.67" gradientTransform="matrix(91.14, 0, 0, -91.14, -177089.28, 135505.62)" xlink:href="#eb1af984-90b9-484e-b032-b53bb043a68f"/></defs><title>historyBanner</title><g id="acfd23f4-bb5f-4b23-9df2-55c7c003eeee" data-name="Layer 2"><g id="b71b361b-7178-4bb5-b035-548eab3e2eda" data-name="Layer 1"><path d="M489.59,128c-10.09-13.51-28.38-34.11-41.17-45.84-26.63-24.41-56.23-44.59-90.75-58a304.46,304.46,0,0,0-111.61-21A301.21,301.21,0,0,0,135,23.79C100.46,37.18,71.08,56.1,44.45,80.51c-12.33,11.3-21.72,22.13-32.54,34C4.83,122.34,1.6,126.73,3.06,128l65.15,62.69c33-54,94.34-99.95,178.74-99.95,72.73,0,149.49,46.8,182.35,101.3l57.2-59c1.45-1.29,4.24-3.47,3.09-5" style="fill:#0f3d2c"/><path d="M426.42,194.84,490.78,133a4.4,4.4,0,0,0,.54-5.72,303.27,303.27,0,0,0-33.06-39.17,300.66,300.66,0,0,0-425.56,0A304.13,304.13,0,0,0,.83,125.63a4.39,4.39,0,0,0,.52,5.74l65,62.41a210.06,210.06,0,0,1,360.1,1.06ZM246.06,87.44A214.87,214.87,0,0,0,65.35,185.91L5.19,128.13a300.27,300.27,0,0,1,31-36.46,295.66,295.66,0,0,1,418.49,0A300.17,300.17,0,0,1,487,129.78l-59.53,57.16a214.89,214.89,0,0,0-181.36-99.5Z" style="fill:url(#eb1af984-90b9-484e-b032-b53bb043a68f)"/><path d="M176.39,43l9.11,29.64-7,2.14-3.22-10.48L170,65.9l3.23,10.49-7,2.15L157.12,48.9l7-2.15,4.58,14.91L174,60,169.4,45.12Z" style="fill:#fff"/><path d="M192.58,71.08l-6.42-30.33,7.15-1.52,6.42,30.34Z" style="fill:#fff"/><path d="M222.38,43.09a11.32,11.32,0,0,0-3.87-2.21,8.38,8.38,0,0,0-3.56-.43,4.3,4.3,0,0,0-2.54,1.13,2.75,2.75,0,0,0-.77,2.41,2.09,2.09,0,0,0,1.11,1.54,12.46,12.46,0,0,0,2.39,1.1c.93.33,2,.69,3.07,1.06a14.08,14.08,0,0,1,3.13,1.49,10.42,10.42,0,0,1,2.54,2.28A6.9,6.9,0,0,1,225.23,55a10.8,10.8,0,0,1-.26,4,11.38,11.38,0,0,1-1.68,3.7,9.8,9.8,0,0,1-3,2.77,9.28,9.28,0,0,1-4.1,1.28,13,13,0,0,1-5.12-.76,21.44,21.44,0,0,1-6-3.35l2.25-4.56A11.26,11.26,0,0,0,211,61a8.62,8.62,0,0,0,3.54,1,4,4,0,0,0,2.63-.76,2.36,2.36,0,0,0,.83-2.31,1.88,1.88,0,0,0-1.07-1.43,14.41,14.41,0,0,0-2.38-1l-3.05-1a13,13,0,0,1-3.11-1.52,9.39,9.39,0,0,1-2.56-2.47,8.31,8.31,0,0,1-1.38-3.86,11.42,11.42,0,0,1,.4-5.08,9.73,9.73,0,0,1,2.25-3.69,9.88,9.88,0,0,1,3.49-2.28,11.89,11.89,0,0,1,4.11-.82,12.19,12.19,0,0,1,4.17.64,9.82,9.82,0,0,1,3.61,2.12Z" style="fill:#fff"/><path d="M249.69,38.45l-5.67.1.5,26.62-7.31.13-.5-26.61-5.62.1.62-4.45L248.9,34Z" style="fill:#fff"/><path d="M268.25,35.15a8.59,8.59,0,0,1,4.31,1.61,12.15,12.15,0,0,1,3.34,3.66,17.18,17.18,0,0,1,2,5.17,21,21,0,0,1-1,12.17A17.28,17.28,0,0,1,274,62.52a12.18,12.18,0,0,1-3.91,3,8.62,8.62,0,0,1-8.87-.75,12.28,12.28,0,0,1-3.34-3.66,17.18,17.18,0,0,1-2-5.17,21,21,0,0,1,1-12.17,17.28,17.28,0,0,1,2.87-4.76A12.18,12.18,0,0,1,263.69,36,8.69,8.69,0,0,1,268.25,35.15ZM266,61.91a1.76,1.76,0,0,0,1.46-.73,8.21,8.21,0,0,0,1.32-2.26,20.5,20.5,0,0,0,1.07-3.45,30.24,30.24,0,0,0,.66-4.28,31.29,31.29,0,0,0,.07-4.3,21.18,21.18,0,0,0-.48-3.56,8.42,8.42,0,0,0-.92-2.47,1.77,1.77,0,0,0-1.32-1,1.82,1.82,0,0,0-1.48.76A7.8,7.8,0,0,0,265,42.9,20.52,20.52,0,0,0,264,46.33a29.4,29.4,0,0,0-.65,4.25,30.19,30.19,0,0,0-.08,4.33,21.43,21.43,0,0,0,.48,3.58,7.63,7.63,0,0,0,.95,2.45A1.81,1.81,0,0,0,266,61.91Z" style="fill:#fff"/><path d="M307.07,52.66a12.32,12.32,0,0,1-.7,2.2,12.16,12.16,0,0,1-1.28,2.29,11,11,0,0,1-1.92,2.07,9.09,9.09,0,0,1-2.59,1.51l2,11.23-7.9-1.61L293,60.65l-.91-.18-1.84,9L283.17,68l6.22-30.38,10.33,2.12a9.91,9.91,0,0,1,4,1.69,8.83,8.83,0,0,1,2.52,2.93,10.08,10.08,0,0,1,1.11,3.85A15.21,15.21,0,0,1,307.07,52.66Zm-13.93,2.66,1.65.33a3.15,3.15,0,0,0,1.72-.11,4.41,4.41,0,0,0,1.57-.94A6.49,6.49,0,0,0,299.34,53a7.6,7.6,0,0,0,.77-2.13,7.24,7.24,0,0,0,.12-2.26,6.14,6.14,0,0,0-.52-2,4.55,4.55,0,0,0-1.07-1.49,3.28,3.28,0,0,0-1.54-.78L295.45,44Z" style="fill:#fff"/><path d="M336.56,49.91,324.45,64.09l-4.18,13.19-7-2.21,4.22-13.33-1.28-18.26,7.61,2.4.85,11.53,7.76-8.8Z" style="fill:#fff"/><path d="M104.4,98.54q8.64-6,17.79-11.29a243,243,0,0,1,22.52-11.46l.81,1.83-1.87.69-6.5-17.74,1.88-.69.8,1.83a261.43,261.43,0,0,0-25.06,12.67q-9.57,5.5-18.63,11.82l-2.28-3.29q9.19-6.39,18.92-12a263.55,263.55,0,0,1,25.44-12.86l1.95-.85L148,78.69l-1.7.76a242.58,242.58,0,0,0-22.16,11.26q-9,5.19-17.5,11.12l-2.28-3.29Z" style="fill:url(#a1efee8e-a5b9-44a4-8e1f-71e2a6fea721)"/><path d="M394.6,86.19q-8.73-6.06-18-11.43a261.85,261.85,0,0,0-25.72-13.05l.8-1.83,1.88.69-6.5,17.74-1.87-.69.81-1.83a248.29,248.29,0,0,1,23.15,11.82q8.82,5.11,17.17,10.93l-2.29,3.28c-5.47-3.8-11.1-7.4-16.88-10.75A240.33,240.33,0,0,0,344.4,79.45l-1.71-.76,7.88-21.5,1.95.86A264.45,264.45,0,0,1,378.64,71.3q9.36,5.45,18.25,11.61l-2.29,3.28Z" style="fill:url(#b9543d0f-5874-433e-bd7c-ac78fc367703)"/><path d="M143.08,70.58a248.75,248.75,0,0,0-23.6,12,254,254,0,0,0-64,52.43l-3-2.64a255.71,255.71,0,0,1,88.95-65.42l1.61,3.66Z" style="fill:url(#ec8d259f-582a-4266-aa43-97d82431824a)"/><path d="M435.21,135A253.53,253.53,0,0,0,371.9,82.92a250.89,250.89,0,0,0-24.24-12.34l1.61-3.66a253.45,253.45,0,0,1,24.64,12.54,257.91,257.91,0,0,1,64.31,52.89l-3,2.64Z" style="fill:url(#fd43c7f2-90eb-4c76-b73e-1a086ec4963e)"/></g></g></svg>