<svg xmlns="http://www.w3.org/2000/svg" xmlns:xlink="http://www.w3.org/1999/xlink" viewBox="0 0 1755.13 999.4"><defs><linearGradient id="abc94bb8-a665-4abc-bb09-8ebdccb9d7b9" x1="1113.46" y1="73.47" x2="1607.54" y2="73.47" gradientUnits="userSpaceOnUse"><stop offset="0" stop-color="#a56e29"/><stop offset="0.36" stop-color="#e5b450"/><stop offset="0.39" stop-color="#dfab4a"/><stop offset="0.58" stop-color="#c17e2a"/><stop offset="0.82" stop-color="#be9131"/><stop offset="1" stop-color="#bc9a34"/></linearGradient><linearGradient id="f4477b82-0d69-483c-a4db-79ff21e6c9d9" x1="1113.46" y1="93.97" x2="1607.54" y2="93.97" xlink:href="#abc94bb8-a665-4abc-bb09-8ebdccb9d7b9"/><linearGradient id="ffce9c6b-7519-4fe3-931b-59780e131db7" x1="1113.46" y1="113.86" x2="1607.54" y2="113.86" xlink:href="#abc94bb8-a665-4abc-bb09-8ebdccb9d7b9"/><linearGradient id="b3c478aa-4cfe-48d8-869a-91c3d5f0ee9b" x1="439.81" y1="73.47" x2="669.91" y2="73.47" xlink:href="#abc94bb8-a665-4abc-bb09-8ebdccb9d7b9"/><linearGradient id="e7603ed4-98d1-45a5-94e2-76bd57d13cb0" x1="439.81" y1="93.97" x2="669.91" y2="93.97" xlink:href="#abc94bb8-a665-4abc-bb09-8ebdccb9d7b9"/><linearGradient id="b4db0599-77be-4144-8a96-3c67f0fa222d" x1="439.81" y1="113.86" x2="669.91" y2="113.86" xlink:href="#abc94bb8-a665-4abc-bb09-8ebdccb9d7b9"/></defs><title>historyPanel</title><g id="b4530dfc-a0ce-43b0-898a-fb07befd02f0" data-name="Layer 2"><g id="aa1de4f9-4dd2-4162-87af-0f7e6b398afe" data-name="CAT - HISTORY"><rect width="1755.13" height="999.4" rx="42.86" style="fill:#0f3d2c"/><polygon points="38.38 160.72 38.38 29.23 387.49 29.23 415.65 95.82 387.49 160.72 38.38 160.72" style="fill:#21815e"/><path d="M115.5,102.86v14.5c0,4-2.56,6.76-6.59,6.76H97.37a6.38,6.38,0,0,1-6.67-6.76v-43c0-4.2,2.72-6.84,6.67-6.84h11.54c4,0,6.59,2.64,6.59,6.84V88.61h-9.23V76.5c0-.49-.33-.9-.58-.9h-5.1c-.33,0-.58.41-.58.9v38.72c0,.5.25.82.58.82h5.1a.75.75,0,0,0,.58-.82V102.86Z" style="fill:#94d1bb"/><path d="M148.05,123.62h-9.14V107.48h-6.59v16.14h-9.14V73.7a5.42,5.42,0,0,1,5.6-5.68h13.59a5.44,5.44,0,0,1,5.68,5.68Zm-9.14-23.8V77.33a1.15,1.15,0,0,0-1.15-1.24h-4.29a1.15,1.15,0,0,0-1.15,1.24V99.82Z" style="fill:#94d1bb"/><path d="M171.1,76v47.61h-9.22V76h-7V68H178.1v8Z" style="fill:#94d1bb"/><path d="M185.15,68h20.51v8h-11.2V91.66h9.14V99.4h-9.14v16.23h11.2v8H185.15Z" style="fill:#94d1bb"/><path d="M220,124c-4.12,0-6.67-2.72-6.67-6.76V74.36c0-4.2,2.55-6.84,6.67-6.84h17.71v8.65h-14.5c-.24,0-.57.42-.57.91v37.56c0,.5.33.83.57.83h5.44c.41,0,.66-.33.66-.83V97.51h-3.13V89.68h14.17v7.83h-2.72v19.77a6.36,6.36,0,0,1-6.76,6.76Z" style="fill:#94d1bb"/><path d="M267.66,67.52a5.5,5.5,0,0,1,5.69,5.69v45.14a5.5,5.5,0,0,1-5.69,5.69H253.41a5.45,5.45,0,0,1-5.68-5.69V73.21a5.45,5.45,0,0,1,5.68-5.69ZM264,76.17c0-.49-.33-.9-.5-.9h-6.09c-.41,0-.41.57-.41.9V115.3c0,.25.08.74.41.74h6.09a.75.75,0,0,0,.5-.74Z" style="fill:#94d1bb"/><path d="M294.59,105.09h-3.13v18.53h-9.31V68h18.7c4.12,0,6.67,2.72,6.67,6.84V98.25c0,3.21-1.56,5.52-4.11,6.43l4.2,18.94h-9.15Zm3.87-28.26c0-.41-.33-.82-.57-.82h-6.43V97.43h6.43c.24,0,.57-.41.57-.74Z" style="fill:#94d1bb"/><path d="M332.46,106.49v17.13h-9.14V106.49H322c-4.12,0-6.76-2.55-6.76-6.59V68h9.23V97.67a.9.9,0,0,0,.66.83H331c.33,0,.33-.41.33-.83V68h9.22V99.9c0,4-2.63,6.59-6.83,6.59Z" style="fill:#94d1bb"/><g style="opacity:0.25"><line x1="1115.96" y1="73.47" x2="1605.04" y2="73.47" style="fill:none;stroke-linecap:round;stroke-miterlimit:10;stroke-width:5px;stroke:url(#abc94bb8-a665-4abc-bb09-8ebdccb9d7b9)"/><line x1="1115.96" y1="93.97" x2="1605.04" y2="93.97" style="fill:none;stroke-linecap:round;stroke-miterlimit:10;stroke-width:5px;stroke:url(#f4477b82-0d69-483c-a4db-79ff21e6c9d9)"/><line x1="1115.96" y1="113.86" x2="1605.04" y2="113.86" style="fill:none;stroke-linecap:round;stroke-miterlimit:10;stroke-width:5px;stroke:url(#ffce9c6b-7519-4fe3-931b-59780e131db7)"/></g><g style="opacity:0.25"><line x1="442.31" y1="73.47" x2="667.41" y2="73.47" style="fill:none;stroke-linecap:round;stroke-miterlimit:10;stroke-width:5px;stroke:url(#b3c478aa-4cfe-48d8-869a-91c3d5f0ee9b)"/><line x1="442.31" y1="93.97" x2="667.41" y2="93.97" style="fill:none;stroke-linecap:round;stroke-miterlimit:10;stroke-width:5px;stroke:url(#e7603ed4-98d1-45a5-94e2-76bd57d13cb0)"/><line x1="442.31" y1="113.86" x2="667.41" y2="113.86" style="fill:none;stroke-linecap:round;stroke-miterlimit:10;stroke-width:5px;stroke:url(#b4db0599-77be-4144-8a96-3c67f0fa222d)"/></g><path d="M772.46,74.29v44.54H758.14V100.92H747.29v17.91H733V74.29h14.32V93.68h10.85V74.29Z" style="fill:#fff"/><path d="M784.17,118.83V74.29h14.32v44.54Z" style="fill:#fff"/><path d="M846.74,85.73a22.83,22.83,0,0,0-7-3.89A21.44,21.44,0,0,0,833,80.59a10.51,10.51,0,0,0-5.21,1.17,3.66,3.66,0,0,0-2.08,3.35,3,3,0,0,0,1.77,2.45,31,31,0,0,0,4.39,2.07c1.73.67,3.64,1.39,5.72,2.14a30.93,30.93,0,0,1,5.73,2.72,17,17,0,0,1,4.39,3.82,8.4,8.4,0,0,1,1.77,5.41A12.62,12.62,0,0,1,848,109.6a16.22,16.22,0,0,1-4.17,5.06,20.88,20.88,0,0,1-6.46,3.54,22.25,22.25,0,0,1-8.29,1.17,32.66,32.66,0,0,1-9.76-2,42.06,42.06,0,0,1-10.81-6l5.47-6.31a19.81,19.81,0,0,0,6.29,4.91,19.59,19.59,0,0,0,6.64,2,10.28,10.28,0,0,0,5.29-.66,3.27,3.27,0,0,0,2.17-3.15c0-.88-.58-1.64-1.73-2.26a35.61,35.61,0,0,0-4.38-1.91l-5.69-2.1a29.71,29.71,0,0,1-5.68-2.8A15.64,15.64,0,0,1,812.46,95a9.92,9.92,0,0,1-1.73-5.92,13.26,13.26,0,0,1,2-7.36,15.56,15.56,0,0,1,5.25-5,23,23,0,0,1,7.34-2.69,31.34,31.34,0,0,1,8.2-.46,29.24,29.24,0,0,1,7.94,1.71A20.47,20.47,0,0,1,848,79Z" style="fill:#fff"/><path d="M893.52,81.53H882.41v37.3H868.09V81.53h-11l1.39-7.24h33.67Z" style="fill:#fff"/><path d="M921.64,73.51a21.41,21.41,0,0,1,8.68,1.79,22.55,22.55,0,0,1,7.12,4.91,23.28,23.28,0,0,1,4.81,7.32,23.39,23.39,0,0,1,0,17.9,23.28,23.28,0,0,1-4.81,7.32,22.39,22.39,0,0,1-7.12,4.91,22.13,22.13,0,0,1-17.44,0,22.28,22.28,0,0,1-7.12-4.91,23.3,23.3,0,0,1-4.82-7.32,23.39,23.39,0,0,1,0-17.9,23.3,23.3,0,0,1,4.82-7.32,22.44,22.44,0,0,1,7.12-4.91A21.58,21.58,0,0,1,921.64,73.51Zm0,39.32a3.78,3.78,0,0,0,2.73-1.28,11.53,11.53,0,0,0,2.22-3.47,24.54,24.54,0,0,0,1.52-5.14,34.1,34.1,0,0,0,.56-6.3,33.46,33.46,0,0,0-.56-6.27,25.67,25.67,0,0,0-1.52-5.14,11.52,11.52,0,0,0-2.22-3.51,3.78,3.78,0,0,0-2.73-1.28,4,4,0,0,0-2.78,1.28,11,11,0,0,0-2.25,3.51,24.42,24.42,0,0,0-1.52,5.14,32.62,32.62,0,0,0-.57,6.27,33.24,33.24,0,0,0,.57,6.3,23.39,23.39,0,0,0,1.52,5.14,11,11,0,0,0,2.25,3.47A4,4,0,0,0,921.64,112.83Z" style="fill:#fff"/><path d="M993.67,90.41a13.21,13.21,0,0,1-.47,3.27,13.77,13.77,0,0,1-1.57,3.58,16.62,16.62,0,0,1-2.86,3.46,15.79,15.79,0,0,1-4.38,2.85l8.33,15.26h-15.8l-7-13.16h-1.82v13.16H953.84V74.29h20.65a25.23,25.23,0,0,1,8.33,1.24,17.75,17.75,0,0,1,6,3.39,13.66,13.66,0,0,1,3.65,5.1A16.64,16.64,0,0,1,993.67,90.41ZM968,98.11h3.3a8.12,8.12,0,0,0,3.26-.66,8.5,8.5,0,0,0,2.64-1.79A8.4,8.4,0,0,0,979,93.05a7.71,7.71,0,0,0,.65-3.19,8,8,0,0,0-.65-3.23,8.37,8.37,0,0,0-4.42-4.44,8.12,8.12,0,0,0-3.26-.66H968Z" style="fill:#fff"/><path d="M1040.54,74.29,1026.3,99v19.86H1012V98.74L998.79,74.29h15.63l8.41,15.42,9.29-15.42Z" style="fill:#fff"/></g></g></svg>