<svg xmlns="http://www.w3.org/2000/svg" xmlns:xlink="http://www.w3.org/1999/xlink" viewBox="0 0 2250 2448.46"><defs><linearGradient id="a2e9dc76-25f8-443c-91c3-49d00cff2091" x1="-0.09" y1="2449.42" x2="0.91" y2="2449.42" gradientTransform="translate(746.18 1865034.09) rotate(180) scale(761.21)" gradientUnits="userSpaceOnUse"><stop offset="0" stop-color="#a56e29"/><stop offset="0.36" stop-color="#e5b450"/><stop offset="0.41" stop-color="#dca646"/><stop offset="0.58" stop-color="#c17e2a"/><stop offset="0.82" stop-color="#be9131"/><stop offset="1" stop-color="#bc9a34"/></linearGradient><linearGradient id="bc89aba0-4f7a-45c6-bd34-c6a6af1be86f" x1="-0.09" y1="2447.99" x2="0.91" y2="2447.99" xlink:href="#a2e9dc76-25f8-443c-91c3-49d00cff2091"/><linearGradient id="a9e49dee-c157-4b1c-ae62-9cd517ff48eb" x1="-0.09" y1="2449.82" x2="0.91" y2="2449.82" xlink:href="#a2e9dc76-25f8-443c-91c3-49d00cff2091"/><linearGradient id="afc4b21f-4d12-44fc-a504-a7225e1d1c5f" x1="-0.09" y1="2449.12" x2="0.91" y2="2449.12" xlink:href="#a2e9dc76-25f8-443c-91c3-49d00cff2091"/><linearGradient id="fa696de7-7a8b-4bdd-9625-e3676690fc92" x1="-0.09" y1="2449.94" x2="0.91" y2="2449.94" xlink:href="#a2e9dc76-25f8-443c-91c3-49d00cff2091"/><linearGradient id="ee808d0b-7446-48f1-82e0-7dee30a047b6" x1="-0.09" y1="2449.13" x2="0.91" y2="2449.13" xlink:href="#a2e9dc76-25f8-443c-91c3-49d00cff2091"/><linearGradient id="b9954a3d-0188-49ed-a88e-8c8d0f8a1b93" x1="-0.09" y1="2449.7" x2="0.91" y2="2449.7" xlink:href="#a2e9dc76-25f8-443c-91c3-49d00cff2091"/><linearGradient id="a6de59a2-8cc4-4df2-b34f-3a5c7127edb2" x1="-0.09" y1="2449.93" x2="0.91" y2="2449.93" xlink:href="#a2e9dc76-25f8-443c-91c3-49d00cff2091"/><linearGradient id="f0d5f698-7a8e-4313-83ce-8a5edf73a2de" x1="-0.09" y1="2450.02" x2="0.91" y2="2450.02" xlink:href="#a2e9dc76-25f8-443c-91c3-49d00cff2091"/><linearGradient id="a96cb77e-e094-4cea-922f-89d503894cad" x1="-0.09" y1="2449.42" x2="0.91" y2="2449.42" gradientTransform="matrix(761.21, 0, 0, -761.21, 1503.64, 1865034.09)" xlink:href="#a2e9dc76-25f8-443c-91c3-49d00cff2091"/><linearGradient id="b104a21b-f16b-48fe-80d0-5733cfe2605f" x1="-0.09" y1="2449.12" x2="0.91" y2="2449.12" gradientTransform="matrix(761.21, 0, 0, -761.21, 1503.64, 1865034.09)" xlink:href="#a2e9dc76-25f8-443c-91c3-49d00cff2091"/><linearGradient id="a354df74-e4c4-4129-948a-f0734f6f8c5c" x1="-0.09" y1="2447.99" x2="0.91" y2="2447.99" gradientTransform="matrix(761.21, 0, 0, -761.21, 1503.64, 1865034.09)" xlink:href="#a2e9dc76-25f8-443c-91c3-49d00cff2091"/><linearGradient id="fe4ab145-9a94-41a1-b723-80ad191a9247" x1="-0.09" y1="2449.82" x2="0.91" y2="2449.82" gradientTransform="matrix(761.21, 0, 0, -761.21, 1503.64, 1865034.09)" xlink:href="#a2e9dc76-25f8-443c-91c3-49d00cff2091"/><linearGradient id="b303e1d1-6ebd-4044-b473-25d428515290" x1="-0.09" y1="2449.94" x2="0.91" y2="2449.94" gradientTransform="matrix(761.21, 0, 0, -761.21, 1503.64, 1865034.09)" xlink:href="#a2e9dc76-25f8-443c-91c3-49d00cff2091"/><linearGradient id="ba49bd5a-7730-4b70-a3b3-8947f3534a34" x1="-0.09" y1="2449.13" x2="0.91" y2="2449.13" gradientTransform="matrix(761.21, 0, 0, -761.21, 1503.64, 1865034.09)" xlink:href="#a2e9dc76-25f8-443c-91c3-49d00cff2091"/><linearGradient id="a07eb4ef-48f4-4361-b77d-5f23767e5c5d" x1="-0.09" y1="2449.7" x2="0.91" y2="2449.7" gradientTransform="matrix(761.21, 0, 0, -761.21, 1503.64, 1865034.09)" xlink:href="#a2e9dc76-25f8-443c-91c3-49d00cff2091"/><linearGradient id="aab93b64-b845-4cd5-85fc-1b2382e3dbf7" x1="-0.09" y1="2449.93" x2="0.91" y2="2449.93" gradientTransform="matrix(761.21, 0, 0, -761.21, 1503.64, 1865034.09)" xlink:href="#a2e9dc76-25f8-443c-91c3-49d00cff2091"/><linearGradient id="a7569c34-cf83-48ff-bc46-08d1f6c60128" x1="-0.09" y1="2450.02" x2="0.91" y2="2450.02" gradientTransform="matrix(761.21, 0, 0, -761.21, 1503.64, 1865034.09)" xlink:href="#a2e9dc76-25f8-443c-91c3-49d00cff2091"/><linearGradient id="aa84c92c-bb28-4227-b873-487f5b174249" x1="-0.09" y1="2448.46" x2="0.91" y2="2448.46" gradientTransform="matrix(110.65, 1172.91, 1172.91, -110.65, -2870737.1, 270838.01)" gradientUnits="userSpaceOnUse"><stop offset="0" stop-color="#804c1b"/><stop offset="0.09" stop-color="#804c1b"/><stop offset="0.36" stop-color="#d4a442"/><stop offset="0.44" stop-color="#c49238"/><stop offset="0.64" stop-color="#a16821"/><stop offset="0.65" stop-color="#a26a21"/><stop offset="0.87" stop-color="#aa8323"/><stop offset="1" stop-color="#ad8c24"/></linearGradient></defs><title>leaderboardBg</title><g id="f43ca165-1a05-4738-8831-55ffaae84235" data-name="Layer 2"><g id="b1297804-2c98-44eb-be12-cff3c9c0cbbe" data-name="Layer 1"><path d="M0,2448.46V62A62,62,0,0,1,62,0H2188a62,62,0,0,1,62,62V2448.46" style="fill:#ebe6dd"/><path d="M760.39,743.14,760.11,754l-39.24,8.23L705.71,690l18.34-3.84L737,748Z" style="fill:#948c7b"/><path d="M827.61,731.83l-.69,10.81L787.33,749l-11.68-73,35.44-5.67,3.46,10.14-18.73,3,2.64,16.48,12.45-2,1.67,10.43-12.45,2,4,25.24Z" style="fill:#948c7b"/><path d="M911.75,732.14l-19.63,2.24L886.35,721l-19.18,2.2-2.48,14.34-11.17,1.28,10.9-75.56L884.06,661Zm-29.65-21.3-9.55-25.55-3.42,27Z" style="fill:#948c7b"/><path d="M954.22,654.61A30.26,30.26,0,0,1,967,656.38a31.63,31.63,0,0,1,10.87,6.74,35.4,35.4,0,0,1,7.8,11A42,42,0,0,1,989.31,689a40.28,40.28,0,0,1-1.53,14.52,37.28,37.28,0,0,1-6.15,12.22,34,34,0,0,1-9.76,8.67,27.9,27.9,0,0,1-12.4,3.85l-22,1.57-5.26-73.65Zm1.07,61.88a14.2,14.2,0,0,0,6.2-3.24,21,21,0,0,0,4.59-5.9,28.19,28.19,0,0,0,2.69-7.77,33.21,33.21,0,0,0,.52-8.69,43.88,43.88,0,0,0-1.86-10.12,27.32,27.32,0,0,0-3.8-7.75,16.57,16.57,0,0,0-5.36-4.86,11.51,11.51,0,0,0-6.53-1.41Z" style="fill:#948c7b"/><path d="M1061.65,712.55l-2,10.64-40.07,1.41-2.6-73.9,35.88-1.26,2.18,10.49-19,.67.59,16.69,12.6-.45.37,10.56-12.6.44.9,25.55Z" style="fill:#948c7b"/><path d="M1139.77,675.24a26.16,26.16,0,0,1-.6,5.46,27.14,27.14,0,0,1-2,6,25.17,25.17,0,0,1-3.72,5.75,22.71,22.71,0,0,1-5.71,4.8l11,25.17-20.67.1-9.3-21.77h-2.39l.11,21.81-18.63.09-.35-73.83,27-.13a26.9,26.9,0,0,1,10.91,2,22.33,22.33,0,0,1,7.87,5.59,23.58,23.58,0,0,1,4.81,8.44A34.15,34.15,0,0,1,1139.77,675.24Zm-33.56,13,4.32,0a8.88,8.88,0,0,0,4.25-1.1,11.33,11.33,0,0,0,3.45-3,14.68,14.68,0,0,0,2.31-4.39,17.26,17.26,0,0,0,0-10.67,14.69,14.69,0,0,0-2.35-4.36,11.06,11.06,0,0,0-3.48-2.94,8.81,8.81,0,0,0-4.27-1.06l-4.31,0Z" style="fill:#948c7b"/><path d="M1206.87,683.75a13.73,13.73,0,0,1,8.39,4,18.67,18.67,0,0,1,4.62,7.89,23.85,23.85,0,0,1,.7,9.62,21.68,21.68,0,0,1-3.39,9.32,20.71,20.71,0,0,1-7.73,6.9,23.67,23.67,0,0,1-12.13,2.43l-29.41-1,2.5-73.79,22,.74q8.4.28,13.49,2.73a19.66,19.66,0,0,1,7.64,6,14.87,14.87,0,0,1,2.86,7.71,20,20,0,0,1-.88,7.81,18.34,18.34,0,0,1-3.57,6.36A9.55,9.55,0,0,1,1206.87,683.75Zm-5.39,18.11a11.19,11.19,0,0,0-2.08-7.29,7,7,0,0,0-5.52-3.08l-6.13-.21-.69,20.21,6.13.21a7,7,0,0,0,5.72-2.71A11.14,11.14,0,0,0,1201.48,701.86Zm-13.2-23,3.4.12c1.52.05,2.85-.76,4-2.42a11.23,11.23,0,0,0,1.85-6.14,10.61,10.61,0,0,0-1.46-6.13,4.78,4.78,0,0,0-3.88-2.57l-3.45-.12Z" style="fill:#948c7b"/><path d="M1279.65,654.37a23.12,23.12,0,0,1,11.11,3.77,30.68,30.68,0,0,1,8.72,8.65,39.9,39.9,0,0,1,5.43,12.3,46.51,46.51,0,0,1-2.09,29,39.91,39.91,0,0,1-7.14,11.38,30.68,30.68,0,0,1-9.87,7.32,23.53,23.53,0,0,1-22.77-1.64,30.68,30.68,0,0,1-8.71-8.66,39.63,39.63,0,0,1-5.44-12.29,46.68,46.68,0,0,1,2.09-29,39.91,39.91,0,0,1,7.15-11.39,30.68,30.68,0,0,1,9.86-7.32A23.47,23.47,0,0,1,1279.65,654.37Zm-4.6,63.79a4.63,4.63,0,0,0,3.71-1.78,19.15,19.15,0,0,0,3.3-5.4,47.59,47.59,0,0,0,2.58-8.24,68.35,68.35,0,0,0,1.48-10.2,67.38,67.38,0,0,0,0-10.25,49,49,0,0,0-1.38-8.47,20,20,0,0,0-2.48-5.88,4.63,4.63,0,0,0-3.42-2.35,4.77,4.77,0,0,0-3.78,1.83,19,19,0,0,0-3.35,5.46,46.76,46.76,0,0,0-2.59,8.18,66.81,66.81,0,0,0-1.47,10.14,68.18,68.18,0,0,0,0,10.31A47.38,47.38,0,0,0,1269,710a18,18,0,0,0,2.54,5.82A4.77,4.77,0,0,0,1275.05,718.16Z" style="fill:#948c7b"/><path d="M1384,738.84l-19.64-2.25-2.58-14.36-19.19-2.2-5.65,13.42-11.17-1.28,27.7-71.14,19.64,2.25Zm-24.07-27.45-3.53-27L1347,709.9Z" style="fill:#948c7b"/><path d="M1468.49,704.32a26.89,26.89,0,0,1-1.49,5.28,27.16,27.16,0,0,1-3,5.56,25.75,25.75,0,0,1-4.62,5.05A23.26,23.26,0,0,1,1453,724l6.68,26.65-20.4-3.34-5.55-23-2.36-.39-3.52,21.52-18.39-3,11.94-72.86,26.68,4.37a27.2,27.2,0,0,1,10.43,3.78,22.29,22.29,0,0,1,6.82,6.82,23.52,23.52,0,0,1,3.34,9.12A33.68,33.68,0,0,1,1468.49,704.32Zm-35.25,7.23,4.26.7a8.81,8.81,0,0,0,4.38-.37,11.15,11.15,0,0,0,3.89-2.36,14.33,14.33,0,0,0,3-3.94,17.25,17.25,0,0,0,1.73-10.53,14.91,14.91,0,0,0-1.6-4.7,11,11,0,0,0-2.94-3.47,8.75,8.75,0,0,0-4-1.75l-4.26-.7Z" style="fill:#948c7b"/><path d="M1525.71,688.82a30.53,30.53,0,0,1,11.74,5.39,31.75,31.75,0,0,1,8.45,9.59,35.66,35.66,0,0,1,4.28,12.85,42.18,42.18,0,0,1-.82,15.24,40.32,40.32,0,0,1-5.66,13.45,37.61,37.61,0,0,1-9.42,9.93,34,34,0,0,1-11.86,5.47,27.73,27.73,0,0,1-13,.1L1487.91,756l16.26-72Zm-16.87,59.54a14.08,14.08,0,0,0,6.88-1.3,21.12,21.12,0,0,0,6.1-4.33,28.18,28.18,0,0,0,4.82-6.65,33.22,33.22,0,0,0,3-8.17,43.77,43.77,0,0,0,1.14-10.22,27.07,27.07,0,0,0-1.39-8.53,16.66,16.66,0,0,0-3.73-6.2,11.6,11.6,0,0,0-5.84-3.24Z" style="fill:#948c7b"/><path d="M90,307.09l.3,3a240.76,240.76,0,0,0,51.62,60.27l.89-.69a297,297,0,0,1-42.37-55.12C72.16,267,63.06,218.83,74.14,175.23c4.52-17.79,14.77-28.13,26.06-33.2a4.7,4.7,0,0,1,.34-.44c15-16.22,45.28-24.11,66.54-10,13.83,9.17,23,25.4,24.58,43.4,1.41,16.39-3.93,31.63-14.68,41.81-7.16,6.78-14.49,10.34-21.33,11.88,5.23,2.24,11.69,3.91,18.39,3,8.89-1.25,16.75-7,23.35-17.14,11.72-18,10.67-49.38-2.39-71.5-8.16-13.81-24.15-29.8-54.1-27.59l-.06-.88A84.66,84.66,0,0,0,127,116.87C94.74,125.16,73.11,152,65.79,192.66v53.86a190.88,190.88,0,0,0,22.86,60.71Z" style="fill:none"/><path d="M132.36,642.34a3.35,3.35,0,0,1,5.22,4.08c-7.14,12.85-12.36,23.6-16.19,32.45a157.68,157.68,0,0,1,14.23-13.63,3.36,3.36,0,0,1,5.47,2.61,53.08,53.08,0,0,1-5.44,21.38l1.39-1.05-.07-.06c16.47-20.22,23-44,25.5-61.73-.09-13.28-4.34-26.33-13.21-34-6.95,13.18-12.4,17.71-20.82,24.72A247.19,247.19,0,0,0,110,633.71a129.87,129.87,0,0,0-24.86,35.76C71.72,711.53,69,721.84,69,721.94s-.09.25-.13.38c-1.4,8-2.38,15.93-3.06,23.52v11.53a234.59,234.59,0,0,1,25.27-61.2C110.42,663.06,131.47,643.17,132.36,642.34Z" style="fill:none"/><path d="M66.59,532.33c.28.4,1.53,2.27,3.34,5.39.45-54.47-1.62-110.14-4.14-156.12V531.42A5,5,0,0,1,66.59,532.33Z" style="fill:none"/><path d="M2157.57,639.36c-.54-4.39-.86-8.72-1-13-2.41-20.29-4.14-42.77-5.18-67.25-1.49-35.13-1.56-74.45-.2-116.89,1-31.47,2.65-60.05,4.2-82.34q-3.8,3.48-7.45,6.27c-4.15,48.49-12.24,174.74,5.78,268.39Q2155.69,636.9,2157.57,639.36Z" style="fill:none"/><path d="M2136.46,373.76a82.22,82.22,0,0,1-8.67,4.18c-.33,3.58-.73,8.11-1.14,13.45a78.14,78.14,0,0,1,7.46,16.55C2134.86,394.88,2135.7,383.31,2136.46,373.76Z" style="fill:none"/><path d="M215.71,508.14c.38-4.4.53-8.62.51-12.64a31.65,31.65,0,0,1-4.14,6v.33c0,1.26.45,21.45-9.44,52.33A121.75,121.75,0,0,0,215.71,508.14Z" style="fill:none"/><path d="M180.06,494.09a57.68,57.68,0,0,1-15,2,61.62,61.62,0,0,1-26.78-6.25c16.5,17.58,42.09,15.38,44.88,15.08,7.51-1.57,13.59-4.27,18-7.85v-.29h.36a19.72,19.72,0,0,0,7.14-11.93c1.58-9.58-4.49-19.91-15.46-26.31-8.9-5.19-20-6.08-26.84-4.7l-.37.34c0-.09,0-.17,0-.26q-.74.17-1.38.36l-1,1.68c-3.27,11-10.18,14-14.3,14.8-.27,0-.54.07-.82.1,6.06,2.08,14.65,3,26.44.13a3.73,3.73,0,0,1,2.87,6.77,53.22,53.22,0,0,1-20.31,6.95l.57.17a63.57,63.57,0,0,0,20.65,1.94,3.72,3.72,0,0,1,1.36,7.3Z" style="fill:none"/><path d="M2140.39,620.8c-5.29-33.6-9.37-80.47-8.68-144.11a59.7,59.7,0,0,1-8.36,15.81c.57,40.21,3.72,84.58,12.27,124Q2137.86,618.43,2140.39,620.8Z" style="fill:none"/><path d="M82.69,347.54q-4.43-5.31-8.86-11.75c1.71,24.86,3.55,55.54,4.91,88.88,1.62,39.71,2.7,87.49,1.69,134.53A183.09,183.09,0,0,1,86.66,577c2.77-46.86,2.41-95.27,1.16-134.35C86.62,404.72,84.46,371,82.69,347.54Z" style="fill:none"/><path d="M127.43,605.21a57.69,57.69,0,0,0,5.2-5.17c7.55-30.41,11.13-62.9,12.64-91.68a57.21,57.21,0,0,1-8.14-5.1C136,545.85,132.16,579.35,127.43,605.21Z" style="fill:none"/><path d="M123.17,391.39c-.42-5.34-.81-9.87-1.14-13.45a82.32,82.32,0,0,1-8.68-4.18c.77,9.55,1.6,21.12,2.36,34.18A77.65,77.65,0,0,1,123.17,391.39Z" style="fill:none"/><path d="M109.43,620.8q2.53-2.37,4.76-4.33c8.56-39.39,11.71-83.76,12.28-124a59.85,59.85,0,0,1-8.36-15.81C118.8,540.32,114.72,587.2,109.43,620.8Z" style="fill:none"/><path d="M94.42,359.91c1.55,22.29,3.2,50.87,4.2,82.34,1.35,42.44,1.29,81.76-.2,116.88-1,24.49-2.77,47-5.18,67.26-.13,4.25-.45,8.58-1,13q1.88-2.46,3.84-4.79c18-93.65,9.93-219.9,5.77-268.38C99.43,364.32,96.94,362.23,94.42,359.91Z" style="fill:none"/><path d="M2074.27,242.35c-12.12-1.7-22.51-9.08-30.89-21.94-14-21.48-13.09-57.11,2.14-82.89a75.16,75.16,0,0,1,5.8-8.47A51.09,51.09,0,0,0,2040,139.53c-17.12,22.2-15.78,49.17-13.46,63.27,2.84,17.3,9.08,27.84,11.78,29.65,9.6,6.39,14.25,21.64,16.16,30.11,9.27-2.62,23.88-9.31,26.58-19.87-.46,0-.93,0-1.39,0A37.88,37.88,0,0,1,2074.27,242.35Z" style="fill:none"/><path d="M1668.71,520a46.84,46.84,0,0,1-5.64-4,52.85,52.85,0,0,1-9.48-11.24,50.1,50.1,0,0,0-2.9,9.21,5.4,5.4,0,0,1-8.16,3.62c-14.89-9.25-28-5.67-35.33.76a22.3,22.3,0,0,0-5.78,26.42c2.06,4.54,7.94,6.78,13,7.79a10.54,10.54,0,0,1,2.85-4.56c7.85-7.61,30.89-8.54,47.72,7.41a110.8,110.8,0,0,1,13.45,16.16,235.51,235.51,0,0,0-11.71-21.06c-7.19-11.36-11.89-15.91-11.94-16a3.35,3.35,0,0,1,4-5.33c.93.54,15.23,9,26.07,22.33C1683.36,529.31,1675.36,524.2,1668.71,520Z" style="fill:none"/><path d="M1691.5,621.38c-2.56-3.63-8.69-10.44-15.19-10.44a20,20,0,0,0-7.39,1.28c3.78,3.5,8.55,8.72,11.25,14.8.4.89.81,2,1.28,3.18,3.68,9.49,11.85,30.55,40.84,40.25C1704.16,658.34,1693.58,641.52,1691.5,621.38Z" style="fill:none"/><path d="M1762,707.23c18-1.63,36.58-5.13,56.29-8.84,5.66-1.06,11.45-2.15,17.39-3.22q-28.76,1.35-52.23-3.33a5.24,5.24,0,0,1-2.83.66c-.18,0-17.85-.87-30.19.71-21.26,2.73-33.61-1.8-40.61-6.86a18.17,18.17,0,0,0,3.41,10.55C1719.94,706,1736.8,709.52,1762,707.23Z" style="fill:none"/><path d="M2025.13,707.68c-86.58-20.9-149.05-9.16-204.86,1.33-20,3.76-38.84,7.3-57.31,9q-7.83.72-14.73.72h-.09a5.35,5.35,0,0,1-3.07.76c-26.52-1.47-45.09,15.82-53.79,26.26a15.91,15.91,0,0,1-11.15,5.93,20.74,20.74,0,0,1-9-1.5c.76,5.74,2.91,13.26,8.65,19.43,8.48,9.12,22.63,13.23,42,12.2a6.16,6.16,0,0,1,1,.05c1.24.18,30.28,3.92,42.17-17.28a118.89,118.89,0,0,1-20.25,1.72c-20.44,0-34.89-5.09-35.81-5.42a3.35,3.35,0,0,1,1.5-6.49,134.24,134.24,0,0,0,64.82-9.18c7.57-12.42,14.42-16.27,31.57-14.85,4,.33,8.38.92,13.07,1.55,18.86,2.52,42.34,5.66,55.92-5.29a39.29,39.29,0,0,1,3.79-2.68,5.4,5.4,0,0,1,3.35-2.33l1.27-.27c1.52-.77,3.13-1.52,4.85-2.25-13.24.65-27.91,2-43.84,4.23l-.48,0a3.35,3.35,0,0,1-.94-6.57c.62-.18,15.6-4.55,41.92-7.37a433.25,433.25,0,0,1,70.16-1.58,256.8,256.8,0,0,1,37.48,2.71,263.64,263.64,0,0,1,119,49c-21.07-21.18-46.57-37.27-76.06-47.92C2032.52,710.18,2028.8,708.9,2025.13,707.68Z" style="fill:none"/><path d="M1846.39,683.63c6.36-.54,12.76-1.18,18.95-1.8,19.45-1.94,39.18-3.9,61.45-3.4-22.86-2.34-38-2.32-38.32-2.31-58.94.47-83.18-4-92.6-17.24-3.71-5.19-11.38-7-15.95-5.28-2.74,1-2.62,2.54-2.55,3.37a6.73,6.73,0,0,1-3.13,6.31c-3.53,2.27-9.11,1.59-15.3-1.86-6.59-3.67-27.45-18.76-28.3-62.34-3.08.28-6.93,1.34-9,4.62a5.41,5.41,0,0,1-9.91-1.9c-.17-.94-4-23.37,8.59-43.22.39-.61.73-1.18,1-1.72a27.73,27.73,0,0,0,1.31-9.41,29.32,29.32,0,0,0-3.19-4.2c-2.72-3.22-6-7.06-7.8-12.68-5.88,13.4-9.21,26.71-10,37.66-1.81,24.57,1.51,59.27,27.6,85C1754.25,677.94,1793.65,688.16,1846.39,683.63Z" style="fill:none"/><path d="M2037.36,635.84c-1.22-1.47-2.45-3-3.68-4.54s-2.43-3-3.63-4.69a225.55,225.55,0,0,1-18.52-24.29c-17.35-26.24-37.32-68.93-34.56-123.91,0-1,.09-1.66.1-1.82a3.73,3.73,0,0,1,7.44.52l-.06.94a100.28,100.28,0,0,0,3.52,29.88A197.12,197.12,0,0,1,1999.75,441a3.72,3.72,0,0,1,7.06,2.36c-.08.28-8.67,28.25-4.68,67.56a207.25,207.25,0,0,0,11.51,49.88c-9.17-32.32-8.07-61.07,3.48-84.65,9.56-19.52,21.32-33.49,35-41.53a53,53,0,0,1,38-6.62,58.32,58.32,0,0,1,27.41,14.26c-1.71-12.38-6.37-21.74-14-27.94-18.33-15-48.22-7-48.52-6.94a3.73,3.73,0,0,1-2.52-7c20.12-9,41.16-8.55,57.74,1.34,1.29.77,2.52,1.6,3.71,2.47-21.76-25.72-63.63-21-64.12-20.92a3.73,3.73,0,0,1-1.48-7.29c18.4-5.25,34.24-5.58,47.29-1-2-1.31-4.14-2.57-6.36-3.75a78.83,78.83,0,0,0-36.74-9.4A71.77,71.77,0,0,0,2015.74,372c-17.66,10.48-47.44,38.48-48.48,108.24C1966.05,561.19,2002.86,606.76,2037.36,635.84Z" style="fill:none"/><path d="M1891.11,608.66a67,67,0,0,1-7.69,6c31.92,1.61,70.88,5.2,117.38,19.49-24.66-8.95-63.39-20.53-106.76-24.3A5.4,5.4,0,0,1,1891.11,608.66Z" style="fill:none"/><path d="M2051.18,663.49c-79.68-35.68-141.08-38.14-185.91-39.93l-1.9-.08-.28.08,0-.09c-8.3-.33-16.12-.67-23.43-1.22-18.14-.3-57.2-4-73.43-29.09-19.54-30.24-9-69.36-8.49-71a3.73,3.73,0,0,1,7.32,1c0,2.71.1,6.52.4,10.87,3.68-18.29,12.31-30.69,27.4-40.74,20.63-13.75,42.53-11.23,46.87-10.56l.79.14a3.35,3.35,0,0,1-1.31,6.58l-.59-.1a39,39,0,0,0-12.28.62c-.55.11-1.14.24-1.73.38,12.27-1.37,28.08,1.09,45.25,14.35,14.07,10.87,21.91,26.46,22.65,45.09.76,18.84-6.21,37.13-10.26,40.82a3.4,3.4,0,0,1-2.25.87,3.36,3.36,0,0,1-3-4.93,70,70,0,0,0,6.64-24.2c1-12.58-1.82-23.59-8.45-32.92a51.61,51.61,0,0,1,3.12,36c-4.8,17.56-17.81,30.63-33.16,33.31-7.77,1.36-14,.58-18.93-1.28a32.78,32.78,0,0,1-16.06-9.29c-6.55-7.1-9.36-17.09-8.36-29.69.65-8.22,3.93-14.67,9.73-19.17,12.59-9.78,32.58-6.46,33.42-6.32a3.73,3.73,0,0,1-.9,7.39c-.35,0-21.72-1.31-27.38,13.42a20.67,20.67,0,0,0-1.07,3.87,5.62,5.62,0,0,1,.55.15c8.18,2.87,12.92.1,17.51-2.57,3.48-2,7.44-4.33,12.07-2.91,5.27,1.6,7.53,4.83,8.5,7.26a11.85,11.85,0,0,1,.78,3.17,24.23,24.23,0,0,0,8.2-12.93c2.89-10.86-.56-23.19-8.78-31.41-3.54-3.54-16.51-11.21-31.8-10.91-12.33.23-23.42,5.58-33,15.89-11.59,12.54-14.58,29.18-8.87,49.48,10.31,36.67,35.21,38.94,79.9,40.77l-.15-.63c28-6.75,46.6-35.59,45.18-70.13a83.74,83.74,0,0,0-19-50.26c-13.19-15.73-32.43-26-55.65-29.57-32.55-5.07-60.77,1.66-83.85,20a116.11,116.11,0,0,0-24.76,27.6,5.26,5.26,0,0,1-.12.78c-2.59,10.37-.94,15.91,1.93,20.28,2.31-8.19,6.63-18.1,11.93-24.17a3.36,3.36,0,0,1,5.72,3.25,160.13,160.13,0,0,0-5.32,57.7c.94-6.29,2-10.6,2.07-11a3.35,3.35,0,0,1,6.61.73c.43,21.69,7.94,39.62,22.31,53.29,34.09,32.44,95.9,31,96.51,31a3.35,3.35,0,0,1,.36,6.69c-25.77,1.93-50.74-2.37-63.57-5.17,13.63,5.15,41.22,11.23,93.39,8.85a3.35,3.35,0,0,1,.56,6.68A509.3,509.3,0,0,1,1840,663.1c-2.58,0-5.15,0-7.68-.11,13.41,1.78,31.83,2.51,56.14,2.32,1.78,0,44.66-.08,96.57,11.57a387.44,387.44,0,0,1,42.33,12c-40.47-20-73.48-26.88-73.89-27a3.73,3.73,0,0,1,1.34-7.33c45.88,7.34,109.89,25.83,159.18,72.07-4.63-6.41-7.85-10.51-8-10.65a4.84,4.84,0,0,1,6.76-6.84c28.14,21.7,46.53,46.29,58.54,69.51a173.59,173.59,0,0,0-20-37.57C2129.11,709.41,2095.43,683.3,2051.18,663.49Z" style="fill:none"/><path d="M2071.6,515.92c-2.37,0-4.19-.11-5.3-.2,3,23.48,9,51.14,21.09,77.14.45-.66.92-1.31,1.4-1.93-5.88-19.62-11.09-44.42-13.84-75.09C2073.75,515.89,2072.61,515.92,2071.6,515.92Z" style="fill:none"/><path d="M177.63,586.75c17.53-35.21,22.09-63.5,23.26-76.63a51.49,51.49,0,0,1-6.13,2.7c-2.58,22.51-7.88,49.23-18.42,75.13Z" style="fill:none"/><path d="M2138.77,710.87h-.14l.16.17A.88.88,0,0,0,2138.77,710.87Z" style="fill:none"/><path d="M2084.84,669.76l-1.79-2.12-.76.67Z" style="fill:none"/><path d="M1869,562.89c.28-1,.51-2,.71-3-.53,1-1.11,2-1.73,2.93l.75-.42a33.16,33.16,0,0,1-.7,3.55C1868.36,565,1868.69,563.93,1869,562.89Z" style="fill:none"/><path d="M2066.65,504.9c2.79.3,28.38,2.5,44.88-15.08a61.62,61.62,0,0,1-26.78,6.25,57.25,57.25,0,0,1-15-2,3.72,3.72,0,0,1,1.36-7.3,63.57,63.57,0,0,0,20.65-1.94l.57-.17a53.38,53.38,0,0,1-20.32-6.95,3.73,3.73,0,0,1,2.87-6.77c11.8,2.85,20.39,2,26.44-.13-.27,0-.54-.05-.81-.1-4.12-.77-11-3.76-14.3-14.8l-1-1.68c-.43-.13-.9-.25-1.38-.36,0,.09,0,.17,0,.26l-.38-.34c-6.81-1.38-17.93-.49-26.83,4.7-11,6.4-17,16.73-15.47,26.31a19.82,19.82,0,0,0,7.14,11.93h.37v.29C2053.06,500.63,2059.14,503.33,2066.65,504.9Z" style="fill:none"/><path d="M2104.54,508.36c1.51,28.78,5.1,61.27,12.65,91.68a57.69,57.69,0,0,0,5.2,5.17c-4.74-25.86-8.6-59.36-9.71-102A55.25,55.25,0,0,1,2104.54,508.36Z" style="fill:none"/><path d="M2108.91,213.71a35.14,35.14,0,0,1-23.25-12.23c-9.5-11-12.72-26.92-8.61-42.69a37.86,37.86,0,0,1,7.23-14.76c-8.53,7.66-14.27,19.41-15.35,31.9-1.13,13.08,3,25.12,11.34,33,13,12.3,25.23,10.5,31.46,8.28A11.59,11.59,0,0,0,2108.91,213.71Z" style="fill:none"/><path d="M2138.87,228.07a5.4,5.4,0,0,1,5.35-4.9h0a5.41,5.41,0,0,1,5.38,4.84c.09.88,2.19,22-3.36,50.15-.68,3.43-1.5,7-2.47,10.82a177.7,177.7,0,0,0,10.14-28.32c7.76-29.5,6.57-58.43-3.17-77.38-3.62-7-11.56-18.43-24-15.58-3.26.75-5.48,3.51-6.64,8.22.58.23,1.18.48,1.78.78,8.49,4.25,13,12.74,11.39,21.64a18.55,18.55,0,0,1-11.77,14.32c2.74,5.14,5,12.83,5.69,24.33,2.54,43.64-12.88,79-26.64,101.3,1.8-2.17,3.65-4.57,5.52-7.23C2128.19,299.61,2136.12,257.69,2138.87,228.07Z" style="fill:none"/><path d="M2169.39,559.2c-1-47,.07-94.82,1.69-134.53,1.36-33.34,3.19-64,4.91-88.88q-4.42,6.45-8.87,11.75c-1.77,23.46-3.92,57.18-5.13,95.13-1.24,39.08-1.6,87.49,1.17,134.35A183.09,183.09,0,0,1,2169.39,559.2Z" style="fill:none"/><path d="M156.64,512.9l-.8-.26a545,545,0,0,1-7.92,67.65,4.74,4.74,0,0,1,2,.63c.81.48,1.59,1,2.35,1.53,6.39-23,9.95-46.59,11.85-67.81A71.39,71.39,0,0,1,156.64,512.9Z" style="fill:none"/><path d="M2122.63,196.45a9,9,0,0,0-3.37-8.68,51.2,51.2,0,0,0,.55,5.26,5.4,5.4,0,0,1-6.26,6.26,26.55,26.55,0,0,1-16.29-10.94c-4.39-6.68-5.38-15.25-3-25.47,2-8.49,8-15.5,16.3-19.88a29.7,29.7,0,0,0-11,2.52c-6.09,2.85-10.06,8.09-12.12,16-3.21,12.32-.85,24.61,6.32,32.88a24.65,24.65,0,0,0,14.71,8.35l0-.5a10.76,10.76,0,0,1,3.31.83,28.09,28.09,0,0,0,4.18-.16A7.51,7.51,0,0,0,2122.63,196.45Z" style="fill:none"/><path d="M2180.83,721.94c0-.1-2.73-10.41-16.16-52.47a129.87,129.87,0,0,0-24.86-35.76c-7.88-7.87-13.73-12.74-18.43-16.65-8.43-7-13.87-11.54-20.82-24.72-8.87,7.72-13.12,20.77-13.21,34,2.51,17.69,9,41.51,25.5,61.73l-.07.06,1.38,1.05a53.17,53.17,0,0,1-5.43-21.38,3.35,3.35,0,0,1,5.46-2.6,154.44,154.44,0,0,1,14.24,13.62c-3.83-8.85-9-19.6-16.2-32.45a3.36,3.36,0,0,1,5.23-4.08c.89.83,21.94,20.72,41.3,53.83a234.25,234.25,0,0,1,25.26,61.2V745.84c-.67-7.59-1.65-15.49-3.05-23.52C2180.92,722.19,2180.87,722.07,2180.83,721.94Z" style="fill:none"/><path d="M2179.88,537.72c1.82-3.12,3.07-5,3.34-5.39a5.86,5.86,0,0,1,.8-.91V381.6C2181.5,427.58,2179.44,483.25,2179.88,537.72Z" style="fill:none"/><path d="M2037.74,501.51a31.45,31.45,0,0,1-4.14-6c0,4,.13,8.24.51,12.63a121.74,121.74,0,0,0,13.05,46c-9.88-30.88-9.47-51.07-9.43-52.33Z" style="fill:none"/><path d="M2122.84,116.87a84.66,84.66,0,0,0-13.86-2.33l-.07.88C2079,113.21,2063,129.2,2054.82,143c-13.06,22.12-14.11,53.53-2.39,71.5,6.6,10.12,14.46,15.89,23.34,17.14,6.71.94,13.16-.73,18.4-3-6.84-1.54-14.18-5.1-21.33-11.88-10.75-10.18-16.1-25.42-14.68-41.81,1.56-18,10.75-34.23,24.57-43.4,21.27-14.1,51.58-6.22,66.55,10a3.57,3.57,0,0,1,.34.43c11.29,5.07,21.54,15.41,26.06,33.2,11.08,43.6,2,91.77-26.32,139.29A297.32,297.32,0,0,1,2107,369.64l.89.69a240.76,240.76,0,0,0,51.62-60.27l.3-3,1.37.14A190.87,190.87,0,0,0,2184,246.52V192.65C2176.71,152,2155.08,125.16,2122.84,116.87Z" style="fill:none"/><path d="M180.89,175.93c-1.08-12.49-6.82-24.24-15.36-31.9a37.58,37.58,0,0,1,7.23,14.76c4.12,15.77.9,31.72-8.61,42.69a35.1,35.1,0,0,1-23.24,12.23,11.44,11.44,0,0,0-2.82,3.52c6.23,2.22,18.48,4,31.46-8.28C177.89,201.05,182,189,180.89,175.93Z" style="fill:none"/><path d="M2093.18,512.9a71.39,71.39,0,0,1-7.48,1.74c1.9,21.22,5.45,44.83,11.85,67.81.76-.54,1.54-1.05,2.34-1.52a4.7,4.7,0,0,1,2-.64,545,545,0,0,1-7.92-67.65Z" style="fill:none"/><path d="M2073.48,588c-10.54-25.9-15.84-52.62-18.42-75.13a51.49,51.49,0,0,1-6.13-2.7c1.17,13.13,5.73,41.42,23.26,76.63C2072.62,587.15,2073,587.56,2073.48,588Z" style="fill:none"/><path d="M206.44,220.41c-8.38,12.86-18.78,20.24-30.89,21.94a39.42,39.42,0,0,1-5.37.37c-.47,0-.93,0-1.39,0,2.7,10.56,17.3,17.25,26.58,19.87,1.91-8.47,6.56-23.72,16.16-30.11,2.7-1.81,8.93-12.35,11.78-29.65,2.32-14.1,3.65-41.07-13.46-63.27a51.09,51.09,0,0,0-11.35-10.48,75.16,75.16,0,0,1,5.8,8.47C219.53,163.3,220.45,198.93,206.44,220.41Z" style="fill:none"/><path d="M499.41,693.21c-12.34-1.58-30-.72-30.19-.71a5.24,5.24,0,0,1-2.83-.66q-23.46,4.67-52.23,3.33c5.94,1.07,11.73,2.16,17.39,3.22,19.71,3.71,38.33,7.21,56.29,8.84,25.18,2.29,42-1.28,48.77-10.33A18.17,18.17,0,0,0,540,686.35C533,691.41,520.66,695.94,499.41,693.21Z" style="fill:none"/><path d="M141.28,202.74A24.58,24.58,0,0,0,156,194.4c7.17-8.27,9.53-20.56,6.32-32.88-2.07-7.91-6-13.15-12.12-16a29.7,29.7,0,0,0-11-2.52c8.27,4.38,14.28,11.39,16.3,19.88,2.43,10.22,1.44,18.79-2.95,25.47a26.55,26.55,0,0,1-16.29,10.94A5.4,5.4,0,0,1,130,193a52.09,52.09,0,0,0,.55-5.26,9,9,0,0,0-3.37,8.68,7.51,7.51,0,0,0,6.57,6.47,28.09,28.09,0,0,0,4.18.16,10.76,10.76,0,0,1,3.31-.83Z" style="fill:none"/><path d="M591.06,529.18a3.35,3.35,0,0,1,4,5.33s-4.75,4.58-11.94,16a234.09,234.09,0,0,0-11.71,21.06,110.8,110.8,0,0,1,13.45-16.16c16.83-16,39.86-15,47.72-7.41a10.54,10.54,0,0,1,2.85,4.56c5-1,10.9-3.25,13-7.79a22.3,22.3,0,0,0-5.78-26.42c-7.32-6.43-20.44-10-35.33-.76a5.41,5.41,0,0,1-8.17-3.62,48.71,48.71,0,0,0-2.89-9.21A53.1,53.1,0,0,1,586.75,516a45,45,0,0,1-5.65,4c-6.64,4.24-14.64,9.35-16.11,31.55C575.82,538.19,590.13,529.72,591.06,529.18Z" style="fill:none"/><path d="M167.53,668.31l-.76-.67c-.6.72-1.2,1.42-1.79,2.11Z" style="fill:none"/><path d="M178.22,515.92c-1,0-2.16,0-3.35-.08-2.76,30.67-8,55.47-13.84,75.09.48.62.94,1.27,1.4,1.93,12-26,18.11-53.66,21.09-77.14C182.41,515.81,180.59,515.92,178.22,515.92Z" style="fill:none"/><path d="M111.05,710.86a1.11,1.11,0,0,0,0,.17l.16-.17Z" style="fill:none"/><path d="M527.53,670.45c29-9.7,37.16-30.76,40.83-40.25.48-1.23.89-2.29,1.29-3.18,2.7-6.08,7.46-11.3,11.25-14.8a20,20,0,0,0-7.39-1.28c-6.51,0-12.64,6.81-15.19,10.44C556.24,641.52,545.66,658.34,527.53,670.45Z" style="fill:none"/><path d="M504.75,719.46a5.4,5.4,0,0,1-3.08-.76h-.08q-6.9,0-14.73-.71c-18.47-1.68-37.34-5.22-57.31-9-55.81-10.49-118.29-22.23-204.86-1.34-3.67,1.23-7.4,2.51-11.22,3.9-29.49,10.65-55,26.74-76.07,47.92a263.71,263.71,0,0,1,119-49,256.8,256.8,0,0,1,37.48-2.71,434.6,434.6,0,0,1,70.16,1.57c26.32,2.83,41.3,7.2,41.92,7.38a3.35,3.35,0,0,1-.94,6.57l-.48,0c-15.93-2.28-30.6-3.58-43.84-4.23q2.56,1.1,4.85,2.25l1.27.27a5.38,5.38,0,0,1,3.34,2.33,39.48,39.48,0,0,1,3.8,2.68c13.58,10.95,37.05,7.81,55.92,5.29,4.68-.63,9.11-1.22,13.07-1.55,17.15-1.43,24,2.43,31.56,14.85a134.31,134.31,0,0,0,64.83,9.18,3.35,3.35,0,0,1,1.5,6.48c-.92.34-15.38,5.43-35.81,5.43a119.91,119.91,0,0,1-20.25-1.72C496.7,785.75,525.74,782,527,781.83a6.16,6.16,0,0,1,1-.05c19.42,1,33.57-3.08,42.05-12.2,5.74-6.17,7.89-13.7,8.65-19.43a20.74,20.74,0,0,1-9,1.5,15.89,15.89,0,0,1-11.15-5.93C549.83,735.28,531.27,718,504.75,719.46Z" style="fill:none"/><path d="M528.43,556.86c.31.54.65,1.11,1,1.72,12.63,19.85,8.76,42.28,8.58,43.22a5.4,5.4,0,0,1-9.9,1.89c-2-3.27-5.9-4.33-9-4.61-.85,43.58-21.71,58.67-28.3,62.34-6.19,3.45-11.77,4.13-15.3,1.86a6.73,6.73,0,0,1-3.13-6.31c.06-.83.19-2.37-2.55-3.37-4.57-1.67-12.24.09-15.95,5.28-9.43,13.19-33.67,17.71-92.6,17.24-.28,0-15.46,0-38.32,2.31,22.27-.5,42,1.46,61.45,3.4,6.19.62,12.59,1.26,18.95,1.8,52.74,4.53,92.14-5.69,117.1-30.35,26.09-25.78,29.41-60.48,27.6-85-.81-11-4.14-24.26-10-37.66-1.84,5.62-5.08,9.45-7.8,12.68a28.6,28.6,0,0,0-3.19,4.2A27.73,27.73,0,0,0,528.43,556.86Z" style="fill:none"/><path d="M201.42,376a3.73,3.73,0,0,1-1.47,7.29c-.49-.07-42.36-4.8-64.13,20.92,1.2-.87,2.43-1.7,3.72-2.47,16.58-9.9,37.62-10.38,57.74-1.34a3.73,3.73,0,0,1-2.52,7c-.3-.08-30.19-8-48.52,6.94-7.59,6.2-12.25,15.56-14,27.93A58.39,58.39,0,0,1,159.69,428a53,53,0,0,1,38,6.62c13.65,8,25.41,22,35,41.53,11.55,23.58,12.64,52.33,3.48,84.65a207.25,207.25,0,0,0,11.51-49.88c4-39.31-4.6-67.28-4.69-67.56a3.73,3.73,0,0,1,7.07-2.36,196.85,196.85,0,0,1,11.77,66.95,99.58,99.58,0,0,0,3.52-29.88c0-.32,0-.63-.05-.94a3.73,3.73,0,0,1,7.44-.52c0,.16.06.8.1,1.82,2.76,55-17.21,97.67-34.56,123.91a225.55,225.55,0,0,1-18.52,24.29c-1.2,1.64-2.41,3.19-3.63,4.69s-2.46,3.07-3.69,4.54c34.5-29.08,71.32-74.65,70.11-155.63-1-69.76-30.82-97.76-48.48-108.24a71.78,71.78,0,0,0-36.85-10.19,78.82,78.82,0,0,0-36.73,9.4c-2.22,1.18-4.32,2.44-6.36,3.75C167.19,370.39,183,370.72,201.42,376Z" style="fill:none"/><path d="M122.63,237c.67-11.5,3-19.19,5.69-24.33a18.55,18.55,0,0,1-11.77-14.32c-1.58-8.9,2.89-17.39,11.39-21.64.6-.3,1.2-.55,1.78-.78-1.16-4.71-3.39-7.47-6.64-8.22-12.47-2.85-20.41,8.54-24,15.58-9.74,18.95-10.93,47.88-3.17,77.38A177.7,177.7,0,0,0,106,289c-1-3.77-1.79-7.39-2.47-10.82C98,250,100.1,228.9,100.19,228a5.41,5.41,0,0,1,5.38-4.84h0a5.4,5.4,0,0,1,5.35,4.9c2.75,29.62,10.68,71.54,32.8,103,1.87,2.66,3.72,5.06,5.52,7.23C135.51,316,120.09,280.63,122.63,237Z" style="fill:none"/><path d="M380.14,559.88c.2,1,.43,2,.71,3s.61,2.05,1,3.05a32.77,32.77,0,0,1-.7-3.54l.74.42C381.25,561.88,380.67,560.9,380.14,559.88Z" style="fill:none"/><path d="M98.54,741.08a173.59,173.59,0,0,0-20,37.57c12-23.22,30.4-47.81,58.54-69.51a4.84,4.84,0,0,1,6.76,6.84c-.11.14-3.34,4.24-8,10.64,49.29-46.23,113.3-64.72,159.18-72.06a3.73,3.73,0,0,1,1.34,7.33c-.41.08-33.42,7-73.89,27a387.44,387.44,0,0,1,42.33-12c51.91-11.65,94.79-11.57,96.57-11.57,24.31.19,42.73-.54,56.13-2.32-2.52.07-5.09.11-7.67.11A509.59,509.59,0,0,1,355,659.58a3.35,3.35,0,0,1,.57-6.68c52.17,2.38,79.75-3.7,93.39-8.86-12.84,2.81-37.8,7.11-63.57,5.18a3.35,3.35,0,0,1,.36-6.69c.61,0,62.42,1.48,96.51-31,14.37-13.67,21.88-31.6,22.31-53.29a3.35,3.35,0,0,1,6.61-.73c.09.38,1.13,4.69,2.07,11a160.09,160.09,0,0,0-5.32-57.7,3.35,3.35,0,0,1,5.71-3.25c5.31,6.07,9.63,16,11.93,24.17,2.88-4.37,4.53-9.91,1.94-20.28a5.26,5.26,0,0,1-.12-.78,116.11,116.11,0,0,0-24.76-27.6c-23.08-18.34-51.3-25.07-83.85-20-23.22,3.62-42.46,13.84-55.65,29.57a83.82,83.82,0,0,0-19.05,50.26c-1.41,34.54,17.17,63.38,45.19,70.13l-.16.63c44.7-1.83,69.6-4.1,79.91-40.78,5.71-20.29,2.72-36.93-8.87-49.47-9.54-10.31-20.63-15.66-33-15.89-15.28-.3-28.25,7.37-31.79,10.91-8.22,8.22-11.67,20.55-8.78,31.41a24.14,24.14,0,0,0,8.19,12.93,12.27,12.27,0,0,1,.79-3.17c1-2.43,3.23-5.66,8.5-7.26,4.63-1.42,8.59.88,12.07,2.91,4.59,2.67,9.33,5.44,17.51,2.57a3.75,3.75,0,0,1,.55-.15,20.67,20.67,0,0,0-1.07-3.87c-5.66-14.73-27-13.44-27.38-13.42a3.73,3.73,0,0,1-.91-7.39c.85-.14,20.84-3.46,33.43,6.32,5.8,4.5,9.07,10.95,9.73,19.17,1,12.6-1.81,22.59-8.36,29.69a32.78,32.78,0,0,1-16.06,9.29c-4.94,1.86-11.16,2.64-18.93,1.28-15.35-2.68-28.36-15.75-33.16-33.31a51.6,51.6,0,0,1,3.12-36c-6.63,9.33-9.48,20.34-8.45,32.92a70.08,70.08,0,0,0,6.63,24.2,3.35,3.35,0,0,1-5.21,4.06c-4-3.69-11-22-10.27-40.82.75-18.63,8.59-34.22,22.66-45.09,17.17-13.26,33-15.72,45.25-14.35-.6-.14-1.18-.27-1.73-.38a39,39,0,0,0-12.28-.62c-.36,0-.56.09-.59.1a3.35,3.35,0,0,1-1.31-6.58l.79-.14c4.34-.67,26.24-3.19,46.87,10.56,15.08,10,23.72,22.45,27.4,40.73.3-4.34.41-8.15.4-10.86a3.73,3.73,0,0,1,7.32-1c.46,1.65,11,40.76-8.5,71-16.23,25.11-55.28,28.79-73.42,29.09-7.31.55-15.13.89-23.43,1.22l0,.09-.29-.08-1.89.08c-44.83,1.79-106.23,4.25-185.91,39.93C154.39,683.3,120.71,709.41,98.54,741.08Z" style="fill:none"/><path d="M358.71,608.66a5.43,5.43,0,0,1-2.93,1.18c-43.37,3.77-82.1,15.35-106.77,24.3,46.51-14.29,85.47-17.88,117.39-19.49A67,67,0,0,1,358.71,608.66Z" style="fill:none"/><polygon points="53.99 241.16 54.8 279.53 54.8 241.09 53.99 241.16" style="fill:#c2b7a1"/><path d="M65.79,170.9v21.76C73.11,152,94.74,125.16,127,116.87a84.66,84.66,0,0,1,13.86-2.33l.06.88c29.95-2.21,45.94,13.78,54.1,27.59,13.06,22.12,14.11,53.52,2.39,71.5-6.6,10.12-14.46,15.89-23.35,17.14-6.7.94-13.16-.73-18.39-3,6.84-1.54,14.17-5.1,21.33-11.88,10.75-10.18,16.09-25.42,14.68-41.81-1.56-18-10.75-34.23-24.58-43.4-21.26-14.11-51.57-6.22-66.54,10a4.7,4.7,0,0,0-.34.44c-11.29,5.07-21.54,15.41-26.06,33.2-11.08,43.6-2,91.77,26.32,139.29a297,297,0,0,0,42.37,55.12l-.89.69a240.76,240.76,0,0,1-51.62-60.27l-.3-3-1.37.14a190.88,190.88,0,0,1-22.86-60.71V381.6c2.52,46,4.59,101.65,4.14,156.12-1.81-3.12-3.06-5-3.34-5.39a5,5,0,0,0-.8-.91V745.84c.68-7.59,1.66-15.49,3.06-23.52,0-.13.1-.25.13-.38s2.74-10.41,16.17-52.47A129.87,129.87,0,0,1,110,633.71a247.19,247.19,0,0,1,18.43-16.65c8.42-7,13.87-11.54,20.82-24.72,8.87,7.72,13.12,20.77,13.21,34-2.51,17.69-9,41.51-25.5,61.73l.07.06-1.39,1.05a53.08,53.08,0,0,0,5.44-21.38,3.36,3.36,0,0,0-5.47-2.61,157.68,157.68,0,0,0-14.23,13.63c3.83-8.85,9-19.6,16.19-32.45a3.35,3.35,0,0,0-5.22-4.08c-.89.83-21.94,20.72-41.3,53.83a234.59,234.59,0,0,0-25.27,61.2v201l1.5-.09c0-.42-2-38.16,9.28-84.5C81.13,862,98.74,821.25,136,785.5q6.78-6.5,13.92-12.32a194.64,194.64,0,0,1,19.44-12.36c27.43-15.25,59.12-24.15,94.2-26.48C381,726.53,423.71,788,424.13,788.62a5.4,5.4,0,1,0,9-6c-.29-.44-4.83-7.07-14.7-15.79,8.53,5.26,16.44,10.9,22,16.45,0,0,25.55-1.86,45.43-1.15a50,50,0,0,0,21.62,9.57,70.29,70.29,0,0,0,20.52.93c22.61,1.1,39.47-4.2,50.15-15.77,14.25-15.44,11.69-36.08,11.57-37a5.4,5.4,0,0,0-8.91-3.35c-1.42,1.22-6.35,4.66-10.24,4.35a5.09,5.09,0,0,1-3.68-2.08c-6.6-7.92-18.18-19.26-34.26-25.56a32.11,32.11,0,0,0,12.78-10c9.62-13.06,3.79-29,3.08-30.76,20-12.58,26.89-30.37,30-38.39.42-1.07.77-2,1.08-2.7,3-6.81,10.58-13.12,13.23-15a5.4,5.4,0,0,0,1.39-7.42c-.6-.91-6.32-8.86-20.63-8.86a21.85,21.85,0,0,0-8.37,1.73c8-14.13,18.2-30.19,27.15-38.67,11-10.37,22.81-10,26.19-9.67a14.15,14.15,0,0,1,6.12,1.81,5.4,5.4,0,0,0,4.28,8.7c.92,0,22.68-.17,29.36-14.85a32.91,32.91,0,0,0-8.49-39,36.33,36.33,0,0,0-24.31-9q-1.87,1.85-3.63,3.9l-8.84-2a48.09,48.09,0,0,0-5.08,1.89A45.1,45.1,0,0,0,600,490.3a5.41,5.41,0,0,0-9.12,1.52c0,.08-3.92,9.55-11.29,16a36.64,36.64,0,0,1-4.33,3c-9.38,6-17.92,13.37-20.54,33.94-6.85-24.31-21.82-51.42-45.42-70.17-25.54-20.29-56.57-27.76-92.23-22.21-59.53,9.28-82.37,54.32-83.83,90.07-.91,22.07,5.47,42.15,17,57-47.46,4.72-88.31,17.92-112,27a206.4,206.4,0,0,0,17.89-21.19c25.43-34.72,38-76.88,37.24-125.31-.83-55.6-19.93-97.28-53.77-117.37a84.08,84.08,0,0,0-65.35-8.47c-9.82-11.39-44.36-56-40.83-116.59a76.51,76.51,0,0,1,1.21-10.1c.91.32,1.88.61,2.88.87l-1,1.17a61.67,61.67,0,0,0,21.12,11.27c.6,9.64,6.66,18.18,17.62,24.77a70,70,0,0,0,23.63,8.78l6.11-4.55c1.29-8.6,5.85-23.92,12.55-28.39,7-4.65,13.59-19.47,16.45-36.88,2.61-15.83,4.05-46.19-15.56-71.63-16-20.81-55.63-36.42-94.12-26.53h0C93.85,115.6,74.6,150.7,65.79,170.9ZM86.66,577a183.09,183.09,0,0,0-6.23-17.82c1-47-.07-94.82-1.69-134.53-1.36-33.34-3.2-64-4.91-88.88q4.42,6.45,8.86,11.75c1.77,23.46,3.93,57.18,5.13,95.13C89.07,481.75,89.43,530.16,86.66,577ZM122,377.94c.33,3.58.72,8.11,1.14,13.45a77.65,77.65,0,0,0-7.46,16.55c-.76-13.06-1.59-24.63-2.36-34.18A82.32,82.32,0,0,0,122,377.94ZM96.09,634.57q-2,2.32-3.84,4.79c.54-4.39.86-8.72,1-13,2.41-20.3,4.14-42.77,5.18-67.26,1.49-35.12,1.55-74.44.2-116.88-1-31.47-2.65-60.05-4.2-82.34,2.52,2.32,5,4.41,7.44,6.28C106,414.67,114.11,540.92,96.09,634.57Zm18.1-18.1q-2.22,2-4.76,4.33c5.29-33.6,9.37-80.48,8.68-144.11a59.85,59.85,0,0,0,8.36,15.81C125.9,532.71,122.75,577.08,114.19,616.47ZM132.63,600a57.69,57.69,0,0,1-5.2,5.17c4.73-25.86,8.6-59.36,9.7-102a57.21,57.21,0,0,0,8.14,5.1C143.76,537.14,140.18,569.63,132.63,600Zm50.12-110.23a3.71,3.71,0,0,0-4.05-3,63.57,63.57,0,0,1-20.65-1.94l-.57-.17a53.22,53.22,0,0,0,20.31-6.95,3.73,3.73,0,0,0-2.87-6.77c-11.79,2.85-20.38,2-26.44-.13.28,0,.55-.05.82-.1,4.12-.77,11-3.77,14.3-14.8l1-1.68q.65-.19,1.38-.36c0,.09,0,.17,0,.26l.37-.34c6.81-1.38,17.94-.49,26.84,4.7,11,6.4,17,16.73,15.46,26.31a19.72,19.72,0,0,1-7.14,11.93h-.36v.29c-4.37,3.58-10.45,6.28-18,7.85-2.79.3-28.38,2.5-44.88-15.08a61.62,61.62,0,0,0,26.78,6.25,57.68,57.68,0,0,0,15-2A3.71,3.71,0,0,0,182.75,489.81Zm29.34,12v-.33a31.65,31.65,0,0,0,4.14-6c0,4-.13,8.24-.51,12.64a121.75,121.75,0,0,1-13.06,46C212.54,523.29,212.12,503.1,212.09,501.84Zm-11.2,8.28c-1.17,13.13-5.73,41.42-23.26,76.63l-1.29,1.2c10.54-25.9,15.84-52.62,18.42-75.13A51.49,51.49,0,0,0,200.89,510.12Zm-51,70.8a4.74,4.74,0,0,0-2-.63,545,545,0,0,0,7.92-67.65l.8.26a71.39,71.39,0,0,0,7.48,1.74c-1.9,21.22-5.46,44.82-11.85,67.81C151.51,581.91,150.73,581.4,149.92,580.92Zm12.51,11.94c-.46-.66-.92-1.31-1.4-1.93,5.88-19.62,11.08-44.42,13.84-75.09,1.19,0,2.33.08,3.35.08,2.37,0,4.19-.11,5.3-.2C180.54,539.2,174.46,566.86,162.43,592.86Zm5.1,75.45L165,669.75c.59-.69,1.19-1.39,1.79-2.11Zm-56.48,42.55h.14L111,711A1.11,1.11,0,0,1,111.05,710.86Zm447.49,34.86a15.89,15.89,0,0,0,11.15,5.93,20.74,20.74,0,0,0,9-1.5c-.76,5.73-2.91,13.26-8.65,19.43-8.48,9.12-22.63,13.23-42.05,12.2a6.16,6.16,0,0,0-1,.05c-1.24.18-30.28,3.92-42.17-17.28a119.91,119.91,0,0,0,20.25,1.72c20.43,0,34.89-5.09,35.81-5.43a3.35,3.35,0,0,0-1.5-6.48,134.31,134.31,0,0,1-64.83-9.18C467,732.76,460.13,728.9,443,730.33c-4,.33-8.39.92-13.07,1.55-18.87,2.52-42.34,5.66-55.92-5.29a39.48,39.48,0,0,0-3.8-2.68,5.38,5.38,0,0,0-3.34-2.33l-1.27-.27q-2.28-1.15-4.85-2.25c13.24.65,27.91,2,43.84,4.23l.48,0a3.35,3.35,0,0,0,.94-6.57c-.62-.18-15.6-4.55-41.92-7.38a434.6,434.6,0,0,0-70.16-1.57,256.8,256.8,0,0,0-37.48,2.71,263.71,263.71,0,0,0-119,49c21.07-21.18,46.58-37.27,76.07-47.92,3.82-1.39,7.55-2.67,11.22-3.9,86.57-20.89,149.05-9.15,204.86,1.34,20,3.76,38.84,7.3,57.31,9q7.83.72,14.73.71h.08a5.4,5.4,0,0,0,3.08.76C531.27,718,549.83,735.28,558.54,745.72ZM536.61,696.9c-6.73,9.05-23.59,12.62-48.77,10.33-18-1.63-36.58-5.13-56.29-8.84-5.66-1.06-11.45-2.15-17.39-3.22q28.75,1.35,52.23-3.33a5.24,5.24,0,0,0,2.83.66c.18,0,17.85-.87,30.19.71,21.25,2.73,33.61-1.8,40.61-6.86A18.17,18.17,0,0,1,536.61,696.9ZM581.1,520a45,45,0,0,0,5.65-4,53.1,53.1,0,0,0,9.48-11.24,48.71,48.71,0,0,1,2.89,9.21,5.41,5.41,0,0,0,8.17,3.62c14.89-9.25,28-5.67,35.33.76a22.3,22.3,0,0,1,5.78,26.42c-2.07,4.54-7.94,6.78-13,7.79a10.54,10.54,0,0,0-2.85-4.56c-7.86-7.61-30.89-8.54-47.72,7.41a110.8,110.8,0,0,0-13.45,16.16,234.09,234.09,0,0,1,11.71-21.06c7.19-11.37,11.89-15.91,11.94-16a3.35,3.35,0,0,0-4-5.33c-.93.54-15.24,9-26.07,22.33C566.46,529.31,574.46,524.2,581.1,520ZM558.32,621.38c2.55-3.63,8.68-10.44,15.19-10.44a20,20,0,0,1,7.39,1.28c-3.79,3.5-8.55,8.72-11.25,14.8-.4.89-.81,2-1.29,3.18-3.67,9.49-11.84,30.55-40.83,40.25C545.66,658.34,556.24,641.52,558.32,621.38Zm-20.21-90.81c5.88,13.4,9.21,26.71,10,37.66,1.81,24.57-1.51,59.27-27.6,85-25,24.66-64.36,34.88-117.1,30.35-6.36-.54-12.76-1.18-18.95-1.8-19.45-1.94-39.18-3.9-61.45-3.4,22.86-2.34,38-2.32,38.32-2.31,58.93.47,83.17-4,92.6-17.24,3.71-5.19,11.38-7,15.95-5.28,2.74,1,2.61,2.54,2.55,3.37a6.73,6.73,0,0,0,3.13,6.31c3.53,2.27,9.11,1.59,15.3-1.86,6.59-3.67,27.45-18.76,28.3-62.34,3.07.28,6.93,1.34,9,4.61a5.4,5.4,0,0,0,9.9-1.89c.18-.94,4.05-23.37-8.58-43.22-.39-.61-.73-1.18-1-1.72a27.73,27.73,0,0,1-1.31-9.41,28.6,28.6,0,0,1,3.19-4.2C533,540,536.27,536.19,538.11,530.57ZM355.78,609.84a5.43,5.43,0,0,0,2.93-1.18,67,67,0,0,0,7.69,6c-31.92,1.61-70.88,5.2-117.39,19.49C273.68,625.19,312.41,613.61,355.78,609.84Zm28.77,13.72,1.89-.08.29.08,0-.09c8.3-.33,16.12-.67,23.43-1.22,18.14-.3,57.19-4,73.42-29.09,19.55-30.25,9-69.36,8.5-71a3.73,3.73,0,0,0-7.32,1c0,2.71-.1,6.52-.4,10.86-3.68-18.28-12.32-30.68-27.4-40.73-20.63-13.75-42.53-11.23-46.87-10.56l-.79.14a3.35,3.35,0,0,0,1.31,6.58s.23-.05.59-.1a39,39,0,0,1,12.28.62c.55.11,1.13.24,1.73.38C413,489,397.15,491.44,380,504.7c-14.07,10.87-21.91,26.46-22.66,45.09-.75,18.84,6.22,37.13,10.27,40.82a3.35,3.35,0,0,0,5.21-4.06,70.08,70.08,0,0,1-6.63-24.2c-1-12.58,1.82-23.59,8.45-32.92a51.6,51.6,0,0,0-3.12,36c4.8,17.56,17.81,30.63,33.16,33.31,7.77,1.36,14,.58,18.93-1.28a32.78,32.78,0,0,0,16.06-9.29c6.55-7.1,9.36-17.09,8.36-29.69-.66-8.22-3.93-14.67-9.73-19.17-12.59-9.78-32.58-6.46-33.43-6.32a3.73,3.73,0,0,0,.91,7.39c.35,0,21.72-1.31,27.38,13.42a20.67,20.67,0,0,1,1.07,3.87,3.75,3.75,0,0,0-.55.15c-8.18,2.87-12.92.1-17.51-2.57-3.48-2-7.44-4.33-12.07-2.91-5.27,1.6-7.53,4.83-8.5,7.26a12.27,12.27,0,0,0-.79,3.17,24.14,24.14,0,0,1-8.19-12.93c-2.89-10.86.56-23.19,8.78-31.41,3.54-3.54,16.51-11.21,31.79-10.91,12.34.23,23.43,5.58,33,15.89C471.73,536,474.72,552.61,469,572.9c-10.31,36.68-35.21,39-79.91,40.78l.16-.63c-28-6.75-46.6-35.59-45.19-70.13a83.82,83.82,0,0,1,19.05-50.26c13.19-15.73,32.43-26,55.65-29.57,32.55-5.07,60.77,1.66,83.85,20a116.11,116.11,0,0,1,24.76,27.6,5.26,5.26,0,0,0,.12.78c2.59,10.37.94,15.91-1.94,20.28-2.3-8.19-6.62-18.1-11.93-24.17a3.35,3.35,0,0,0-5.71,3.25,160.09,160.09,0,0,1,5.32,57.7c-.94-6.29-2-10.6-2.07-11a3.35,3.35,0,0,0-6.61.73c-.43,21.69-7.94,39.62-22.31,53.29-34.09,32.44-95.9,31-96.51,31a3.35,3.35,0,0,0-.36,6.69c25.77,1.93,50.73-2.37,63.57-5.18-13.64,5.16-41.22,11.24-93.39,8.86a3.35,3.35,0,0,0-.57,6.68,509.59,509.59,0,0,0,54.88,3.52c2.58,0,5.15,0,7.67-.11-13.4,1.78-31.82,2.51-56.13,2.32-1.78,0-44.66-.08-96.57,11.57a387.44,387.44,0,0,0-42.33,12c40.47-20,73.48-26.88,73.89-27a3.73,3.73,0,0,0-1.34-7.33c-45.88,7.34-109.89,25.83-159.18,72.06,4.62-6.4,7.85-10.5,8-10.64a4.84,4.84,0,0,0-6.76-6.84c-28.14,21.7-46.53,46.29-58.54,69.51a173.59,173.59,0,0,1,20-37.57c22.17-31.67,55.85-57.78,100.1-77.59C278.32,627.81,339.72,625.35,384.55,623.56Zm-2.73-57.62c-.36-1-.69-2-1-3.05s-.51-2-.71-3c.53,1,1.11,2,1.72,2.94l-.74-.42A32.77,32.77,0,0,0,381.82,565.94ZM160.5,371.18a78.82,78.82,0,0,1,36.73-9.4A71.78,71.78,0,0,1,234.08,372c17.66,10.48,47.44,38.48,48.48,108.24,1.21,81-35.61,126.55-70.11,155.63,1.23-1.47,2.45-3,3.69-4.54s2.43-3,3.63-4.69a225.55,225.55,0,0,0,18.52-24.29c17.35-26.24,37.32-68.93,34.56-123.91,0-1-.09-1.66-.1-1.82a3.73,3.73,0,0,0-7.44.52c0,.31,0,.62.05.94a99.58,99.58,0,0,1-3.52,29.88A196.85,196.85,0,0,0,250.07,441a3.73,3.73,0,0,0-7.07,2.36c.09.28,8.68,28.25,4.69,67.56a207.25,207.25,0,0,1-11.51,49.88c9.16-32.32,8.07-61.07-3.48-84.65-9.56-19.52-21.32-33.49-35-41.53a53,53,0,0,0-38-6.62,58.39,58.39,0,0,0-27.41,14.25c1.71-12.37,6.37-21.73,14-27.93,18.33-15,48.22-7,48.52-6.94a3.73,3.73,0,0,0,2.52-7c-20.12-9-41.16-8.56-57.74,1.34-1.29.77-2.52,1.6-3.72,2.47,21.77-25.72,63.64-21,64.13-20.92a3.73,3.73,0,0,0,1.47-7.29c-18.39-5.25-34.23-5.58-47.28-1C156.18,373.62,158.28,372.36,160.5,371.18Zm-11.23-32.89c-1.8-2.17-3.65-4.57-5.52-7.23-22.12-31.45-30-73.37-32.8-103a5.4,5.4,0,0,0-5.35-4.9h0a5.41,5.41,0,0,0-5.38,4.84c-.09.89-2.2,22,3.36,50.15.68,3.43,1.5,7,2.47,10.82a177.7,177.7,0,0,1-10.14-28.32c-7.76-29.5-6.57-58.43,3.17-77.38,3.62-7,11.56-18.43,24-15.58,3.25.75,5.48,3.51,6.64,8.22-.58.23-1.18.48-1.78.78-8.5,4.25-13,12.74-11.39,21.64a18.55,18.55,0,0,0,11.77,14.32c-2.74,5.14-5,12.83-5.69,24.33C120.09,280.63,135.51,316,149.27,338.29ZM133.76,202.92a7.51,7.51,0,0,1-6.57-6.47,9,9,0,0,1,3.37-8.68A52.09,52.09,0,0,1,130,193a5.4,5.4,0,0,0,6.26,6.26,26.55,26.55,0,0,0,16.29-10.94c4.39-6.68,5.38-15.25,2.95-25.47-2-8.49-8-15.5-16.3-19.88a29.7,29.7,0,0,1,11,2.52c6.09,2.85,10.05,8.09,12.12,16,3.21,12.32.85,24.61-6.32,32.88a24.58,24.58,0,0,1-14.71,8.34l0-.49a10.76,10.76,0,0,0-3.31.83A28.09,28.09,0,0,1,133.76,202.92Zm4.33,14.31a11.44,11.44,0,0,1,2.82-3.52,35.1,35.1,0,0,0,23.24-12.23c9.51-11,12.73-26.92,8.61-42.69A37.58,37.58,0,0,0,165.53,144c8.54,7.66,14.28,19.41,15.36,31.9,1.13,13.08-3,25.12-11.34,33C156.57,221.25,144.32,219.45,138.09,217.23Zm71.76-77.7c17.11,22.2,15.78,49.17,13.46,63.27-2.85,17.3-9.08,27.84-11.78,29.65-9.6,6.39-14.25,21.64-16.16,30.11-9.28-2.62-23.88-9.31-26.58-19.87.46,0,.92,0,1.39,0a39.42,39.42,0,0,0,5.37-.37c12.11-1.7,22.51-9.08,30.89-21.94,14-21.48,13.09-57.11-2.14-82.89a75.16,75.16,0,0,0-5.8-8.47A51.09,51.09,0,0,1,209.85,139.53Z" style="fill:#c2b7a1"/><path d="M54.47,194.86l.32,0v-2C54.68,193.54,54.57,194.21,54.47,194.86Z" style="fill:#c2b7a1"/><path d="M54.79,782.06V767.72C54.69,772.81,54.7,777.61,54.79,782.06Z" style="fill:#c2b7a1"/><path d="M65.79,84.51V170.9c8.81-20.2,28.06-55.3,58.5-64.49h0c33.6-10.15,41.6-26.74,43.49-33.74H77.65A11.88,11.88,0,0,0,65.79,84.51Z" style="fill:#c2b7a1"/><path d="M625.44,501.21c22.95-22.66,58.34-22.66,58.34-22.66-48.2-3.93-70.82,24.59-70.82,24.59h0l8.84,2Q623.57,503.06,625.44,501.21Z" style="fill:#c2b7a1"/><path d="M598.62,154.67c10.93,10.08,47.07,18.49,74,.84s12.61-53.8-6.72-49.6-8.41,36.15-8.41,36.15C643.17,163.91,598.62,154.67,598.62,154.67Z" style="fill:#c2b7a1"/><path d="M623.84,102.55a72.56,72.56,0,0,1,9.25-21l7.31-8.88H526.48C552.85,77.1,588.92,85.76,623.84,102.55Z" style="fill:#c2b7a1"/><path d="M58.84,722.78a5.34,5.34,0,0,1-.32-3.54c.06-.21.75-2.88,3.16-10.9q.9-3.92,1.9-7.73l-.13-14.44-4.21-.7.89-5.33c1.14-6.85,2.16-14,3.08-21.4l-1-112.55c-2.63-4.89-4.47-7.65-4.56-7.78a5.39,5.39,0,0,1,8.13-7V381.6c-1.42-25.92-3-48.77-4.32-66.57q-2.91-5.61-5.75-11.86l-.48-2.11-.45-21.53V767.72c.15-7.09.52-14.71,1.23-22.71Q57,733.55,58.84,722.78Z" style="fill:url(#a2e9dc76-25f8-443c-91c3-49d00cff2091)"/><path d="M65.79,2448.45V958.32l-9.29.54c-.09-1.48-1.51-27.87,4.65-64h-.08a4.84,4.84,0,0,1-4.66-4.16c-.16-1.1-3.8-27.45,4.28-63.12.23-1,.47-2.05.72-3.1q-.36-3-.62-6a3.84,3.84,0,0,1-.87-.28,4.84,4.84,0,0,1-2.82-3.72,284.27,284.27,0,0,1-2.31-32.44V2448.45h11Z" style="fill:url(#bc89aba0-4f7a-45c6-bd34-c6a6af1be86f)"/><path d="M65.79,246.52V192.66c-.22,1.27-.44,2.55-.64,3.85l-10.36-1.6v46.18l9.95-.83C65.05,242.37,65.41,244.45,65.79,246.52Z" style="fill:url(#a9e49dee-c157-4b1c-ae62-9cd517ff48eb)"/><path d="M64.77,761.66q.49-2.16,1-4.29V745.84C65.31,751.29,65,756.59,64.77,761.66Z" style="fill:url(#afc4b21f-4d12-44fc-a504-a7225e1d1c5f)"/><path d="M58.21,94S53.73,67.88,74.66,67.15s93.72,2.22,93.72,2.22a15.94,15.94,0,0,1-.6,3.29h358.7a337.7,337.7,0,0,0-39.65-4.57l158-.84-4.46,5.41H809.11a5.5,5.5,0,0,0,0-11H77.65A22.86,22.86,0,0,0,54.79,84.51V192.87a152.76,152.76,0,0,1,5.09-21.14Z" style="fill:url(#fa696de7-7a8b-4bdd-9625-e3676690fc92)"/><path d="M59.92,818.22a3.84,3.84,0,0,0,.87.28q.26,3,.62,6c-.25,1-.49,2.08-.72,3.1-8.08,35.67-4.44,62-4.28,63.12a4.84,4.84,0,0,0,4.66,4.16h.08c-6.16,36.14-4.74,62.53-4.65,64l9.29-.54v-201q-.53,2.13-1,4.29c.2-5.07.54-10.37,1-15.82V531.42a5.39,5.39,0,0,0-8.13,7c.09.13,1.93,2.89,4.56,7.78l1,112.55c-.92,7.4-1.94,14.55-3.08,21.4l-.89,5.33,4.21.7.13,14.44q-1,3.81-1.9,7.73c-2.41,8-3.1,10.69-3.16,10.9a5.34,5.34,0,0,0,.32,3.54Q57,733.55,56,745c-.71,8-1.08,15.62-1.23,22.71v14.34A284.27,284.27,0,0,0,57.1,814.5,4.84,4.84,0,0,0,59.92,818.22Z" style="fill:#c2b7a1"/><path d="M59.92,818.22a3.84,3.84,0,0,0,.87.28q.26,3,.62,6c-.25,1-.49,2.08-.72,3.1-8.08,35.67-4.44,62-4.28,63.12a4.84,4.84,0,0,0,4.66,4.16h.08c-6.16,36.14-4.74,62.53-4.65,64l9.29-.54v-201q-.53,2.13-1,4.29c.2-5.07.54-10.37,1-15.82V531.42a5.39,5.39,0,0,0-8.13,7c.09.13,1.93,2.89,4.56,7.78l1,112.55c-.92,7.4-1.94,14.55-3.08,21.4l-.89,5.33,4.21.7.13,14.44q-1,3.81-1.9,7.73c-2.41,8-3.1,10.69-3.16,10.9a5.34,5.34,0,0,0,.32,3.54Q57,733.55,56,745c-.71,8-1.08,15.62-1.23,22.71v14.34A284.27,284.27,0,0,0,57.1,814.5,4.84,4.84,0,0,0,59.92,818.22Z" style="fill:url(#ee808d0b-7446-48f1-82e0-7dee30a047b6)"/><path d="M55.72,303.17q2.84,6.25,5.75,11.86c1.34,17.8,2.9,40.65,4.32,66.57V246.52c-.38-2.07-.74-4.15-1.05-6.26l-9.95.83v38.44l.45,21.53Z" style="fill:#c2b7a1"/><path d="M55.72,303.17q2.84,6.25,5.75,11.86c1.34,17.8,2.9,40.65,4.32,66.57V246.52c-.38-2.07-.74-4.15-1.05-6.26l-9.95.83v38.44l.45,21.53Z" style="fill:url(#b9954a3d-0188-49ed-a88e-8c8d0f8a1b93)"/><path d="M65.79,192.66V84.51A11.88,11.88,0,0,1,77.65,72.66h90.13a15.94,15.94,0,0,0,.6-3.29s-72.79-3-93.72-2.22S58.21,94,58.21,94l1.67,77.77a152.76,152.76,0,0,0-5.09,21.14v2l10.36,1.6C65.35,195.21,65.57,193.93,65.79,192.66Z" style="fill:#c2b7a1"/><path d="M65.79,192.66V84.51A11.88,11.88,0,0,1,77.65,72.66h90.13a15.94,15.94,0,0,0,.6-3.29s-72.79-3-93.72-2.22S58.21,94,58.21,94l1.67,77.77a152.76,152.76,0,0,0-5.09,21.14v2l10.36,1.6C65.35,195.21,65.57,193.93,65.79,192.66Z" style="fill:url(#a6de59a2-8cc4-4df2-b34f-3a5c7127edb2)"/><path d="M486.83,68.09a337.7,337.7,0,0,1,39.65,4.57H640.4l4.46-5.41Z" style="fill:#c2b7a1"/><path d="M486.83,68.09a337.7,337.7,0,0,1,39.65,4.57H640.4l4.46-5.41Z" style="fill:url(#f0d5f698-7a8e-4313-83ce-8a5edf73a2de)"/><path d="M2158.76,696.17c-19.36-33.11-40.41-53-41.3-53.83a3.36,3.36,0,0,0-5.23,4.08c7.15,12.85,12.37,23.6,16.2,32.45a154.44,154.44,0,0,0-14.24-13.62,3.35,3.35,0,0,0-5.46,2.6,53.17,53.17,0,0,0,5.43,21.38l-1.38-1.05.07-.06c-16.47-20.22-23-44-25.5-61.73.09-13.28,4.34-26.33,13.21-34,7,13.18,12.39,17.71,20.82,24.72,4.7,3.91,10.55,8.78,18.43,16.65a129.87,129.87,0,0,1,24.86,35.76c13.43,42.06,16.14,52.37,16.16,52.47s.09.25.14.38c1.4,8,2.38,15.93,3.05,23.52V531.42a5.86,5.86,0,0,0-.8.91c-.27.41-1.52,2.27-3.34,5.39-.44-54.47,1.62-110.14,4.14-156.12V246.52a190.87,190.87,0,0,1-22.85,60.71l-1.37-.14-.3,3a240.76,240.76,0,0,1-51.62,60.27l-.89-.69a297.32,297.32,0,0,0,42.37-55.12c28.3-47.52,37.4-95.69,26.32-139.29-4.52-17.79-14.77-28.13-26.06-33.2a3.57,3.57,0,0,0-.34-.43c-15-16.23-45.28-24.11-66.55-10-13.82,9.17-23,25.4-24.57,43.4-1.42,16.39,3.93,31.63,14.68,41.81,7.15,6.78,14.49,10.34,21.33,11.88-5.24,2.24-11.69,3.91-18.4,3-8.88-1.25-16.74-7-23.34-17.14-11.72-18-10.67-49.38,2.39-71.5,8.16-13.81,24.15-29.8,54.09-27.59l.07-.88a84.66,84.66,0,0,1,13.86,2.33c32.24,8.29,53.87,35.14,61.18,75.78V170.9c-8.8-20.2-28.05-55.29-58.49-64.49h0c-38.49-9.9-78.08,5.71-94.12,26.52-19.61,25.44-18.17,55.8-15.56,71.63,2.86,17.41,9.47,32.23,16.45,36.88,6.7,4.47,11.25,19.79,12.55,28.39l6.11,4.55a70,70,0,0,0,23.63-8.78c11-6.59,17-15.13,17.62-24.77a61.57,61.57,0,0,0,21.11-11.27l-1-1.17q1.5-.39,2.88-.87a76.72,76.72,0,0,1,1.21,10.1c3.52,60.56-31,105.2-40.83,116.59a84.08,84.08,0,0,0-65.35,8.47c-33.84,20.09-52.94,61.77-53.77,117.37-.72,48.43,11.81,90.59,37.23,125.31a207.74,207.74,0,0,0,17.9,21.19c-23.71-9.12-64.56-22.32-112-27,11.51-14.88,17.89-35,17-57-1.46-35.75-24.3-80.79-83.83-90.06-35.66-5.56-66.69,1.91-92.23,22.21-23.6,18.74-38.57,45.85-45.42,70.16-2.63-20.56-11.17-28-20.54-33.94a36.64,36.64,0,0,1-4.33-3c-7.37-6.45-11.26-15.92-11.29-16a5.4,5.4,0,0,0-9.12-1.51,44.77,44.77,0,0,0-7.85,14.72,48.92,48.92,0,0,0-5.08-1.89l-8.84,2c-1.17-1.37-2.39-2.67-3.63-3.9a36.33,36.33,0,0,0-24.31,9,32.92,32.92,0,0,0-8.49,39c6.68,14.68,28.44,14.85,29.36,14.85a5.4,5.4,0,0,0,4.28-8.7,14.15,14.15,0,0,1,6.12-1.81c3.37-.36,15.24-.7,26.19,9.67,9,8.48,19.12,24.54,27.14,38.67a21.76,21.76,0,0,0-8.36-1.73c-14.31,0-20,8-20.63,8.86a5.4,5.4,0,0,0,1.39,7.42c2.65,1.86,10.19,8.17,13.23,15,.31.71.66,1.62,1.08,2.69,3.1,8,10,25.81,30,38.39-.72,1.81-6.54,17.7,3.08,30.76a32.11,32.11,0,0,0,12.78,10c-16.09,6.3-27.66,17.64-34.26,25.56a5.11,5.11,0,0,1-3.68,2.08c-3.89.31-8.82-3.13-10.24-4.35a5.4,5.4,0,0,0-8.91,3.35c-.12.87-2.68,21.51,11.57,37,10.68,11.57,27.54,16.87,50.15,15.77a70.3,70.3,0,0,0,20.52-.93A49.94,49.94,0,0,0,1764,782.1c19.88-.71,45.44,1.15,45.44,1.15,5.55-5.55,13.46-11.19,22-16.45-9.87,8.72-14.41,15.36-14.71,15.79a5.41,5.41,0,0,0,9,6c.42-.63,43.17-62.1,160.56-54.29,35.08,2.33,66.77,11.23,94.19,26.48a192.38,192.38,0,0,1,19.44,12.36q7.15,5.84,13.93,12.32c37.26,35.75,54.88,76.49,59.44,88.23,11.31,46.34,9.31,84.08,9.28,84.5l1.49.09v-201A234.25,234.25,0,0,0,2158.76,696.17Zm3.23-253.5c1.21-37.95,3.36-71.67,5.13-95.13q4.44-5.31,8.87-11.75c-1.72,24.85-3.55,55.54-4.91,88.88-1.62,39.71-2.71,87.49-1.69,134.53a183.09,183.09,0,0,0-6.23,17.82C2160.39,530.16,2160.75,481.75,2162,442.67Zm-14-76.49q3.66-2.79,7.45-6.27c-1.55,22.29-3.2,50.87-4.2,82.34-1.36,42.44-1.29,81.76.2,116.89,1,24.48,2.77,47,5.18,67.25.13,4.25.45,8.58,1,13q-1.87-2.46-3.84-4.79C2135.71,540.92,2143.8,414.67,2148,366.18Zm-20.16,11.76a82.22,82.22,0,0,0,8.67-4.18c-.76,9.55-1.6,21.12-2.35,34.18a78.14,78.14,0,0,0-7.46-16.55C2127.06,386.05,2127.46,381.52,2127.79,377.94Zm3.92,98.75c-.69,63.64,3.39,110.51,8.68,144.11q-2.54-2.37-4.77-4.33c-8.55-39.39-11.7-83.76-12.27-124A59.7,59.7,0,0,0,2131.71,476.69Zm-77.26-214.13c-1.91-8.47-6.56-23.72-16.16-30.11-2.7-1.81-8.94-12.35-11.78-29.65-2.32-14.1-3.66-41.07,13.46-63.27a51.09,51.09,0,0,1,11.35-10.48,75.16,75.16,0,0,0-5.8,8.47c-15.23,25.78-16.15,61.41-2.14,82.89,8.38,12.86,18.77,20.24,30.89,21.94a37.88,37.88,0,0,0,5.37.37c.46,0,.93,0,1.39,0C2078.33,253.25,2063.72,259.94,2054.45,262.56Zm84.32,448.31a.88.88,0,0,1,0,.16l-.16-.17Zm-51.38-118c-12-26-18.11-53.66-21.09-77.14,1.11.09,2.93.2,5.3.2,1,0,2.15,0,3.35-.08,2.75,30.67,8,55.47,13.84,75.09C2088.31,591.55,2087.84,592.2,2087.39,592.86Zm-2.55,76.9-2.55-1.45.76-.67Zm-36.51-173a19.82,19.82,0,0,1-7.14-11.93c-1.57-9.58,4.5-19.91,15.47-26.31,8.9-5.19,20-6.08,26.83-4.7l.38.34c0-.09,0-.17,0-.26.48.11.95.23,1.38.36l1,1.68c3.27,11,10.18,14,14.3,14.8.27,0,.54.07.81.1-6,2.08-14.64,3-26.44.13a3.73,3.73,0,0,0-2.87,6.77,53.38,53.38,0,0,0,20.32,6.95l-.57.17a63.57,63.57,0,0,1-20.65,1.94,3.72,3.72,0,0,0-1.36,7.3,57.25,57.25,0,0,0,15,2,61.62,61.62,0,0,0,26.78-6.25c-16.5,17.58-42.09,15.38-44.88,15.08-7.51-1.57-13.59-4.27-18-7.85v-.29Zm-1.17,57.42a121.74,121.74,0,0,1-13.05-46c-.38-4.39-.53-8.62-.51-12.63a31.45,31.45,0,0,0,4.14,6v.33C2037.69,503.1,2037.28,523.29,2047.16,554.17Zm7.9-41.35c2.58,22.51,7.88,49.23,18.42,75.13-.44-.39-.86-.8-1.29-1.2-17.53-35.21-22.09-63.5-23.26-76.63A51.49,51.49,0,0,0,2055.06,512.82Zm44.83,68.11c-.8.47-1.58,1-2.34,1.52-6.4-23-10-46.59-11.85-67.81a71.39,71.39,0,0,0,7.48-1.74l.8-.26a545,545,0,0,0,7.92,67.65A4.7,4.7,0,0,0,2099.89,580.93Zm17.3,19.11c-7.55-30.41-11.14-62.9-12.65-91.68a55.25,55.25,0,0,0,8.14-5.1c1.11,42.59,5,76.09,9.71,102A57.69,57.69,0,0,1,2117.19,600ZM2080.27,209c-8.34-7.9-12.47-19.94-11.34-33,1.08-12.49,6.82-24.24,15.35-31.9a37.86,37.86,0,0,0-7.23,14.76c-4.11,15.77-.89,31.72,8.61,42.69a35.14,35.14,0,0,0,23.25,12.23,11.59,11.59,0,0,1,2.82,3.52C2105.5,219.45,2093.25,221.25,2080.27,209Zm35.79-6a28.09,28.09,0,0,1-4.18.16,10.76,10.76,0,0,0-3.31-.83l0,.5a24.65,24.65,0,0,1-14.71-8.35c-7.17-8.27-9.53-20.56-6.32-32.88,2.06-7.91,6-13.15,12.12-16a29.7,29.7,0,0,1,11-2.52c-8.27,4.38-14.28,11.39-16.3,19.88-2.43,10.22-1.44,18.79,3,25.47a26.55,26.55,0,0,0,16.29,10.94,5.4,5.4,0,0,0,6.26-6.26,51.2,51.2,0,0,1-.55-5.26,9,9,0,0,1,3.37,8.68A7.51,7.51,0,0,1,2116.06,202.92ZM2127.19,237c-.67-11.5-3-19.19-5.69-24.33a18.55,18.55,0,0,0,11.77-14.32c1.58-8.9-2.9-17.39-11.39-21.64-.6-.3-1.2-.55-1.78-.78,1.16-4.71,3.38-7.47,6.64-8.22,12.47-2.85,20.41,8.54,24,15.58,9.74,18.95,10.93,47.88,3.17,77.38A177.7,177.7,0,0,1,2143.8,289c1-3.77,1.79-7.39,2.47-10.82,5.55-28.14,3.45-49.27,3.36-50.15a5.41,5.41,0,0,0-5.38-4.84h0a5.4,5.4,0,0,0-5.35,4.9c-2.75,29.62-10.68,71.54-32.8,103-1.87,2.66-3.72,5.06-5.52,7.23C2114.31,316,2129.73,280.63,2127.19,237ZM1967.26,480.21c1-69.76,30.82-97.76,48.48-108.24a71.77,71.77,0,0,1,36.84-10.19,78.83,78.83,0,0,1,36.74,9.4c2.22,1.18,4.32,2.44,6.36,3.75-13-4.54-28.89-4.21-47.29,1a3.73,3.73,0,0,0,1.48,7.29c.49-.07,42.36-4.8,64.12,20.92-1.19-.87-2.42-1.7-3.71-2.47-16.58-9.89-37.62-10.38-57.74-1.34a3.73,3.73,0,0,0,2.52,7c.3-.08,30.19-8,48.52,6.94,7.59,6.2,12.25,15.56,14,27.94A58.32,58.32,0,0,0,2090.13,428a53,53,0,0,0-38,6.62c-13.65,8-25.41,22-35,41.53-11.55,23.58-12.65,52.33-3.48,84.65a207.25,207.25,0,0,1-11.51-49.88c-4-39.31,4.6-67.28,4.68-67.56a3.72,3.72,0,0,0-7.06-2.36A197.12,197.12,0,0,0,1988,507.93a100.28,100.28,0,0,1-3.52-29.88l.06-.94a3.73,3.73,0,0,0-7.44-.52c0,.16-.06.8-.1,1.82-2.76,55,17.21,97.67,34.56,123.91a225.55,225.55,0,0,0,18.52,24.29c1.2,1.64,2.41,3.19,3.63,4.69s2.46,3.07,3.68,4.54C2002.86,606.76,1966.05,561.19,1967.26,480.21Zm33.54,153.93c-46.5-14.29-85.46-17.88-117.38-19.49a67,67,0,0,0,7.69-6,5.4,5.4,0,0,0,2.93,1.18C1937.41,613.61,1976.14,625.19,2000.8,634.14Zm-299.11-65.91c.81-11,4.14-24.26,10-37.66,1.84,5.62,5.08,9.46,7.8,12.68a29.32,29.32,0,0,1,3.19,4.2,27.73,27.73,0,0,1-1.31,9.41c-.31.54-.65,1.11-1,1.72-12.63,19.85-8.76,42.28-8.59,43.22a5.41,5.41,0,0,0,9.91,1.9c2-3.28,5.89-4.34,9-4.62.85,43.58,21.71,58.67,28.3,62.34,6.19,3.45,11.77,4.13,15.3,1.86a6.73,6.73,0,0,0,3.13-6.31c-.07-.83-.19-2.37,2.55-3.37,4.57-1.67,12.24.09,15.95,5.28,9.42,13.19,33.66,17.71,92.6,17.24.27,0,15.46,0,38.32,2.31-22.27-.5-42,1.46-61.45,3.4-6.19.62-12.59,1.26-18.95,1.8-52.74,4.53-92.14-5.69-117.1-30.35C1703.2,627.5,1699.88,592.8,1701.69,568.23Zm-42.93-39.05a3.35,3.35,0,0,0-4,5.33s4.75,4.59,11.94,16a235.51,235.51,0,0,1,11.71,21.06A110.8,110.8,0,0,0,1665,555.36c-16.83-16-39.87-15-47.72-7.41a10.54,10.54,0,0,0-2.85,4.56c-5-1-10.91-3.25-13-7.79a22.3,22.3,0,0,1,5.78-26.42c7.32-6.43,20.44-10,35.33-.76a5.4,5.4,0,0,0,8.16-3.62,50.1,50.1,0,0,1,2.9-9.21,52.85,52.85,0,0,0,9.48,11.24,46.84,46.84,0,0,0,5.64,4c6.65,4.23,14.65,9.34,16.12,31.54C1674,538.19,1659.69,529.72,1658.76,529.18Zm22.69,101c-.47-1.23-.88-2.29-1.28-3.18-2.7-6.08-7.47-11.3-11.25-14.8a20,20,0,0,1,7.39-1.28c6.5,0,12.63,6.81,15.19,10.44,2.08,20.14,12.66,37,30.79,49.07C1693.3,660.75,1685.13,639.69,1681.45,630.2Zm31.76,66.7a18.17,18.17,0,0,1-3.41-10.55c7,5.06,19.35,9.59,40.61,6.86,12.34-1.58,30-.72,30.19-.71a5.24,5.24,0,0,0,2.83-.66q23.46,4.67,52.23,3.33c-5.94,1.07-11.73,2.16-17.39,3.22-19.71,3.71-38.33,7.21-56.29,8.84C1736.8,709.52,1719.94,706,1713.21,696.9Zm280.18,13.61a256.8,256.8,0,0,0-37.48-2.71,433.25,433.25,0,0,0-70.16,1.58c-26.32,2.82-41.3,7.19-41.92,7.37a3.35,3.35,0,0,0,.94,6.57l.48,0c15.93-2.28,30.6-3.58,43.84-4.23-1.72.73-3.33,1.48-4.85,2.25l-1.27.27a5.4,5.4,0,0,0-3.35,2.33,39.29,39.29,0,0,0-3.79,2.68c-13.58,10.95-37.06,7.81-55.92,5.29-4.69-.63-9.11-1.22-13.07-1.55-17.15-1.42-24,2.43-31.57,14.85a134.24,134.24,0,0,1-64.82,9.18,3.35,3.35,0,0,0-1.5,6.49c.92.33,15.37,5.42,35.81,5.42a118.89,118.89,0,0,0,20.25-1.72c-11.89,21.2-40.93,17.46-42.17,17.28a6.16,6.16,0,0,0-1-.05c-19.42,1-33.57-3.08-42-12.2-5.74-6.17-7.89-13.69-8.65-19.43a20.74,20.74,0,0,0,9,1.5,15.91,15.91,0,0,0,11.15-5.93c8.7-10.44,27.27-27.73,53.79-26.26a5.35,5.35,0,0,0,3.07-.76h.09q6.9,0,14.73-.72c18.47-1.68,37.34-5.22,57.31-9,55.81-10.49,118.28-22.23,204.86-1.33,3.67,1.22,7.39,2.5,11.22,3.89,29.49,10.65,55,26.74,76.06,47.92A263.64,263.64,0,0,0,1993.39,710.51Zm119.35-1.37A4.84,4.84,0,0,0,2106,716c.11.14,3.33,4.24,8,10.65-49.29-46.24-113.3-64.73-159.18-72.07a3.73,3.73,0,0,0-1.34,7.33c.41.08,33.42,7,73.89,27a387.44,387.44,0,0,0-42.33-12c-51.91-11.65-94.79-11.57-96.57-11.57-24.31.19-42.73-.54-56.14-2.32,2.53.07,5.1.11,7.68.11a509.3,509.3,0,0,0,54.87-3.52,3.35,3.35,0,0,0-.56-6.68c-52.17,2.38-79.76-3.7-93.39-8.85,12.83,2.8,37.8,7.1,63.57,5.17a3.35,3.35,0,0,0-.36-6.69c-.61,0-62.42,1.48-96.51-31-14.37-13.67-21.88-31.6-22.31-53.29a3.35,3.35,0,0,0-6.61-.73c-.09.38-1.13,4.69-2.07,11a160.13,160.13,0,0,1,5.32-57.7,3.36,3.36,0,0,0-5.72-3.25c-5.3,6.07-9.62,16-11.93,24.17-2.87-4.37-4.52-9.91-1.93-20.28a5.26,5.26,0,0,0,.12-.78,116.11,116.11,0,0,1,24.76-27.6c23.08-18.34,51.3-25.07,83.85-20,23.22,3.62,42.46,13.84,55.65,29.57a83.74,83.74,0,0,1,19,50.26c1.42,34.54-17.16,63.38-45.18,70.13l.15.63c-44.69-1.83-69.59-4.1-79.9-40.77-5.71-20.3-2.72-36.94,8.87-49.48,9.54-10.31,20.63-15.66,33-15.89,15.29-.3,28.26,7.37,31.8,10.91,8.22,8.22,11.67,20.55,8.78,31.41a24.23,24.23,0,0,1-8.2,12.93,11.85,11.85,0,0,0-.78-3.17c-1-2.43-3.23-5.66-8.5-7.26-4.63-1.42-8.59.89-12.07,2.91-4.59,2.67-9.33,5.44-17.51,2.57a5.62,5.62,0,0,0-.55-.15,20.67,20.67,0,0,1,1.07-3.87c5.66-14.73,27-13.44,27.38-13.42a3.73,3.73,0,0,0,.9-7.39c-.84-.14-20.83-3.46-33.42,6.32-5.8,4.5-9.08,10.95-9.73,19.17-1,12.6,1.81,22.59,8.36,29.69a32.78,32.78,0,0,0,16.06,9.29c4.94,1.86,11.16,2.64,18.93,1.28,15.35-2.68,28.36-15.75,33.16-33.31a51.61,51.61,0,0,0-3.12-36c6.63,9.33,9.48,20.34,8.45,32.92a70,70,0,0,1-6.64,24.2,3.36,3.36,0,0,0,3,4.93,3.4,3.4,0,0,0,2.25-.87c4-3.69,11-22,10.26-40.82-.74-18.63-8.58-34.22-22.65-45.09-17.17-13.26-33-15.72-45.25-14.35.59-.14,1.18-.27,1.73-.38a39,39,0,0,1,12.28-.62l.59.1a3.35,3.35,0,0,0,1.31-6.58l-.79-.14c-4.34-.67-26.24-3.19-46.87,10.56-15.09,10-23.72,22.45-27.4,40.74-.3-4.35-.41-8.16-.4-10.87a3.73,3.73,0,0,0-7.32-1c-.46,1.65-11,40.77,8.49,71,16.23,25.11,55.29,28.79,73.43,29.09,7.31.55,15.13.89,23.43,1.22l0,.09.28-.08,1.9.08c44.83,1.79,106.23,4.25,185.91,39.93,44.25,19.81,77.93,45.92,100.1,77.59a173.59,173.59,0,0,1,20,37.57C2159.27,755.43,2140.88,730.84,2112.74,709.14ZM1868,562.82c.62-.94,1.2-1.92,1.73-2.93-.2,1-.43,2-.71,3s-.61,2.06-1,3.06a33.16,33.16,0,0,0,.7-3.55Z" style="fill:#c2b7a1"/><polygon points="2195.82 241.16 2195.02 241.09 2195.02 279.54 2195.82 241.16" style="fill:#c2b7a1"/><path d="M2195.35,194.86c-.1-.65-.21-1.32-.33-2v2Z" style="fill:#c2b7a1"/><path d="M2195,767.73v14.32C2195.11,777.6,2195.13,772.81,2195,767.73Z" style="fill:#c2b7a1"/><path d="M2184,170.9V84.51a11.86,11.86,0,0,0-11.85-11.85H2082c1.9,7,9.9,23.59,43.5,33.75h0C2156,115.61,2175.22,150.7,2184,170.9Z" style="fill:#c2b7a1"/><path d="M1628,505.11l8.84-2h0s-22.63-28.52-70.82-24.59c0,0,35.39,0,58.34,22.66C1625.62,502.44,1626.84,503.74,1628,505.11Z" style="fill:#c2b7a1"/><path d="M1584,105.91c-19.33-4.2-33.62,31.94-6.73,49.6s63,9.24,74-.84c0,0-44.55,9.24-58.83-12.61C1592.36,142.06,1603.28,110.12,1584,105.91Z" style="fill:#c2b7a1"/><path d="M1616.73,81.54a72.56,72.56,0,0,1,9.25,21c34.91-16.79,71-25.45,97.35-29.89H1609.42Z" style="fill:#c2b7a1"/><path d="M2194.57,301.06l-.47,2.11q-2.83,6.25-5.75,11.87c-1.34,17.79-2.91,40.64-4.33,66.56V531.42a5.4,5.4,0,0,1,8.14,7c-.09.13-1.93,2.89-4.57,7.78l-1,112.55c.91,7.4,1.94,14.55,3.08,21.4l.89,5.33-4.21.7-.13,14.44q1,3.81,1.9,7.73c2.4,8,3.1,10.69,3.16,10.9a5.38,5.38,0,0,1-.33,3.55q1.82,10.76,2.83,22.22c.71,8,1.08,15.63,1.22,22.72V279.54Z" style="fill:url(#a96cb77e-e094-4cea-922f-89d503894cad)"/><path d="M2185,761.66c-.2-5.07-.53-10.37-1-15.82v11.53Q2184.56,759.5,2185,761.66Z" style="fill:url(#b104a21b-f16b-48fe-80d0-5733cfe2605f)"/><path d="M2189.9,818.23a4.84,4.84,0,0,1-.87.27c-.17,2-.38,4-.63,6,.26,1,.5,2.07.73,3.09,8.08,35.67,4.44,62,4.28,63.12a4.85,4.85,0,0,1-4.66,4.16h-.08c6.16,36.14,4.74,62.53,4.65,64l-9.3-.54V2448.45h11V782.05a283.36,283.36,0,0,1-2.3,32.45A4.88,4.88,0,0,1,2189.9,818.23Z" style="fill:url(#a354df74-e4c4-4129-948a-f0734f6f8c5c)"/><path d="M2184,192.65v53.87c.39-2.07.75-4.15,1.06-6.26l9.94.83V194.91l-10.35,1.6C2184.47,195.21,2184.25,193.93,2184,192.65Z" style="fill:url(#fe4ab145-9a94-41a1-b723-80ad191a9247)"/><path d="M2175.16,67.15c20.93.73,16.45,26.81,16.45,26.81l-1.68,77.77a149.82,149.82,0,0,1,5.09,21.13V84.51a22.84,22.84,0,0,0-22.85-22.85H1440.71a5.5,5.5,0,0,0,0,11h168.71L1605,67.25l158,.84a338,338,0,0,0-39.66,4.57H2082a16.24,16.24,0,0,1-.59-3.29S2154.23,66.42,2175.16,67.15Z" style="fill:url(#b303e1d1-6ebd-4044-b473-25d428515290)"/><path d="M2191,722.79a5.38,5.38,0,0,0,.33-3.55c-.06-.21-.76-2.88-3.16-10.9q-.9-3.92-1.9-7.73l.13-14.44,4.21-.7-.89-5.33c-1.14-6.85-2.17-14-3.08-21.4l1-112.55c2.64-4.89,4.48-7.65,4.57-7.78a5.4,5.4,0,0,0-8.14-7V745.84c.49,5.45.82,10.75,1,15.82q-.48-2.16-1-4.29v201l9.3.54c.09-1.48,1.51-27.87-4.65-64h.08a4.85,4.85,0,0,0,4.66-4.16c.16-1.1,3.8-27.45-4.28-63.12-.23-1-.47-2.05-.73-3.09.25-2,.46-4,.63-6a4.67,4.67,0,0,0,3.69-4,283.36,283.36,0,0,0,2.3-32.45V767.73c-.14-7.09-.51-14.72-1.22-22.72Q2192.78,733.55,2191,722.79Z" style="fill:#c2b7a1"/><path d="M2191,722.79a5.38,5.38,0,0,0,.33-3.55c-.06-.21-.76-2.88-3.16-10.9q-.9-3.92-1.9-7.73l.13-14.44,4.21-.7-.89-5.33c-1.14-6.85-2.17-14-3.08-21.4l1-112.55c2.64-4.89,4.48-7.65,4.57-7.78a5.4,5.4,0,0,0-8.14-7V745.84c.49,5.45.82,10.75,1,15.82q-.48-2.16-1-4.29v201l9.3.54c.09-1.48,1.51-27.87-4.65-64h.08a4.85,4.85,0,0,0,4.66-4.16c.16-1.1,3.8-27.45-4.28-63.12-.23-1-.47-2.05-.73-3.09.25-2,.46-4,.63-6a4.67,4.67,0,0,0,3.69-4,283.36,283.36,0,0,0,2.3-32.45V767.73c-.14-7.09-.51-14.72-1.22-22.72Q2192.78,733.55,2191,722.79Z" style="fill:url(#ba49bd5a-7730-4b70-a3b3-8947f3534a34)"/><path d="M2184,246.52V381.6c1.42-25.92,3-48.77,4.33-66.56q2.91-5.62,5.75-11.87l.47-2.11.45-21.52V241.09l-9.94-.83C2184.77,242.37,2184.41,244.45,2184,246.52Z" style="fill:#c2b7a1"/><path d="M2184,246.52V381.6c1.42-25.92,3-48.77,4.33-66.56q2.91-5.62,5.75-11.87l.47-2.11.45-21.52V241.09l-9.94-.83C2184.77,242.37,2184.41,244.45,2184,246.52Z" style="fill:url(#a07eb4ef-48f4-4361-b77d-5f23767e5c5d)"/><path d="M2184,84.51V192.65c.23,1.28.45,2.56.65,3.86l10.35-1.6v-2a149.82,149.82,0,0,0-5.09-21.13L2191.61,94s4.48-26.08-16.45-26.81-93.72,2.22-93.72,2.22a16.24,16.24,0,0,0,.59,3.29h90.14A11.86,11.86,0,0,1,2184,84.51Z" style="fill:#c2b7a1"/><path d="M2184,84.51V192.65c.23,1.28.45,2.56.65,3.86l10.35-1.6v-2a149.82,149.82,0,0,0-5.09-21.13L2191.61,94s4.48-26.08-16.45-26.81-93.72,2.22-93.72,2.22a16.24,16.24,0,0,0,.59,3.29h90.14A11.86,11.86,0,0,1,2184,84.51Z" style="fill:url(#aab93b64-b845-4cd5-85fc-1b2382e3dbf7)"/><path d="M1605,67.25l4.46,5.41h113.91A338,338,0,0,1,1763,68.09Z" style="fill:#c2b7a1"/><path d="M1605,67.25l4.46,5.41h113.91A338,338,0,0,1,1763,68.09Z" style="fill:url(#a7569c34-cf83-48ff-bc46-08d1f6c60128)"/><circle cx="1124.91" cy="302.6" r="239.94" transform="translate(115.51 884.06) rotate(-45)" style="fill:url(#aa84c92c-bb28-4227-b873-487f5b174249)"/><path d="M1245.52,536.13h0l-2.51,1.36h0a2.21,2.21,0,0,0-1,2.92l8.18,16.85a2.22,2.22,0,0,0,3,1l2.59-1.26a2.21,2.21,0,0,0,1-3l-8.23-17A2.21,2.21,0,0,0,1245.52,536.13Z" style="fill:#cc9312"/><path d="M1364.28,544l2-2a2.22,2.22,0,0,0,0-3.14L1313.46,486a2.23,2.23,0,0,0-3.18,0h0c-.65.68-1.3,1.38-2,2.06h0a2.22,2.22,0,0,0,0,3.11l52.8,52.81A2.23,2.23,0,0,0,1364.28,544Z" style="fill:#cc9312"/><path d="M1271.22,520h0l-2.33,1.64h0a2.22,2.22,0,0,0-.61,3l16.5,25.83a2.22,2.22,0,0,0,3.06.67l2.43-1.55a2.22,2.22,0,0,0,.68-3.06l-16.57-25.94A2.21,2.21,0,0,0,1271.22,520Z" style="fill:#cc9312"/><path d="M1322.46,544l2.24-1.82a2.21,2.21,0,0,0,.33-3.11l-29-35.9a2.22,2.22,0,0,0-3.19-.26h0l-1.84,1.6-.32.27a2.22,2.22,0,0,0-.27,3.07l29,35.82A2.22,2.22,0,0,0,1322.46,544Z" style="fill:#cc9312"/><path d="M1184.16,560.44h0l-2.76.69h0a2.22,2.22,0,0,0-1.63,2.63l1.54,7a2.21,2.21,0,0,0,2.64,1.69l2.81-.62a2.23,2.23,0,0,0,1.69-2.65l-1.56-7.07A2.21,2.21,0,0,0,1184.16,560.44Z" style="fill:#cc9312"/><path d="M1219,551.23l0-.1a2.22,2.22,0,0,0-2.84-1.14l-.19.08-2.46,1h0a2.22,2.22,0,0,0-1.29,2.8l3.52,10.19a2.22,2.22,0,0,0,2.82,1.36l2.72-.94a2.21,2.21,0,0,0,1.37-2.82l-3.53-10.2C1219.09,551.36,1219.07,551.29,1219,551.23Z" style="fill:#cc9312"/><path d="M1393.07,359,1380,356.11a2.2,2.2,0,0,0-2.64,1.71h0c-.19.93-.39,1.86-.59,2.79h0a2.21,2.21,0,0,0,1.69,2.64l13,2.88a2.21,2.21,0,0,0,2.64-1.69l.63-2.81A2.22,2.22,0,0,0,1393.07,359Z" style="fill:#cc9312"/><path d="M1379.34,433.48l1.25-2.59a2.21,2.21,0,0,0-1-3l-20.1-9.76a2.22,2.22,0,0,0-3,1h0l-1.26,2.57h0a2.22,2.22,0,0,0,1,3l20.11,9.76A2.22,2.22,0,0,0,1379.34,433.48Z" style="fill:#cc9312"/><path d="M1371.91,468l1.55-2.42a2.21,2.21,0,0,0-.67-3.06L1345,444.72a2.23,2.23,0,0,0-3.07.68h0c-.51.8-1,1.6-1.54,2.39h0a2.23,2.23,0,0,0,.66,3.08l27.79,17.75A2.22,2.22,0,0,0,1371.91,468Z" style="fill:#cc9312"/><path d="M1326.15,467.7h0c-.58.74-1.17,1.49-1.77,2.23h0a2.22,2.22,0,0,0,.33,3.12l36.67,29.67a2.21,2.21,0,0,0,3.11-.33l1.81-2.24A2.22,2.22,0,0,0,1366,497l-36.69-29.69A2.21,2.21,0,0,0,1326.15,467.7Z" style="fill:#cc9312"/><path d="M1386.75,399l.94-2.73a2.21,2.21,0,0,0-1.36-2.82l-14.87-5.15a2.21,2.21,0,0,0-2.82,1.38h0l-.93,2.68h0a2.22,2.22,0,0,0,1.37,2.83l14.86,5.15A2.22,2.22,0,0,0,1386.75,399Z" style="fill:#cc9312"/><path d="M870.48,171.72l-1.26,2.59a2.22,2.22,0,0,0,1,3l16.85,8.18a2.21,2.21,0,0,0,2.92-.95h0c.45-.84.9-1.67,1.36-2.5h0a2.22,2.22,0,0,0-1-3.06l-17-8.24A2.22,2.22,0,0,0,870.48,171.72Z" style="fill:#cc9312"/><path d="M885.54,61.2l-2,2a2.22,2.22,0,0,0,0,3.14l52.8,52.8a2.22,2.22,0,0,0,3.11,0h0c.69-.67,1.38-1.32,2.07-2h0a2.23,2.23,0,0,0,0-3.18L888.68,61.2A2.22,2.22,0,0,0,885.54,61.2Z" style="fill:#cc9312"/><path d="M877.91,137.25l-1.55,2.43a2.22,2.22,0,0,0,.67,3.06l25.84,16.5a2.21,2.21,0,0,0,3-.61h0c.54-.78,1.09-1.56,1.64-2.33h0a2.21,2.21,0,0,0-.61-3.15L881,136.57A2.23,2.23,0,0,0,877.91,137.25Z" style="fill:#cc9312"/><path d="M922.74,136.88l.28-.32c.53-.61,1.06-1.23,1.6-1.84h0a2.22,2.22,0,0,0-.27-3.19l-35.9-29a2.21,2.21,0,0,0-3.11.32l-1.82,2.24a2.22,2.22,0,0,0,.33,3.12l35.82,29A2.22,2.22,0,0,0,922.74,136.88Z" style="fill:#cc9312"/><path d="M855.68,240.76l-.62,2.81a2.21,2.21,0,0,0,1.69,2.64l7,1.55a2.23,2.23,0,0,0,2.63-1.64h0c.22-.93.46-1.85.69-2.77h0a2.21,2.21,0,0,0-1.67-2.72l-7.07-1.56A2.23,2.23,0,0,0,855.68,240.76Z" style="fill:#cc9312"/><path d="M863.07,206.23l-.94,2.72a2.22,2.22,0,0,0,1.37,2.82l10.18,3.53a2.23,2.23,0,0,0,2.8-1.3h0c.31-.82.64-1.64,1-2.66h0a2.21,2.21,0,0,0-1.33-2.91l-10.3-3.57A2.21,2.21,0,0,0,863.07,206.23Z" style="fill:#cc9312"/><path d="M1064.26,49.08a2.21,2.21,0,0,0,2.64,1.68h0l2.79-.59h0a2.22,2.22,0,0,0,1.71-2.65l-2.88-13.08a2.21,2.21,0,0,0-2.64-1.68l-2.81.62a2.21,2.21,0,0,0-1.69,2.64Z" style="fill:#cc9312"/><path d="M1002.76,71.24a2.22,2.22,0,0,0,3,1h0l2.57-1.25h0a2.22,2.22,0,0,0,1-3l-9.76-20.1a2.21,2.21,0,0,0-3-1L994,48.17a2.22,2.22,0,0,0-1,3Z" style="fill:#cc9312"/><path d="M982.79,82.5,965.05,54.72a2.23,2.23,0,0,0-3.07-.67l-2.42,1.55a2.22,2.22,0,0,0-.68,3.06l17.75,27.79a2.22,2.22,0,0,0,3.08.66h0l2.39-1.54h0A2.22,2.22,0,0,0,982.79,82.5Z" style="fill:#cc9312"/><path d="M927.36,61.22,925.12,63a2.21,2.21,0,0,0-.33,3.11l29.68,36.67a2.21,2.21,0,0,0,3.11.33h0c.74-.6,1.49-1.19,2.23-1.77h0a2.23,2.23,0,0,0,.35-3.14L930.48,61.55A2.21,2.21,0,0,0,927.36,61.22Z" style="fill:#cc9312"/><path d="M1032.32,58.44a2.22,2.22,0,0,0,2.83,1.37h0l2.69-.94h0a2.21,2.21,0,0,0,1.38-2.82l-5.15-14.86a2.22,2.22,0,0,0-2.82-1.37l-2.72.94a2.21,2.21,0,0,0-1.37,2.82Z" style="fill:#cc9312"/><path d="M870.48,433.48a2.22,2.22,0,0,0,3,1l17-8.24a2.21,2.21,0,0,0,1-3.06h0c-.46-.83-.91-1.67-1.36-2.51h0a2.21,2.21,0,0,0-2.92-.95l-16.85,8.18a2.22,2.22,0,0,0-1,3Z" style="fill:#cc9312"/><path d="M885.54,544a2.22,2.22,0,0,0,3.13,0l52.86-52.86a2.22,2.22,0,0,0,0-3.17h0c-.69-.65-1.38-1.3-2.06-2h0a2.21,2.21,0,0,0-3.11,0L883.5,538.84a2.22,2.22,0,0,0,0,3.13Z" style="fill:#cc9312"/><path d="M877.91,468a2.22,2.22,0,0,0,3.06.67l25.94-16.57a2.21,2.21,0,0,0,.61-3.15h0l-1.64-2.34h0a2.22,2.22,0,0,0-3-.6L877,462.47a2.22,2.22,0,0,0-.67,3.06Z" style="fill:#cc9312"/><path d="M883.52,500.15l1.81,2.24a2.22,2.22,0,0,0,3.12.33l35.9-29.05a2.22,2.22,0,0,0,.26-3.19h0l-1.87-2.15h0a2.21,2.21,0,0,0-3.07-.28l-35.82,29A2.22,2.22,0,0,0,883.52,500.15Z" style="fill:#cc9312"/><path d="M855.06,361.63l.62,2.82a2.22,2.22,0,0,0,2.65,1.68l7.07-1.56a2.21,2.21,0,0,0,1.67-2.72h0q-.36-1.38-.69-2.76h0a2.22,2.22,0,0,0-2.63-1.63l-7,1.54A2.23,2.23,0,0,0,855.06,361.63Z" style="fill:#cc9312"/><path d="M873.68,389.91l-10.19,3.53a2.22,2.22,0,0,0-1.36,2.82l.94,2.72a2.22,2.22,0,0,0,2.82,1.36l10.2-3.53.19-.08.1,0a2.22,2.22,0,0,0,1.14-2.84l-.08-.19c-.32-.82-.65-1.64-1-2.45h0A2.22,2.22,0,0,0,873.68,389.91Z" style="fill:#cc9312"/><path d="M1063.07,571.83l2.81.62a2.22,2.22,0,0,0,2.64-1.69l2.88-13.08a2.2,2.2,0,0,0-1.71-2.64h0l-2.79-.6h0a2.21,2.21,0,0,0-2.63,1.69l-2.88,13.06A2.22,2.22,0,0,0,1063.07,571.83Z" style="fill:#cc9312"/><path d="M994,557l2.59,1.26a2.22,2.22,0,0,0,3-1l9.72-20c0-.06.05-.12.07-.17l0-.09a2.2,2.2,0,0,0-1.1-2.79l-.16-.08-2.4-1.18h0a2.22,2.22,0,0,0-3,1L993,554.07A2.22,2.22,0,0,0,994,557Z" style="fill:#cc9312"/><path d="M959.56,549.6l2.42,1.56a2.23,2.23,0,0,0,3.06-.68l17.75-27.78a2.23,2.23,0,0,0-.68-3.07h0c-.8-.51-1.6-1-2.39-1.54h0a2.22,2.22,0,0,0-3.08.67l-17.75,27.78A2.21,2.21,0,0,0,959.56,549.6Z" style="fill:#cc9312"/><path d="M925.12,542.18l2.24,1.81a2.22,2.22,0,0,0,3.12-.33L960.17,507a2.22,2.22,0,0,0-.36-3.13h0l-2.23-1.78h0a2.22,2.22,0,0,0-3.12.33l-29.67,36.67A2.22,2.22,0,0,0,925.12,542.18Z" style="fill:#cc9312"/><path d="M1028.53,564.44l2.72.95a2.22,2.22,0,0,0,2.82-1.37l5.16-14.86a2.23,2.23,0,0,0-1.38-2.83c-.9-.31-1.8-.61-2.7-.93h0a2.23,2.23,0,0,0-2.84,1.36l-5.14,14.86A2.21,2.21,0,0,0,1028.53,564.44Z" style="fill:#cc9312"/><path d="M1255.79,48.18l-2.59-1.26a2.21,2.21,0,0,0-3,1l-8.18,16.85a2.21,2.21,0,0,0,1,2.92h0c.84.44,1.67.9,2.51,1.36h0a2.22,2.22,0,0,0,3.06-1l8.23-17A2.2,2.2,0,0,0,1255.79,48.18Z" style="fill:#cc9312"/><path d="M1364.28,61.2a2.22,2.22,0,0,0-3.14,0L1308.33,114a2.21,2.21,0,0,0,0,3.1l2,2.08a2.2,2.2,0,0,0,3.16,0l52.86-52.86a2.22,2.22,0,0,0,0-3.14Z" style="fill:#cc9312"/><path d="M1290.26,55.6l-2.43-1.55a2.21,2.21,0,0,0-3.06.68l-16.5,25.83a2.23,2.23,0,0,0,.61,3h0c.78.54,1.56,1.08,2.33,1.64h0a2.22,2.22,0,0,0,3.15-.62l16.56-25.94A2.22,2.22,0,0,0,1290.26,55.6Z" style="fill:#cc9312"/><path d="M1324.69,63l-2.24-1.81a2.21,2.21,0,0,0-3.11.33l-29,35.81a2.22,2.22,0,0,0,.27,3.08h0c.73.62,1.44,1.24,2.16,1.87h0A2.22,2.22,0,0,0,1296,102l29-35.89A2.21,2.21,0,0,0,1324.69,63Z" style="fill:#cc9312"/><path d="M1186.75,33.38l-2.81-.62a2.21,2.21,0,0,0-2.64,1.68l-1.54,7a2.22,2.22,0,0,0,1.63,2.63h0l2.77.7h0a2.23,2.23,0,0,0,2.72-1.67l1.56-7.08A2.21,2.21,0,0,0,1186.75,33.38Z" style="fill:#cc9312"/><path d="M1221.28,40.76l-2.72-.94a2.22,2.22,0,0,0-2.82,1.37l-3.53,10.19a2.21,2.21,0,0,0,1.3,2.79h0l2.66,1h0a2.22,2.22,0,0,0,2.91-1.34l3.57-10.3A2.22,2.22,0,0,0,1221.28,40.76Z" style="fill:#cc9312"/><path d="M1380,249.1l13.08-2.89a2.21,2.21,0,0,0,1.68-2.64l-.62-2.81a2.21,2.21,0,0,0-2.64-1.69L1378.43,242a2.22,2.22,0,0,0-1.68,2.64h0c.2.93.4,1.86.59,2.79h0A2.22,2.22,0,0,0,1380,249.1Z" style="fill:#cc9312"/><path d="M1379.34,171.72a2.22,2.22,0,0,0-3-1l-20.1,9.76a2.21,2.21,0,0,0-1,3h0c.4.8.79,1.59,1.25,2.56h0a2.22,2.22,0,0,0,3,1l20.1-9.75a2.22,2.22,0,0,0,1-3Z" style="fill:#cc9312"/><path d="M1371.91,137.25a2.22,2.22,0,0,0-3.06-.67l-27.79,17.75a2.21,2.21,0,0,0-.68,3.06l1.56,2.43a2.22,2.22,0,0,0,3.06.67l27.78-17.75a2.22,2.22,0,0,0,.68-3.06Z" style="fill:#cc9312"/><path d="M1366.29,105.06l-1.81-2.24a2.21,2.21,0,0,0-3.12-.33l-36.66,29.67a2.22,2.22,0,0,0-.34,3.11h0l1.77,2.24h0a2.22,2.22,0,0,0,3.14.35L1366,108.17A2.21,2.21,0,0,0,1366.29,105.06Z" style="fill:#cc9312"/><path d="M1386.75,206.23a2.21,2.21,0,0,0-2.82-1.37L1369.07,210a2.21,2.21,0,0,0-1.36,2.84h0l.93,2.69a2.22,2.22,0,0,0,2.82,1.38l14.86-5.15a2.21,2.21,0,0,0,1.37-2.82Z" style="fill:#cc9312"/><line x1="195.36" y1="840.68" x2="2054.45" y2="840.68" style="fill:none;stroke:#c2b7a1;stroke-miterlimit:10;stroke-width:7px"/><path d="M366.16,356.15V270.49h41.58l2.1,12.24h-22v19.34h14.61v12.24H387.87v41.84Z" style="fill:#171d29"/><path d="M446,356.15V270.62h21.71v85.53Z" style="fill:#171d29"/><path d="M568.41,270.62v85.53H556.17l-35.53-48v48H508.4V270.62h12.24l35.53,48.69V270.62Z" style="fill:#171d29"/><path d="M672.23,356.15h-22.9L644.46,340H622.09l-4.73,16.18h-13l22.5-85.53h22.9Zm-31.32-28.42-7.63-30.66-7.5,30.66Z" style="fill:#171d29"/><path d="M757.63,343.92l-2.9,12.23H708.28V270.62H730v73.3Z" style="fill:#171d29"/><path d="M1526.76,288.52a33.74,33.74,0,0,0-10.6-7.37,26.66,26.66,0,0,0-10.33-2.37,13.32,13.32,0,0,0-7.89,2.24,7.28,7.28,0,0,0-3.16,6.31,5.67,5.67,0,0,0,2.7,4.61,39.68,39.68,0,0,0,6.64,3.82q3.95,1.85,8.69,3.94a42.82,42.82,0,0,1,8.68,5.14,29.11,29.11,0,0,1,6.65,7.1,17.79,17.79,0,0,1,2.69,10,28.15,28.15,0,0,1-2.23,11,30.71,30.71,0,0,1-6.32,9.54,28.82,28.82,0,0,1-9.8,6.58,29.47,29.47,0,0,1-12.57,2.1,40.27,40.27,0,0,1-14.8-3.81,63.27,63.27,0,0,1-16.38-11.19l8.29-11.71a32.21,32.21,0,0,0,9.54,9.15,26.78,26.78,0,0,0,10.06,3.88,12.53,12.53,0,0,0,8-1.19,6.39,6.39,0,0,0,3.29-6,5.12,5.12,0,0,0-2.63-4.27,43.48,43.48,0,0,0-6.65-3.56l-8.62-3.81a40.61,40.61,0,0,1-8.62-5.2,27.19,27.19,0,0,1-6.64-7.63,21.43,21.43,0,0,1-2.63-11.06,29.17,29.17,0,0,1,3-13.75,27.23,27.23,0,0,1,8-9.34,30.4,30.4,0,0,1,11.12-5.07,38.52,38.52,0,0,1,24.48,2.31,29.07,29.07,0,0,1,9.87,7Z" style="fill:#171d29"/><path d="M1620.18,340a23.9,23.9,0,0,1-5.46,6.25,28.87,28.87,0,0,1-6.71,3.95,31.43,31.43,0,0,1-7.63,2.1,55.62,55.62,0,0,1-8.22.59,26.64,26.64,0,0,1-13.16-3.42,35.06,35.06,0,0,1-10.79-9.34,46.89,46.89,0,0,1-7.31-13.82,54.46,54.46,0,0,1,0-33.81,46.89,46.89,0,0,1,7.31-13.82,35.06,35.06,0,0,1,10.79-9.34,26.75,26.75,0,0,1,13.16-3.42,54.1,54.1,0,0,1,7.63.52,28.29,28.29,0,0,1,7.1,2,32.58,32.58,0,0,1,6.71,3.88,38.26,38.26,0,0,1,6.58,6.38l-8.29,10.53a15.88,15.88,0,0,0-3.88-5.46,18.61,18.61,0,0,0-6-3.89,13.5,13.5,0,0,0-6.84-.85,10.53,10.53,0,0,0-6.45,3.62c-1.93,2.1-3.51,5.31-4.73,9.6s-1.85,10-1.85,17.11a58.51,58.51,0,0,0,1.78,15.86,24.51,24.51,0,0,0,4.61,9.34,11.52,11.52,0,0,0,6.18,3.95,12.17,12.17,0,0,0,6.51-.33,14.64,14.64,0,0,0,5.6-3.42,14,14,0,0,0,3.48-5.27Z" style="fill:#171d29"/><path d="M1677.16,266.28a26.8,26.8,0,0,1,13.16,3.42,35.65,35.65,0,0,1,10.79,9.28,46.21,46.21,0,0,1,7.3,13.75,53.9,53.9,0,0,1,0,33.69,46.33,46.33,0,0,1-7.3,13.75,35.61,35.61,0,0,1-10.79,9.27,27.28,27.28,0,0,1-26.45,0,35.61,35.61,0,0,1-10.79-9.27,46.1,46.1,0,0,1-7.3-13.75,53.9,53.9,0,0,1,0-33.69,46,46,0,0,1,7.3-13.75,35.65,35.65,0,0,1,10.79-9.28A27,27,0,0,1,1677.16,266.28Zm0,74.08a5.38,5.38,0,0,0,4.14-2.36,21.82,21.82,0,0,0,3.36-6.52,54.43,54.43,0,0,0,2.3-9.74,78.63,78.63,0,0,0,.86-11.9A77.67,77.67,0,0,0,1687,298a54.62,54.62,0,0,0-2.3-9.67,23,23,0,0,0-3.36-6.58,5.33,5.33,0,0,0-4.14-2.43,5.51,5.51,0,0,0-4.21,2.43,21.81,21.81,0,0,0-3.42,6.58,54.57,54.57,0,0,0-2.31,9.67,77.71,77.71,0,0,0-.85,11.85,78.67,78.67,0,0,0,.85,11.9,54.38,54.38,0,0,0,2.31,9.74A20.73,20.73,0,0,0,1673,338,5.56,5.56,0,0,0,1677.16,340.36Z" style="fill:#171d29"/><path d="M1802,297.2a30.91,30.91,0,0,1-.73,6.32,31.28,31.28,0,0,1-2.37,6.91,29.82,29.82,0,0,1-4.34,6.64,26.68,26.68,0,0,1-6.64,5.53l12.63,29.21h-23.95L1766,326.55h-2.76v25.26h-21.58V266.28H1773a31.22,31.22,0,0,1,12.64,2.37,26,26,0,0,1,9.08,6.51,27.38,27.38,0,0,1,5.52,9.81A39.23,39.23,0,0,1,1802,297.2Zm-39,14.87h5a10.13,10.13,0,0,0,4.94-1.25,12.91,12.91,0,0,0,4-3.42,17,17,0,0,0,2.7-5.06,19.82,19.82,0,0,0,0-12.37,17,17,0,0,0-2.7-5.07,12.91,12.91,0,0,0-4-3.42,10.24,10.24,0,0,0-4.94-1.25h-5Z" style="fill:#171d29"/><path d="M1881.78,339.57,1879,351.81h-46.45V266.15h41.58l2.11,12.24h-22v19.34h14.61V310h-14.61v29.6Z" style="fill:#171d29"/></g></g></svg>