<svg xmlns="http://www.w3.org/2000/svg" xmlns:xlink="http://www.w3.org/1999/xlink" viewBox="0 0 2282.03 1183.65"><defs><radialGradient id="b23ed060-aca6-41e6-81ed-55b5eba77832" cx="-2863.25" cy="2934.16" r="1" gradientTransform="matrix(253.64, 0, 0, -253.64, 727375.23, 744635.27)" gradientUnits="userSpaceOnUse"><stop offset="0" stop-color="#fff"/><stop offset="0.11" stop-color="#fafafa"/><stop offset="0.23" stop-color="#ececec"/><stop offset="0.36" stop-color="#d4d4d4"/><stop offset="0.5" stop-color="#b3b3b3"/><stop offset="0.65" stop-color="#898989"/><stop offset="0.79" stop-color="#555"/><stop offset="0.94" stop-color="#191919"/><stop offset="1"/></radialGradient><radialGradient id="b999b7ba-5132-4266-87e0-4b4bc501d1c1" cx="-2864.59" cy="2931.19" r="1" gradientTransform="matrix(253.64, 0, 0, -253.64, 727534.39, 743884.88)" xlink:href="#b23ed060-aca6-41e6-81ed-55b5eba77832"/><radialGradient id="fcc4e85a-910b-42d0-963a-da10a25d4461" cx="-2865.85" cy="2929.54" r="1" gradientTransform="matrix(253.64, 0, 0, -253.64, 727683.24, 743530.29)" xlink:href="#b23ed060-aca6-41e6-81ed-55b5eba77832"/><radialGradient id="f71b90a0-f512-4535-ab6b-64280d781faa" cx="-2868.17" cy="2927.56" r="1" gradientTransform="matrix(253.64, 0, 0, -253.64, 728038.68, 743169.74)" xlink:href="#b23ed060-aca6-41e6-81ed-55b5eba77832"/><radialGradient id="bee09b0a-294c-4f7c-b929-6ffaade9bdf8" cx="-2886.53" cy="2937.38" r="1" gradientTransform="matrix(0, -253.64, 253.64, 0, -743696.6, -731710.18)" xlink:href="#b23ed060-aca6-41e6-81ed-55b5eba77832"/><radialGradient id="e8de309f-3ac6-4e3a-ab13-fe28ed508e9a" cx="-2886.38" cy="2939.44" r="1" gradientTransform="translate(-744044.42 -731607.91) rotate(-90) scale(253.64)" xlink:href="#b23ed060-aca6-41e6-81ed-55b5eba77832"/><radialGradient id="a4ad941d-3b70-4e65-8ec2-bc72f0936cf9" cx="-2885.5" cy="2942.37" r="1" gradientTransform="matrix(0, -253.64, 253.64, 0, -744551.84, -731250.61)" xlink:href="#b23ed060-aca6-41e6-81ed-55b5eba77832"/><clipPath id="ac5281ea-29e6-4f57-8720-334c14e18942"><path d="M910.28,416.81c0,151.68,103.31,274.64,230.74,274.64s230.73-123,230.73-274.64S1268.45,142.17,1141,142.17s-230.74,123-230.74,274.64" style="fill:none"/></clipPath><mask id="bd571d03-86d3-43d6-b0d1-c658af9d483e" x="910.28" y="142.17" width="461.47" height="549.28" maskUnits="userSpaceOnUse"><rect x="910.28" y="142.17" width="461.47" height="549.28" style="fill:url(#b23ed060-aca6-41e6-81ed-55b5eba77832)"/></mask><radialGradient id="afd1087f-0bd4-4dd9-bf4b-4c0cc6092e8e" cx="-2863.25" cy="2934.16" r="1" gradientTransform="matrix(253.64, 0, 0, -253.64, 727375.27, 744635.31)" gradientUnits="userSpaceOnUse"><stop offset="0" stop-color="#222b3d"/><stop offset="1" stop-color="#222b3d"/></radialGradient><clipPath id="ff074bbb-07ef-4391-8c53-f9f3a267cf94"><path d="M881.75,154.18c-122.65,34.6-188.69,181-147.51,327s174,236.28,296.63,201.68,188.69-181,147.51-327c-35.24-124.93-137.57-209.08-243.22-209.07a196.36,196.36,0,0,0-53.41,7.38" style="fill:none"/></clipPath><mask id="f37d61e6-7176-4a49-a074-68812985d7c8" x="543.96" y="9.22" width="824.71" height="845.78" maskUnits="userSpaceOnUse"><rect x="625.49" y="86.04" width="661.65" height="692.14" transform="translate(-81.4 275.86) rotate(-15.75)" style="fill:url(#b999b7ba-5132-4266-87e0-4b4bc501d1c1)"/></mask><radialGradient id="b17e29d1-ae27-4e02-8ed0-798ff43319cf" cx="-2864.59" cy="2931.19" r="1" gradientTransform="matrix(253.64, 0, 0, -253.64, 727534.39, 743884.88)" xlink:href="#afd1087f-0bd4-4dd9-bf4b-4c0cc6092e8e"/><clipPath id="b6842f62-d629-43d3-a468-22757a565c44"><path d="M664.15,233.84c-114.78,55.37-154.4,211-88.5,347.61S788,783.94,902.79,728.57s154.4-211,88.5-347.61C941.23,277.18,844.68,214.23,750.85,214.23a198.37,198.37,0,0,0-86.7,19.61" style="fill:none"/></clipPath><mask id="e54403bb-8f56-4d34-a841-b60031cab6ca" x="286.81" y="0" width="993.32" height="998.16" maskUnits="userSpaceOnUse"><rect x="413.17" y="123.59" width="740.59" height="750.98" transform="translate(-139.03 389.96) rotate(-25.75)" style="fill:url(#fcc4e85a-910b-42d0-963a-da10a25d4461)"/></mask><radialGradient id="a2e46174-6bee-4cf9-84ca-182fa1d7e50e" cx="-2865.85" cy="2929.54" r="1" gradientTransform="matrix(253.64, 0, 0, -253.64, 727683.3, 743530.33)" xlink:href="#afd1087f-0bd4-4dd9-bf4b-4c0cc6092e8e"/><clipPath id="bb79e833-cc94-434b-b08a-305f57ec6f0f"><path d="M367.85,411.34C271,494.11,272.28,654.7,370.8,770S627.74,911.75,724.63,829s95.56-243.36-3-358.68c-59.76-70-141.54-107.19-218.28-107.18-49.77,0-97.43,15.67-135.54,48.23" style="fill:none"/></clipPath><mask id="ab63938c-9c6d-46f6-a920-1915ad5c09c2" x="0" y="91.2" width="1092.47" height="1092.45" maskUnits="userSpaceOnUse"><rect x="158.75" y="250.04" width="774.97" height="774.76" transform="translate(-283.12 507.58) rotate(-40.51)" style="fill:url(#f71b90a0-f512-4535-ab6b-64280d781faa)"/></mask><radialGradient id="b8b24a82-ca36-4273-a779-df130ad0956d" cx="-2868.17" cy="2927.56" r="1" gradientTransform="matrix(253.64, 0, 0, -253.64, 728038.68, 743169.74)" xlink:href="#afd1087f-0bd4-4dd9-bf4b-4c0cc6092e8e"/><clipPath id="e85b33fd-9c21-467d-a3de-2b30bafb968c"><path d="M1103.65,355.87c-41.18,146,24.86,292.37,147.51,327s255.45-55.7,296.63-201.68-24.86-292.37-147.51-327a196.31,196.31,0,0,0-53.41-7.38c-105.65,0-208,84.14-243.22,209.07" style="fill:none"/></clipPath><mask id="f534418b-4ed6-4aec-8b7b-f7359902be4d" x="913.37" y="9.22" width="824.71" height="845.78" maskUnits="userSpaceOnUse"><rect x="979.65" y="101.29" width="692.14" height="661.65" transform="translate(549.92 1590.73) rotate(-74.25)" style="fill:url(#bee09b0a-294c-4f7c-b929-6ffaade9bdf8)"/></mask><radialGradient id="be8a8928-b589-41e9-8ff5-6ec67e46afd2" cx="-2886.53" cy="2937.38" r="1" gradientTransform="matrix(0, -253.64, 253.64, 0, -743696.6, -731710.18)" xlink:href="#afd1087f-0bd4-4dd9-bf4b-4c0cc6092e8e"/><clipPath id="ee492da1-7926-4e44-aa7e-6ca548856ffb"><path d="M1290.74,381c-65.9,136.61-26.28,292.25,88.5,347.61s261.24-10.5,327.14-147.12,26.28-292.24-88.49-347.61a198.44,198.44,0,0,0-86.71-19.61c-93.83,0-190.38,63-240.44,166.73" style="fill:none"/></clipPath><mask id="edaf6a40-44ba-4098-baa9-74a3245233a0" x="1001.9" y="0" width="993.32" height="998.16" maskUnits="userSpaceOnUse"><rect x="1123.07" y="128.78" width="750.98" height="740.6" transform="translate(397.96 1631.98) rotate(-64.25)" style="fill:url(#e8de309f-3ac6-4e3a-ab13-fe28ed508e9a)"/></mask><radialGradient id="b54a530b-69da-4d65-82d0-8ea4ca16eb97" cx="-2886.38" cy="2939.44" r="1" gradientTransform="matrix(0, -253.64, 253.64, 0, -744044.47, -731607.96)" xlink:href="#afd1087f-0bd4-4dd9-bf4b-4c0cc6092e8e"/><clipPath id="f13f57c6-cbc5-46ee-b628-b1f32b6588ac"><path d="M1560.36,470.29c-98.52,115.32-99.84,275.91-2.95,358.68s255.3,56.39,353.82-58.94,99.85-275.92,3-358.69c-38.12-32.56-85.78-48.23-135.55-48.23-76.73,0-158.52,37.22-218.28,107.18" style="fill:none"/></clipPath><mask id="efdc9587-9c1f-46c0-910c-5c94082be33d" x="1189.56" y="91.2" width="1092.47" height="1092.45" maskUnits="userSpaceOnUse"><rect x="1348.42" y="249.94" width="774.76" height="774.97" transform="translate(123.68 1543.17) rotate(-49.49)" style="fill:url(#a4ad941d-3b70-4e65-8ec2-bc72f0936cf9)"/></mask><radialGradient id="abdc3609-31b0-49f7-a574-c7b329461290" cx="-2885.5" cy="2942.37" r="1" gradientTransform="matrix(0, -253.64, 253.64, 0, -744551.84, -731250.61)" xlink:href="#afd1087f-0bd4-4dd9-bf4b-4c0cc6092e8e"/><linearGradient id="e7ec0b57-6338-4f5c-89c7-b494dc9bac28" x1="-2874.72" y1="2947.54" x2="-2873.72" y2="2947.54" gradientTransform="matrix(-87.07, 288, 288, 87.07, -1097458.98, 571815.11)" gradientUnits="userSpaceOnUse"><stop offset="0" stop-color="#e6b027"/><stop offset="0.24" stop-color="#ffc142"/><stop offset="0.34" stop-color="#ffd379"/><stop offset="0.43" stop-color="#ffe0a1"/><stop offset="0.47" stop-color="#ffda7f"/><stop offset="0.53" stop-color="#ffd14f"/><stop offset="0.58" stop-color="#ffcb32"/><stop offset="0.61" stop-color="#ffc927"/><stop offset="0.64" stop-color="#ffcc34"/><stop offset="0.76" stop-color="#ffd75e"/><stop offset="0.81" stop-color="#ffdb6e"/><stop offset="0.9" stop-color="#ffd145"/><stop offset="0.96" stop-color="#ffca2b"/><stop offset="1" stop-color="#ffc821"/></linearGradient><linearGradient id="aac63001-63b1-4eff-b10e-070180dfc09a" x1="-2875.05" y1="2949.14" x2="-2874.05" y2="2949.14" gradientTransform="matrix(-82.6, 247.81, 247.81, 82.6, -966580.78, 469376.35)" gradientUnits="userSpaceOnUse"><stop offset="0" stop-color="#613914"/><stop offset="0.11" stop-color="#a86423"/><stop offset="0.24" stop-color="#663d16"/><stop offset="0.39" stop-color="#6e5421"/><stop offset="0.42" stop-color="#785821"/><stop offset="0.53" stop-color="#a16821"/><stop offset="0.56" stop-color="#8f611d"/><stop offset="0.62" stop-color="#755617"/><stop offset="0.65" stop-color="#6b5215"/><stop offset="0.67" stop-color="#664a14"/><stop offset="0.73" stop-color="#573311"/><stop offset="0.77" stop-color="#522a10"/><stop offset="0.87" stop-color="#996915"/><stop offset="0.95" stop-color="#42280a"/><stop offset="1" stop-color="#42280a"/></linearGradient><linearGradient id="b5944345-d2e9-42ab-9d1a-61170a455aaf" x1="-2875.05" y1="2948.85" x2="-2874.05" y2="2948.85" xlink:href="#aac63001-63b1-4eff-b10e-070180dfc09a"/><linearGradient id="a5ba0497-8cad-49e6-be42-17d590fe0233" x1="-2873.23" y1="2944.88" x2="-2872.23" y2="2944.88" gradientTransform="matrix(-38.51, 400.19, 400.19, 38.51, -1287647.82, 1036710.29)" xlink:href="#e7ec0b57-6338-4f5c-89c7-b494dc9bac28"/><linearGradient id="b02ac3de-1e2c-4d22-8db0-ab94cb000b22" x1="-2874.62" y1="2947.48" x2="-2873.62" y2="2947.48" gradientTransform="matrix(-85.95, 294.7, 294.7, 85.95, -1114135.71, 594178.42)" xlink:href="#aac63001-63b1-4eff-b10e-070180dfc09a"/><linearGradient id="aa2a7eab-6343-4a23-828f-bdb87cead437" x1="-2874.62" y1="2947.38" x2="-2873.62" y2="2947.38" gradientTransform="matrix(-85.95, 294.7, 294.7, 85.95, -1114135.71, 594178.42)" xlink:href="#aac63001-63b1-4eff-b10e-070180dfc09a"/><linearGradient id="bbd14eec-9d65-4ab5-a733-0894d4af4756" x1="-2874.62" y1="2947.36" x2="-2873.62" y2="2947.36" gradientTransform="matrix(-85.95, 294.7, 294.7, 85.95, -1114135.71, 594178.42)" xlink:href="#aac63001-63b1-4eff-b10e-070180dfc09a"/><linearGradient id="f18e714b-b026-4feb-b4a2-9a26b1cce13a" x1="-2874.62" y1="2947.14" x2="-2873.62" y2="2947.14" gradientTransform="matrix(-85.95, 294.7, 294.7, 85.95, -1114135.71, 594178.42)" xlink:href="#aac63001-63b1-4eff-b10e-070180dfc09a"/><linearGradient id="b7452ffb-7ac9-4539-a26e-3ef688493a35" x1="-2869.32" y1="2945.11" x2="-2868.32" y2="2945.11" gradientTransform="matrix(103.81, 308.09, 308.09, -103.81, -608321.64, 1190044.57)" xlink:href="#e7ec0b57-6338-4f5c-89c7-b494dc9bac28"/><linearGradient id="a35f689d-6744-4ce6-ab72-247f5e9bbb64" x1="-2871.97" y1="2945.19" x2="-2870.97" y2="2945.19" gradientTransform="matrix(14.51, 361.67, 361.67, -14.51, -1022391.66, 1081722.78)" xlink:href="#aac63001-63b1-4eff-b10e-070180dfc09a"/><linearGradient id="fdb2aa72-bfc6-46c8-968a-1cd4619992d7" x1="-2871.97" y1="2945.47" x2="-2870.97" y2="2945.47" gradientTransform="matrix(14.51, 361.67, 361.67, -14.51, -1022391.66, 1081722.78)" xlink:href="#aac63001-63b1-4eff-b10e-070180dfc09a"/><linearGradient id="b4991eee-1ec2-4550-baa9-313a959b9fe1" x1="-2871.97" y1="2945.65" x2="-2870.97" y2="2945.65" gradientTransform="matrix(14.51, 361.67, 361.67, -14.51, -1022391.66, 1081722.78)" xlink:href="#aac63001-63b1-4eff-b10e-070180dfc09a"/><linearGradient id="b865b752-4307-4aeb-b6fb-22d44b232b3c" x1="-2869.95" y1="2943.31" x2="-2868.95" y2="2943.31" gradientTransform="matrix(155.72, 373.39, 373.39, -155.72, -651194.6, 1530214.08)" xlink:href="#e7ec0b57-6338-4f5c-89c7-b494dc9bac28"/><linearGradient id="a6dc8b9c-0a13-4f21-b1ff-d60af8fe5faa" x1="-2868.24" y1="2943.55" x2="-2867.24" y2="2943.55" gradientTransform="matrix(173.02, 295.81, 295.81, -173.02, -373567.67, 1358057.43)" xlink:href="#aac63001-63b1-4eff-b10e-070180dfc09a"/><linearGradient id="b53d63d6-d742-4bfa-9385-747d4f6590f8" x1="-2867.93" y1="2941.4" x2="-2866.93" y2="2941.4" gradientTransform="matrix(267.91, 281.3, 281.3, -267.91, -58434.36, 1595120.68)" xlink:href="#e7ec0b57-6338-4f5c-89c7-b494dc9bac28"/><linearGradient id="efae828d-fd42-48eb-9d4d-1b19c53fa28a" x1="-2865.95" y1="2939.48" x2="-2864.95" y2="2939.48" gradientTransform="matrix(292.46, 167.44, 167.44, -292.46, 346621.15, 1340034.64)" xlink:href="#aac63001-63b1-4eff-b10e-070180dfc09a"/><linearGradient id="bf345c20-fc4f-4c20-bc4c-7d99d224e5f4" x1="-2865.95" y1="2939.65" x2="-2864.95" y2="2939.65" gradientTransform="matrix(292.46, 167.44, 167.44, -292.46, 346621.15, 1340034.64)" xlink:href="#aac63001-63b1-4eff-b10e-070180dfc09a"/><linearGradient id="f96dcd19-895c-479b-86b3-b013b2f5b5c4" x1="-2867.66" y1="2938.77" x2="-2866.66" y2="2938.77" gradientTransform="matrix(379.53, 189.77, 189.77, -379.53, 531085.94, 1660108.83)" xlink:href="#e7ec0b57-6338-4f5c-89c7-b494dc9bac28"/><linearGradient id="b494fe9a-674e-4600-8ef1-43bf0b5ca55f" x1="-2863.92" y1="2936.8" x2="-2862.92" y2="2936.8" gradientTransform="matrix(274.6, 51.35, 51.35, -274.6, 636052.16, 954040.8)" xlink:href="#aac63001-63b1-4eff-b10e-070180dfc09a"/><linearGradient id="e7b79b92-3a5e-4bd5-a534-36ff9d11824d" x1="-2863.92" y1="2936.3" x2="-2862.92" y2="2936.3" gradientTransform="matrix(274.6, 51.35, 51.35, -274.6, 636052.16, 954040.8)" xlink:href="#aac63001-63b1-4eff-b10e-070180dfc09a"/><linearGradient id="a171a63e-00d4-45ab-874a-364ac2a06c4a" x1="-2863.92" y1="2936.35" x2="-2862.92" y2="2936.35" gradientTransform="matrix(274.6, 51.35, 51.35, -274.6, 636052.16, 954040.8)" xlink:href="#aac63001-63b1-4eff-b10e-070180dfc09a"/></defs><title>logo</title><g id="b8332899-aac0-41ea-92b3-96e51964627a" data-name="Layer 2"><g id="b7582ef3-72ea-466a-80b5-ffc2f9615e99" data-name="Layer 1"><g style="clip-path:url(#ac5281ea-29e6-4f57-8720-334c14e18942)"><g style="mask:url(#bd571d03-86d3-43d6-b0d1-c658af9d483e)"><rect x="910.28" y="142.17" width="461.47" height="549.28" style="fill:url(#afd1087f-0bd4-4dd9-bf4b-4c0cc6092e8e)"/></g></g><g style="clip-path:url(#ff074bbb-07ef-4391-8c53-f9f3a267cf94)"><g style="mask:url(#f37d61e6-7176-4a49-a074-68812985d7c8)"><rect x="625.49" y="86.04" width="661.65" height="692.14" transform="translate(-81.4 275.86) rotate(-15.75)" style="fill:url(#b17e29d1-ae27-4e02-8ed0-798ff43319cf)"/></g></g><g style="clip-path:url(#b6842f62-d629-43d3-a468-22757a565c44)"><g style="mask:url(#e54403bb-8f56-4d34-a841-b60031cab6ca)"><rect x="413.17" y="123.59" width="740.59" height="750.98" transform="translate(-139.03 389.96) rotate(-25.75)" style="fill:url(#a2e46174-6bee-4cf9-84ca-182fa1d7e50e)"/></g></g><g style="clip-path:url(#bb79e833-cc94-434b-b08a-305f57ec6f0f)"><g style="mask:url(#ab63938c-9c6d-46f6-a920-1915ad5c09c2)"><rect x="158.75" y="250.04" width="774.97" height="774.76" transform="translate(-283.12 507.58) rotate(-40.51)" style="fill:url(#b8b24a82-ca36-4273-a779-df130ad0956d)"/></g></g><g style="clip-path:url(#e85b33fd-9c21-467d-a3de-2b30bafb968c)"><g style="mask:url(#f534418b-4ed6-4aec-8b7b-f7359902be4d)"><rect x="979.65" y="101.29" width="692.14" height="661.65" transform="translate(549.92 1590.73) rotate(-74.25)" style="fill:url(#be8a8928-b589-41e9-8ff5-6ec67e46afd2)"/></g></g><g style="clip-path:url(#ee492da1-7926-4e44-aa7e-6ca548856ffb)"><g style="mask:url(#edaf6a40-44ba-4098-baa9-74a3245233a0)"><rect x="1123.07" y="128.78" width="750.98" height="740.6" transform="translate(397.96 1631.98) rotate(-64.25)" style="fill:url(#b54a530b-69da-4d65-82d0-8ea4ca16eb97)"/></g></g><g style="clip-path:url(#f13f57c6-cbc5-46ee-b628-b1f32b6588ac)"><g style="mask:url(#efdc9587-9c1f-46c0-910c-5c94082be33d)"><rect x="1348.42" y="249.94" width="774.76" height="774.97" transform="translate(123.68 1543.17) rotate(-49.49)" style="fill:url(#abdc3609-31b0-49f7-a574-c7b329461290)"/></g></g><path d="M1880.28,541.39,1761.67,433.84l-10.61,21.51L1536,692.58l-20.59,12.91L1634,813l43.3-1.66,205.81-227Zm-223,199.83-10.24.51-40-36.3,164.43-181.34,40,36.3.5,10.23Z" style="fill:url(#e7ec0b57-6338-4f5c-89c7-b494dc9bac28)"/><g style="opacity:0.7000000000000001"><polygon points="1646.78 741.47 1657.01 740.96 1811.62 570.29 1811.11 560.05 1771.07 523.78 1769.37 480.01 1564.34 706.36 1606.73 705.2 1646.78 741.47" style="fill:none"/><polygon points="1844.82 548.36 1769.37 480.01 1771.07 523.78 1811.11 560.05 1811.62 570.29 1657.01 740.96 1646.78 741.47 1606.73 705.2 1564.34 706.36 1641.01 775.81 1667.58 775.43 1847.18 577.16 1844.82 548.36" style="fill:url(#aac63001-63b1-4eff-b10e-070180dfc09a)"/><polygon points="1761.24 433.53 1750.64 455.05 1535.66 692.38 1515.07 705.29 1564.34 706.36 1769.37 480.01 1761.24 433.53" style="fill:url(#b5944345-d2e9-42ab-9d1a-61170a455aaf)"/></g><path d="M1638.61,778l-77-69.61-1.22-1.1,1.1-1.22,205-226.78,1.33-1.46,1.22,1.1,76.49,69.16.53,1.38,1.61,27.21,0,.93-.44.48L1667.71,776.8l-.44.49-.93,0L1640,778.42Zm-73.08-71,75,67.84,24.9-1,178.76-197.7-1.53-25.81L1768.16,483Z" style="fill:#ede4d2"/><polygon points="1488.22 287.72 1482.75 318.16 1353.41 603.52 1336.85 621.69 1481.78 687.38 1520.41 629.29 1494.61 625.56 1424.1 593.6 1474.69 481.97 1509.5 497.75 1527.97 514.44 1559.66 444.53 1534.8 441.94 1499.99 426.16 1525.15 370.65 1595.66 402.61 1615.47 419.55 1633.15 353.41 1488.22 287.72" style="fill:url(#a5ba0497-8cad-49e6-be42-17d590fe0233)"/><g style="opacity:0.7000000000000001"><polygon points="1595.66 402.61 1615.47 419.55 1633.15 353.41 1598.14 370.82 1510.22 330.97 1525.15 370.65 1595.66 402.61" style="fill:url(#b02ac3de-1e2c-4d22-8db0-ab94cb000b22)"/><polygon points="1509.5 497.75 1527.97 514.44 1559.66 444.53 1516.15 467.12 1460.03 441.69 1474.69 481.97 1509.5 497.75" style="fill:url(#aa2a7eab-6343-4a23-828f-bdb87cead437)"/><polygon points="1481.78 687.38 1520.41 629.29 1494.62 625.56 1424.1 593.6 1384.01 609.43 1471.93 649.28 1481.78 687.38" style="fill:url(#bbd14eec-9d65-4ab5-a733-0894d4af4756)"/><polygon points="1488.22 287.72 1482.75 318.16 1353.41 603.52 1336.85 621.69 1384.01 609.43 1460.03 441.69 1510.22 330.97 1488.22 287.72" style="fill:url(#f18e714b-b026-4feb-b4a2-9a26b1cce13a)"/></g><polygon points="1462.21 440.87 1516.83 465.62 1515.47 468.62 1460.85 443.87 1386.33 608.31 1472.74 647.48 1471.25 650.78 1383.33 610.93 1381.83 610.25 1382.51 608.75 1508.72 330.29 1509.53 328.49 1511.03 329.17 1598.95 369.02 1597.46 372.32 1511.04 333.15 1462.21 440.87" style="fill:#ede4d2"/><polygon points="1155.23 573.6 1172.43 374.36 1241.88 604.22 1310.8 610.17 1304.91 586.51 1332.41 267.8 1342.32 244.84 1265.85 238.25 1271.36 262.53 1254.19 461.44 1184.77 231.25 1117.16 225.42 1122.67 249.7 1095.17 568.41 1085.64 590.74 1161.13 597.25 1155.23 573.6" style="fill:url(#b7452ffb-7ac9-4539-a26e-3ef688493a35)"/><g style="opacity:0.7000000000000001"><polygon points="1126.05 563.14 1152.3 258.87 1165.76 260.03 1184.77 231.25 1117.16 225.42 1122.67 249.7 1095.17 568.41 1085.64 590.74 1161.13 597.25 1126.05 563.14" style="fill:url(#a35f689d-6744-4ce6-ab72-247f5e9bbb64)"/><polygon points="1241.88 604.22 1310.8 610.17 1275.06 576 1260.62 574.75 1165.76 260.03 1172.42 374.36 1241.88 604.22" style="fill:url(#fdb2aa72-bfc6-46c8-968a-1cd4619992d7)"/><polygon points="1342.32 244.84 1265.85 238.25 1271.36 262.53 1254.19 461.44 1275.06 576 1301.32 271.73 1342.32 244.84" style="fill:url(#b4991eee-1ec2-4550-baa9-313a959b9fe1)"/></g><polygon points="1299.67 271.59 1299.84 269.62 1303.13 269.9 1302.96 271.87 1276.7 576.14 1276.56 577.78 1274.92 577.64 1260.48 576.39 1259.17 576.28 1258.92 575.27 1164.63 261.59 1153.8 260.65 1127.69 563.28 1127.55 564.92 1124.26 564.64 1124.4 563 1150.66 258.73 1150.83 256.76 1152.47 256.9 1165.93 258.06 1167.24 258.18 1167.45 259.52 1261.75 573.2 1273.56 574.22 1299.67 271.59" style="fill:#ede4d2"/><polygon points="1053.07 602.7 1040.97 581.53 980.85 267.34 984.15 242.55 909.73 256.79 921.63 278.67 981.75 592.86 978.65 616.94 1053.07 602.7" style="fill:url(#b865b752-4307-4aeb-b6fb-22d44b232b3c)"/><polygon points="1053.14 602.69 1010.11 579.39 952.73 279.42 984.25 242.53 909.83 256.76 921.73 278.64 981.82 592.85 978.71 616.92 1053.14 602.69" style="opacity:0.7000000000000001;fill:url(#a6dc8b9c-0a13-4f21-b1ff-d60af8fe5faa)"/><rect x="979.74" y="274.72" width="3.29" height="309.03" transform="translate(-63.16 192) rotate(-10.83)" style="fill:#ede4d2"/><polygon points="857.67 593.91 861.49 584.89 764.9 375.84 755.42 372.6 713.25 392.08 709.87 401.26 806.46 610.31 815.51 613.39 857.67 593.91" style="fill:none"/><path d="M918.37,633.37,933.47,593,805,314.87,764.57,300.5,653.91,351.63l-15.54,40.2L766.89,670l40.82,14.53ZM709.87,401.26l3.38-9.18,42.17-19.48,9.48,3.24,96.59,209.05-3.82,9-42.16,19.48-9-3.08Z" style="fill:url(#b53d63d6-d742-4bfa-9385-747d4f6590f8)"/><g style="opacity:0.7000000000000001"><polygon points="857.8 593.86 861.61 584.84 765.05 375.77 755.57 372.53 713.4 392.01 685.03 370.64 674.2 396.69 786.78 640.45 811.58 648.59 815.62 613.33 857.8 593.86" style="fill:none"/><polygon points="674.2 396.69 685.03 370.64 654.07 351.55 638.53 391.75 767 669.9 807.82 684.43 811.58 648.59 786.78 640.45 674.2 396.69" style="fill:url(#efae828d-fd42-48eb-9d4d-1b19c53fa28a)"/><polygon points="897.6 588.9 785.43 346.04 758 336.93 685.03 370.64 713.4 392.01 755.57 372.53 765.05 375.77 861.61 584.84 857.8 593.86 815.62 613.33 811.58 648.59 887.55 613.5 897.6 588.9" style="fill:url(#bf345c20-fc4f-4c20-bc4c-7d99d224e5f4)"/></g><path d="M810.94,650.33l-24.51-8.27-.87-.33-.28-.59L672.7,397.38l-.28-.6.46-.57,10.7-26.35.62-1,73-33.7,1.18.18,27.73,9,.43.16.42.9L899.1,588.21l.27.59,0,.74-10.05,24.6-1.06.85-76,35.09ZM788,639.16l23.49,7.65,74.77-34.53L895.83,589,784.21,347.33l-26.11-8.62-71.79,33.15-10.21,25Z" style="fill:#ede4d2"/><polygon points="734.35 692.06 657.38 609.78 619.63 658.63 663.51 705.55 663.65 715.34 623.47 752.93 456.26 574.16 496.44 536.58 506.2 537.37 549.63 583.8 587.39 534.95 525.05 468.31 482.2 467.34 393.18 550.61 391.04 593.66 600.34 817.42 643.66 818.4 732.68 735.13 734.35 692.06" style="fill:url(#f96dcd19-895c-479b-86b3-b013b2f5b5c4)"/><g style="opacity:0.7000000000000001"><polygon points="496.44 536.58 506.2 537.37 549.63 583.8 587.39 534.95 553.99 544.09 515.51 502.95 489.19 502.3 424.71 562.62 456.26 574.16 496.44 536.58" style="fill:url(#b494fe9a-674e-4600-8ef1-43bf0b5ca55f)"/><polygon points="423.53 584.02 424.71 562.62 393.18 550.61 391.04 593.66 600.34 817.42 643.66 818.4 633.33 785.65 611.9 785.4 423.53 584.02" style="fill:url(#e7b79b92-3a5e-4bd5-a534-36ff9d11824d)"/><polygon points="698.92 699.04 652.79 649.72 657.38 609.78 619.63 658.63 663.51 705.55 663.65 715.34 623.47 752.93 633.33 785.65 698.29 724.89 698.92 699.04" style="fill:url(#a171a63e-00d4-45ab-874a-364ac2a06c4a)"/></g><polygon points="552.79 545.22 514.75 504.56 489.83 503.96 426.31 563.37 425.18 583.38 612.65 783.8 632.93 783.78 696.21 724.59 697.27 699.68 651.59 650.84 654.23 648.37 700.37 697.69 700.82 698.17 700.79 699.1 699.68 725.4 699.16 726.78 634.68 787.1 633.51 787.29 611.85 786.8 611.14 787.01 610.69 786.53 422.32 585.15 421.88 584.67 421.91 583.73 423.09 562.33 423.36 561.17 487.84 500.86 489.25 500.44 515.57 501.09 516.5 501.12 516.95 501.6 555.43 542.74 552.79 545.22" style="fill:#ede4d2"/></g></g></svg>