<svg version="1.1"
	id="Capa_1"
	xmlns="http://www.w3.org/2000/svg"
	xmlns:xlink="http://www.w3.org/1999/xlink"
	x="0px"
	y="0px"
	width="27.684px"
	height="27.683px"
	viewBox="0 0 27.684 27.683"
	style="enable-background:new 0 0 27.684 27.683;"
	xml:space="preserve">
	<path d="M7.976,2.536v14.531c-0.767-0.336-1.639-0.548-2.58-0.548C2.415,16.519,0,18.452,0,20.835c0,2.383,2.415,4.313,5.396,4.313
		c2.979,0,5.396-1.933,5.396-4.313V8.87h14.075v8.197c-0.77-0.336-1.639-0.548-2.58-0.548c-2.981,0-5.396,1.933-5.396,4.316
		c0,2.383,2.414,4.313,5.396,4.313c2.979,0,5.396-1.933,5.396-4.313V2.535L7.976,2.536L7.976,2.536z M24.867,7.462H10.793V5.347
		h14.074V7.462z"
		fill="currentColor"/>
</svg>
