<svg xmlns="http://www.w3.org/2000/svg" xmlns:xlink="http://www.w3.org/1999/xlink" viewBox="0 0 474.25 474.25"><defs><radialGradient id="ac58adb8-b0ab-4818-a858-fc0b0909bc89" cx="1944.15" cy="2318.58" r="1" gradientTransform="matrix(232.22, 0, 0, -232.22, -451239.14, 538657.57)" gradientUnits="userSpaceOnUse"><stop offset="0" stop-color="#fff"/><stop offset="0.11" stop-color="#fff"/><stop offset="0.38" stop-color="#fcfcfa"/><stop offset="0.7" stop-color="#f4f2ec"/><stop offset="1" stop-color="#e9e5d8"/></radialGradient></defs><title>quarterHole</title><g id="ba3d86db-3f05-46e2-b5e1-41dd6e6e730f" data-name="Layer 2"><g id="e75ba0eb-d97c-4621-bff7-77d7c8826955" data-name="Layer 1"><path d="M234.73,2.5h0A232.22,232.22,0,0,0,70.52,398.93,232.22,232.22,0,0,0,398.93,70.52,230.69,230.69,0,0,0,234.73,2.5Z" style="fill:url(#ac58adb8-b0ab-4818-a858-fc0b0909bc89)"/><path d="M237.12,0C106.16,0,0,106.17,0,237.13S106.16,474.25,237.12,474.25,474.25,368.09,474.25,237.13,368.09,0,237.12,0ZM469.2,237.13A232.13,232.13,0,0,1,23.29,327.46,232.13,232.13,0,0,1,451,146.79,230.64,230.64,0,0,1,469.2,237.13Z" style="fill:#cc9312"/><path d="M188.35,395.21h0l-1.67-.49h0a1.35,1.35,0,0,0-1.67.85l-3.74,10.81a1.35,1.35,0,0,0,.83,1.72l1.66.58a1.37,1.37,0,0,0,1.73-.84L189.26,397A1.36,1.36,0,0,0,188.35,395.21Z" style="fill:#cc9312"/><path d="M238,401.54h0l-1.74,0h0a1.35,1.35,0,0,0-1.33,1.35v45.61a1.36,1.36,0,0,0,1.36,1.36H238a1.36,1.36,0,0,0,1.35-1.36V402.9A1.36,1.36,0,0,0,238,401.54Z" style="fill:#cc9312"/><path d="M206.43,399.34h0l-1.71-.3h0a1.36,1.36,0,0,0-1.56,1l-4,18.28a1.36,1.36,0,0,0,1,1.62l1.72.38a1.35,1.35,0,0,0,1.61-1L207.52,401A1.35,1.35,0,0,0,206.43,399.34Z" style="fill:#cc9312"/><path d="M223.13,401.28h0l-1.49-.11-.26,0a1.37,1.37,0,0,0-1.44,1.21l-2.95,28a1.36,1.36,0,0,0,1.2,1.49l1.75.18a1.35,1.35,0,0,0,1.49-1.2l3-28.05A1.35,1.35,0,0,0,223.13,401.28Z" style="fill:#cc9312"/><path d="M151.35,379.21h0l-1.49-.89h0a1.35,1.35,0,0,0-1.84.43l-2.36,3.68a1.36,1.36,0,0,0,.41,1.87l1.49.95a1.34,1.34,0,0,0,1.86-.41l2.39-3.73A1.36,1.36,0,0,0,151.35,379.21Z" style="fill:#cc9312"/><path d="M169.69,388.52l-.12,0-1.48-.64a1.34,1.34,0,0,0-1.76.64l-2.88,5.93a1.36,1.36,0,0,0,.63,1.81l1.58.76a1.35,1.35,0,0,0,1.81-.62l2.88-5.94.05-.11,0-.06A1.36,1.36,0,0,0,169.69,388.52Z" style="fill:#cc9312"/><path d="M324.19,375.54a1.35,1.35,0,0,0-1.88-.4h0l-1.47.94h0a1.34,1.34,0,0,0-.41,1.86l4.4,6.89a1.36,1.36,0,0,0,1.87.41l1.48-.95a1.36,1.36,0,0,0,.41-1.87Z" style="fill:#cc9312"/><path d="M288.52,393.48a1.36,1.36,0,0,0-1.73-.83h0l-1.65.56h0a1.37,1.37,0,0,0-.85,1.73l4.48,12.9a1.35,1.35,0,0,0,1.72.84l1.66-.58a1.36,1.36,0,0,0,.84-1.72Z" style="fill:#cc9312"/><path d="M270.8,398.7a1.35,1.35,0,0,0-1.61-1h0l-1.7.37h0a1.36,1.36,0,0,0-1,1.62l4.34,19.67a1.35,1.35,0,0,0,1.61,1l1.72-.38a1.36,1.36,0,0,0,1-1.62Z" style="fill:#cc9312"/><path d="M254.24,401.68a1.35,1.35,0,0,0-1.5-1.2h0l-1.73.2h0a1.35,1.35,0,0,0-1.2,1.48l3,28.66a1.36,1.36,0,0,0,1.49,1.2l1.75-.18a1.36,1.36,0,0,0,1.2-1.49Z" style="fill:#cc9312"/><path d="M306.61,385.75a1.36,1.36,0,0,0-1.82-.62h0l-1.56.76h0a1.35,1.35,0,0,0-.63,1.81l4.19,8.65a1.35,1.35,0,0,0,1.81.62l1.59-.76a1.35,1.35,0,0,0,.62-1.81Z" style="fill:#cc9312"/><path d="M185,89a1.36,1.36,0,0,0,1.67.85h0c.55-.17,1.11-.34,1.66-.49h0a1.37,1.37,0,0,0,.9-1.75l-3.77-10.89a1.36,1.36,0,0,0-1.73-.83l-1.66.58a1.34,1.34,0,0,0-.83,1.72Z" style="fill:#cc9312"/><path d="M236.23,82.93h0L238,83h0a1.35,1.35,0,0,0,1.39-1.35V36A1.35,1.35,0,0,0,238,34.61h-1.76A1.35,1.35,0,0,0,234.89,36V81.58A1.36,1.36,0,0,0,236.23,82.93Z" style="fill:#cc9312"/><path d="M203.14,84.43a1.36,1.36,0,0,0,1.57,1h0l1.71-.3h0a1.34,1.34,0,0,0,1.09-1.62l-4.05-18.36a1.35,1.35,0,0,0-1.61-1l-1.72.37a1.37,1.37,0,0,0-1,1.62Z" style="fill:#cc9312"/><path d="M219.94,82.15a1.36,1.36,0,0,0,1.44,1.21l.26,0,1.49-.1h0a1.36,1.36,0,0,0,1.26-1.49l-3-28a1.36,1.36,0,0,0-1.49-1.21l-1.75.19a1.35,1.35,0,0,0-1.2,1.49Z" style="fill:#cc9312"/><path d="M149.42,99.68a1.35,1.35,0,0,0-1.86-.42l-1.49.95a1.36,1.36,0,0,0-.41,1.87l2.36,3.69a1.35,1.35,0,0,0,1.84.43h0l1.49-.9h0a1.34,1.34,0,0,0,.46-1.89Z" style="fill:#cc9312"/><path d="M166.33,96a1.35,1.35,0,0,0,1.76.65h0l1.6-.7h0a1.36,1.36,0,0,0,.69-1.83l-2.91-6a1.37,1.37,0,0,0-1.81-.63l-1.58.77a1.35,1.35,0,0,0-.63,1.81Z" style="fill:#cc9312"/><path d="M320.84,108.43h0l1.47.95h0a1.35,1.35,0,0,0,1.88-.41l4.4-6.89a1.36,1.36,0,0,0-.41-1.87l-1.48-.94a1.35,1.35,0,0,0-1.87.41l-4.4,6.88A1.36,1.36,0,0,0,320.84,108.43Z" style="fill:#cc9312"/><path d="M285.14,91.3h0l1.65.57h0a1.37,1.37,0,0,0,1.73-.84L293,78.14a1.35,1.35,0,0,0-.84-1.72l-1.66-.58a1.35,1.35,0,0,0-1.72.83l-4.47,12.9A1.35,1.35,0,0,0,285.14,91.3Z" style="fill:#cc9312"/><path d="M267.48,86.47h0l1.7.37h0a1.35,1.35,0,0,0,1.62-1l4.33-19.66a1.37,1.37,0,0,0-1-1.62l-1.72-.37a1.35,1.35,0,0,0-1.61,1l-4.34,19.67A1.35,1.35,0,0,0,267.48,86.47Z" style="fill:#cc9312"/><path d="M251,83.84l1.73.2h0a1.36,1.36,0,0,0,1.5-1.21l3-28.66a1.35,1.35,0,0,0-1.2-1.49l-1.75-.19a1.36,1.36,0,0,0-1.49,1.21l-3,28.65A1.36,1.36,0,0,0,251,83.84Z" style="fill:#cc9312"/><path d="M303.22,98.62h0l1.57.76h0a1.36,1.36,0,0,0,1.82-.63l4.19-8.64a1.35,1.35,0,0,0-.62-1.81l-1.59-.77a1.35,1.35,0,0,0-1.81.63l-4.19,8.64A1.34,1.34,0,0,0,303.22,98.62Z" style="fill:#cc9312"/><path d="M71.54,190.62l10.89,3.77a1.35,1.35,0,0,0,1.74-.9h0c.16-.56.33-1.12.5-1.67h0a1.36,1.36,0,0,0-.86-1.68L73,186.4a1.35,1.35,0,0,0-1.72.83l-.57,1.66A1.35,1.35,0,0,0,71.54,190.62Z" style="fill:#cc9312"/><path d="M77.84,243.1h0c0-.58,0-1.16,0-1.74h0A1.36,1.36,0,0,0,76.44,240H30.83a1.36,1.36,0,0,0-1.36,1.36v1.76a1.35,1.35,0,0,0,1.36,1.35H76.48A1.36,1.36,0,0,0,77.84,243.1Z" style="fill:#cc9312"/><path d="M60.05,208.61l18.37,4A1.35,1.35,0,0,0,80,211.56h0l.3-1.72h0a1.34,1.34,0,0,0-1-1.56l-18.28-4a1.36,1.36,0,0,0-1.62,1L59,207A1.37,1.37,0,0,0,60.05,208.61Z" style="fill:#cc9312"/><path d="M48.57,226.56l28,3a1.36,1.36,0,0,0,1.5-1.26h0q0-.87.12-1.74A1.36,1.36,0,0,0,77,225.07l-28-2.95a1.36,1.36,0,0,0-1.49,1.2l-.18,1.75A1.35,1.35,0,0,0,48.57,226.56Z" style="fill:#cc9312"/><path d="M94.55,154.56l3.73,2.38a1.35,1.35,0,0,0,1.89-.45h0l.89-1.5h0a1.35,1.35,0,0,0-.43-1.84L97,150.79a1.36,1.36,0,0,0-1.87.42l-1,1.48A1.36,1.36,0,0,0,94.55,154.56Z" style="fill:#cc9312"/><path d="M83,172.6,89,175.48l.11.05.06,0a1.36,1.36,0,0,0,1.72-.73l0-.12c.22-.49.43-1,.65-1.47h0a1.35,1.35,0,0,0-.65-1.76L85,168.58a1.36,1.36,0,0,0-1.81.63l-.77,1.58A1.35,1.35,0,0,0,83,172.6Z" style="fill:#cc9312"/><path d="M104.25,327.44c-.32-.49-.64-1-1-1.47h0a1.34,1.34,0,0,0-1.86-.41L94.55,330a1.35,1.35,0,0,0-.42,1.87l1,1.48a1.36,1.36,0,0,0,1.87.41l6.89-4.4a1.35,1.35,0,0,0,.41-1.88Z" style="fill:#cc9312"/><path d="M86,293.63l0,0a1.34,1.34,0,0,0,.73-1.68l0-.1c-.18-.52-.36-1-.53-1.54h0a1.35,1.35,0,0,0-1.73-.85l-12.9,4.47a1.34,1.34,0,0,0-.83,1.72l.57,1.66a1.36,1.36,0,0,0,1.72.84l12.84-4.45Z" style="fill:#cc9312"/><path d="M81.71,274.32h0c-.13-.56-.25-1.13-.37-1.69h0a1.36,1.36,0,0,0-1.62-1l-19.66,4.34a1.36,1.36,0,0,0-1,1.61l.38,1.72a1.36,1.36,0,0,0,1.62,1l19.66-4.33A1.37,1.37,0,0,0,81.71,274.32Z" style="fill:#cc9312"/><path d="M78.9,257.87h0c-.07-.58-.13-1.16-.19-1.73h0a1.36,1.36,0,0,0-1.49-1.21l-28.65,3a1.36,1.36,0,0,0-1.21,1.49l.18,1.75a1.36,1.36,0,0,0,1.49,1.2l28.67-3A1.35,1.35,0,0,0,78.9,257.87Z" style="fill:#cc9312"/><path d="M94.25,309.92l-.76-1.56h0a1.35,1.35,0,0,0-1.81-.63L83,311.92a1.34,1.34,0,0,0-.62,1.8l.77,1.59a1.34,1.34,0,0,0,1.8.62l8.65-4.19A1.36,1.36,0,0,0,94.25,309.92Z" style="fill:#cc9312"/><path d="M389.58,191.82h0c.17.55.34,1.11.5,1.67a1.36,1.36,0,0,0,1.74.9l10.89-3.77a1.36,1.36,0,0,0,.83-1.73l-.57-1.66a1.36,1.36,0,0,0-1.73-.83l-10.8,3.74A1.36,1.36,0,0,0,389.58,191.82Z" style="fill:#cc9312"/><path d="M396.45,241.35l0,1.76a1.34,1.34,0,0,0,1.35,1.38h45.66a1.35,1.35,0,0,0,1.36-1.35v-1.76a1.36,1.36,0,0,0-1.36-1.36H397.8A1.35,1.35,0,0,0,396.45,241.35Z" style="fill:#cc9312"/><path d="M393.91,209.84h0l.3,1.72h0a1.35,1.35,0,0,0,1.62,1.09l18.36-4.05a1.34,1.34,0,0,0,1-1.61l-.38-1.72a1.35,1.35,0,0,0-1.61-1l-18.28,4A1.36,1.36,0,0,0,393.91,209.84Z" style="fill:#cc9312"/><path d="M396,226.52c0,.58.09,1.16.12,1.74h0a1.36,1.36,0,0,0,1.5,1.26l28-3a1.35,1.35,0,0,0,1.21-1.49l-.19-1.75a1.35,1.35,0,0,0-1.49-1.2l-28,2.95A1.35,1.35,0,0,0,396,226.52Z" style="fill:#cc9312"/><path d="M373.18,155c.31.5.6,1,.9,1.5h0a1.35,1.35,0,0,0,1.89.45l3.73-2.38a1.36,1.36,0,0,0,.42-1.87l-.95-1.48a1.36,1.36,0,0,0-1.87-.42l-3.69,2.36a1.35,1.35,0,0,0-.43,1.84Z" style="fill:#cc9312"/><path d="M382.69,173.23c.24.53.47,1.06.7,1.59h0a1.36,1.36,0,0,0,1.83.68l6-2.91a1.35,1.35,0,0,0,.63-1.81l-.77-1.58a1.36,1.36,0,0,0-1.81-.63l-5.92,2.88a1.36,1.36,0,0,0-.65,1.77Z" style="fill:#cc9312"/><path d="M379.7,330l-6.88-4.4A1.36,1.36,0,0,0,371,326h0c-.31.49-.63,1-.95,1.46h0a1.35,1.35,0,0,0,.41,1.88l6.89,4.4a1.35,1.35,0,0,0,1.87-.41l.95-1.48A1.36,1.36,0,0,0,379.7,330Z" style="fill:#cc9312"/><path d="M402.71,293.9l-12.9-4.47a1.35,1.35,0,0,0-1.73.85h0c-.17.51-.35,1-.56,1.64h0a1.36,1.36,0,0,0,.84,1.72l12.89,4.47a1.37,1.37,0,0,0,1.73-.84l.57-1.66A1.35,1.35,0,0,0,402.71,293.9Z" style="fill:#cc9312"/><path d="M414.19,275.91l-19.67-4.34a1.35,1.35,0,0,0-1.61,1l-.38,1.71a1.37,1.37,0,0,0,1,1.62l19.67,4.33a1.37,1.37,0,0,0,1.62-1l.37-1.71A1.35,1.35,0,0,0,414.19,275.91Z" style="fill:#cc9312"/><path d="M425.68,258l-28.65-3a1.36,1.36,0,0,0-1.49,1.2h0c-.06.58-.12,1.16-.19,1.74h0a1.35,1.35,0,0,0,1.2,1.5l28.66,3a1.37,1.37,0,0,0,1.49-1.21l.19-1.75A1.36,1.36,0,0,0,425.68,258Z" style="fill:#cc9312"/><path d="M391.21,311.91l-8.64-4.19a1.35,1.35,0,0,0-1.81.64h0l-.76,1.56a1.36,1.36,0,0,0,.62,1.82l8.64,4.19a1.35,1.35,0,0,0,1.81-.62l.77-1.59A1.35,1.35,0,0,0,391.21,311.91Z" style="fill:#cc9312"/></g></g></svg>