<svg xmlns="http://www.w3.org/2000/svg" xmlns:xlink="http://www.w3.org/1999/xlink" viewBox="0 0 1976.82 905.64"><defs><radialGradient id="a4586b90-f087-400f-b471-a0e825a22662" cx="-176.16" cy="144.23" r="678.88" gradientTransform="translate(1246.3 361.49) scale(1.46 0.63)" gradientUnits="userSpaceOnUse"><stop offset="0.11" stop-color="#fff"/><stop offset="0.38" stop-color="#fcfcfa"/><stop offset="0.7" stop-color="#f4f2ec"/><stop offset="1" stop-color="#e9e5d8"/></radialGradient><linearGradient id="a869ace5-613d-4541-a6ca-050832c14913" x1="55.17" y1="450.05" x2="1920.41" y2="450.05" gradientUnits="userSpaceOnUse"><stop offset="0" stop-color="#a56e29"/><stop offset="0.36" stop-color="#e5b450"/><stop offset="0.39" stop-color="#dfab4a"/><stop offset="0.58" stop-color="#c17e2a"/><stop offset="0.82" stop-color="#be9131"/><stop offset="1" stop-color="#bc9a34"/></linearGradient></defs><title>questionCardBg</title><g id="f6e25e7d-ebce-4c06-91b3-68c68223ac69" data-name="Layer 2"><g id="a64edabe-bcd0-467a-a462-29df29674c32" data-name="QUIZ Q - BLANK"><rect x="14.5" y="14.5" width="1947.82" height="876.64" rx="28.8" style="fill:url(#a4586b90-f087-400f-b471-a0e825a22662)"/><path d="M1933.52,29a14.32,14.32,0,0,1,14.3,14.3v819a14.32,14.32,0,0,1-14.3,14.3H43.3A14.31,14.31,0,0,1,29,862.34V43.3A14.31,14.31,0,0,1,43.3,29H1933.52m0-29H43.3A43.3,43.3,0,0,0,0,43.3v819a43.3,43.3,0,0,0,43.3,43.3H1933.52a43.3,43.3,0,0,0,43.3-43.3V43.3A43.3,43.3,0,0,0,1933.52,0Z" style="fill:#fff"/><rect x="57.67" y="55.71" width="1860.24" height="788.68" rx="9.4" style="fill:none;stroke-linecap:round;stroke-miterlimit:10;stroke-width:5px;stroke:url(#a869ace5-613d-4541-a6ca-050832c14913)"/></g></g></svg>