<svg xmlns="http://www.w3.org/2000/svg" xmlns:xlink="http://www.w3.org/1999/xlink" viewBox="0 0 1309.3 1309.3"><defs><radialGradient id="a35e6f63-ed48-4c6f-9e57-96c4be640053" cx="-470.35" cy="1309.83" r="1" gradientTransform="matrix(0, -657.27, -657.27, 0, 861562.17, -308488.94)" gradientUnits="userSpaceOnUse"><stop offset="0" stop-color="#ccc"/><stop offset="0.1" stop-color="#c1c1c1"/><stop offset="0.28" stop-color="#a4a4a4"/><stop offset="0.51" stop-color="#757575"/><stop offset="0.78" stop-color="#343434"/><stop offset="0.99"/><stop offset="1"/></radialGradient><clipPath id="bb9c0dba-99f2-47c0-8be9-0a7df6666c55" transform="translate(0 0)"><path d="M0,654.65c0,361.56,293.1,654.65,654.65,654.65s654.65-293.09,654.65-654.65S1016.21,0,654.65,0,0,293.1,0,654.65" style="fill:none"/></clipPath><mask id="fc7a169f-9e9f-432f-9c73-c7cc7d036a64" x="0" y="0" width="1309.3" height="1309.3" maskUnits="userSpaceOnUse"><g transform="translate(0 0)"><rect width="1309.3" height="1309.3" style="fill:url(#a35e6f63-ed48-4c6f-9e57-96c4be640053)"/></g></mask><radialGradient id="fe35acdf-7df8-453d-bdac-abae00786bda" cx="-470.35" cy="1309.83" r="1" gradientTransform="matrix(0, -657.27, -657.27, 0, 861562.25, -308488.97)" gradientUnits="userSpaceOnUse"><stop offset="0" stop-color="#232c3d"/><stop offset="0.99" stop-color="#232c3d"/><stop offset="1" stop-color="#232c3d"/></radialGradient></defs><title>scanPrompt</title><g id="e662b6fd-e20c-47bf-9f6d-baccfe060c3b" data-name="Layer 2"><g id="f2877bb2-fe9e-4fb0-9c9c-8fd27c0fffd7" data-name="Layer 1"><g style="clip-path:url(#bb9c0dba-99f2-47c0-8be9-0a7df6666c55)"><g style="mask:url(#fc7a169f-9e9f-432f-9c73-c7cc7d036a64)"><rect width="1309.3" height="1309.3" style="fill:url(#fe35acdf-7df8-453d-bdac-abae00786bda)"/></g></g><path d="M493.27,545.54a40.35,40.35,0,0,1,14.13,2.27,28.57,28.57,0,0,1,10.17,6.28,25.86,25.86,0,0,1,6.15,9.49,33.85,33.85,0,0,1,2,11.91,27.91,27.91,0,0,1-1.69,8.91,27.42,27.42,0,0,1-5.64,9.42A31.9,31.9,0,0,1,508,601.34q-6.52,3.07-16.34,3.07h-9.09V629.1h-24.1V545.54Zm8.4,29.07a13.39,13.39,0,0,0-1.1-5.33,14.79,14.79,0,0,0-2.92-4.46,13.36,13.36,0,0,0-4.38-3,13.79,13.79,0,0,0-5.48-1.1h-5.26v27.76h5.26a13.73,13.73,0,0,0,13.88-13.88Z" transform="translate(0 0)" style="fill:#fff"/><path d="M600.56,615.51l-3.21,13.59H545.78V545.54h24.1v70Z" transform="translate(0 0)" style="fill:#fff"/><path d="M668.49,545.54l25,83.56H668.05l-5.41-18H637.81l-5.26,18H618.09l25-83.56Zm-9.79,52-8.47-27.76-8.33,27.76Z" transform="translate(0 0)" style="fill:#fff"/><path d="M777.61,617.56a25.71,25.71,0,0,1-13.44,10,56.7,56.7,0,0,1-17.68,2.71,32.82,32.82,0,0,1-14.61-3.36,37.89,37.89,0,0,1-12-9.21A44.48,44.48,0,0,1,711.8,604a46.83,46.83,0,0,1-3-16.8,46.24,46.24,0,0,1,3-16.72,44.83,44.83,0,0,1,8.1-13.66,38,38,0,0,1,12-9.2,32.82,32.82,0,0,1,14.61-3.36,68.35,68.35,0,0,1,8.47.51,35.5,35.5,0,0,1,7.89,1.9,33.54,33.54,0,0,1,7.45,3.87,47,47,0,0,1,7.31,6.28l-9.21,10.52a17.07,17.07,0,0,0-4.31-5.41,20.43,20.43,0,0,0-6.64-3.94,16.7,16.7,0,0,0-7.6-.88,11.84,11.84,0,0,0-7.16,3.65q-3.21,3.22-5.26,9.57t-2,16.87q0,9.65,2,15.71a23.57,23.57,0,0,0,5.11,9.27,12.59,12.59,0,0,0,6.87,3.87,15.73,15.73,0,0,0,7.23-.36,16.31,16.31,0,0,0,6.21-3.36,13.69,13.69,0,0,0,3.87-5.26Z" transform="translate(0 0)" style="fill:#fff"/><path d="M851.38,615.51l-3.07,13.59H796.74V545.54H842.9l2.34,13.59h-24.4v21.32h16.22V594H820.84v21.47Z" transform="translate(0 0)" style="fill:#fff"/><path d="M257.57,730.48a48.17,48.17,0,0,1-2.12,14.39,44.72,44.72,0,0,1-5.92,12.27,40.14,40.14,0,0,1-9,9.35,34.79,34.79,0,0,1-11.32,5.62,25.61,25.61,0,0,0,4.6,9.06,14,14,0,0,0,7.23,4.82,21.8,21.8,0,0,1-9.28,2.92,17.25,17.25,0,0,1-8.61-1.61,21.55,21.55,0,0,1-7.24-5.69,28.87,28.87,0,0,1-5.11-9.35,36.58,36.58,0,0,1-11.47-5.63,38.81,38.81,0,0,1-9.13-9.35,46,46,0,0,1-6-12.34,48.58,48.58,0,0,1,.8-31.26A44.5,44.5,0,0,1,193.15,700a37.82,37.82,0,0,1,12-9.2,33.68,33.68,0,0,1,29.37,0,37.93,37.93,0,0,1,12,9.2,44.5,44.5,0,0,1,8.11,13.73A46.87,46.87,0,0,1,257.57,730.48Zm-37.69,30.68a6.14,6.14,0,0,0,4.6-2.41,22.27,22.27,0,0,0,3.73-6.51,48.78,48.78,0,0,0,2.55-9.64,74.13,74.13,0,0,0,0-23.66,49,49,0,0,0-2.55-9.64,22.07,22.07,0,0,0-3.73-6.5,6.1,6.1,0,0,0-4.6-2.41,6.32,6.32,0,0,0-4.68,2.41,20.87,20.87,0,0,0-3.79,6.5,48.25,48.25,0,0,0-2.56,9.64,74.13,74.13,0,0,0,0,23.66,48.07,48.07,0,0,0,2.56,9.64,21.05,21.05,0,0,0,3.79,6.51A6.35,6.35,0,0,0,219.88,761.16Z" transform="translate(0 0)" style="fill:#fff"/><path d="M348,688.85v57.4a26,26,0,0,1-2.7,12.2,24.88,24.88,0,0,1-7.38,8.62,31.56,31.56,0,0,1-10.88,5,56.32,56.32,0,0,1-26.74,0,31.47,31.47,0,0,1-10.88-5,24.67,24.67,0,0,1-7.38-8.62,26,26,0,0,1-2.7-12.2v-57.4h24.1v59.3a13.9,13.9,0,0,0,2.63,8.33,9.6,9.6,0,0,0,11.84,2.63,10.2,10.2,0,0,0,3.21-2.7,12.54,12.54,0,0,0,2-3.87,13.72,13.72,0,0,0,.74-4.39v-59.3Z" transform="translate(0 0)" style="fill:#fff"/><path d="M416.21,688.85l25,83.55H415.77l-5.41-18H385.53l-5.26,18H365.81l25-83.55Zm-9.79,52L398,713.09l-8.33,27.76Z" transform="translate(0 0)" style="fill:#fff"/><path d="M527.81,719.08a26.83,26.83,0,0,1-.8,6.14,27.51,27.51,0,0,1-2.63,6.72,30.94,30.94,0,0,1-4.82,6.5,26.3,26.3,0,0,1-7.38,5.33l14,28.63H499.62l-11.83-24.68h-3.07V772.4h-24V688.85h34.77a38.63,38.63,0,0,1,14,2.33,29.52,29.52,0,0,1,10.08,6.36,25.73,25.73,0,0,1,6.14,9.57A34.43,34.43,0,0,1,527.81,719.08Zm-43.24,14.47h5.55a12.34,12.34,0,0,0,5.48-1.25,14.22,14.22,0,0,0,4.46-3.36,16.19,16.19,0,0,0,4.09-10.88,16.75,16.75,0,0,0-1.1-6.06,16.11,16.11,0,0,0-3-5,14.53,14.53,0,0,0-4.46-3.36,12.47,12.47,0,0,0-5.48-1.24h-5.55Z" transform="translate(0 0)" style="fill:#fff"/><path d="M606.55,702.43h-18.7v70h-24.1v-70H545.19l2.34-13.58h56.68Z" transform="translate(0 0)" style="fill:#fff"/><path d="M680.9,758.82l-3.07,13.58H626.27V688.85h46.16l2.33,13.58H650.37v21.33h16.21v13.58H650.37v21.48Z" transform="translate(0 0)" style="fill:#fff"/><path d="M767.38,719.08a26.34,26.34,0,0,1-.81,6.14,27.12,27.12,0,0,1-2.63,6.72,30.26,30.26,0,0,1-4.82,6.5,26.1,26.1,0,0,1-7.37,5.33l14,28.63H739.19l-11.84-24.68h-3.07V772.4H700.33V688.85h34.76a38.69,38.69,0,0,1,14,2.33,29.52,29.52,0,0,1,10.08,6.36,25.71,25.71,0,0,1,6.13,9.57A34.2,34.2,0,0,1,767.38,719.08Zm-43.24,14.47h5.55a12.37,12.37,0,0,0,5.48-1.25,14.07,14.07,0,0,0,4.45-3.36,16.06,16.06,0,0,0,4.09-10.88,16.75,16.75,0,0,0-1.09-6.06,15.94,15.94,0,0,0-3-5,14.37,14.37,0,0,0-4.45-3.36,12.5,12.5,0,0,0-5.48-1.24h-5.55Z" transform="translate(0 0)" style="fill:#fff"/><path d="M886,688.85V772.4h-24.1V738.8H843.63v33.6h-24.1V688.85h24.1v36.37h18.26V688.85Z" transform="translate(0 0)" style="fill:#fff"/><path d="M965.17,758.82,962.1,772.4H910.53V688.85h46.16L959,702.43h-24.4v21.33h16.22v13.58H934.63v21.48Z" transform="translate(0 0)" style="fill:#fff"/><path d="M1051.64,719.08a26.83,26.83,0,0,1-.8,6.14,27.51,27.51,0,0,1-2.63,6.72,30.94,30.94,0,0,1-4.82,6.5,26.3,26.3,0,0,1-7.38,5.33l14,28.63h-26.59l-11.83-24.68h-3.07V772.4h-24V688.85h34.77a38.63,38.63,0,0,1,14,2.33,29.42,29.42,0,0,1,10.08,6.36,25.73,25.73,0,0,1,6.14,9.57A34.43,34.43,0,0,1,1051.64,719.08Zm-43.24,14.47H1014a12.34,12.34,0,0,0,5.48-1.25,14.11,14.11,0,0,0,4.46-3.36,16.19,16.19,0,0,0,4.09-10.88,16.75,16.75,0,0,0-1.1-6.06,16.11,16.11,0,0,0-3-5,14.41,14.41,0,0,0-4.46-3.36,12.47,12.47,0,0,0-5.48-1.24h-5.55Z" transform="translate(0 0)" style="fill:#fff"/><path d="M1128.19,758.82l-3.07,13.58h-51.57V688.85h46.16l2.34,13.58h-24.39v21.33h16.21v13.58h-16.21v21.48Z" transform="translate(0 0)" style="fill:#fff"/><path d="M263.88,920.91H256.8a54.61,54.61,0,0,1-6.12-9.43,73.87,73.87,0,0,1-4.52-10.75,71.92,71.92,0,0,1-2.74-11.26,70,70,0,0,1-.91-11.09,80.3,80.3,0,0,1,3.43-23.66A75,75,0,0,1,255.88,834h8A85.76,85.76,0,0,0,256.51,855a107.53,107.53,0,0,0-2.46,22.92,104.39,104.39,0,0,0,2.46,22.69A80.35,80.35,0,0,0,263.88,920.91Z" transform="translate(0 0)" style="fill:#fff"/><path d="M331.33,842.26v74.31H312.47v-26.3H298.18v26.3H279.32V842.26h18.86v37.38h14.29V842.26Z" transform="translate(0 0)" style="fill:#fff"/><path d="M393.64,905.94l-2.4,10.63H350.88V842.14H387l1.83,10.64h-19.1v16.8h12.69v10.63H369.74v25.73Z" transform="translate(0 0)" style="fill:#fff"/><path d="M466.8,916.57H446.91l-4.23-14.06H423.25l-4.12,14.06H407.81l19.55-74.31h19.9Zm-27.2-24.69L433,865.24l-6.51,26.64Z" transform="translate(0 0)" style="fill:#fff"/><path d="M504.46,842.26a30.74,30.74,0,0,1,12.72,2.68,31.92,31.92,0,0,1,10.42,7.55,35.76,35.76,0,0,1,7,11.66,42.47,42.47,0,0,1,2.58,15.15,40.39,40.39,0,0,1-2.58,14.46,37.67,37.67,0,0,1-7,11.83,34.24,34.24,0,0,1-10.42,8,28.11,28.11,0,0,1-12.72,3H482.24V842.26Zm-3.36,62.19a14.16,14.16,0,0,0,6.46-2.8,21.1,21.1,0,0,0,5-5.6,27.87,27.87,0,0,0,3.26-7.6,33.27,33.27,0,0,0,1.14-8.69,43.47,43.47,0,0,0-1.14-10.29,27.13,27.13,0,0,0-3.26-8.06,16.72,16.72,0,0,0-5-5.26,11.63,11.63,0,0,0-6.46-1.89Z" transform="translate(0 0)" style="fill:#fff"/><path d="M601,861.58a29.21,29.21,0,0,0-9.2-6.4,23.12,23.12,0,0,0-9-2.06,11.62,11.62,0,0,0-6.86,1.94,6.34,6.34,0,0,0-2.74,5.49,4.91,4.91,0,0,0,2.34,4,35.12,35.12,0,0,0,5.77,3.32c2.29,1.06,4.81,2.21,7.55,3.43a37.49,37.49,0,0,1,7.55,4.45,25.64,25.64,0,0,1,5.77,6.18,15.42,15.42,0,0,1,2.34,8.69,24.51,24.51,0,0,1-1.94,9.54,26.75,26.75,0,0,1-5.49,8.29,24.92,24.92,0,0,1-8.52,5.72A25.67,25.67,0,0,1,577.7,916a35.29,35.29,0,0,1-12.87-3.32A55.19,55.19,0,0,1,550.6,903l7.2-10.17a28.11,28.11,0,0,0,8.29,7.94,23.27,23.27,0,0,0,8.75,3.38,10.87,10.87,0,0,0,7-1,5.55,5.55,0,0,0,2.86-5.26,4.44,4.44,0,0,0-2.29-3.72,38.57,38.57,0,0,0-5.77-3.08l-7.49-3.32a35.35,35.35,0,0,1-7.49-4.51,23.56,23.56,0,0,1-5.77-6.63,18.75,18.75,0,0,1-2.29-9.61,25.31,25.31,0,0,1,2.63-12,23.65,23.65,0,0,1,6.92-8.11,26.26,26.26,0,0,1,9.66-4.4,33.3,33.3,0,0,1,21.26,2,25.19,25.19,0,0,1,8.58,6.11Z" transform="translate(0 0)" style="fill:#fff"/><path d="M695.68,861.58a29.13,29.13,0,0,0-9.21-6.4,23,23,0,0,0-9-2.06,11.62,11.62,0,0,0-6.86,1.94,6.34,6.34,0,0,0-2.74,5.49,4.91,4.91,0,0,0,2.34,4,35.12,35.12,0,0,0,5.77,3.32c2.29,1.06,4.8,2.21,7.55,3.43a37.14,37.14,0,0,1,7.54,4.45,25.68,25.68,0,0,1,5.78,6.18,15.42,15.42,0,0,1,2.34,8.69,24.51,24.51,0,0,1-1.94,9.54,26.75,26.75,0,0,1-5.49,8.29,24.92,24.92,0,0,1-8.52,5.72A25.67,25.67,0,0,1,672.36,916a35.24,35.24,0,0,1-12.87-3.32A55.19,55.19,0,0,1,645.26,903l7.2-10.17a28,28,0,0,0,8.29,7.94,23.27,23.27,0,0,0,8.75,3.38,10.89,10.89,0,0,0,7-1,5.57,5.57,0,0,0,2.86-5.26A4.44,4.44,0,0,0,677,894.1a38.57,38.57,0,0,0-5.77-3.08l-7.49-3.32a35.35,35.35,0,0,1-7.49-4.51,23.56,23.56,0,0,1-5.77-6.63,18.65,18.65,0,0,1-2.29-9.61,25.31,25.31,0,0,1,2.63-12,23.55,23.55,0,0,1,6.92-8.11,26.26,26.26,0,0,1,9.66-4.4,33.3,33.3,0,0,1,21.26,2,25.29,25.29,0,0,1,8.58,6.11Z" transform="translate(0 0)" style="fill:#fff"/><path d="M716.6,916.57V842.26h18.86v74.31Z" transform="translate(0 0)" style="fill:#fff"/><path d="M777,842.26a30.73,30.73,0,0,1,12.71,2.68,32,32,0,0,1,10.43,7.55,35.74,35.74,0,0,1,7,11.66,42.47,42.47,0,0,1,2.58,15.15,40.39,40.39,0,0,1-2.58,14.46,37.65,37.65,0,0,1-7,11.83,34.28,34.28,0,0,1-10.43,8,28.1,28.1,0,0,1-12.71,3H754.78V842.26Zm-3.37,62.19a14.11,14.11,0,0,0,6.46-2.8,20.93,20.93,0,0,0,5-5.6,27.87,27.87,0,0,0,3.26-7.6,33.27,33.27,0,0,0,1.15-8.69,43.45,43.45,0,0,0-1.15-10.29,27.13,27.13,0,0,0-3.26-8.06,16.61,16.61,0,0,0-5-5.26,11.6,11.6,0,0,0-6.46-1.89Z" transform="translate(0 0)" style="fill:#fff"/><path d="M869.68,905.94l-2.4,10.63H826.92V842.14h36.13l1.82,10.64H845.78v16.8h12.69v10.63H845.78v25.73Z" transform="translate(0 0)" style="fill:#fff"/><path d="M964.56,842.26V896.1a20.38,20.38,0,0,1-2.11,9.55,19.43,19.43,0,0,1-5.78,6.75,24.76,24.76,0,0,1-8.51,3.94,44.09,44.09,0,0,1-20.93,0,24.67,24.67,0,0,1-8.51-3.94,19.32,19.32,0,0,1-5.78-6.75,20.38,20.38,0,0,1-2.11-9.55V842.26h18.86v55.33a10.9,10.9,0,0,0,2.06,6.52,7.53,7.53,0,0,0,9.26,2.06,8.06,8.06,0,0,0,2.52-2.12,10.42,10.42,0,0,0,1.6-3,10.82,10.82,0,0,0,.57-3.43V842.26Z" transform="translate(0 0)" style="fill:#fff"/><path d="M1011.15,842.26a28.34,28.34,0,0,1,11.05,2,21.82,21.82,0,0,1,8,5.6,23.71,23.71,0,0,1,4.81,8.46,33.53,33.53,0,0,1,1.6,10.58,28.52,28.52,0,0,1-1.31,7.88,25.14,25.14,0,0,1-4.42,8.41,25.93,25.93,0,0,1-8.2,6.69,26.94,26.94,0,0,1-12.79,2.74h-7.12v22H983.88V842.26Zm6.57,25.84a13,13,0,0,0-.86-4.75,13.79,13.79,0,0,0-2.28-3.94,10.3,10.3,0,0,0-3.43-2.69,9.7,9.7,0,0,0-4.29-1h-4.12v24.69h4.12a9.7,9.7,0,0,0,4.29-1,10.66,10.66,0,0,0,3.43-2.63,13,13,0,0,0,2.28-3.89A13.19,13.19,0,0,0,1017.72,868.1Z" transform="translate(0 0)" style="fill:#fff"/><path d="M1048.59,834h7.08a59.75,59.75,0,0,1,6.12,9.49,71.37,71.37,0,0,1,4.52,10.69,72.19,72.19,0,0,1,2.74,11.26,70.08,70.08,0,0,1,.92,11.09,80.63,80.63,0,0,1-3.43,23.66,75.33,75.33,0,0,1-10,20.69h-8A85.76,85.76,0,0,0,1056,900a107.53,107.53,0,0,0,2.46-22.92,104.39,104.39,0,0,0-2.46-22.69A80.35,80.35,0,0,0,1048.59,834Z" transform="translate(0 0)" style="fill:#fff"/><path d="M361.17,382.75a23.17,23.17,0,0,0-8.63,2.13,18.46,18.46,0,0,0-5.92,4.26,9.27,9.27,0,0,0-2.43,5.11,5,5,0,0,0,1.83,4.5,3.9,3.9,0,0,0,3.61.7,27.65,27.65,0,0,0,5-1.7c1.83-.81,3.82-1.7,6-2.7a29,29,0,0,1,6.6-2.16,20.4,20.4,0,0,1,6.7-.21,12.23,12.23,0,0,1,6.4,3.16A19.27,19.27,0,0,1,385,402a21.22,21.22,0,0,1,2.07,7.6,19.92,19.92,0,0,1-1.06,8.07,20.43,20.43,0,0,1-4.62,7.46,27.92,27.92,0,0,1-8.71,5.92,43.6,43.6,0,0,1-13.23,3.39l-2.29-9.62a22.2,22.2,0,0,0,9.07-.77,18.4,18.4,0,0,0,6.58-3.45,8.56,8.56,0,0,0,3-4.69,4.4,4.4,0,0,0-1.64-4.45,3.5,3.5,0,0,0-3.4-.58,28.91,28.91,0,0,0-4.86,1.82l-5.9,2.72a27.84,27.84,0,0,1-6.61,2.1,18.78,18.78,0,0,1-7,0,14.74,14.74,0,0,1-6.91-3.66A20,20,0,0,1,333.8,406a18.73,18.73,0,0,1-1.21-8.37,20.81,20.81,0,0,1,2.44-8.05A26.46,26.46,0,0,1,347.35,378a20.07,20.07,0,0,1,8.13-1.91Z" transform="translate(0 0)" style="fill:#fff"/><path d="M397.06,330.05l27.68,32.5a16.11,16.11,0,0,1,3.63,6.85,15.32,15.32,0,0,1,0,7,19.55,19.55,0,0,1-3.11,6.76,33.44,33.44,0,0,1-5.67,6.14,32.84,32.84,0,0,1-7,4.62,19.46,19.46,0,0,1-7.17,2,15.21,15.21,0,0,1-6.95-1.1,16.25,16.25,0,0,1-6.18-4.67l-27.68-32.5L376,348l28.44,33.4a8.57,8.57,0,0,0,4.59,2.87,5.45,5.45,0,0,0,5.06-1.33,5.54,5.54,0,0,0,1.59-2.19,6.42,6.42,0,0,0,.43-2.56,8,8,0,0,0-.6-2.66,8.6,8.6,0,0,0-1.41-2.36l-28.44-33.39Z" transform="translate(0 0)" style="fill:#fff"/><path d="M459.45,289.93l30.4,50.47L477,348.11l-16.37-27.17,7.91,32.27L461,357.79,435.6,336,452,363.22l-7.22,4.34L414.35,317.1l12.81-7.71L453,329.8l-6.35-32.15Z" transform="translate(0 0)" style="fill:#fff"/><path d="M528.75,261.38l21,55.05-14,5.32-11.3-29.64,2.07,33.16-8.3,3.17-21.12-25.9,11.3,29.64-7.88,3-21-55.05,14-5.33,21.82,24.66-.57-32.76Z" transform="translate(0 0)" style="fill:#fff"/><path d="M571,251.44a18.34,18.34,0,0,1,9.35.52,24.5,24.5,0,0,1,8.55,4.8,31.72,31.72,0,0,1,6.8,8.29,37,37,0,0,1,4.57,22.74,31.63,31.63,0,0,1-3.06,10.28,24.53,24.53,0,0,1-6,7.73,18.76,18.76,0,0,1-17.86,3.59,24.54,24.54,0,0,1-8.55-4.79,31.94,31.94,0,0,1-6.8-8.3,37,37,0,0,1-4.57-22.74,31.38,31.38,0,0,1,3.06-10.28,24.53,24.53,0,0,1,6-7.73A18.59,18.59,0,0,1,571,251.44Zm10.07,50a3.76,3.76,0,0,0,2.48-2.17,15.18,15.18,0,0,0,1.38-4.85,38.54,38.54,0,0,0,.23-6.89,54.29,54.29,0,0,0-1-8.15,52.35,52.35,0,0,0-2.19-7.88,37.9,37.9,0,0,0-2.87-6.22,15.91,15.91,0,0,0-3.16-4,3.69,3.69,0,0,0-3.13-1.08,3.78,3.78,0,0,0-2.51,2.22,15.09,15.09,0,0,0-1.42,4.9,39.11,39.11,0,0,0-.24,6.85,54.21,54.21,0,0,0,1,8.11,55.18,55.18,0,0,0,2.2,7.92,37.39,37.39,0,0,0,2.88,6.27,14.44,14.44,0,0,0,3.19,3.93A3.84,3.84,0,0,0,581.11,301.46Z" transform="translate(0 0)" style="fill:#fff"/><path d="M654.19,242.65l2.9,58.84-8.41.42-26.07-31.83,1.63,33-8.42.42-2.91-58.84,8.42-.41,26.1,32.28-1.66-33.49Z" transform="translate(0 0)" style="fill:#fff"/><path d="M718.85,276.49l14.79,2.18-3.3,22.41a18.11,18.11,0,0,1-4.29,3.68,17.21,17.21,0,0,1-4.93,2,24.27,24.27,0,0,1-5.45.66,35.55,35.55,0,0,1-5.72-.38,18.43,18.43,0,0,1-8.62-3.65,24.32,24.32,0,0,1-6.42-7.45,32.37,32.37,0,0,1-3.58-10.19,38,38,0,0,1,3.42-23.22,32,32,0,0,1,6.37-8.73,24.16,24.16,0,0,1,8.29-5.28,18.48,18.48,0,0,1,9.3-1,38,38,0,0,1,5.2,1.13,20.81,20.81,0,0,1,4.64,2.06,20.16,20.16,0,0,1,4.18,3.36,29.77,29.77,0,0,1,3.79,5.05l-6.61,6.36a10.7,10.7,0,0,0-2.15-4.12,13.33,13.33,0,0,0-3.73-3.25,9.28,9.28,0,0,0-4.58-1.27,7.17,7.17,0,0,0-4.76,1.86,16.91,16.91,0,0,0-4.2,6.12,44.13,44.13,0,0,0-3,11.47,43.31,43.31,0,0,0-.49,10.14,19.79,19.79,0,0,0,1.67,6.71,8.8,8.8,0,0,0,3.12,3.71,8.07,8.07,0,0,0,3.85,1.25Z" transform="translate(0 0)" style="fill:#fff"/><path d="M775.28,313.21l-4.18,7.56-30.72-8.94,16.5-56.65,27.5,8-1,8.5-14.53-4.24-3.72,12.79,9.66,2.82-2.36,8.09-9.66-2.82-5.7,19.58Z" transform="translate(0 0)" style="fill:#fff"/><path d="M823.74,278.36a18.4,18.4,0,0,1,7.36,5.79,24.47,24.47,0,0,1,4.25,8.83,31.47,31.47,0,0,1,.82,10.69A35.27,35.27,0,0,1,833.23,315a35.66,35.66,0,0,1-6.34,9.89,31.93,31.93,0,0,1-8.4,6.67,24.74,24.74,0,0,1-9.37,2.88,18.78,18.78,0,0,1-16.69-7.29,24.57,24.57,0,0,1-4.26-8.83,32,32,0,0,1-.82-10.69,37.12,37.12,0,0,1,9.29-21.27,31.56,31.56,0,0,1,8.4-6.66,24.39,24.39,0,0,1,9.37-2.88A18.48,18.48,0,0,1,823.74,278.36Zm-20.42,46.76a3.72,3.72,0,0,0,3.27-.35,15.27,15.27,0,0,0,3.91-3.19,37.94,37.94,0,0,0,4.14-5.51,57.42,57.42,0,0,0,6.55-15,39.25,39.25,0,0,0,1.21-6.74,15.75,15.75,0,0,0-.31-5.08,3.67,3.67,0,0,0-1.94-2.68,3.81,3.81,0,0,0-3.33.38,15,15,0,0,0-4,3.21,36.89,36.89,0,0,0-4.12,5.47,52.79,52.79,0,0,0-3.81,7.24,54.27,54.27,0,0,0-2.74,7.75,37.4,37.4,0,0,0-1.23,6.78,14.6,14.6,0,0,0,.36,5A3.85,3.85,0,0,0,803.32,325.12Z" transform="translate(0 0)" style="fill:#fff"/><path d="M885.82,337a20.83,20.83,0,0,1-2.74,3.42,21.77,21.77,0,0,1-3.91,3.16,20.72,20.72,0,0,1-5,2.28,18.47,18.47,0,0,1-5.9.79L865,368.33l-14-8.78,3-18.64-1.61-1-9.27,14.73-12.58-7.91,31.36-49.87,18.26,11.48a21.57,21.57,0,0,1,6.5,6,17.85,17.85,0,0,1,2.91,7.13,18.87,18.87,0,0,1-.38,7.74A27.12,27.12,0,0,1,885.82,337Zm-28.16-5.61,2.91,1.83a6.91,6.91,0,0,0,3.34,1.08,8.76,8.76,0,0,0,3.59-.52,11.57,11.57,0,0,0,3.43-2,13.17,13.17,0,0,0,2.85-3.24,13.35,13.35,0,0,0,1.69-4,11.59,11.59,0,0,0,.28-3.94,8.87,8.87,0,0,0-1.08-3.47,7.07,7.07,0,0,0-2.42-2.53l-2.92-1.84Z" transform="translate(0 0)" style="fill:#fff"/><path d="M914.19,368.71l11.42,9.66L911,395.66a18.05,18.05,0,0,1-5.59.85,17,17,0,0,1-5.25-.88,24.67,24.67,0,0,1-5-2.32,36.36,36.36,0,0,1-4.65-3.34,18.46,18.46,0,0,1-5.39-7.65,24.39,24.39,0,0,1-1.52-9.72,32.7,32.7,0,0,1,2.34-10.55,38.11,38.11,0,0,1,15.17-17.91,32.2,32.2,0,0,1,10-4.05,24.32,24.32,0,0,1,9.83-.11,18.43,18.43,0,0,1,8.43,4.06,37.49,37.49,0,0,1,3.82,3.7,20.43,20.43,0,0,1,2.85,4.2,19.94,19.94,0,0,1,1.78,5.06,29.87,29.87,0,0,1,.55,6.29l-9,1.9a10.71,10.71,0,0,0,.35-4.62,13.58,13.58,0,0,0-1.45-4.74,9.31,9.31,0,0,0-3.22-3.49,7.21,7.21,0,0,0-5-.94,17.08,17.08,0,0,0-6.79,3,44.2,44.2,0,0,0-8.58,8.17,42.89,42.89,0,0,0-5.77,8.36,19.31,19.31,0,0,0-2.12,6.58,8.63,8.63,0,0,0,.69,4.79,8.09,8.09,0,0,0,2.6,3.1Z" transform="translate(0 0)" style="fill:#fff"/><path d="M942.76,429.64l-7.54,4.22-21.4-23.78,43.87-39.46,19.15,21.29-5.3,6.72-10.12-11.26-9.9,8.91,6.73,7.48L952,409.4l-6.73-7.48-15.16,13.64Z" transform="translate(0 0)" style="fill:#fff"/><path d="M714.35,125.83l-59.7-59.7L595,125.83a5.56,5.56,0,1,0,7.86,7.86L649.1,87.41v93.68a5.56,5.56,0,1,0,11.11,0V87.41l46.28,46.28a5.56,5.56,0,1,0,7.86-7.86" transform="translate(0 0)" style="fill:#fff"/></g></g></svg>