<svg xmlns="http://www.w3.org/2000/svg" viewBox="0 0 1507.48 1507.48"><title>scanner</title><g id="a46aa0eb-8c55-4639-8355-f3c3f323822f" data-name="Layer 2"><g id="b8038cbd-8c22-4874-b380-ba1a4977ffe9" data-name="Layer 1"><g style="opacity:0.75"><circle cx="753.74" cy="753.74" r="700" style="fill:none;stroke:#fff;stroke-miterlimit:10;stroke-width:16px"/><path d="M1103.74,1464.92a6.2,6.2,0,0,0,8.28,2.87l7.23-3.51a6.2,6.2,0,0,0,2.86-8.27l-23-47.39a6.19,6.19,0,0,0-8.56-2.72h0c-2.32,1.29-4.66,2.55-7,3.8h0a6.19,6.19,0,0,0-2.65,8.16Z" style="fill:#fff"/><path d="M1422.23,1427.91l5.68-5.69a6.19,6.19,0,0,0,0-8.76l-147.6-147.6a6.19,6.19,0,0,0-8.87.12h0c-1.82,1.92-3.64,3.85-5.49,5.76h0a6.2,6.2,0,0,0,.07,8.69l147.47,147.47A6.21,6.21,0,0,0,1422.23,1427.91Z" style="fill:#fff"/><path d="M1200.19,1446a6.2,6.2,0,0,0,8.55,1.89l6.77-4.33a6.19,6.19,0,0,0,1.89-8.55l-46.27-72.45a6.19,6.19,0,0,0-8.8-1.71h0q-3.25,2.33-6.53,4.59h0a6.18,6.18,0,0,0-1.68,8.41Z" style="fill:#fff"/><path d="M1305.43,1427.85l6.26-5.06a6.18,6.18,0,0,0,.92-8.7l-81.12-100.24a6.19,6.19,0,0,0-8.91-.75h0q-2.57,2.25-5.14,4.47l-.88.76a6.19,6.19,0,0,0-.77,8.58l80.94,100A6.19,6.19,0,0,0,1305.43,1427.85Z" style="fill:#fff"/><path d="M911.22,1502.62a6.2,6.2,0,0,0,7.38,4.72l7.85-1.74a6.19,6.19,0,0,0,4.71-7.38l-4.35-19.76a6.2,6.2,0,0,0-7.59-4.67h0c-2.57.66-5.15,1.31-7.72,1.94h0a6.19,6.19,0,0,0-4.57,7.34Z" style="fill:#fff"/><path d="M1007.42,1483.79a6.18,6.18,0,0,0,7.87,3.82l7.59-2.63a6.19,6.19,0,0,0,3.82-7.88l-9.87-28.49a4.87,4.87,0,0,0-.21-.53l-.12-.27a6.19,6.19,0,0,0-7.92-3.19l-.54.21c-2.29.91-4.57,1.82-6.86,2.7h0a6.2,6.2,0,0,0-3.62,7.81Z" style="fill:#fff"/><path d="M1507.48,917.33a6.19,6.19,0,0,0-4.85-6.11l-36.52-8.06a6.19,6.19,0,0,0-7.39,4.78h0c-.55,2.6-1.1,5.2-1.67,7.78v0a6.2,6.2,0,0,0,4.71,7.37l36.47,8a6.19,6.19,0,0,0,7.37-4.71l1.74-7.85a6.64,6.64,0,0,0,.14-1.24Z" style="fill:#fff"/><path d="M1464.29,1119.24l3.5-7.23a6.19,6.19,0,0,0-2.86-8.27l-56.13-27.24a6.19,6.19,0,0,0-8.28,2.87h0c-1.16,2.4-2.32,4.78-3.51,7.16h0a6.19,6.19,0,0,0,2.85,8.32l56.15,27.25A6.2,6.2,0,0,0,1464.29,1119.24Z" style="fill:#fff"/><path d="M1443.55,1215.51l4.32-6.77a6.19,6.19,0,0,0-1.89-8.55l-77.58-49.56a6.19,6.19,0,0,0-8.56,1.91h0c-1.42,2.24-2.86,4.47-4.3,6.69h0a6.2,6.2,0,0,0,1.86,8.59L1435,1217.4A6.19,6.19,0,0,0,1443.55,1215.51Z" style="fill:#fff"/><path d="M1311.69,1229.74l102.4,82.86a6.19,6.19,0,0,0,8.71-.92l5.06-6.25a6.18,6.18,0,0,0-.92-8.7l-102.45-82.92a6.2,6.2,0,0,0-8.76,1h0q-2.46,3.12-5,6.23h0A6.19,6.19,0,0,0,1311.69,1229.74Z" style="fill:#fff"/><path d="M1485,1022.88l2.64-7.6a6.18,6.18,0,0,0-3.82-7.87L1442.29,993a6.2,6.2,0,0,0-7.89,3.86h0c-.85,2.5-1.72,5-2.6,7.5h0a6.2,6.2,0,0,0,3.81,7.92l41.51,14.38A6.18,6.18,0,0,0,1485,1022.88Z" style="fill:#fff"/><path d="M43.2,388.23l-3.51,7.24a6.19,6.19,0,0,0,2.87,8.27l47.06,22.83a6.19,6.19,0,0,0,8.16-2.65h0q1.88-3.51,3.8-7h0a6.2,6.2,0,0,0-2.72-8.56l-47.39-23A6.19,6.19,0,0,0,43.2,388.23Z" style="fill:#fff"/><path d="M85.26,79.57l-5.68,5.69a6.18,6.18,0,0,0,0,8.75L227.05,241.48a6.19,6.19,0,0,0,8.68.07h0c1.91-1.85,3.83-3.67,5.76-5.5h0a6.18,6.18,0,0,0,.12-8.87L94,79.57A6.19,6.19,0,0,0,85.26,79.57Z" style="fill:#fff"/><path d="M64,292l-4.34,6.78a6.19,6.19,0,0,0,1.89,8.55l72.14,46.08a6.2,6.2,0,0,0,8.42-1.69h0c1.52-2.17,3-4.35,4.59-6.52h0a6.19,6.19,0,0,0-1.71-8.8L72.49,290.08A6.18,6.18,0,0,0,64,292Z" style="fill:#fff"/><path d="M193.63,276,93.4,194.88a6.19,6.19,0,0,0-8.71.92l-5.06,6.25a6.19,6.19,0,0,0,.92,8.71l100,80.93a6.2,6.2,0,0,0,8.58-.76l.77-.89c1.48-1.71,3-3.43,4.46-5.14h0A6.19,6.19,0,0,0,193.63,276Z" style="fill:#fff"/><path d="M4.86,596.27l19.54,4.3A6.19,6.19,0,0,0,31.74,596h0c.62-2.57,1.27-5.15,1.94-7.72h0A6.19,6.19,0,0,0,29,580.68L9.26,576.32A6.19,6.19,0,0,0,1.88,581L.15,588.89A6.19,6.19,0,0,0,4.86,596.27Z" style="fill:#fff"/><path d="M22.5,484.6l-2.63,7.59a6.2,6.2,0,0,0,3.83,7.88l28.45,9.85A6.18,6.18,0,0,0,60,506.3h0c.88-2.29,1.79-4.57,2.92-7.41h0a6.19,6.19,0,0,0-3.72-8.14l-28.77-10A6.19,6.19,0,0,0,22.5,484.6Z" style="fill:#fff"/><path d="M604.32,41.37,596.27,4.86A6.19,6.19,0,0,0,588.89.15L581,1.88a6.18,6.18,0,0,0-4.71,7.38l8,36.46a6.17,6.17,0,0,0,7.37,4.71h0q3.88-.85,7.78-1.66h0A6.2,6.2,0,0,0,604.32,41.37Z" style="fill:#fff"/><path d="M431,98.69,403.74,42.56a6.19,6.19,0,0,0-8.27-2.87l-7.23,3.51a6.19,6.19,0,0,0-2.87,8.27l27.25,56.16a6.19,6.19,0,0,0,8.32,2.84h0q3.57-1.77,7.16-3.51h0A6.19,6.19,0,0,0,431,98.69Z" style="fill:#fff"/><path d="M356.85,139.08,307.29,61.49a6.19,6.19,0,0,0-8.55-1.88L292,63.94a6.2,6.2,0,0,0-1.89,8.55l49.57,77.6a6.19,6.19,0,0,0,8.59,1.86h0c2.22-1.44,4.45-2.89,6.68-4.3h0A6.18,6.18,0,0,0,356.85,139.08Z" style="fill:#fff"/><path d="M286.45,196.71h0q3.1-2.51,6.23-5h0a6.19,6.19,0,0,0,1-8.76L210.76,80.54a6.2,6.2,0,0,0-8.71-.91l-6.25,5.05a6.19,6.19,0,0,0-.92,8.71l82.87,102.4A6.18,6.18,0,0,0,286.45,196.71Z" style="fill:#fff"/><path d="M514.46,65.2,500.08,23.69a6.19,6.19,0,0,0-7.88-3.82l-7.6,2.63a6.19,6.19,0,0,0-3.82,7.88l14.38,41.5a6.19,6.19,0,0,0,7.9,3.81h0c2.5-.89,5-1.75,7.53-2.61h0A6.19,6.19,0,0,0,514.46,65.2Z" style="fill:#fff"/><path d="M43.2,1119.25a6.19,6.19,0,0,0,8.27,2.87l47.39-23a6.19,6.19,0,0,0,2.72-8.56h0c-1.29-2.31-2.55-4.65-3.8-7h0a6.19,6.19,0,0,0-8.16-2.65l-47.06,22.83a6.19,6.19,0,0,0-2.86,8.27Z" style="fill:#fff"/><path d="M85.26,1427.91a6.18,6.18,0,0,0,8.75,0l147.61-147.6a6.19,6.19,0,0,0-.12-8.87h0c-1.92-1.82-3.85-3.65-5.76-5.49h0a6.2,6.2,0,0,0-8.69.07L79.57,1413.47a6.2,6.2,0,0,0,0,8.75Z" style="fill:#fff"/><path d="M63.94,1215.52a6.19,6.19,0,0,0,8.55,1.88l72.45-46.27a6.19,6.19,0,0,0,1.71-8.8h0q-2.31-3.25-4.58-6.52h0a6.18,6.18,0,0,0-8.41-1.69l-72.15,46.08a6.19,6.19,0,0,0-1.88,8.55Z" style="fill:#fff"/><path d="M194.38,1222.58c-1.76-2-3.49-4-5.23-6h0a6.19,6.19,0,0,0-8.58-.77l-100,80.94a6.19,6.19,0,0,0-.92,8.71l5.06,6.25a6.19,6.19,0,0,0,8.7.91l100.24-81.12a6.19,6.19,0,0,0,.75-8.9Z" style="fill:#fff"/><path d="M33.68,919.21h0c-.66-2.57-1.31-5.15-1.94-7.72h0a6.2,6.2,0,0,0-7.35-4.57L4.86,911.22A6.19,6.19,0,0,0,.15,918.6l1.73,7.85a6.19,6.19,0,0,0,7.38,4.71L29,926.8A6.18,6.18,0,0,0,33.68,919.21Z" style="fill:#fff"/><path d="M22.5,1022.88a6.19,6.19,0,0,0,7.88,3.82l28.48-9.87a4.33,4.33,0,0,0,.54-.21l.27-.13a6.18,6.18,0,0,0,3.19-7.92l-.21-.54c-.91-2.28-1.82-4.56-2.7-6.85h0a6.19,6.19,0,0,0-7.81-3.62l-28.45,9.85a6.19,6.19,0,0,0-3.82,7.88Z" style="fill:#fff"/><path d="M599.54,1458.72h0c-2.6-.54-5.21-1.09-7.8-1.66h0a6.17,6.17,0,0,0-7.35,4.71l-8,36.47a6.19,6.19,0,0,0,4.71,7.37l7.85,1.73a6.18,6.18,0,0,0,7.38-4.71l8.06-36.51A6.19,6.19,0,0,0,599.54,1458.72Z" style="fill:#fff"/><path d="M427.64,1400.29,421,1397h0a6.2,6.2,0,0,0-8.33,2.84L385.37,1456a6.19,6.19,0,0,0,2.87,8.28l7.23,3.5a6.19,6.19,0,0,0,8.27-2.86L430.87,1409c.07-.16.14-.32.2-.48l.1-.25a6.19,6.19,0,0,0-3.08-7.8Z" style="fill:#fff"/><path d="M292,1443.54l6.78,4.33a6.19,6.19,0,0,0,8.55-1.88l49.55-77.59a6.19,6.19,0,0,0-1.9-8.56h0c-2.24-1.41-4.46-2.85-6.69-4.3h0a6.18,6.18,0,0,0-8.58,1.86L290.08,1435A6.19,6.19,0,0,0,292,1443.54Z" style="fill:#fff"/><path d="M195.8,1422.8l6.25,5a6.19,6.19,0,0,0,8.7-.91l82.91-102.45a6.19,6.19,0,0,0-1-8.76h0c-2.09-1.65-4.16-3.29-6.23-5h0a6.19,6.19,0,0,0-8.7.92l-82.87,102.4A6.19,6.19,0,0,0,195.8,1422.8Z" style="fill:#fff"/><path d="M510.6,1434.41l-7.53-2.61h0a6.18,6.18,0,0,0-7.91,3.81l-14.38,41.49a6.19,6.19,0,0,0,3.82,7.88l7.59,2.63a6.19,6.19,0,0,0,7.88-3.82l14.38-41.5A6.17,6.17,0,0,0,510.6,1434.41Z" style="fill:#fff"/><path d="M1083.56,97.78c2.34,1.25,4.67,2.52,7,3.8h0a6.19,6.19,0,0,0,8.55-2.72l23-47.38a6.19,6.19,0,0,0-2.86-8.27L1112,39.69a6.2,6.2,0,0,0-8.28,2.87l-22.83,47.05a6.19,6.19,0,0,0,2.64,8.16Z" style="fill:#fff"/><path d="M1422.22,79.58a6.18,6.18,0,0,0-8.75,0L1266,227.07a6.19,6.19,0,0,0-.09,8.66l5.56,5.81a6.19,6.19,0,0,0,8.85.09L1427.91,94a6.19,6.19,0,0,0,0-8.76Z" style="fill:#fff"/><path d="M1215.51,63.94l-6.78-4.33a6.19,6.19,0,0,0-8.54,1.89l-46.08,72.15a6.18,6.18,0,0,0,1.69,8.42h0q3.29,2.27,6.52,4.58h0a6.19,6.19,0,0,0,8.8-1.71l46.27-72.45A6.19,6.19,0,0,0,1215.51,63.94Z" style="fill:#fff"/><path d="M1311.68,84.69l-6.26-5a6.18,6.18,0,0,0-8.7.92l-80.94,100a6.2,6.2,0,0,0,.78,8.59h0c2,1.73,4,3.47,6,5.22h0a6.19,6.19,0,0,0,8.9-.76L1312.6,93.4A6.19,6.19,0,0,0,1311.68,84.69Z" style="fill:#fff"/><path d="M911.49,31.74c2.57.63,5.15,1.28,7.72,1.95h0A6.19,6.19,0,0,0,926.8,29l4.36-19.77a6.19,6.19,0,0,0-4.71-7.38L918.6.15a6.19,6.19,0,0,0-7.38,4.71L906.91,24.4a6.19,6.19,0,0,0,4.57,7.34Z" style="fill:#fff"/><path d="M1001.18,60c2.47,1,4.94,1.94,7.41,2.92h0a6.2,6.2,0,0,0,8.14-3.73l10-28.76a6.19,6.19,0,0,0-3.82-7.88l-7.59-2.63a6.19,6.19,0,0,0-7.88,3.82l-9.86,28.46a6.19,6.19,0,0,0,3.62,7.8Z" style="fill:#fff"/><path d="M1457,591.73c.57,2.6,1.13,5.19,1.67,7.8h0a6.19,6.19,0,0,0,7.39,4.79l36.52-8.06a6.18,6.18,0,0,0,4.71-7.37L1505.6,581a6.2,6.2,0,0,0-7.38-4.71l-36.46,8a6.18,6.18,0,0,0-4.72,7.36Z" style="fill:#fff"/><path d="M1464.28,388.24a6.19,6.19,0,0,0-8.27-2.87l-56.16,27.25A6.21,6.21,0,0,0,1397,421h0c1.11,2.23,2.2,4.46,3.51,7.16h0a6.18,6.18,0,0,0,8.27,2.87l56.13-27.24a6.19,6.19,0,0,0,2.87-8.27Z" style="fill:#fff"/><path d="M1443.54,292a6.18,6.18,0,0,0-8.55-1.88l-77.62,49.57a6.19,6.19,0,0,0-1.88,8.56l4.34,6.77a6.2,6.2,0,0,0,8.55,1.87l77.6-49.57a6.19,6.19,0,0,0,1.89-8.54Z" style="fill:#fff"/><path d="M1315.72,292.68h0a6.18,6.18,0,0,0,8.75,1l102.45-82.91a6.19,6.19,0,0,0,.92-8.7l-5.06-6.25a6.18,6.18,0,0,0-8.7-.93l-102.4,82.87a6.19,6.19,0,0,0-.93,8.69h0C1312.43,288.52,1314.08,290.59,1315.72,292.68Z" style="fill:#fff"/><path d="M1442.29,514.46l41.5-14.39a6.18,6.18,0,0,0,3.82-7.87l-2.63-7.6a6.19,6.19,0,0,0-7.88-3.82l-41.5,14.38a6.19,6.19,0,0,0-3.8,7.93h0c.89,2.5,1.75,5,2.6,7.51h0A6.2,6.2,0,0,0,1442.29,514.46Z" style="fill:#fff"/></g></g></g></svg>