<svg xmlns="http://www.w3.org/2000/svg" xmlns:xlink="http://www.w3.org/1999/xlink" viewBox="0 0 492.13 194.84"><defs><linearGradient id="fd93c7c7-645a-46b5-9293-4898b911c86d" x1="1955.68" y1="844.12" x2="1956.68" y2="844.12" gradientTransform="matrix(275.45, 248.21, 248.21, -275.45, -748091.1, -252897.56)" gradientUnits="userSpaceOnUse"><stop offset="0" stop-color="#c79333"/><stop offset="0.36" stop-color="#f0b948"/><stop offset="0.58" stop-color="#d7ab2d"/><stop offset="0.61" stop-color="#d7ab2e"/><stop offset="1" stop-color="#d3a636"/></linearGradient></defs><title>scienceBanner</title><g id="bf621a15-3d0a-4c17-b0c6-952311a3cca2" data-name="Layer 2"><g id="e8ecc32f-0a1d-4d48-b0e1-dc68856f89b8" data-name="Layer 1"><path d="M489.59,128c-10.09-13.5-28.38-34.1-41.17-45.83-26.63-24.41-56.23-44.59-90.75-58a304.46,304.46,0,0,0-111.61-21A301.21,301.21,0,0,0,135,23.79C100.46,37.18,71.08,56.1,44.45,80.51c-12.33,11.3-21.72,22.13-32.54,34C4.83,122.34,1.59,126.73,3.06,128L50,173.17l3.65,3.51,14.58,14c33-54,94.34-99.95,178.74-99.95,72.73,0,149.49,46.8,182.35,101.3l12.15-12.54,3.57-3.68L486.5,133C488,131.74,490.74,129.56,489.59,128Z" style="fill:#25373f"/><path d="M88.5,92a11.39,11.39,0,0,0-4.45.23,8.5,8.5,0,0,0-3.22,1.57,4.19,4.19,0,0,0-1.52,2.33A2.71,2.71,0,0,0,80,98.54a2.07,2.07,0,0,0,1.76.7,12.93,12.93,0,0,0,2.61-.38c1-.22,2-.48,3.16-.77a14.44,14.44,0,0,1,3.44-.45,10.48,10.48,0,0,1,3.37.55,6.85,6.85,0,0,1,3,2.2A11.19,11.19,0,0,1,99.87,108a9.61,9.61,0,0,1-1,3.94,9.22,9.22,0,0,1-2.76,3.3,12.67,12.67,0,0,1-4.71,2.13,21.38,21.38,0,0,1-6.84.43l-.57-5a11.3,11.3,0,0,0,4.59.48,8.55,8.55,0,0,0,3.5-1.09,3.93,3.93,0,0,0,1.8-2.06,2.35,2.35,0,0,0-.56-2.39,1.87,1.87,0,0,0-1.67-.63,14.09,14.09,0,0,0-2.54.45l-3.12.8a13.48,13.48,0,0,1-3.43.41,9.68,9.68,0,0,1-3.49-.69,8.25,8.25,0,0,1-3.25-2.51A11,11,0,0,1,73.41,101a9.6,9.6,0,0,1-.12-4.32A9.91,9.91,0,0,1,75,92.86a12.14,12.14,0,0,1,3-2.92,12.56,12.56,0,0,1,3.84-1.72A10.05,10.05,0,0,1,86,88.05Z" style="fill:#fff"/><path d="M122.8,90.91a8.46,8.46,0,0,1-.27,2.9,9.31,9.31,0,0,1-1.09,2.45,10.13,10.13,0,0,1-1.71,2.06,18.54,18.54,0,0,1-2.18,1.72,8.5,8.5,0,0,1-4.38,1.42,12,12,0,0,1-4.9-.8,17.44,17.44,0,0,1-4.83-2.8,20.41,20.41,0,0,1-4.17-4.61,19.88,19.88,0,0,1-2.63-5.59,17.54,17.54,0,0,1-.74-5.53,12.16,12.16,0,0,1,1.15-4.83,8.47,8.47,0,0,1,3-3.49,15.86,15.86,0,0,1,2.25-1.27,9.4,9.4,0,0,1,2.38-.74,11.19,11.19,0,0,1,2.67-.08,13.17,13.17,0,0,1,3.12.7l-.2,4.72a5.87,5.87,0,0,0-2.19-.92,6.2,6.2,0,0,0-2.46,0,4.12,4.12,0,0,0-2.08,1,3.41,3.41,0,0,0-1.08,2.3,8.89,8.89,0,0,0,.6,3.78,25.49,25.49,0,0,0,2.93,5.5,22.88,22.88,0,0,0,3.69,4.45,9.18,9.18,0,0,0,3.17,2,3.92,3.92,0,0,0,2.53,0,3.72,3.72,0,0,0,1.75-1.32,4.81,4.81,0,0,0,.88-2.07,5.1,5.1,0,0,0-.08-2.24Z" style="fill:#fff"/><path d="M129.26,92.33,114.2,65.22l6.39-3.55,15.06,27.1Z" style="fill:#fff"/><path d="M154.56,74.77l1,4.42L141.34,85.7,128.43,57.45l12.73-5.82,2.49,3.74-6.73,3.08,2.91,6.38,4.48-2,1.84,4-4.47,2,4.46,9.76Z" style="fill:#fff"/><path d="M169.84,41.11l10,29.34L176,71.78,159,59.18l5.63,16.47L160.75,77l-10-29.35,3.9-1.33,17,12.83-5.71-16.7Z" style="fill:#fff"/><path d="M204.56,60.25a8.39,8.39,0,0,1-1.3,2.61,9.2,9.2,0,0,1-1.9,1.89,9.88,9.88,0,0,1-2.34,1.3,16.42,16.42,0,0,1-2.66.81,8.46,8.46,0,0,1-4.59-.25,12,12,0,0,1-4.28-2.51A17.43,17.43,0,0,1,184,59.74a21.18,21.18,0,0,1-2.66-12,17.59,17.59,0,0,1,1.31-5.42,12.16,12.16,0,0,1,2.81-4.09,8.54,8.54,0,0,1,4.06-2.18,17.82,17.82,0,0,1,2.55-.37,9.48,9.48,0,0,1,2.49.18,11.24,11.24,0,0,1,2.51.88,13.9,13.9,0,0,1,2.67,1.78l-1.9,4.33a5.88,5.88,0,0,0-1.71-1.65,6.28,6.28,0,0,0-2.27-.93,4.14,4.14,0,0,0-2.31.2,3.46,3.46,0,0,0-1.84,1.75,8.78,8.78,0,0,0-.8,3.74,24.74,24.74,0,0,0,.74,6.19,22.5,22.5,0,0,0,1.83,5.48,9.05,9.05,0,0,0,2.25,3,3.66,3.66,0,0,0,4.46.36,5.07,5.07,0,0,0,1.57-1.62,5.16,5.16,0,0,0,.73-2.12Z" style="fill:#fff"/><path d="M225.85,57.45l-.4,4.52-15.53,1.85L206.24,33l13.91-1.66,1.23,4.32-7.35.88.83,7,4.88-.58.53,4.41-4.89.58,1.27,10.66Z" style="fill:#fff"/><path d="M265.24,61.57l-7.93-.18L256,59.59a9.61,9.61,0,0,1-2.69,1.49,11.13,11.13,0,0,1-4,.5,10,10,0,0,1-4.3-.95,9.78,9.78,0,0,1-3-2.22,8.75,8.75,0,0,1-1.75-2.83,7.53,7.53,0,0,1-.54-2.81,23.74,23.74,0,0,1,.31-3.43,11.46,11.46,0,0,1,1-3.08,14.18,14.18,0,0,1,2.09-3.07,32.69,32.69,0,0,1,3.63-3.47l-4.27-9.17L259,31l1.4,4.38-8.37-.2ZM247.18,52.8a5.08,5.08,0,0,0,.69,2.79,4.22,4.22,0,0,0,1.78,1.71,3.08,3.08,0,0,0,2.28.12,4.16,4.16,0,0,0,2.19-1.93L249.3,45.22a12.49,12.49,0,0,0-1.42,3.07A15.47,15.47,0,0,0,247.18,52.8Z" style="fill:#fff"/><path d="M302.12,35.93l-5.35,30.54-4.06-.71-8.78-19.22-3,17.15L276.87,63l5.35-30.54,4.06.71L295,52.6l3.05-17.38Z" style="fill:#fff"/><path d="M323.22,73.9l-7.4-2.18.08-6.09-7.23-2.12-3.18,5.18-4.21-1.24,16-27.61L324.69,42ZM316,61l.67-11.39-5.56,10Z" style="fill:#fff"/><path d="M352.3,57,347,54.82l-10,24.68-6.77-2.73,10-24.69L335.05,50l2.32-3.85,15.94,6.44Z" style="fill:#fff"/><path d="M379.58,66,369,85.8a9.12,9.12,0,0,1-2.59,3.14,7.94,7.94,0,0,1-3.3,1.43,9,9,0,0,1-3.69-.1,15.83,15.83,0,0,1-7.16-3.8,9.31,9.31,0,0,1-2.14-3,8.15,8.15,0,0,1-.66-3.54,9.06,9.06,0,0,1,1.15-3.9l10.55-19.84,6.45,3.43L356.8,80a4.88,4.88,0,0,0-.57,2.77A2.77,2.77,0,0,0,359,85.23a3.15,3.15,0,0,0,1.27-.33,4.2,4.2,0,0,0,1.15-.82,4.78,4.78,0,0,0,.86-1.16l10.84-20.39Z" style="fill:#fff"/><path d="M398.25,91.77a11,11,0,0,1-1.5,1.75,12.13,12.13,0,0,1-2.07,1.61,10.9,10.9,0,0,1-2.57,1.16,9.38,9.38,0,0,1-3,.38l-2.49,11.14L380,103.24l2.23-9.58-.77-.53-5.18,7.55-6-4.12L387.84,71l8.69,6a9.79,9.79,0,0,1,3,3.12,8.61,8.61,0,0,1,1.18,3.68,9.88,9.88,0,0,1-.48,4A15.18,15.18,0,0,1,398.25,91.77Zm-13.86-3,1.39,1a3.14,3.14,0,0,0,1.62.57,4.44,4.44,0,0,0,1.82-.25,6.54,6.54,0,0,0,1.79-1,7.79,7.79,0,0,0,2.54-3.7,6.39,6.39,0,0,0,.29-2,4.51,4.51,0,0,0-.41-1.78,3.32,3.32,0,0,0-1.11-1.32l-1.39-1Z" style="fill:#fff"/><path d="M406.84,118.86l-3.58,2.78-11.92-10.13,20.11-23.67,10.67,9.07-2.33,3.84L414.15,96l-4.54,5.34,3.74,3.19-2.87,3.38-3.75-3.19-7,8.18Z" style="fill:#fff"/><path d="M426.42,194.84,490.78,133a4.38,4.38,0,0,0,.54-5.71,303.27,303.27,0,0,0-33.06-39.17,300.66,300.66,0,0,0-425.56,0A303.39,303.39,0,0,0,.83,125.63a4.39,4.39,0,0,0,.52,5.74l65,62.41a210.05,210.05,0,0,1,360.1,1.06ZM246.06,87.44A214.87,214.87,0,0,0,65.35,185.91L5.19,128.13a299.51,299.51,0,0,1,31-36.46,296.15,296.15,0,0,1,450.71,38.11l-59.52,57.16a214.89,214.89,0,0,0-181.36-99.5Z" style="fill:url(#fd93c7c7-645a-46b5-9293-4898b911c86d)"/></g></g></svg>