<svg xmlns="http://www.w3.org/2000/svg" xmlns:xlink="http://www.w3.org/1999/xlink" viewBox="0 0 1755.13 999.4"><defs><linearGradient id="fa1940d7-3a36-4650-b9c1-de778b866f7a" x1="431.53" y1="73.47" x2="523.55" y2="73.47" gradientUnits="userSpaceOnUse"><stop offset="0" stop-color="#a56e29"/><stop offset="0.36" stop-color="#e5b450"/><stop offset="0.39" stop-color="#dfab4a"/><stop offset="0.58" stop-color="#c17e2a"/><stop offset="0.82" stop-color="#be9131"/><stop offset="1" stop-color="#bc9a34"/></linearGradient><linearGradient id="f9bccb28-aa90-41e9-a4e0-dc754cae63f4" x1="431.53" y1="93.97" x2="523.55" y2="93.97" xlink:href="#fa1940d7-3a36-4650-b9c1-de778b866f7a"/><linearGradient id="e366ef5f-b074-4c33-87e5-f341f4ef9ab4" x1="431.53" y1="113.86" x2="523.55" y2="113.86" xlink:href="#fa1940d7-3a36-4650-b9c1-de778b866f7a"/><linearGradient id="fa7a5e74-5b88-4b28-93bf-c8eafe8f263d" x1="1241.92" y1="73.47" x2="1673.05" y2="73.47" xlink:href="#fa1940d7-3a36-4650-b9c1-de778b866f7a"/><linearGradient id="b976f64b-b521-4d33-8d00-7a7b5bdc66f2" x1="1241.92" y1="93.97" x2="1673.05" y2="93.97" xlink:href="#fa1940d7-3a36-4650-b9c1-de778b866f7a"/><linearGradient id="e46fde88-12e9-48ee-9a21-b37ba98e7b3c" x1="1241.92" y1="113.86" x2="1673.05" y2="113.86" xlink:href="#fa1940d7-3a36-4650-b9c1-de778b866f7a"/></defs><title>sciencePanel</title><g id="bbacfdab-aba4-4380-9d18-33d3cb90ff20" data-name="Layer 2"><g id="a394141b-9e94-4914-8642-229fb19c0fc5" data-name="CAT - SCIENCE"><rect width="1755.13" height="999.4" rx="42.86" style="fill:#25373f"/><polygon points="38.38 160.72 38.38 29.23 387.49 29.23 415.65 95.82 387.49 160.72 38.38 160.72" style="fill:#3e607e"/><path d="M115.5,102.86v14.5c0,4-2.56,6.76-6.59,6.76H97.37a6.38,6.38,0,0,1-6.67-6.76v-43c0-4.2,2.72-6.84,6.67-6.84h11.54c4,0,6.59,2.64,6.59,6.84V88.61h-9.23V76.5c0-.49-.33-.9-.58-.9h-5.1c-.33,0-.58.41-.58.9v38.72c0,.5.25.82.58.82h5.1a.75.75,0,0,0,.58-.82V102.86Z" style="fill:#a4c0d8"/><path d="M148.05,123.62h-9.14V107.48h-6.59v16.14h-9.14V73.7a5.42,5.42,0,0,1,5.6-5.68h13.59a5.44,5.44,0,0,1,5.68,5.68Zm-9.14-23.8V77.33a1.15,1.15,0,0,0-1.15-1.24h-4.29a1.15,1.15,0,0,0-1.15,1.24V99.82Z" style="fill:#a4c0d8"/><path d="M171.1,76v47.61h-9.22V76h-7V68H178.1v8Z" style="fill:#a4c0d8"/><path d="M185.15,68h20.51v8h-11.2V91.66h9.14V99.4h-9.14v16.23h11.2v8H185.15Z" style="fill:#a4c0d8"/><path d="M220,124c-4.12,0-6.67-2.72-6.67-6.76V74.36c0-4.2,2.55-6.84,6.67-6.84h17.71v8.65h-14.5c-.24,0-.57.42-.57.91v37.56c0,.5.33.83.57.83h5.44c.41,0,.66-.33.66-.83V97.51h-3.13V89.68h14.17v7.83h-2.72v19.77a6.36,6.36,0,0,1-6.76,6.76Z" style="fill:#a4c0d8"/><path d="M267.66,67.52a5.5,5.5,0,0,1,5.69,5.69v45.14a5.5,5.5,0,0,1-5.69,5.69H253.41a5.45,5.45,0,0,1-5.68-5.69V73.21a5.45,5.45,0,0,1,5.68-5.69ZM264,76.17c0-.49-.33-.9-.5-.9h-6.09c-.41,0-.41.57-.41.9V115.3c0,.25.08.74.41.74h6.09a.75.75,0,0,0,.5-.74Z" style="fill:#a4c0d8"/><path d="M294.59,105.09h-3.13v18.53h-9.31V68h18.7c4.12,0,6.67,2.72,6.67,6.84V98.25c0,3.21-1.56,5.52-4.11,6.43l4.2,18.94h-9.15Zm3.87-28.26c0-.41-.33-.82-.57-.82h-6.43V97.43h6.43c.24,0,.57-.41.57-.74Z" style="fill:#a4c0d8"/><path d="M332.46,106.49v17.13h-9.14V106.49H322c-4.12,0-6.76-2.55-6.76-6.59V68h9.23V97.67a.9.9,0,0,0,.66.83H331c.33,0,.33-.41.33-.83V68h9.22V99.9c0,4-2.63,6.59-6.83,6.59Z" style="fill:#a4c0d8"/><g style="opacity:0.25"><line x1="434.03" y1="73.47" x2="521.05" y2="73.47" style="fill:none;stroke-linecap:round;stroke-miterlimit:10;stroke-width:5px;stroke:url(#fa1940d7-3a36-4650-b9c1-de778b866f7a)"/><line x1="434.03" y1="93.97" x2="521.05" y2="93.97" style="fill:none;stroke-linecap:round;stroke-miterlimit:10;stroke-width:5px;stroke:url(#f9bccb28-aa90-41e9-a4e0-dc754cae63f4)"/><line x1="434.03" y1="113.86" x2="521.05" y2="113.86" style="fill:none;stroke-linecap:round;stroke-miterlimit:10;stroke-width:5px;stroke:url(#e366ef5f-b074-4c33-87e5-f341f4ef9ab4)"/></g><g style="opacity:0.25"><line x1="1244.42" y1="73.47" x2="1670.55" y2="73.47" style="fill:none;stroke-linecap:round;stroke-miterlimit:10;stroke-width:5px;stroke:url(#fa7a5e74-5b88-4b28-93bf-c8eafe8f263d)"/><line x1="1244.42" y1="93.97" x2="1670.55" y2="93.97" style="fill:none;stroke-linecap:round;stroke-miterlimit:10;stroke-width:5px;stroke:url(#b976f64b-b521-4d33-8d00-7a7b5bdc66f2)"/><line x1="1244.42" y1="113.86" x2="1670.55" y2="113.86" style="fill:none;stroke-linecap:round;stroke-miterlimit:10;stroke-width:5px;stroke:url(#e46fde88-12e9-48ee-9a21-b37ba98e7b3c)"/></g><path d="M598.5,81.37a22.54,22.54,0,0,0-7-4.36,19.4,19.4,0,0,0-6.81-1.4,9.47,9.47,0,0,0-5.21,1.33,4.17,4.17,0,0,0-2.08,3.73,3.3,3.3,0,0,0,1.78,2.73,26.8,26.8,0,0,0,4.38,2.26c1.74.72,3.64,1.5,5.73,2.33A29.46,29.46,0,0,1,595,91a18.45,18.45,0,0,1,4.38,4.2,9.76,9.76,0,0,1,1.78,5.92,15.23,15.23,0,0,1-1.48,6.5,18,18,0,0,1-4.16,5.65,19.24,19.24,0,0,1-6.47,3.89,21.46,21.46,0,0,1-8.29,1.25,29.31,29.31,0,0,1-9.76-2.26,42.48,42.48,0,0,1-10.81-6.62l5.47-6.93A20.49,20.49,0,0,0,572,108a18.89,18.89,0,0,0,6.64,2.3,9.1,9.1,0,0,0,5.3-.7,3.73,3.73,0,0,0,2.17-3.58,3,3,0,0,0-1.74-2.53,31.17,31.17,0,0,0-4.38-2.11l-5.69-2.25a27.34,27.34,0,0,1-5.68-3.08,16.51,16.51,0,0,1-4.38-4.52A11.63,11.63,0,0,1,562.48,85a15.73,15.73,0,0,1,2-8.13,16.64,16.64,0,0,1,5.25-5.53,21,21,0,0,1,7.33-3,28.26,28.26,0,0,1,8.2-.51,28,28,0,0,1,7.94,1.87,19.32,19.32,0,0,1,6.51,4.17Z" style="fill:#fff"/><path d="M649.27,111.82a14.63,14.63,0,0,1-3.61,3.7,19,19,0,0,1-4.42,2.33,22.45,22.45,0,0,1-5,1.25,42.1,42.1,0,0,1-5.43.35,19.25,19.25,0,0,1-8.68-2A22.7,22.7,0,0,1,615,111.9a27,27,0,0,1-4.82-8.18,29,29,0,0,1,0-20A27,27,0,0,1,615,75.53,22.85,22.85,0,0,1,622.1,70a19.38,19.38,0,0,1,8.68-2,41.21,41.21,0,0,1,5,.31,20.7,20.7,0,0,1,4.68,1.17,22.28,22.28,0,0,1,4.43,2.3,25.12,25.12,0,0,1,4.34,3.77l-5.47,6.23a9.55,9.55,0,0,0-2.56-3.23,12.67,12.67,0,0,0-4-2.3,10,10,0,0,0-4.51-.5,7.14,7.14,0,0,0-4.25,2.14,13.61,13.61,0,0,0-3.13,5.68,34.39,34.39,0,0,0-1.21,10.13,31.16,31.16,0,0,0,1.17,9.38,13.88,13.88,0,0,0,3,5.53,7.7,7.7,0,0,0,4.07,2.33,8.79,8.79,0,0,0,4.3-.19,9.81,9.81,0,0,0,3.69-2,8.32,8.32,0,0,0,2.3-3.11Z" style="fill:#fff"/><path d="M656.82,118.83V68.21h14.32v50.62Z" style="fill:#fff"/><path d="M713.14,111.59l-1.82,7.24H680.68V68.14h27.43l1.39,7.24H695V86.82h9.64v7.25H695v17.52Z" style="fill:#fff"/><path d="M760.27,68.21v50.62H752.2L728.76,90.41v28.42h-8.07V68.21h8.07L752.2,97V68.21Z" style="fill:#fff"/><path d="M809.73,111.82a14.6,14.6,0,0,1-3.6,3.7,19.23,19.23,0,0,1-4.42,2.33,22.54,22.54,0,0,1-5,1.25,41.82,41.82,0,0,1-5.42.35,19.25,19.25,0,0,1-8.68-2,22.85,22.85,0,0,1-7.12-5.53,27,27,0,0,1-4.81-8.18,29,29,0,0,1,0-20,27,27,0,0,1,4.81-8.18A23,23,0,0,1,782.57,70a19.38,19.38,0,0,1,8.68-2,41,41,0,0,1,5,.31A20.79,20.79,0,0,1,801,69.46a22.21,22.21,0,0,1,4.42,2.3,24.4,24.4,0,0,1,4.34,3.77l-5.46,6.23a9.68,9.68,0,0,0-2.56-3.23,12.78,12.78,0,0,0-4-2.3,10,10,0,0,0-4.52-.5A7.14,7.14,0,0,0,789,77.87a13.71,13.71,0,0,0-3.12,5.68,34.35,34.35,0,0,0-1.22,10.13,31.16,31.16,0,0,0,1.17,9.38,14.13,14.13,0,0,0,3,5.53,7.76,7.76,0,0,0,4.08,2.33,8.79,8.79,0,0,0,4.3-.19,9.77,9.77,0,0,0,3.68-2,8.35,8.35,0,0,0,2.31-3.11Z" style="fill:#fff"/><path d="M849.74,111.59l-1.82,7.24H817.28V68.14h27.43l1.39,7.24H831.6V86.82h9.64v7.25H831.6v17.52Z" style="fill:#fff"/><path d="M923,118.83H907.45l-2.6-2.88a20.35,20.35,0,0,1-5.21,2.53,25.58,25.58,0,0,1-7.81,1,23.36,23.36,0,0,1-8.46-1.4,19.82,19.82,0,0,1-6-3.51,14.28,14.28,0,0,1-3.56-4.55,10.66,10.66,0,0,1-1.17-4.56,33.57,33.57,0,0,1,.44-5.6,16.19,16.19,0,0,1,1.77-5.06,22.86,22.86,0,0,1,3.95-5.1,60,60,0,0,1,7-5.8L877,69.07l32.37.08,2.95,7.08h-16.4ZM887.23,105.2a7.26,7.26,0,0,0,1.48,4.52,7.93,7.93,0,0,0,3.56,2.72,7.08,7.08,0,0,0,4.47.12,7.79,7.79,0,0,0,4.2-3.23l-9.89-16.59a18.69,18.69,0,0,0-2.65,5.06A21.48,21.48,0,0,0,887.23,105.2Z" style="fill:#fff"/><path d="M982.61,68.21v50.62h-8.07L951.1,90.41v28.42H943V68.21h8.07L974.54,97V68.21Z" style="fill:#fff"/><path d="M1035.11,118.83H1020l-3.21-9.58h-14.75l-3.13,9.58h-8.59l14.84-50.62h15.1ZM1014.46,102l-5-18.14L1004.48,102Z" style="fill:#fff"/><path d="M1073.3,75.38h-11.11v43.45h-14.32V75.38h-11l1.39-7.24h33.67Z" style="fill:#fff"/><path d="M1122.77,68.21v36.68a12.71,12.71,0,0,1-1.61,6.5,13.74,13.74,0,0,1-4.38,4.6,19.83,19.83,0,0,1-6.47,2.68,37.08,37.08,0,0,1-15.88,0A19.83,19.83,0,0,1,1088,116a13.74,13.74,0,0,1-4.38-4.6,12.71,12.71,0,0,1-1.6-6.5V68.21h14.32V105.9a6.91,6.91,0,0,0,1.56,4.44,5.43,5.43,0,0,0,4.51,2,5.62,5.62,0,0,0,2.52-.55,5.84,5.84,0,0,0,1.91-1.44,6.51,6.51,0,0,0,1.21-2.06,6.68,6.68,0,0,0,.44-2.34V68.21Z" style="fill:#fff"/><path d="M1172.06,86.51a16.25,16.25,0,0,1-.48,3.74,17.65,17.65,0,0,1-1.56,4.09,17.86,17.86,0,0,1-2.86,3.93,17.16,17.16,0,0,1-4.39,3.27l8.34,17.29h-15.8l-7-15h-1.82v15h-14.24V68.21h20.66a22.53,22.53,0,0,1,8.33,1.41,17.17,17.17,0,0,1,6,3.85,15.82,15.82,0,0,1,3.64,5.8A21.08,21.08,0,0,1,1172.06,86.51Zm-25.69,8.8h3.3a7.21,7.21,0,0,0,3.25-.74,8.31,8.31,0,0,0,2.65-2,9.78,9.78,0,0,0,1.78-3,10.63,10.63,0,0,0,0-7.32,9.78,9.78,0,0,0-1.78-3,8.31,8.31,0,0,0-2.65-2,7.21,7.21,0,0,0-3.25-.74h-3.3Z" style="fill:#fff"/><path d="M1212.67,111.59l-1.82,7.24h-30.63V68.14h27.42l1.39,7.24h-14.49V86.82h9.63v7.25h-9.63v17.52Z" style="fill:#fff"/></g></g></svg>