<svg xmlns="http://www.w3.org/2000/svg" xmlns:xlink="http://www.w3.org/1999/xlink" viewBox="0 0 492.13 194.84"><defs><linearGradient id="e0e5da3c-76f1-4f7f-827c-97e9bcba69f3" x1="1960.88" y1="1276.13" x2="1961.88" y2="1276.13" gradientTransform="matrix(275.45, 248.21, 248.21, -275.45, -856752.6, -135192.04)" gradientUnits="userSpaceOnUse"><stop offset="0" stop-color="#c79333"/><stop offset="0.36" stop-color="#f0b948"/><stop offset="0.58" stop-color="#d7ab2d"/><stop offset="0.61" stop-color="#d7ab2e"/><stop offset="1" stop-color="#d3a636"/></linearGradient></defs><title>statesBanner</title><g id="a8743229-6f80-4db1-a4df-c2b3a35de61f" data-name="Layer 2"><g id="a6cbf11a-0afd-4e56-80d3-4a5552e74f1e" data-name="Layer 1"><path d="M489.59,128c-10.09-13.5-28.38-34.1-41.17-45.83-26.63-24.41-56.23-44.59-90.76-58a304.37,304.37,0,0,0-111.6-21A301.21,301.21,0,0,0,135,23.79C100.46,37.18,71.08,56.1,44.45,80.51c-12.33,11.3-21.72,22.13-32.54,34C4.83,122.34,1.59,126.73,3.06,128l45.32,43.62L52,175.15l16.18,15.57c33-54,94.34-99.95,178.74-99.95,72.73,0,149.49,46.8,182.35,101.3l10.56-10.9,3.57-3.69L486.5,133C488,131.74,490.74,129.56,489.59,128Z" style="fill:#281313"/><path d="M426.42,194.84,490.78,133a4.39,4.39,0,0,0,.54-5.71,303.27,303.27,0,0,0-33.06-39.17,300.66,300.66,0,0,0-425.56,0A303.39,303.39,0,0,0,.83,125.63a4.39,4.39,0,0,0,.52,5.74l65,62.41a210.05,210.05,0,0,1,360.1,1.06ZM246.06,87.44A214.87,214.87,0,0,0,65.35,185.91L5.19,128.13a299.51,299.51,0,0,1,31-36.46,296.15,296.15,0,0,1,450.71,38.11l-59.52,57.16a214.89,214.89,0,0,0-181.36-99.5Z" style="fill:url(#e0e5da3c-76f1-4f7f-827c-97e9bcba69f3)"/><path d="M61.2,113.58a11.27,11.27,0,0,0-4.4.7,8.56,8.56,0,0,0-3,1.9,4.24,4.24,0,0,0-1.26,2.48,2.72,2.72,0,0,0,.9,2.36,2.09,2.09,0,0,0,1.84.5,13.29,13.29,0,0,0,2.54-.64l3.07-1.11a14.27,14.27,0,0,1,3.37-.81,10.23,10.23,0,0,1,3.4.19A6.84,6.84,0,0,1,70.86,121a10.88,10.88,0,0,1,2.34,3.31,11.29,11.29,0,0,1,1,3.94,9.8,9.8,0,0,1-.58,4,9.24,9.24,0,0,1-2.4,3.57,12.84,12.84,0,0,1-4.46,2.62A21.37,21.37,0,0,1,60,139.63l-1.11-5a11.57,11.57,0,0,0,4.62,0,8.81,8.81,0,0,0,3.37-1.46A4,4,0,0,0,68.47,131a2.39,2.39,0,0,0-.81-2.33,1.89,1.89,0,0,0-1.73-.44,14.5,14.5,0,0,0-2.48.72l-3,1.12a13.56,13.56,0,0,1-3.37.78,9.76,9.76,0,0,1-3.55-.32A8.21,8.21,0,0,1,50,128.35a11.16,11.16,0,0,1-2.88-4.2,9.71,9.71,0,0,1-.57-4.28,9.91,9.91,0,0,1,1.28-4,12.16,12.16,0,0,1,6.33-5.34,9.83,9.83,0,0,1,4.15-.61Z" style="fill:#fff"/><path d="M77.67,94.26l-4.31,3.68,17.29,20.24-5.56,4.75L67.8,102.69l-4.28,3.66-2.34-3.83L74.25,91.35Z" style="fill:#fff"/><path d="M114.12,100.72l-6.28,4.47-4.74-3.83L97,105.72l2.1,5.71L95.48,114,83.7,84.3,90,79.84ZM99.56,98.43,91,90.86l4.38,10.52Z" style="fill:#fff"/><path d="M117.47,68l-4.9,2.86,13.41,23-6.31,3.68-13.41-23L101.4,77.4l-1.63-4.19,14.85-8.66Z" style="fill:#fff"/><path d="M147.1,78.36l1.05,4.41L134,89.43l-13.23-28.1,12.67-6L136,59.08l-6.69,3.15,3,6.35,4.46-2.1,1.88,4-4.45,2.09,4.58,9.71Z" style="fill:#fff"/><path d="M162.47,52.82a11.35,11.35,0,0,0-4.26-1.29,8.31,8.31,0,0,0-3.56.38,4.33,4.33,0,0,0-2.23,1.66,2.72,2.72,0,0,0-.21,2.52,2.06,2.06,0,0,0,1.42,1.26,13.59,13.59,0,0,0,2.57.54l3.24.35a13.7,13.7,0,0,1,3.38.75,10.21,10.21,0,0,1,3,1.66,6.86,6.86,0,0,1,2.09,3.09,11.1,11.1,0,0,1,.65,4,11.44,11.44,0,0,1-.82,4,9.84,9.84,0,0,1-2.29,3.37,9.18,9.18,0,0,1-3.72,2.16,12.89,12.89,0,0,1-5.16.4A21.44,21.44,0,0,1,150,75.72l1.18-5a11.33,11.33,0,0,0,4.15,2A8.62,8.62,0,0,0,159,73a3.94,3.94,0,0,0,2.39-1.32,2.36,2.36,0,0,0,.29-2.44A1.89,1.89,0,0,0,160.31,68a14,14,0,0,0-2.54-.44l-3.2-.32a13.39,13.39,0,0,1-3.37-.78,9.76,9.76,0,0,1-3-1.83A8.37,8.37,0,0,1,146,61.2a11.17,11.17,0,0,1-.74-5,9.71,9.71,0,0,1,1.36-4.1,9.88,9.88,0,0,1,2.9-3,11.69,11.69,0,0,1,3.83-1.72,12.08,12.08,0,0,1,4.2-.31,9.79,9.79,0,0,1,4,1.27Z" style="fill:#fff"/><path d="M207.57,65.51l-7.77,1.62-1.66-1.46a9.63,9.63,0,0,1-2.28,2.06,11.28,11.28,0,0,1-3.79,1.4,9.84,9.84,0,0,1-7.83-1.44,8.82,8.82,0,0,1-2.35-2.37,7.49,7.49,0,0,1-1.15-2.61,23.8,23.8,0,0,1-.49-3.4,11.4,11.4,0,0,1,.26-3.22,14,14,0,0,1,1.34-3.48,32.79,32.79,0,0,1,2.75-4.2l-6.23-8,16.19-3.32,2.36,3.94-8.2,1.71ZM188,61.06a4.94,4.94,0,0,0,1.3,2.55,4.2,4.2,0,0,0,2.12,1.27,3.07,3.07,0,0,0,2.24-.4,4.12,4.12,0,0,0,1.7-2.37l-7-8.92a11.87,11.87,0,0,0-.69,3.31A15.36,15.36,0,0,0,188,61.06Z" style="fill:#fff"/><path d="M232.41,36.71l-5.66.42,2,26.54-7.29.55-2-26.55-5.61.42.38-4.47,17.14-1.28Z" style="fill:#fff"/><path d="M254.5,59l-1,4.42-15.64-.25.51-31,14,.22.63,4.45-7.39-.12-.12,7,4.92.08-.07,4.44-4.92-.08-.17,10.73Z" style="fill:#fff"/><path d="M280.52,45.94A11.62,11.62,0,0,1,280,48.2,12.51,12.51,0,0,1,279,50.6a11.28,11.28,0,0,1-1.7,2.25,9.59,9.59,0,0,1-2.44,1.76l3.14,11-8-.83-2.63-9.48-.92-.1-.95,9.11-7.23-.75,3.21-30.84,10.49,1.09a9.9,9.9,0,0,1,4.14,1.29,8.83,8.83,0,0,1,2.8,2.67,10,10,0,0,1,1.48,3.73A15,15,0,0,1,280.52,45.94Zm-13.6,4,1.67.17a3.23,3.23,0,0,0,1.7-.28,4.27,4.27,0,0,0,1.47-1.09,6.17,6.17,0,0,0,1.1-1.73,7.49,7.49,0,0,0,.56-2.2,7.35,7.35,0,0,0-.1-2.26,6.26,6.26,0,0,0-.71-1.92,4.41,4.41,0,0,0-1.22-1.38,3.26,3.26,0,0,0-1.6-.62l-1.68-.17Z" style="fill:#fff"/><path d="M307,51.18a11.33,11.33,0,0,1-.71,2.19,11.74,11.74,0,0,1-1.3,2.29A10.59,10.59,0,0,1,303,57.71a9,9,0,0,1-2.61,1.5l2,11.24-7.89-1.66-1.62-9.7-.91-.2-1.89,9L283,66.35,289.38,36l10.32,2.18a9.92,9.92,0,0,1,4,1.72,8.69,8.69,0,0,1,2.5,2.94,9.94,9.94,0,0,1,1.09,3.86A15.26,15.26,0,0,1,307,51.18ZM293,53.75l1.65.35a3.32,3.32,0,0,0,1.71-.1,4.37,4.37,0,0,0,1.58-.94,6.08,6.08,0,0,0,1.27-1.61,7.71,7.71,0,0,0,.93-4.39,6.77,6.77,0,0,0-.51-2,4.55,4.55,0,0,0-1.07-1.49,3.13,3.13,0,0,0-1.53-.79l-1.65-.35Z" style="fill:#fff"/><path d="M307.52,72l8.78-29.74,7,2.07-8.78,29.74Z" style="fill:#fff"/><path d="M344.79,56.6l-5.31-2-9.31,24.94L323.32,77l9.31-24.94-5.28-2,2.22-3.91,16.11,6Z" style="fill:#fff"/><path d="M361.18,59.33a8.62,8.62,0,0,1,3.44,3.05,12.2,12.2,0,0,1,1.8,4.62,17.23,17.23,0,0,1,0,5.56,19.85,19.85,0,0,1-1.85,5.88,20.06,20.06,0,0,1-3.48,5.1,17.25,17.25,0,0,1-4.4,3.41A12.27,12.27,0,0,1,352,88.39a8.61,8.61,0,0,1-8-3.89,12.27,12.27,0,0,1-1.8-4.62,17.5,17.5,0,0,1,0-5.56,21.08,21.08,0,0,1,5.34-11,17.21,17.21,0,0,1,4.39-3.41,12.36,12.36,0,0,1,4.74-1.44A8.66,8.66,0,0,1,361.18,59.33ZM349.44,83.49a1.77,1.77,0,0,0,1.63-.16,8.13,8.13,0,0,0,2.05-1.63,21.17,21.17,0,0,0,2.24-2.84,33,33,0,0,0,3.76-7.74,21.9,21.9,0,0,0,.84-3.5A8.66,8.66,0,0,0,360,65a1.79,1.79,0,0,0-.87-1.4,1.84,1.84,0,0,0-1.66.17,8.39,8.39,0,0,0-2.08,1.65,21.37,21.37,0,0,0-2.23,2.81A31.16,31.16,0,0,0,351,72a30.45,30.45,0,0,0-1.63,4,20.45,20.45,0,0,0-.84,3.51,7.67,7.67,0,0,0,0,2.63A1.84,1.84,0,0,0,349.44,83.49Z" style="fill:#fff"/><path d="M389.22,88.31a12,12,0,0,1-1.42,1.81,12.52,12.52,0,0,1-2,1.7,10.73,10.73,0,0,1-2.51,1.26,9,9,0,0,1-3,.51l-2,11.24-6.84-4.29,1.83-9.66-.79-.5-4.87,7.76-6.15-3.85L377.94,68l8.93,5.6a9.85,9.85,0,0,1,3.15,3,8.7,8.7,0,0,1,1.34,3.63,10,10,0,0,1-.31,4A14.93,14.93,0,0,1,389.22,88.31Zm-14-2.4,1.42.9a3.18,3.18,0,0,0,1.65.49,4.49,4.49,0,0,0,1.81-.33,6.45,6.45,0,0,0,1.74-1.07,7.84,7.84,0,0,0,2.38-3.8,6.62,6.62,0,0,0,.21-2,4.48,4.48,0,0,0-.49-1.77A3.33,3.33,0,0,0,382.8,77l-1.43-.89Z" style="fill:#fff"/><path d="M382.57,108,401,83.13l5.87,4.35-18.47,24.91Z" style="fill:#fff"/><path d="M408.38,123.21l-3.6,2.76-11.85-10.21,20.26-23.53,10.61,9.13-2.35,3.83-5.61-4.83-4.58,5.32,3.73,3.2-2.89,3.37L408.37,109l-7,8.13Z" style="fill:#fff"/><path d="M438.25,127.11a11.5,11.5,0,0,0-.56-4.42,8.4,8.4,0,0,0-1.8-3.1,4.21,4.21,0,0,0-2.43-1.35,2.7,2.7,0,0,0-2.38.82,2.09,2.09,0,0,0-.57,1.82,12.49,12.49,0,0,0,.56,2.57c.29,1,.62,2,1,3.1a14.38,14.38,0,0,1,.69,3.39,10.26,10.26,0,0,1-.3,3.4,6.8,6.8,0,0,1-2,3.17,11,11,0,0,1-3.39,2.23,11.37,11.37,0,0,1-4,.87,9.58,9.58,0,0,1-4-.72,9.31,9.31,0,0,1-3.49-2.52,12.79,12.79,0,0,1-2.47-4.54,21.34,21.34,0,0,1-.91-6.79l5-.94a11.33,11.33,0,0,0-.15,4.61,8.5,8.5,0,0,0,1.34,3.42,3.92,3.92,0,0,0,2.18,1.65,2.36,2.36,0,0,0,2.35-.73,1.86,1.86,0,0,0,.5-1.71,14.69,14.69,0,0,0-.62-2.51c-.32-.94-.66-2-1-3.05a12.74,12.74,0,0,1-.66-3.39,9.58,9.58,0,0,1,.44-3.54,8.28,8.28,0,0,1,2.26-3.42,11.27,11.27,0,0,1,4.3-2.72,9.7,9.7,0,0,1,4.3-.43,10,10,0,0,1,3.92,1.42,12.15,12.15,0,0,1,3.13,2.8,12.41,12.41,0,0,1,2,3.71,9.88,9.88,0,0,1,.47,4.17Z" style="fill:#fff"/></g></g></svg>