<svg xmlns="http://www.w3.org/2000/svg" xmlns:xlink="http://www.w3.org/1999/xlink" viewBox="0 0 1755.13 999.4"><defs><linearGradient id="fd81a4d4-8659-446b-b9cb-34408926bc9f" x1="431.53" y1="73.47" x2="1607.54" y2="73.47" gradientUnits="userSpaceOnUse"><stop offset="0" stop-color="#a56e29"/><stop offset="0.36" stop-color="#e5b450"/><stop offset="0.39" stop-color="#dfab4a"/><stop offset="0.58" stop-color="#c17e2a"/><stop offset="0.82" stop-color="#be9131"/><stop offset="1" stop-color="#bc9a34"/></linearGradient><linearGradient id="e8d3185b-73f6-4b0f-bb7d-dc52d825d9e9" x1="431.53" y1="93.97" x2="1607.54" y2="93.97" xlink:href="#fd81a4d4-8659-446b-b9cb-34408926bc9f"/><linearGradient id="a4830408-b3f4-4fca-8dbe-3c4af202d036" x1="431.53" y1="113.86" x2="1607.54" y2="113.86" xlink:href="#fd81a4d4-8659-446b-b9cb-34408926bc9f"/></defs><title>statesPanel</title><g id="adcafc26-53d2-47d6-a506-c61b9ac9e61c" data-name="Layer 2"><g id="a44833a3-f83e-4d41-9247-9c1b3dd2b26e" data-name="CAT - STATES"><rect width="1755.13" height="999.4" rx="42.86" style="fill:#281313"/><polygon points="38.38 160.72 38.38 29.23 387.49 29.23 415.65 95.82 387.49 160.72 38.38 160.72" style="fill:#9b393a"/><path d="M115.5,102.86v14.5c0,4-2.56,6.76-6.59,6.76H97.37a6.38,6.38,0,0,1-6.67-6.76v-43c0-4.2,2.72-6.84,6.67-6.84h11.54c4,0,6.59,2.64,6.59,6.84V88.61h-9.23V76.5c0-.49-.33-.9-.58-.9h-5.1c-.33,0-.58.41-.58.9v38.72c0,.5.25.82.58.82h5.1a.75.75,0,0,0,.58-.82V102.86Z" style="fill:#e0a8a9"/><path d="M148.05,123.62h-9.14V107.48h-6.59v16.14h-9.14V73.7a5.42,5.42,0,0,1,5.6-5.68h13.59a5.44,5.44,0,0,1,5.68,5.68Zm-9.14-23.8V77.33a1.15,1.15,0,0,0-1.15-1.24h-4.29a1.15,1.15,0,0,0-1.15,1.24V99.82Z" style="fill:#e0a8a9"/><path d="M171.1,76v47.61h-9.22V76h-7V68H178.1v8Z" style="fill:#e0a8a9"/><path d="M185.15,68h20.51v8h-11.2V91.66h9.14V99.4h-9.14v16.23h11.2v8H185.15Z" style="fill:#e0a8a9"/><path d="M220,124c-4.12,0-6.67-2.72-6.67-6.76V74.36c0-4.2,2.55-6.84,6.67-6.84h17.71v8.65h-14.5c-.24,0-.57.42-.57.91v37.56c0,.5.33.83.57.83h5.44c.41,0,.66-.33.66-.83V97.51h-3.13V89.68h14.17v7.83h-2.72v19.77a6.36,6.36,0,0,1-6.76,6.76Z" style="fill:#e0a8a9"/><path d="M267.66,67.52a5.5,5.5,0,0,1,5.69,5.69v45.14a5.5,5.5,0,0,1-5.69,5.69H253.41a5.45,5.45,0,0,1-5.68-5.69V73.21a5.45,5.45,0,0,1,5.68-5.69ZM264,76.17c0-.49-.33-.9-.5-.9h-6.09c-.41,0-.41.57-.41.9V115.3c0,.25.08.74.41.74h6.09a.75.75,0,0,0,.5-.74Z" style="fill:#e0a8a9"/><path d="M294.59,105.09h-3.13v18.53h-9.31V68h18.7c4.12,0,6.67,2.72,6.67,6.84V98.25c0,3.21-1.56,5.52-4.11,6.43l4.2,18.94h-9.15Zm3.87-28.26c0-.41-.33-.82-.57-.82h-6.43V97.43h6.43c.24,0,.57-.41.57-.74Z" style="fill:#e0a8a9"/><path d="M332.46,106.49v17.13h-9.14V106.49H322c-4.12,0-6.76-2.55-6.76-6.59V68h9.23V97.67a.9.9,0,0,0,.66.83H331c.33,0,.33-.41.33-.83V68h9.22V99.9c0,4-2.63,6.59-6.83,6.59Z" style="fill:#e0a8a9"/><g style="opacity:0.25"><line x1="434.03" y1="73.47" x2="1605.04" y2="73.47" style="fill:none;stroke-linecap:round;stroke-miterlimit:10;stroke-width:5px;stroke:url(#fd81a4d4-8659-446b-b9cb-34408926bc9f)"/><line x1="434.03" y1="93.97" x2="1605.04" y2="93.97" style="fill:none;stroke-linecap:round;stroke-miterlimit:10;stroke-width:5px;stroke:url(#e8d3185b-73f6-4b0f-bb7d-dc52d825d9e9)"/><line x1="434.03" y1="113.86" x2="1605.04" y2="113.86" style="fill:none;stroke-linecap:round;stroke-miterlimit:10;stroke-width:5px;stroke:url(#a4830408-b3f4-4fca-8dbe-3c4af202d036)"/></g><rect x="478.95" y="44.23" width="825.49" height="101.5" style="fill:#281313"/><path d="M530.33,81.37a22.54,22.54,0,0,0-7-4.36,19.4,19.4,0,0,0-6.81-1.4,9.47,9.47,0,0,0-5.21,1.33,4.17,4.17,0,0,0-2.08,3.73A3.3,3.3,0,0,0,511,83.4a26.8,26.8,0,0,0,4.38,2.26q2.6,1.08,5.73,2.33a28.57,28.57,0,0,1,5.72,3,18.12,18.12,0,0,1,4.39,4.2,9.76,9.76,0,0,1,1.78,5.92,15.23,15.23,0,0,1-1.48,6.5,18,18,0,0,1-4.16,5.65,19.24,19.24,0,0,1-6.47,3.89,21.46,21.46,0,0,1-8.29,1.25,29.31,29.31,0,0,1-9.76-2.26,42.48,42.48,0,0,1-10.81-6.62l5.47-6.93a20.49,20.49,0,0,0,6.29,5.41,18.89,18.89,0,0,0,6.64,2.3,9.1,9.1,0,0,0,5.3-.7,3.73,3.73,0,0,0,2.17-3.58,3,3,0,0,0-1.74-2.53,30.1,30.1,0,0,0-4.38-2.11l-5.69-2.25a27.34,27.34,0,0,1-5.68-3.08,16.51,16.51,0,0,1-4.38-4.52A11.63,11.63,0,0,1,494.31,85a15.63,15.63,0,0,1,2-8.13,16.64,16.64,0,0,1,5.25-5.53,21,21,0,0,1,7.33-3,28.26,28.26,0,0,1,8.2-.51A28,28,0,0,1,525,69.73a19.32,19.32,0,0,1,6.51,4.17Z" style="fill:#fff"/><path d="M574.93,75.38h-11.1v43.45H549.51V75.38h-11l1.39-7.24h33.68Z" style="fill:#fff"/><path d="M621.45,118.83h-15.1l-3.21-9.58H588.38l-3.12,9.58h-8.59l14.84-50.62h15.1ZM600.8,102l-5-18.14-5,18.14Z" style="fill:#fff"/><path d="M659.64,75.38H648.53v43.45H634.21V75.38h-11l1.38-7.24h33.68Z" style="fill:#fff"/><path d="M699.9,111.59l-1.82,7.24H667.45V68.14h27.42l1.39,7.24H681.77V86.82h9.63v7.25h-9.63v17.52Z" style="fill:#fff"/><path d="M743.12,81.37a22.38,22.38,0,0,0-7-4.36,19.4,19.4,0,0,0-6.81-1.4,9.47,9.47,0,0,0-5.21,1.33A4.17,4.17,0,0,0,722,80.67a3.3,3.3,0,0,0,1.77,2.73,27.35,27.35,0,0,0,4.39,2.26q2.59,1.08,5.73,2.33a28.57,28.57,0,0,1,5.72,3,18.12,18.12,0,0,1,4.39,4.2,9.75,9.75,0,0,1,1.77,5.92,15.22,15.22,0,0,1-1.47,6.5,18.06,18.06,0,0,1-4.17,5.65,19.19,19.19,0,0,1-6.46,3.89,21.46,21.46,0,0,1-8.29,1.25,29.31,29.31,0,0,1-9.76-2.26,42.31,42.31,0,0,1-10.81-6.62l5.47-6.93a20.49,20.49,0,0,0,6.29,5.41,18.83,18.83,0,0,0,6.64,2.3,9.07,9.07,0,0,0,5.29-.7,3.72,3.72,0,0,0,2.17-3.58,3,3,0,0,0-1.73-2.53,30.1,30.1,0,0,0-4.38-2.11l-5.69-2.25a27.09,27.09,0,0,1-5.68-3.08,16.69,16.69,0,0,1-4.39-4.52A11.71,11.71,0,0,1,707.11,85a15.73,15.73,0,0,1,2-8.13,16.74,16.74,0,0,1,5.25-5.53,21.05,21.05,0,0,1,7.34-3,28,28,0,0,1,16.14,1.36,19.32,19.32,0,0,1,6.51,4.17Z" style="fill:#fff"/><path d="M818.71,118.83H803.18L800.57,116a20.28,20.28,0,0,1-5.2,2.53,25.9,25.9,0,0,1-7.81,1,23.36,23.36,0,0,1-8.46-1.4,19.7,19.7,0,0,1-6-3.51,14.39,14.39,0,0,1-3.56-4.55,10.66,10.66,0,0,1-1.17-4.56,33.62,33.62,0,0,1,.43-5.6,16.21,16.21,0,0,1,1.78-5.06,22.56,22.56,0,0,1,3.95-5.1,60.71,60.71,0,0,1,6.94-5.8l-8.76-14.8,32.37.08L808,76.23h-16.4ZM783,105.2a7.31,7.31,0,0,0,1.47,4.52,8,8,0,0,0,3.56,2.72,7.08,7.08,0,0,0,4.47.12,7.78,7.78,0,0,0,4.21-3.23l-9.89-16.59a18.41,18.41,0,0,0-2.65,5.06A21.48,21.48,0,0,0,783,105.2Z" style="fill:#fff"/><path d="M871.74,75.38H860.63v43.45H846.31V75.38h-11l1.39-7.24h33.67Z" style="fill:#fff"/><path d="M912,111.59l-1.83,7.24H879.55V68.14H907l1.39,7.24H893.87V86.82h9.63v7.25h-9.63v17.52Z" style="fill:#fff"/><path d="M959.39,86.51a16.25,16.25,0,0,1-.48,3.74,17.21,17.21,0,0,1-1.56,4.09,17.86,17.86,0,0,1-2.86,3.93,17.28,17.28,0,0,1-4.38,3.27l8.33,17.29h-15.8l-7-15h-1.82v15H919.56V68.21h20.65a22.53,22.53,0,0,1,8.33,1.41,17,17,0,0,1,6,3.85,15.84,15.84,0,0,1,3.65,5.8A21.08,21.08,0,0,1,959.39,86.51Zm-25.69,8.8H937a7.28,7.28,0,0,0,3.26-.74,8.38,8.38,0,0,0,2.64-2,9.78,9.78,0,0,0,1.78-3,10.63,10.63,0,0,0,0-7.32,9.78,9.78,0,0,0-1.78-3,8.38,8.38,0,0,0-2.64-2,7.28,7.28,0,0,0-3.26-.74h-3.3Z" style="fill:#fff"/><path d="M1007.38,86.51a16.77,16.77,0,0,1-.47,3.74,17.25,17.25,0,0,1-1.57,4.09,17.55,17.55,0,0,1-2.86,3.93,17.28,17.28,0,0,1-4.38,3.27l8.33,17.29h-15.8l-7-15h-1.82v15H967.55V68.21H988.2a22.62,22.62,0,0,1,8.34,1.41,17,17,0,0,1,6,3.85,15.84,15.84,0,0,1,3.65,5.8A21.08,21.08,0,0,1,1007.38,86.51Zm-25.68,8.8H985a7.28,7.28,0,0,0,3.26-.74,8.38,8.38,0,0,0,2.64-2,9.58,9.58,0,0,0,1.78-3,10.63,10.63,0,0,0,0-7.32,9.58,9.58,0,0,0-1.78-3,8.38,8.38,0,0,0-2.64-2,7.28,7.28,0,0,0-3.26-.74H981.7Z" style="fill:#fff"/><path d="M1015.54,118.83V68.21h14.32v50.62Z" style="fill:#fff"/><path d="M1075,75.38h-11.11v43.45h-14.32V75.38h-11l1.39-7.24h33.67Z" style="fill:#fff"/><path d="M1100.94,68.21a19.29,19.29,0,0,1,8.68,2,22.87,22.87,0,0,1,7.11,5.49,26.47,26.47,0,0,1,4.82,8.14,28.78,28.78,0,0,1,0,19.93,26.59,26.59,0,0,1-4.82,8.14,22.87,22.87,0,0,1-7.11,5.49,19.85,19.85,0,0,1-17.45,0,22.87,22.87,0,0,1-7.11-5.49,26.59,26.59,0,0,1-4.82-8.14,28.78,28.78,0,0,1,0-19.93,26.47,26.47,0,0,1,4.82-8.14,22.87,22.87,0,0,1,7.11-5.49A19.45,19.45,0,0,1,1100.94,68.21Zm0,43.84a3.64,3.64,0,0,0,2.73-1.4,12.39,12.39,0,0,0,2.21-3.85,29.26,29.26,0,0,0,1.52-5.76A41.6,41.6,0,0,0,1108,94a40.87,40.87,0,0,0-.57-7,29,29,0,0,0-1.52-5.72,12.94,12.94,0,0,0-2.21-3.9,3.62,3.62,0,0,0-2.73-1.44,3.75,3.75,0,0,0-2.78,1.44,12.57,12.57,0,0,0-2.26,3.9,29.75,29.75,0,0,0-1.51,5.72,40.87,40.87,0,0,0-.57,7,41.6,41.6,0,0,0,.57,7.05,30,30,0,0,0,1.51,5.76,12,12,0,0,0,2.26,3.85A3.76,3.76,0,0,0,1100.94,112.05Z" style="fill:#fff"/><path d="M1170.8,86.51a16.25,16.25,0,0,1-.48,3.74,17.65,17.65,0,0,1-1.56,4.09,17.86,17.86,0,0,1-2.86,3.93,17.16,17.16,0,0,1-4.39,3.27l8.34,17.29h-15.8l-7-15h-1.82v15H1131V68.21h20.65a22.53,22.53,0,0,1,8.33,1.41,17,17,0,0,1,6,3.85,15.84,15.84,0,0,1,3.65,5.8A21.32,21.32,0,0,1,1170.8,86.51Zm-25.69,8.8h3.3a7.21,7.21,0,0,0,3.25-.74,8.31,8.31,0,0,0,2.65-2,9.78,9.78,0,0,0,1.78-3,10.63,10.63,0,0,0,0-7.32,9.78,9.78,0,0,0-1.78-3,8.31,8.31,0,0,0-2.65-2,7.21,7.21,0,0,0-3.25-.74h-3.3Z" style="fill:#fff"/><path d="M1179,118.83V68.21h14.32v50.62Z" style="fill:#fff"/><path d="M1235.28,111.59l-1.82,7.24h-30.64V68.14h27.43l1.39,7.24h-14.5V86.82h9.64v7.25h-9.64v17.52Z" style="fill:#fff"/><path d="M1278.5,81.37a22.61,22.61,0,0,0-7-4.36,19.45,19.45,0,0,0-6.82-1.4,9.49,9.49,0,0,0-5.21,1.33,4.19,4.19,0,0,0-2.08,3.73,3.3,3.3,0,0,0,1.78,2.73,27.65,27.65,0,0,0,4.38,2.26q2.61,1.08,5.73,2.33a28.93,28.93,0,0,1,5.73,3,17.9,17.9,0,0,1,4.38,4.2,9.69,9.69,0,0,1,1.78,5.92,15.22,15.22,0,0,1-1.47,6.5,18.21,18.21,0,0,1-4.17,5.65,19.14,19.14,0,0,1-6.47,3.89,21.41,21.41,0,0,1-8.28,1.25,29.36,29.36,0,0,1-9.77-2.26,42.27,42.27,0,0,1-10.8-6.62l5.47-6.93A20.37,20.37,0,0,0,1252,108a18.83,18.83,0,0,0,6.64,2.3,9.08,9.08,0,0,0,5.29-.7,3.72,3.72,0,0,0,2.17-3.58,3,3,0,0,0-1.73-2.53,29.76,29.76,0,0,0-4.39-2.11l-5.68-2.25a27.42,27.42,0,0,1-5.69-3.08,16.81,16.81,0,0,1-4.38-4.52,11.63,11.63,0,0,1-1.74-6.54,15.73,15.73,0,0,1,2-8.13,16.64,16.64,0,0,1,5.25-5.53,21.08,21.08,0,0,1,7.33-3,28,28,0,0,1,16.15,1.36,19.51,19.51,0,0,1,6.51,4.17Z" style="fill:#fff"/></g></g></svg>