<?xml version="1.0" encoding="utf-8"?>
<!-- Generator: Adobe Illustrator 23.0.3, SVG Export Plug-In . SVG Version: 6.00 Build 0)  -->
<svg version="1.1" id="Layer_1" 
	xmlns="http://www.w3.org/2000/svg" 
	xmlns:xlink="http://www.w3.org/1999/xlink" x="0px" y="0px" viewBox="0 0 688.9 1088.7" style="enable-background:new 0 0 688.9 1088.7;" xml:space="preserve">
	<style type="text/css">
	.st0{fill:url(#SVGID_1_);}
	.st1{fill:#8A5A1C;}
	.st2{fill:url(#SVGID_2_);}
	.st3{fill:#899396;}
	.st4{fill:#D1D6DA;}
	.st5{fill:none;stroke:#C1C7C9;stroke-width:4.0402;stroke-miterlimit:10;}
	.st6{opacity:0.37;}
	.st7{fill:#613F14;}
	.st8{fill:#C1C7C9;}
	.st9{fill:#546070;}
	.st10{fill:url(#SVGID_3_);}
	</style>
	<g id="Layer_4">

		<linearGradient id="SVGID_1_" gradientUnits="userSpaceOnUse" x1="176.8142" y1="929.4478" x2="655.697" y2="370.1931" gradientTransform="matrix(1 0 0 -1 0 1088)">
			<stop offset="3.513558e-04" style="stop-color:#B17425"/>
			<stop offset="0.3102" style="stop-color:#DEAF4E"/>
			<stop offset="0.325" style="stop-color:#DCAB4B"/>
			<stop offset="0.5007" style="stop-color:#C27E28"/>
			<stop offset="0.6042" style="stop-color:#D49E34"/>
			<stop offset="0.7034" style="stop-color:#E1B63D"/>
			<stop offset="0.7644" style="stop-color:#E6BF40"/>
		</linearGradient>
		<rect x="149.2" y="235.9" class="st0" width="387.3" height="233.3"/>
		<rect x="178.2" y="451" class="st1" width="332.5" height="8.3"/>

		<linearGradient id="SVGID_2_" gradientUnits="userSpaceOnUse" x1="173.3723" y1="488.967" x2="579.697" y2="60.3168" gradientTransform="matrix(1 0 0 -1 0 1088)">
			<stop offset="3.513558e-04" style="stop-color:#B17425"/>
			<stop offset="0.3102" style="stop-color:#DEAF4E"/>
			<stop offset="0.325" style="stop-color:#DCAB4B"/>
			<stop offset="0.5007" style="stop-color:#C27E28"/>
			<stop offset="0.6042" style="stop-color:#D49E34"/>
			<stop offset="0.7034" style="stop-color:#E1B63D"/>
			<stop offset="0.7644" style="stop-color:#E6BF40"/>
		</linearGradient>
		<circle class="st2" cx="344.4" cy="779.5" r="176.4"/>
		<g>
			<path class="st3" d="M344.5,1046.1c-5.4,0-10.4-3.2-12.6-8.2c-2.2-4.9-5.3-10.1-9.1-15.3l-0.1-0.1l-0.1-0.1
			c-0.8-0.8-1.5-1.6-2-2.5l-0.1-0.1c-0.5-0.7-5.1-6.9-17-14.3c-12.3-7.6-34.9-18-72.9-24.3c-89.3-14.7-119.6-66.9-118.2-110.9
			c0.6-19.9,6.7-33.5,11.6-41.4l0.5-0.8l-0.3-0.9c-2-6.5-5.6-15.2-11.1-20.4c-0.6-0.6-1.3-1.1-1.8-1.5l-1.1-0.8l-1.1,0.7
			c-2,1.2-4.3,1.8-6.7,1.8c-1.1,0-2.2-0.1-3.2-0.4c-4.6-1.2-8.2-4.9-9.4-9.6c-2.5-10.3-2.9-30.8,11.5-41.8c6.5-5,14.1-7.6,22-7.6
			c1.6,0,3.2,0.1,4.8,0.3l2,0.3l0.3-2c1.4-9.2,3.4-18.4,5.9-27.3l0.1-0.5l-0.1-0.5c-0.6-3.1-5.1-31.8,14.9-68.2l1.1-2.1l-2.3-0.8
			c-6.6-2.2-12.7-6.4-18.1-12.4c-10.6-11.7-13.3-27.5-7.3-42.3l1-2.5l-2.5-0.4c-2-0.3-3.9-1-5.5-2.2c-4.4-3.1-6.5-8.4-5.2-13.7
			c0.2-1,2.6-10.2,11.8-18.5l2.3-2.1l-2.9-1.2c-43.1-18-64.9-42.8-74.1-56C15.5,447,28.3,409.2,38.9,391.1l0.1-0.2l0.1-0.2
			c0.3-1.1,0.8-2.1,1.3-3c6.8-11.1,7.7-17.4,7.6-20.1l0-0.9l-0.7-0.6c-2.6-2.3-4.2-5.6-4.3-9.1c-0.2-4.6,2.2-9.1,6.3-11.6
			c1.3-0.8,6-3.5,12.2-4.6c1.7-0.3,3.4-0.5,5.1-0.5c7.9,0,14.9,3.4,19.7,9.6l0.9,1.1l1.4-0.5c0.8-0.3,1.6-0.5,2.3-0.8l1.7-0.5
			l-0.3-1.8c-0.3-1.8-1.3-4.1-2.8-7.5c-1.6-3.6-4-9-4.2-14.9c-0.2-4.6,0.9-8.8,3.4-12.4l4.5-6.5l-7,3.6c-0.3,0.2-0.7,0.3-1,0.5
			c-1.5,0.6-3.2,0.9-4.8,0.9c-4.4,0-8.4-2.1-10.8-5.8c-0.6-0.9-15-22.9,0.1-42.9c2.7-3.5,6.2-6.5,10.4-8.7l2.5-1.3l-2.1-1.9
			c-2.2-2-3.6-4.7-4.1-7.6c-0.4-2.4-1.8-15.1,7.2-24.1c3.4-3.4,9.4-7.4,19.3-7.4c1.9,0,3.9,0.1,5.9,0.4c6.6,0.9,12.5,3.8,17.5,8.4
			l0.9,0.9l1.2-0.5c1.8-0.8,3.7-1.1,5.7-1.1h5.6v-5.6c0-8.3,6.7-15,15-15h12.5l-5.1-19.8c-0.8-3.3-0.3-6.7,1.4-9.6
			c1.9-3.1,5-5.4,8.7-6.4c20.2-5.1,41-9.3,61.7-12.5l1.9-0.3l-0.3-1.9c-0.4-2.6,0-5.1,1.2-7.5c1.5-3.1,4.2-5.5,7.4-6.6
			c1.4-0.5,2.8-0.7,4.2-0.7c5.6,0,10.5,3.5,12.3,8.8l1.5,4.5l1.6-0.2c1.8-0.2,3.7-0.4,5.5-0.6l2.2-0.2l-3.8-17.4
			c-1.5-7,2.9-14,9.9-15.5c0.9-0.2,1.9-0.3,2.8-0.3c2.5,0,4.9,0.7,7,2.1c2.9,1.9,5,4.8,5.7,8.2l4.6,20.8l3.6-0.2l2.1-0.1l-3.9-37.3
			c-0.8-7.1,4.4-13.6,11.6-14.3c0.5-0.1,0.9-0.1,1.4-0.1c3,0,5.8,1,8.2,2.9c2.7,2.2,4.4,5.3,4.8,8.8l2.1,19.7l4-0.2V72.1
			c0-7.2,5.8-13,13-13c7.2,0,13,5.8,13,13v50.4l4,0.2l2.1-19.7c0.4-3.5,2-6.6,4.8-8.8c2.3-1.9,5.2-2.9,8.2-2.9c0.3,0,0.6,0,1,0
			l0.5,0c7.1,0.8,12.3,7.2,11.5,14.3l-3.9,37.3l5.7,0.4l4.6-20.8c0.8-3.4,2.8-6.3,5.7-8.2c2.1-1.3,4.5-2.1,7-2.1
			c1,0,1.9,0.1,2.8,0.3c7,1.6,11.4,8.5,9.9,15.5l-3.8,17.4l2.2,0.2c1.8,0.2,3.7,0.4,5.5,0.6l1.6,0.2l1.5-4.5
			c1.1-3.3,3.5-5.9,6.6-7.4c1.8-0.9,3.7-1.3,5.7-1.3c1.5,0,2.9,0.2,4.3,0.7c3.3,1.1,5.9,3.5,7.4,6.6c1.1,2.4,1.5,4.9,1.2,7.5
			l-0.3,1.9l2,0.3c20.7,3.3,41.5,7.5,61.7,12.5c3.6,0.9,6.8,3.2,8.7,6.4c1.8,3,2.3,6.4,1.4,9.6l-5.1,19.8h12.5c8.3,0,15,6.7,15,15
			v5.6h5.6c2,0,3.9,0.4,5.7,1.1l1.2,0.5l0.9-0.9c5.1-4.6,11-7.5,17.5-8.4c2-0.3,4-0.4,5.9-0.4c9.9,0,16,4,19.3,7.4
			c9,9.1,7.6,21.7,7.2,24.2c-0.4,2.9-1.9,5.6-4.1,7.6l-2.1,1.9l2.5,1.3c4.2,2.2,7.7,5.1,10.4,8.7c15.1,20,0.7,42,0.1,42.9
			c-2.4,3.6-6.5,5.8-10.8,5.8c-1.7,0-3.3-0.3-4.8-0.9c-0.3-0.1-0.7-0.3-1-0.4l-6.9-3.5l4.4,6.4c6.8,9.9,1.4,22-0.9,27.3
			c-1.5,3.4-2.4,5.7-2.8,7.5l-0.3,1.8l1.7,0.5c0.8,0.2,1.6,0.5,2.3,0.8l1.4,0.5l0.9-1.1c4.8-6.2,11.8-9.6,19.7-9.6
			c1.7,0,3.4,0.1,5.1,0.5c6.2,1.1,10.9,3.8,12.2,4.6c4.1,2.5,6.5,7,6.3,11.6c-0.2,3.5-1.8,6.9-4.3,9.2l-0.7,0.6l0,0.9
			c0,2.8,0.9,9.1,7.7,20.1c0.6,1,1,2,1.3,3l0.1,0.2l0.1,0.2c10.6,18.2,23.3,55.9-10.5,104.7c-9.2,13.2-31,38-74.1,56l-2.9,1.2
			l2.3,2.1c9.2,8.3,11.5,17.5,11.8,18.5c1.2,5.2-0.8,10.6-5.2,13.7c-1.7,1.2-3.5,1.9-5.5,2.2l-2.6,0.4l1,2.5
			c6,14.8,3.2,30.7-7.3,42.3c-5.5,6-11.5,10.2-18.1,12.4l-2.3,0.8l1.2,2.1c20.1,36.5,15.5,65.1,14.9,68.2l-0.1,0.5l0.1,0.5
			c2.5,8.9,4.5,18.1,5.9,27.3l0.3,2l2-0.3c1.6-0.2,3.2-0.3,4.8-0.3c7.9,0,15.5,2.6,22,7.6c14.4,11,14,31.4,11.5,41.8
			c-1.1,4.7-4.7,8.3-9.4,9.5c-1,0.3-2.1,0.4-3.2,0.4c-2.3,0-4.7-0.6-6.7-1.8l-1.1-0.7l-1.1,0.8c-0.6,0.4-1.2,1-1.9,1.6
			c-5.5,5.2-9,14-11,20.4l-0.3,0.9l0.5,0.8c5,7.9,11,21.4,11.6,41.4c1.4,44-29,96.3-118.2,110.9c-38,6.2-60.6,16.6-72.9,24.3
			c-11.8,7.3-16.5,13.6-17,14.3l-0.1,0.1c-0.5,0.9-1.2,1.7-2,2.5l-0.1,0.1l-0.1,0.1c-3.8,5.2-6.9,10.3-9.1,15.3
			C354.8,1042.9,349.9,1046.1,344.5,1046.1z M264.9,621.7c-16.4,8.4-31.4,19.3-44.6,32.5c-33.2,33.2-51.4,77.3-51.4,124.2
			s18.3,91,51.4,124.2c33.2,33.2,77.3,51.5,124.2,51.5c46.9,0,91-18.3,124.2-51.5c33.2-33.2,51.5-77.3,51.5-124.2
			s-18.3-91-51.5-124.2c-13.2-13.2-28.2-24.1-44.6-32.5l-1.9-1l-0.8,2c-27.2,65-74.5,71.6-76.5,71.8c-0.1,0-0.2,0-0.3,0
			s-0.2,0-0.3,0c-2-0.3-49.4-6.9-76.5-71.8l-0.8-2L264.9,621.7z M154.6,367l0.8,0.6c1.2,0.9,2.2,1.7,3.1,2.5
			c14.5,12.4,23.5,32.5,24.1,53.8c0.5,17.1,12.3,26.5,12.8,26.8c0.5,0.4,0.8,1,0.8,1.6s-0.3,1.2-0.9,1.6c-1.7,1.2-3.9,2.5-6.3,3.6
			l-7.5,3.8h325.6l-7.5-3.8c-2.4-1.2-4.6-2.5-6.3-3.6c-0.5-0.4-0.8-1-0.9-1.6s0.3-1.3,0.8-1.6c0.5-0.4,12.3-9.8,12.8-26.8
			c0.6-21.3,9.6-41.4,24.1-53.8c0.9-0.8,1.9-1.5,3.1-2.5l0.8-0.6V234.4h-33l-6.1,23.8c-0.2,0.9-1,1.5-2,1.5c-0.2,0-0.4,0-0.5-0.1
			c-48.4-12.1-98.3-18.2-148.2-18.2c-49.9,0-99.8,6.1-148.2,18.2c-0.2,0-0.4,0.1-0.5,0.1c-0.9,0-1.8-0.6-2-1.5l-6.1-23.8h-33
			L154.6,367L154.6,367z"/>
			<path class="st4" d="M344.5,61.1c6.1,0,11,4.9,11,11v50.4l8,0.4l2.1-19.7c0.3-2.9,1.7-5.6,4-7.4c2-1.6,4.4-2.4,6.9-2.4
			c0.3,0,0.5,0,0.8,0l0.4,0c6,0.7,10.4,6.1,9.8,12.1l-3.7,35.3l-0.4,4.2l4.2,0.3c0.6,0,1.3,0.1,1.9,0.1l3.4,0.2l0.7-3.4l4.2-19.1
			c0.6-2.9,2.4-5.3,4.8-6.9c1.8-1.1,3.8-1.7,5.9-1.7c0.8,0,1.6,0.1,2.4,0.3c5.9,1.3,9.7,7.2,8.4,13.1l-3.4,15.2l-1,4.4l4.5,0.5
			c1.8,0.2,3.6,0.4,5.5,0.6l3.2,0.4l1-3l1-2.9c1-2.8,3-5,5.6-6.3c1.5-0.7,3.1-1.1,4.8-1.1c1.2,0,2.4,0.2,3.6,0.6
			c2.8,1,5,2.9,6.3,5.6c1,2,1.3,4.2,1,6.3l-0.6,3.9l3.9,0.6c20.7,3.3,41.4,7.5,61.6,12.5c3.1,0.8,5.8,2.8,7.4,5.4
			c1.5,2.5,1.9,5.4,1.2,8.1l-4.4,17.3l-1.3,5h5.2h9.9c7.2,0,13,5.8,13,13v3.6v4h4h3.6c1.7,0,3.4,0.3,4.9,1l2.3,1l1.9-1.7
			c4.8-4.4,10.3-7,16.5-7.9c2-0.3,3.8-0.4,5.7-0.4c9.2,0,14.8,3.7,17.9,6.8c8.3,8.4,7,20.2,6.6,22.5c-0.4,2.4-1.6,4.7-3.5,6.4
			l-4.2,3.8l5,2.6c3.9,2.1,7.2,4.8,9.7,8.1c14.3,18.9,0.6,39.7,0,40.6c-2,3-5.5,4.9-9.2,4.9c-1.4,0-2.8-0.3-4.1-0.8
			c-0.3-0.1-0.5-0.2-0.8-0.4l-13.9-7l8.8,12.8c6.1,9,1.3,20-1.1,25.3c-1.6,3.5-2.5,6-2.9,7.9l-0.7,3.5l3.4,1.1
			c0.8,0.2,1.5,0.5,2.3,0.8l2.7,0.9l1.8-2.3c4.4-5.7,10.8-8.9,18.1-8.9c1.5,0,3.1,0.1,4.7,0.4c5.9,1,10.3,3.6,11.5,4.3
			c3.5,2.1,5.5,5.9,5.3,9.8c-0.1,3-1.5,5.8-3.7,7.8l-1.3,1.2l0,1.8c0,3,1,9.7,8,21.2c0.5,0.8,0.9,1.6,1.1,2.5l0.1,0.5l0.2,0.4
			c5,8.5,10.9,22.3,11.2,40c0.3,20.4-7,41.5-21.6,62.5c-9,13-30.5,37.5-73.2,55.2l-5.8,2.4l4.7,4.2c8.7,7.9,10.9,16.5,11.2,17.5
			c1,4.4-0.7,9-4.4,11.6c-1.4,1-3,1.6-4.7,1.9l-5.1,0.8l2,4.8c5.7,14.1,3.1,29.2-7,40.2c-5.2,5.8-11,9.8-17.3,11.8l-4.5,1.5l2.3,4.2
			c7.1,13,11.9,26.5,14.2,40.1c2.4,14.2,1.2,23.5,0.5,26.8l-0.2,0.9l0.3,0.9c2.5,8.8,4.5,17.9,5.9,27.1l0.6,3.9l3.9-0.5
			c1.5-0.2,3-0.3,4.5-0.3c7.4,0,14.6,2.5,20.8,7.2c13.6,10.4,13.2,29.8,10.8,39.7c-1,4-4,7.1-8,8.1c-0.9,0.2-1.8,0.3-2.7,0.3
			c-2,0-3.9-0.5-5.6-1.5l-2.3-1.3l-2.1,1.5c-0.7,0.5-1.3,1.1-2,1.7c-5.8,5.5-9.5,14.6-11.6,21.3l-0.5,1.8l1,1.6
			c4.8,7.7,10.7,20.9,11.3,40.3c0.7,23.7-7.9,46.7-24.4,64.9c-9.6,10.5-21.7,19.5-36.1,26.7c-16,8-34.8,13.8-56,17.2
			c-38.3,6.3-61.2,16.8-73.6,24.5c-11.9,7.4-16.7,13.6-17.6,14.8l-0.1,0.1l-0.1,0.1c-0.5,0.8-1,1.5-1.7,2.1l-0.3,0.2l-0.2,0.3
			c-3.9,5.3-7.1,10.6-9.3,15.7c-1.9,4.3-6.1,7-10.8,7s-8.9-2.8-10.8-7c-2.3-5.1-5.4-10.3-9.3-15.6l-0.2-0.3l-0.3-0.2
			c-0.7-0.6-1.3-1.3-1.7-2.1l-0.1-0.1l-0.1-0.1c-0.8-1.2-5.6-7.4-17.5-14.8c-12.5-7.7-35.3-18.2-73.6-24.5
			c-88-14.5-117.9-65.7-116.6-108.9c0.6-19.5,6.5-32.7,11.3-40.4l1-1.6l-0.6-1.8c-2.1-6.7-5.8-15.8-11.6-21.3
			c-0.7-0.7-1.4-1.2-2-1.7l-2.1-1.5l-2.3,1.3c-1.7,1-3.7,1.6-5.7,1.6c-0.9,0-1.8-0.1-2.7-0.3c-3.9-1-7-4.1-7.9-8.1
			c-2.4-9.9-2.8-29.4,10.8-39.7c6.2-4.7,13.3-7.2,20.8-7.2c1.5,0,3,0.1,4.5,0.3l3.9,0.5l0.6-3.9c1.4-9.1,3.3-18.2,5.9-27.1l0.3-0.9
			l-0.2-0.9c-0.6-3.3-1.8-12.7,0.6-26.8c2.3-13.6,7.1-27.1,14.2-40.1l2.3-4.2l-4.5-1.5c-6.3-2.1-12.1-6.1-17.3-11.8
			c-10-11.1-12.6-26.1-6.9-40.2l0-0.1l2-4.7l-5.1-0.8c-1.7-0.3-3.3-0.9-4.7-1.9c-3.7-2.6-5.5-7.1-4.4-11.5c0.2-1,2.5-9.5,11.2-17.5
			l4.6-4.2l-5.8-2.4c-42.7-17.8-64.2-42.2-73.2-55.2c-14.7-21.1-21.9-42.1-21.6-62.5c0.3-17.7,6.2-31.5,11.2-40l0.2-0.4l0.1-0.5
			c0.3-0.9,0.7-1.8,1.1-2.6c7-11.5,8-18.2,7.9-21.2l0-1.8l-1.3-1.2c-2.2-1.9-3.5-4.8-3.7-7.7c-0.2-3.9,1.9-7.7,5.3-9.8
			c1.2-0.8,5.6-3.3,11.5-4.3c1.6-0.3,3.2-0.4,4.7-0.4c7.3,0,13.7,3.1,18.1,8.9l1.8,2.3l2.7-0.9c0.8-0.3,1.5-0.5,2.3-0.8l3.4-1.1
			l-0.7-3.5c-0.4-2-1.4-4.4-2.9-7.9c-1.5-3.5-3.8-8.7-4.1-14.2c-0.2-4.2,0.8-7.9,3.1-11.1l8.9-13l-14,7.1c-0.3,0.1-0.6,0.3-0.8,0.4
			c-1.3,0.5-2.7,0.8-4.1,0.8c-3.7,0-7.1-1.8-9.2-4.9c-0.6-0.9-14.3-21.7,0-40.6c2.5-3.3,5.8-6,9.7-8.1l5-2.6l-4.2-3.8
			c-1.8-1.7-3.1-4-3.4-6.4c-0.3-2.3-1.7-14,6.6-22.4c3.1-3.1,8.7-6.8,17.9-6.8c1.8,0,3.7,0.1,5.7,0.4c6.2,0.9,11.7,3.5,16.5,7.9
			l1.9,1.7l2.4-1c1.6-0.6,3.2-1,4.9-1h3.6h4v-4v-3.6c0-7.2,5.8-13,13-13h9.9h5.2l-1.3-5l-4.4-17.3c-0.7-2.7-0.3-5.6,1.2-8.1
			c1.6-2.7,4.3-4.7,7.4-5.4c20.2-5,40.9-9.3,61.6-12.5l3.9-0.6l-0.6-3.9c-0.3-2.2,0-4.4,1-6.3c1.3-2.6,3.5-4.6,6.3-5.6
			c1.2-0.4,2.4-0.6,3.6-0.6c4.7,0,8.9,3,10.4,7.4l1,2.9l1,3l3.2-0.4c1.8-0.2,3.6-0.4,5.5-0.6l4.5-0.5l-1-4.4l-3.4-15.2
			c-1.3-5.9,2.5-11.8,8.4-13.1c0.8-0.2,1.6-0.3,2.4-0.3c2.1,0,4.1,0.6,5.9,1.7c2.5,1.6,4.2,4,4.8,6.9l4.2,19.1l0.7,3.4l3.4-0.2
			c0.6,0,1.3-0.1,1.9-0.1l4.2-0.3l-0.4-4.2l-3.7-35.3c-0.6-6,3.8-11.5,9.8-12.1c0.4,0,0.8-0.1,1.2-0.1l0,0c2.5,0,4.9,0.8,6.9,2.4
			c2.3,1.8,3.7,4.5,4,7.4l2.1,19.7l8-0.4V72.1C333.4,66.1,338.4,61.1,344.5,61.1 M493.2,257.8L493.2,257.8
			c-48.6-12.1-98.7-18.3-148.7-18.3s-100.1,6.1-148.7,18.3c0,0,0,0-0.1,0c0,0,0,0,0,0l-3.3-12.8l-2.4-9.5l-0.8-3H186h-29.4h-4v4V366
			v2l1.6,1.2c1.2,0.9,2.1,1.6,3,2.4c14.1,12,22.8,31.6,23.4,52.4c0.5,18,13.1,28,13.6,28.4c-1.6,1.1-3.7,2.4-6,3.5l-15,7.6h16.8h146
			h16.7h146h16.8l-15-7.6c-2.3-1.1-4.4-2.4-6-3.5c0.5-0.4,13.1-10.4,13.6-28.4c0.6-20.8,9.3-40.3,23.4-52.4c0.9-0.8,1.8-1.5,3-2.4
			l1.6-1.2v-2V236.4v-4h-4h-29.4h-3.1l-0.8,3l-2.2,8.6L493.2,257.8C493.2,257.7,493.2,257.8,493.2,257.8 M344.4,692.6L344.4,692.6
			c-2-0.2-48.3-6.7-75-70.6l-1.7-4l-3.8,2c-16.6,8.5-31.8,19.5-45.1,32.8c-33.6,33.5-52,78.2-52,125.6s18.5,92.1,52,125.6
			c33.6,33.5,78.2,52,125.6,52s92.1-18.5,125.6-52c33.5-33.5,52-78.2,52-125.6s-18.5-92.1-52-125.6c-13.3-13.3-28.5-24.4-45.1-32.8
			l-3.8-2l-1.7,4C392.7,685.9,346.5,692.3,344.4,692.6C344.5,692.6,344.5,692.6,344.4,692.6 M344.5,57.1c-8.3,0-15,6.7-15,15v50.4
			l-2.1-19.7c-0.4-4-2.4-7.6-5.5-10.1c-2.7-2.2-6-3.3-9.4-3.3c-0.5,0-1.1,0-1.6,0.1c-8.2,0.9-14.2,8.3-13.4,16.5l3.7,35.3
			c-0.6,0-1.3,0.1-1.9,0.1l-4.2-19.1c-0.9-3.9-3.2-7.3-6.6-9.4c-2.4-1.6-5.2-2.4-8-2.4c-1.1,0-2.2,0.1-3.3,0.4
			c-8.1,1.8-13.2,9.8-11.4,17.9l3.4,15.2c-1.8,0.2-3.7,0.4-5.5,0.6l-1-2.9c-2.1-6.2-8-10.1-14.2-10.1c-1.6,0-3.3,0.3-4.9,0.8
			c-3.8,1.3-6.8,4-8.6,7.6c-1.3,2.7-1.8,5.7-1.4,8.7c-20.8,3.3-41.6,7.5-61.9,12.6c-4.1,1-7.8,3.7-9.9,7.3c-2,3.4-2.6,7.4-1.6,11.2
			l4.4,17.3h-9.9c-9.4,0-17,7.6-17,17v3.6H134c-2.2,0-4.4,0.4-6.5,1.3c-5.3-4.9-11.7-7.9-18.6-8.9c-2.2-0.3-4.3-0.5-6.2-0.5
			c-10.4,0-17,4.2-20.8,8c-9.7,9.8-8.1,23.3-7.7,25.9c0.5,3.4,2.2,6.5,4.7,8.8c-4.4,2.3-8.2,5.5-11,9.3c-16,21.1-0.8,44.3-0.2,45.3
			c2.8,4.3,7.6,6.6,12.5,6.6c1.9,0,3.8-0.4,5.6-1.1c0.4-0.2,0.8-0.3,1.2-0.5c-2.7,3.9-4,8.5-3.8,13.6c0.3,6.3,2.8,11.9,4.4,15.6
			c1.4,3.3,2.3,5.5,2.7,7.1c-0.8,0.3-1.6,0.5-2.4,0.8c-5.2-6.7-12.8-10.4-21.3-10.4c-1.8,0-3.6,0.2-5.4,0.5
			c-6.6,1.2-11.5,4-12.9,4.9c-4.7,2.9-7.4,8-7.2,13.4c0.2,4.1,2,7.9,5,10.6c0,2.1-0.6,8-7.3,19.1c-0.7,1.1-1.2,2.3-1.6,3.5
			C26.1,409,13.4,447.4,47.8,496.9c9.6,13.8,31.7,38.6,75,56.6c-9.5,8.7-12.1,18.2-12.4,19.5c-1.4,6,0.9,12.2,6,15.8
			c2,1.4,4.2,2.2,6.4,2.5c0,0,0,0.1-0.1,0.1c-6.3,15.6-3.4,32.2,7.7,44.4c5.7,6.3,12.1,10.6,19,13C133,678.8,132,706,134.3,718.5
			c-2.6,9-4.6,18.3-6,27.6c-1.7-0.2-3.3-0.3-5-0.3c-8.2,0-16.3,2.8-23.2,8c-15.2,11.6-14.8,33-12.2,43.8c1.3,5.4,5.4,9.7,10.8,11
			c1.2,0.3,2.5,0.5,3.7,0.5c2.7,0,5.4-0.7,7.7-2.1c0.4,0.3,1,0.8,1.6,1.4c5.4,5.1,8.8,14.1,10.5,19.6c-5.4,8.6-11.3,22.4-11.9,42.4
			c-1.4,44.9,29.4,98.1,119.9,113c37.6,6.2,60,16.5,72.2,24c11.5,7.2,16,13.1,16.4,13.7c0.7,1.1,1.5,2,2.4,2.9
			c3.7,5.1,6.7,10.1,8.9,14.9c2.5,5.7,8.2,9.4,14.4,9.4s11.9-3.7,14.4-9.4c2.1-4.8,5.1-9.8,8.9-14.9c0.9-0.9,1.7-1.8,2.3-2.9
			c0.4-0.6,4.9-6.6,16.4-13.7c12.1-7.5,34.5-17.8,72.2-24c90.5-14.9,121.3-68.1,119.9-113c-0.6-20-6.5-33.8-11.9-42.4
			c1.7-5.5,5.2-14.5,10.5-19.6c0.7-0.6,1.2-1.1,1.7-1.4c2.3,1.4,5,2.1,7.7,2.1c1.2,0,2.5-0.2,3.7-0.5c5.4-1.4,9.5-5.6,10.8-11
			c2.6-10.8,3-32.2-12.2-43.8c-6.9-5.3-15-8-23.2-8c-1.7,0-3.4,0.1-5,0.3c-1.4-9.3-3.4-18.6-6-27.6c2.3-12.4,1.3-39.6-15.2-69.6
			c6.9-2.3,13.3-6.7,19-13c11.1-12.3,14-28.9,7.7-44.4c0,0,0-0.1,0-0.1c2.2-0.3,4.4-1.2,6.4-2.5c5.1-3.5,7.5-9.7,6-15.8
			c-0.3-1.3-2.8-10.8-12.4-19.5c43.3-18,65.4-42.9,75-56.6c34.4-49.5,21.7-87.9,10.6-106.9c-0.4-1.2-0.9-2.4-1.6-3.5
			c-6.7-11-7.4-17-7.4-19.1c3-2.6,4.8-6.4,5-10.6c0.2-5.4-2.5-10.5-7.2-13.4c-1.4-0.9-6.3-3.7-12.9-4.9c-1.8-0.3-3.7-0.5-5.4-0.5
			c-8.5,0-16.1,3.7-21.3,10.4c-0.8-0.3-1.6-0.5-2.4-0.8c0.3-1.6,1.2-3.8,2.7-7.1c2.4-5.5,8.1-18.4,0.7-29.2c0.4,0.2,0.7,0.4,1.1,0.5
			c1.8,0.7,3.7,1.1,5.6,1.1c4.9,0,9.7-2.4,12.5-6.6c0.7-1,15.8-24.1-0.2-45.3c-2.9-3.8-6.6-6.9-11-9.3c2.5-2.3,4.2-5.4,4.7-8.8
			c0.4-2.6,1.9-16.1-7.7-25.9c-3.8-3.9-10.3-8-20.8-8c-1.9,0-4,0.1-6.2,0.5c-6.9,1-13.3,4.1-18.6,8.9c-2-0.8-4.2-1.3-6.5-1.3h-3.6
			v-3.6c0-9.4-7.6-17-17-17h-9.9l4.4-17.3c1-3.8,0.4-7.8-1.6-11.2c-2.1-3.6-5.7-6.2-9.9-7.3c-20.3-5.1-41.1-9.3-61.9-12.6
			c0.4-2.9,0-5.9-1.4-8.7c-1.8-3.6-4.8-6.3-8.6-7.6c-1.6-0.6-3.3-0.8-4.9-0.8c-2.2,0-4.5,0.5-6.5,1.5c-3.6,1.8-6.3,4.8-7.6,8.6
			l-1,2.9c-1.8-0.2-3.7-0.4-5.5-0.6l3.4-15.2c1.8-8.1-3.3-16.1-11.4-17.9c-1.1-0.2-2.2-0.4-3.3-0.4c-2.8,0-5.6,0.8-8,2.4
			c-3.4,2.2-5.7,5.5-6.6,9.4l-4.2,19.1c-0.6,0-1.3-0.1-1.9-0.1l3.7-35.3c0.9-8.2-5.1-15.6-13.3-16.5l-0.5,0c-0.4,0-0.7,0-1.1,0
			c-3.4,0-6.7,1.2-9.4,3.3c-3.1,2.5-5.1,6.1-5.5,10.1l-2.1,19.7V72.1C359.5,63.8,352.7,57.1,344.5,57.1L344.5,57.1z M493.2,261.8
			c1.8,0,3.5-1.2,3.9-3c1.9-7.4,3.8-14.9,5.7-22.3h29.4V366c-1.1,0.8-2.2,1.6-3.2,2.5c-14.9,12.7-24.2,33.4-24.8,55.3
			c-0.5,16.1-11.6,25-12,25.3c-1,0.8-1.6,2-1.6,3.3c0,1.3,0.7,2.5,1.7,3.2c1.6,1.1,3.8,2.4,6.5,3.8h-146h-16.7h-146
			c2.7-1.4,4.9-2.7,6.5-3.8c1-0.7,1.7-1.9,1.7-3.2s-0.6-2.5-1.6-3.3c-0.5-0.4-11.6-9.2-12-25.3c-0.6-21.9-9.9-42.5-24.8-55.3
			c-1.1-0.9-2.1-1.7-3.2-2.5V236.4h29.4c1.9,7.4,3.8,14.9,5.7,22.3c0.5,1.8,2.1,3,3.9,3c0.3,0,0.7,0,1-0.1
			c48.5-12.1,98.1-18.2,147.7-18.2s99.2,6.1,147.7,18.2C492.5,261.7,492.9,261.8,493.2,261.8L493.2,261.8z M344.4,696.6
			c0.2,0,0.4,0,0.5,0c2.1-0.3,50.5-7,78.1-73c16.1,8.2,31,19,44.1,32.1c32.8,32.8,50.9,76.4,50.9,122.8c0,46.4-18.1,90-50.9,122.8
			s-76.4,50.9-122.8,50.9s-90-18.1-122.8-50.9s-50.9-76.4-50.9-122.8c0-46.4,18.1-90,50.9-122.8c13.1-13.1,28-23.9,44.1-32.1
			c27.6,66,76,72.8,78.1,73C344.1,696.6,344.3,696.6,344.4,696.6L344.4,696.6z"/>
		</g>
	</g>
	<g>
		<circle class="st5" cx="344.4" cy="774.6" r="191.5"/>
		<g class="st6">
			<g>
				<path class="st7" d="M526.3,242.4v120.6c-0.4,0.3-0.8,0.6-1.1,0.9c-16.2,13.8-26.2,36.1-26.9,59.7c-0.4,13.2-9.3,20.4-9.7,20.7
				c-2.5,1.9-4,5-3.9,8.1c0,0.3,0,0.6,0.1,0.9H352.8h-16.7H204.2c0-0.3,0.1-0.5,0.1-0.8c0.1-3.2-1.4-6.2-3.9-8.2
				c-0.4-0.3-9.4-7.5-9.7-20.8c-0.7-23.5-10.7-45.9-26.9-59.7c-0.4-0.3-0.7-0.6-1.1-0.9V242.4h18.8l2.3,8.9l2.3,8.9
				c1.1,4.4,5.1,7.5,9.7,7.5c0.8,0,1.7-0.1,2.5-0.3c47.8-11.9,97-18,146.3-18c49.3,0,98.5,6.1,146.3,18c0.8,0.2,1.6,0.3,2.5,0.3
				c4.6,0,8.6-3.1,9.7-7.5l4.6-17.8L526.3,242.4 M426,631.8c13.5,7.5,25.9,16.9,37,28c31.7,31.7,49.1,73.8,49.1,118.5
				S494.7,865.3,463,897s-73.8,49.1-118.6,49.1s-86.9-17.4-118.6-49.1c-31.7-31.7-49.1-73.8-49.1-118.5s17.4-86.9,49.1-118.5
				c11.1-11.1,23.5-20.5,37-28c11.7,25.4,28.3,45.3,48.3,57.9c16.8,10.6,30.5,12.6,32,12.8c0.4,0,0.9,0.1,1.3,0.1s0.9,0,1.3-0.1
				c1.5-0.2,15.1-2.1,32-12.8C397.7,677.2,414.3,657.2,426,631.8 M532.3,236.4h-29.4c-1.9,7.4-3.8,14.9-5.7,22.3
				c-0.5,1.8-2.1,3-3.9,3c-0.3,0-0.7,0-1-0.1c-48.5-12.1-98.1-18.2-147.7-18.2s-99.2,6.1-147.7,18.2c-0.3,0.1-0.7,0.1-1,0.1
				c-1.8,0-3.5-1.2-3.9-3c-1.9-7.4-3.8-14.9-5.7-22.3h-29.4V366c1.1,0.8,2.2,1.6,3.2,2.5c14.9,12.7,24.2,33.4,24.8,55.3
				c0.5,16.1,11.6,25,12,25.3c1,0.8,1.6,2,1.6,3.3s-0.7,2.5-1.7,3.2c-1.6,1.1-3.8,2.4-6.5,3.8h146h16.7h146
				c-2.7-1.4-4.9-2.7-6.5-3.8c-1-0.7-1.7-1.9-1.7-3.2s0.6-2.5,1.6-3.3c0.5-0.4,11.6-9.2,12-25.3c0.6-21.9,9.9-42.5,24.8-55.3
				c1-0.9,2.1-1.7,3.2-2.5L532.3,236.4L532.3,236.4z M423.1,623.5c-27.6,66-76,72.8-78.1,73c-0.2,0-0.4,0-0.5,0s-0.4,0-0.5,0
				c-2.1-0.3-50.5-7-78.1-73c-16.1,8.2-31,19-44.1,32.1c-32.8,32.8-50.9,76.4-50.9,122.8c0,46.4,18.1,90,50.9,122.8
				s76.4,50.9,122.8,50.9s90-18.1,122.8-50.9s50.9-76.4,50.9-122.8c0-46.4-18.1-90-50.9-122.8C454.1,642.5,439.2,631.7,423.1,623.5
				L423.1,623.5z"/>
			</g>
		</g>
		<path class="st8" d="M144.9,852.6c0,0-24.6,78.7,63.6,103.3c0,0-58.4-20.8-54.7-87.1L144.9,852.6z"/>
		<path class="st8" d="M135.1,799.3c0,0-5.5-20.8-22.6-25.4C112.5,773.9,131.3,753.1,135.1,799.3z"/>
		<path class="st8" d="M158.8,564.6c0,0,34.6,7.3,57.5,5l-21.2-4.5C195.1,565.2,165.5,559,158.8,564.6z"/>
		<path class="st8" d="M191.7,632.7c0,0,31.3-31.8,54.1-40.7l-3.9-3.9C242,588.1,207.9,607.6,191.7,632.7z"/>
		<path class="st8" d="M63.7,457.6c0,0,22.1,58.6,112.1,87.3C175.8,544.9,78.7,531.3,63.7,457.6z"/>
		<circle class="st8" cx="100.9" cy="436.1" r="7.2"/>
		<circle class="st8" cx="169.3" cy="616.6" r="5.9"/>
		<path class="st8" d="M102.2,414.6c0,0,10.4,15-1.3,21.5l3.3,5.9C104.1,442,121.7,434.2,102.2,414.6z"/>
		<rect x="248.2" y="471.2" class="st8" width="202.5" height="3.8"/>
		<path class="st8" d="M104.6,393.8c0,0,32-1.6,34.7,33.8c1.6,20.9-15.7,24.7-15.7,24.7s14.3-4.5,8.1-31.9
		C126.5,397.6,104.6,393.8,104.6,393.8z"/>
		<path class="st8" d="M76.6,377.1c0,0,44.5-9.4,67.7,22.9c13.6,19,8.1,40.3,2.6,48.7c0,0,23.9-23.5,4.8-51.9
		C120.5,350.2,76.6,377.1,76.6,377.1z"/>
		<path class="st8" d="M191.1,452.5c0,0-13.9,5.5-20.6-11.3s12.2-64.6-51.1-77.4c0,0,45.4-9.2,55.7,48.1
		C182.4,453.2,191.1,452.5,191.1,452.5z"/>
		<g>
			<path class="st9" d="M84.1,451.1c0,0,12.3,14.1,33,11.3c0,0,4.5,26,45.5,53.5c0,0-42.9-11.7-68.2-47.3S84.1,451.1,84.1,451.1z"/>
		</g>
		<path class="st9" d="M312.1,502.8c-39.5,6.9-43.4,35.1-43.4,35.1c-82.2,5.9-112.1-52-112.1-52l182.6-0.7
		C339.2,485.2,340,497.9,312.1,502.8z"/>
		<polygon class="st9" points="151.7,348.8 132.4,348.8 132.4,237.3 151.7,277.6 	"/>
		<rect x="154.8" y="214.8" class="st9" width="25.6" height="17.1"/>
		<g>
			<g>
				<path class="st9" d="M61.7,359.5c2.5,1.8,4.4,3.6,5.4,6.5c0,0.2,0,0.3,0,0.5c1.3,0,2.4,0.5,3.4,1.6c0.3-0.4,0.1-2.3,0.1-2.8
				c0.1-1.9,0.2-3.7,0.3-5.6c0.2-4.5-6.8-4.5-7,0c-0.1,2.2-0.2,4.4-0.3,6.5c-0.1,1.6-0.3,3.4,0.6,4.9c2,3.4,6.6,2.5,8.6-0.3
				c4.8-6.6-2.5-13.8-7.5-17.4C61.5,350.9,58.1,356.9,61.7,359.5L61.7,359.5z"/>
			</g>
		</g>
		<g>
			<g>
				<path class="st9" d="M69.6,364c-1.3,1.7-3.2,3.1-5.2,3.9c1.1,2,2.3,3.9,3.4,5.9c2.3-3,4-6.3,4.7-10.1c0.3-1.9-0.5-3.8-2.4-4.3
				c-1.7-0.5-4,0.6-4.3,2.4c-0.4,2.5-1.3,4.9-2.9,7c-1,1.2-1.4,2.8-0.5,4.2c0.7,1.2,2.5,2.2,4,1.6c3.9-1.5,6.9-3.8,9.4-7.1
				c1.2-1.5,0.2-3.9-1.3-4.8C72.5,361.7,70.7,362.5,69.6,364L69.6,364z"/>
			</g>
		</g>
		<path class="st8" d="M150.2,593.7c0,0-10.9,13.2-1.6,24c9.3,10.8,20.7,4.8,20.7,4.8v-5.9c0,0-8.3,4.2-16-4.3
		C145.5,603.8,150.2,593.7,150.2,593.7z"/>
		<g>
			<path class="st9" d="M159.5,580.5c0,0,16.3,13.2,39.5,10.8s26.3-11.6,26.3-11.6l-45.7-2.3L159.5,580.5z"/>
		</g>
		<path class="st9" d="M231.5,587.5c0,0,9.3,7,11.6,16.3c2.3,9.3,10.1,16.3,10.1,16.3s15.5-7,15.5-10.8S255.6,572,255.6,572
		L231.5,587.5z"/>
		<path class="st9" d="M241.6,546.4c0,0-5.4,23.2-29.4,29.4l43.4-3.9l7.7-27.1L241.6,546.4z"/>
		<path class="st9" d="M134.7,765.7c0,0-10.8,22.5,3.1,61.2l7.8-3.1c0,0-6.2-47.3-3.1-56.6L134.7,765.7z"/>
		<path class="st9" d="M132.4,840.1c0,0,12.4,41.8,34.9,49.6l1.6-7.8c0,0-23.2-41.8-23.2-58.1L132.4,840.1z"/>
		<path class="st8" d="M82.9,271c0,0,16.6-1.4,27.3,6.7c9.1,6.9,13.6,13.5,17.3,30.7c0,0,2.1-24.4-11.7-36.8
		C99.7,257.1,82.9,271,82.9,271z"/>
		<path class="st8" d="M94.6,230.3c0,0,12.8-1.7,16.7,8.4c3.9,10.1,16.7,32.9,16.7,32.9S128.1,210.2,94.6,230.3z"/>
		<g>
			<path class="st9" d="M84,289.5c0,0,8.9-8.4,17.3-2.2s13.9,9.5,13.9,21.8l-12.3-5.6L84,289.5z"/>
		</g>
		<g>
			<polygon class="st9" points="106.3,352.5 114.7,340.8 115.3,321.8 107.5,315.1 99.7,320.2 97.4,329.1 		"/>
		</g>
		<path class="st9" d="M186.2,629.4c0,0,32.9-34.6,51.9-45.2c0,0-26.2-7.8-54.1,26.2L186.2,629.4z"/>
		<path class="st9" d="M167.2,889.7c0,0,12.3,70.1,98.8,79.1l-31.8-20.1c0,0-49.9-38-65.4-66.7L167.2,889.7z"/>
		<path class="st8" d="M544.6,852.6c0,0,24.6,78.7-63.6,103.3c0,0,58.5-20.8,54.7-87.1L544.6,852.6z"/>
		<path class="st8" d="M554.4,799.3c0,0,5.5-20.8,22.6-25.4C577,773.9,558.1,753.1,554.4,799.3z"/>
		<path class="st8" d="M530.7,564.6c0,0-34.6,7.3-57.5,5l21.2-4.5C494.4,565.2,524,559,530.7,564.6z"/>
		<path class="st8" d="M497.7,632.7c0,0-31.3-31.8-54.1-40.7l3.9-3.9C447.5,588.1,481.5,607.6,497.7,632.7z"/>
		<path class="st8" d="M625.7,457.6c0,0-22.2,58.6-112.1,87.3C513.7,544.9,610.7,531.3,625.7,457.6z"/>
		<circle class="st8" cx="588.6" cy="436.1" r="7.2"/>
		<circle class="st8" cx="520.2" cy="616.6" r="5.9"/>
		<path class="st8" d="M587.3,414.6c0,0-10.4,15,1.3,21.5l-3.3,5.9C585.3,442,567.7,434.2,587.3,414.6z"/>
		<rect x="238.8" y="471.2" class="st8" width="202.5" height="3.8"/>
		<path class="st8" d="M584.8,393.8c0,0-32-1.6-34.7,33.8c-1.6,20.9,15.7,24.7,15.7,24.7s-14.3-4.5-8.1-31.9
		C563,397.6,584.8,393.8,584.8,393.8z"/>
		<path class="st8" d="M612.8,377.1c0,0-44.5-9.4-67.7,22.9c-13.6,19-8.1,40.3-2.6,48.7c0,0-23.9-23.5-4.8-51.9
		C569,350.2,612.8,377.1,612.8,377.1z"/>
		<path class="st8" d="M498.4,452.5c0,0,13.9,5.5,20.6-11.3s-12.2-64.6,51.1-77.4c0,0-45.4-9.2-55.7,48.1
		C507.1,453.2,498.4,452.5,498.4,452.5z"/>
		<g>
			<path class="st9" d="M605.4,451.1c0,0-12.3,14.1-33,11.3c0,0-4.5,26-45.5,53.5c0,0,42.9-11.7,68.2-47.3S605.4,451.1,605.4,451.1z" />
		</g>
		<path class="st9" d="M377.4,502.8c39.5,6.9,43.4,35.1,43.4,35.1c82.2,5.9,112.1-52,112.1-52l-182.6-0.7
		C350.2,485.2,349.5,497.9,377.4,502.8z"/>
		<polygon class="st9" points="537.7,348.8 557.1,348.8 557.1,237.3 537.7,277.6 	"/>
		<rect x="509.1" y="214.8" class="st9" width="25.6" height="17.1"/>
		<g>
			<g>
				<path class="st9" d="M624.2,353.5c-5,3.6-12.3,10.8-7.5,17.4c1.9,2.7,6.2,3.6,8.3,0.6c1.1-1.6,0.9-3.4,0.8-5.2
				c-0.1-2.2-0.2-4.4-0.3-6.5c-0.2-4.5-7.2-4.5-7,0c0.1,1.9,0.2,3.7,0.3,5.6c0,0.5-0.1,2.3,0.1,2.8c1-1,2.1-1.5,3.3-1.6
				c0.2,0,0.3-0.1,0.1-0.5c1-2.9,3-4.7,5.4-6.5C631.4,356.9,627.9,350.9,624.2,353.5L624.2,353.5z"/>
			</g>
		</g>
		<g>
			<g>
				<path class="st9" d="M613.9,367.6c2.5,3.3,5.5,5.6,9.4,7.1c1.4,0.6,3.2-0.4,4-1.6c0.8-1.5,0.4-3-0.5-4.2c-1.6-2-2.4-4.5-2.9-7
				c-0.3-1.9-2.6-2.9-4.3-2.4c-2,0.5-2.8,2.4-2.4,4.3c0.6,3.8,2.3,7.1,4.7,10.1c1.1-2,2.3-3.9,3.4-5.9c-2-0.8-3.9-2.2-5.2-3.9
				c-1.2-1.5-3-2.3-4.8-1.3C613.7,363.6,612.7,366.1,613.9,367.6L613.9,367.6z"/>
			</g>
		</g>
		<path class="st8" d="M539.3,593.7c0,0,10.8,13.2,1.5,24c-9.3,10.8-20.7,4.8-20.7,4.8v-5.9c0,0,8.3,4.2,16-4.3
		C543.9,603.8,539.3,593.7,539.3,593.7z"/>
		<g>
			<path class="st9" d="M530,580.5c0,0-16.3,13.2-39.5,10.8s-26.3-11.6-26.3-11.6l45.7-2.3L530,580.5z"/>
		</g>
		<path class="st9" d="M457.9,587.5c0,0-9.3,7-11.6,16.3c-2.3,9.3-10.1,16.3-10.1,16.3s-15.5-7-15.5-10.8s13.2-37.2,13.2-37.2
		L457.9,587.5z"/>
		<path class="st9" d="M447.9,546.4c0,0,5.4,23.2,29.4,29.4l-43.4-3.9l-7.8-27.1L447.9,546.4z"/>
		<path class="st9" d="M554.8,765.7c0,0,10.8,22.5-3.1,61.2l-7.8-3.1c0,0,6.2-47.3,3.1-56.6L554.8,765.7z"/>
		<path class="st9" d="M557.1,840.1c0,0-12.4,41.8-34.9,49.6l-1.5-7.8c0,0,23.2-41.8,23.2-58.1L557.1,840.1z"/>
		<path class="st8" d="M606.6,271c0,0-16.6-1.4-27.3,6.7c-9.1,6.9-13.6,13.5-17.3,30.7c0,0-2.1-24.4,11.7-36.8
		C589.8,257.1,606.6,271,606.6,271z"/>
		<path class="st8" d="M594.8,230.3c0,0-12.8-1.7-16.7,8.4c-3.9,10.1-16.7,32.9-16.7,32.9S561.3,210.2,594.8,230.3z"/>
		<g>
			<path class="st9" d="M605.4,289.5c0,0-8.9-8.4-17.3-2.2s-14,9.5-14,21.8l12.3-5.6L605.4,289.5z"/>
		</g>
		<g>
			<polygon class="st9" points="583.1,352.5 574.7,340.8 574.2,321.8 582,315.1 589.8,320.2 592,329.1 		"/>
		</g>
		<path class="st9" d="M503.3,629.4c0,0-32.9-34.6-51.9-45.2c0,0,26.2-7.8,54.1,26.2L503.3,629.4z"/>
		<path class="st9" d="M522.2,889.7c0,0-12.3,70.1-98.8,79.1l31.8-20.1c0,0,49.9-38,65.4-66.7L522.2,889.7z"/>
	</g>
	<g id="Layer_3">
		<g>

			<linearGradient id="SVGID_3_" gradientUnits="userSpaceOnUse" x1="240.5306" y1="664.9996" x2="571.7806" y2="273.7496" gradientTransform="matrix(1 0 0 -1 0 1088)">
				<stop offset="3.513558e-04" style="stop-color:#2A3F52"/>
				<stop offset="0.3102" style="stop-color:#001C24"/>
				<stop offset="0.381" style="stop-color:#1A2E39"/>
				<stop offset="0.5125" style="stop-color:#474E5C"/>
				<stop offset="0.513" style="stop-color:#474E5C"/>
				<stop offset="0.6685" style="stop-color:#2F3D47"/>
				<stop offset="0.7644" style="stop-color:#26373F"/>
			</linearGradient>
			<path class="st10" d="M641.3,394.1c0-0.6-0.2-1.3-0.6-1.8c-12.5-20.4-9.4-30.2-6-32.5c1.3-0.6,2-1.9,2-3.3c0.1-1.5-0.8-2.8-2-3.5
			c-0.4-0.3-4.2-2.5-9.1-3.4c-7.2-1.3-13.2,1.2-16.9,7c-1.4,2.1-2.1,4.3-2.3,6.4c-5.4-2.7-11-4.7-16.5-6c-4.9-6.9-2-13.6,1.1-20.6
			c3.1-7.1,7-15.9-2-22.1c-2.6-1.8-5-2.3-7-2.2c0.9-1.4,1.8-2.7,2.9-3.9c6.3-7.1,14.8-9.7,19.7-10.7c-0.3,1.9,0.7,3.7,2.4,4.4
			c1.8,0.7,3.8,0.1,4.8-1.5c0.5-0.7,11.5-17.6,0.2-32.5c-5.9-7.8-18.2-11.3-29.9-8.8c2.7-3.7,5.2-7.9,7.7-12.5c1-1.9,2.2-3,3.4-3.3
			c1.6-0.4,3.5,0.6,4,0.9c1.1,0.8,2.6,1,3.9,0.5c1.3-0.5,2.2-1.7,2.4-3.1c0.1-0.4,1.5-10.2-4.7-16.4c-4-4-9.9-5.5-17.6-4.4
			c-10.1,1.4-16.5,8.6-20.6,17.2v-3.4c0-3.3-2.7-6-6-6h-14.6v-14.6c0-3.3-2.7-6-6-6h-24.1c2.6-10.3,5.3-20.7,8-31
			c0.5-2.1-1-4.4-3.5-5c-24.4-6.1-49-10.8-73.7-14.3l3.4-9.8c0.7-2.1-0.4-4.4-2.5-5.1l0,0c-2.1-0.7-4.4,0.4-5.1,2.5l-3.9,11.3
			c-8.8-1.1-17.6-2.1-26.4-2.8l6-27.3c0.5-2.2-0.9-4.3-3-4.8c-2.2-0.5-4.3,0.9-4.8,3.1l-6.3,28.4c-7.6-0.6-15.2-1-22.8-1.4l4.9-46.8
			c0.2-2.2-1.4-4.2-3.6-4.4l0,0c-2.2-0.2-4.2,1.4-4.4,3.6l-5,47.3c-6.4-0.2-12.7-0.3-19-0.4c0-0.1,0-0.1,0-0.2V72.1c0-2.2-1.8-4-4-4
			l0,0c-2.2,0-4,1.8-4,4v78.7c0,0.1,0,0.1,0,0.2c-6.4,0-12.7,0.1-19,0.4l-5-47.3c-0.2-2.2-2.2-3.8-4.4-3.6l0,0
			c-2.2,0.2-3.8,2.2-3.6,4.4l4.9,46.8c-7.6,0.3-15.2,0.8-22.8,1.4l-6.3-28.4c-0.5-2.2-2.6-3.5-4.8-3.1c-2.2,0.5-3.5,2.6-3,4.8
			l6,27.3c-8.8,0.8-17.6,1.7-26.4,2.8l-3.9-11.3c-0.7-2.1-3-3.2-5.1-2.5l0,0c-2.1,0.7-3.2,3-2.5,5.1l3.4,9.8
			c-24.7,3.4-49.4,8.2-73.7,14.3c-2.5,0.6-4.1,2.9-3.5,5c2.6,10.3,5.3,20.7,8,31h-24.1c-3.3,0-6,2.7-6,6v14.6H134c-3.3,0-6,2.7-6,6
			v3.4c-4.1-8.5-10.6-15.7-20.6-17.2c-7.7-1.1-13.6,0.4-17.6,4.4c-6.2,6.2-4.8,16-4.7,16.4c0.2,1.4,1.1,2.6,2.4,3.1
			c1.3,0.5,2.8,0.4,3.9-0.5c0,0,2.1-1.4,4-0.9c1.3,0.3,2.4,1.4,3.5,3.3c2.5,4.6,5,8.8,7.7,12.5c-11.7-2.5-24,1-29.9,8.8
			c-11.3,14.9-0.3,31.8,0.2,32.5c1.1,1.6,3.1,2.2,4.8,1.5c1.8-0.7,2.8-2.5,2.4-4.4c4.8,1,13.4,3.6,19.7,10.7c1.1,1.2,2,2.5,2.9,3.9
			c-1.9-0.1-4.3,0.4-6.9,2.2c-9,6.3-5.2,15.1-2,22.1c3.1,7,6,13.7,1.1,20.6c-5.5,1.3-11.1,3.3-16.5,6c-0.2-2.1-0.9-4.2-2.3-6.4
			c-3.7-5.8-9.7-8.3-16.9-7c-4.9,0.9-8.6,3.1-9.1,3.4c-1.2,0.8-2.1,2.1-2,3.5c0.1,1.4,0.8,2.7,2,3.3c3.4,2.4,6.5,12.1-6,32.5
			c-0.3,0.6-0.5,1.2-0.6,1.8c-10.4,16.8-22.3,51.1,9.3,96.5c16.6,23.9,47.7,47.4,93.6,61.1c-24.7,5.5-29.1,22.9-29.4,23.9
			c-0.4,1.6,0.3,3.3,1.6,4.2c1.3,0.9,3.1,1,4.5,0c6.3-4.2,13.3-4.3,22.6-3.1c-7.6,4.2-13.6,10.7-16.9,18.8
			c-4.7,11.6-2.6,23.9,5.6,32.9c7.8,8.6,16,11.3,23.2,11.3c2.4,0,4.8-0.3,6.9-0.8c-30.3,41.6-23.9,76.3-23.6,77.8
			c0.1,0.5,0.3,1,0.6,1.5c-4.2,13.8-7,28.1-8.2,43c-2.4-1.7-5.1-3-8.1-3.8c-7.8-2-16.1-0.2-22.8,5c-13.4,10.3-8.4,31.6-8.2,32.5
			c0.3,1.4,1.4,2.6,2.9,3s2.9,0,3.9-1.1c0.5-0.5,5.2-4.7,14,3.5c9.4,8.8,13.8,24.8,14.9,29.6c-5.4,7.1-12.3,20-12.9,40.7
			c-1.3,40.2,27.2,88,110.7,101.8c77.3,12.7,95.8,42.3,96.1,42.7c0.3,0.5,0.7,0.9,1.1,1.3c4.3,5.7,8,11.7,10.8,18
			c0.8,1.7,2.5,2.8,4.4,2.8s3.6-1.1,4.4-2.8c2.8-6.3,6.5-12.3,10.8-18c0.4-0.3,0.8-0.7,1.1-1.2c0.2-0.3,18.7-30,96.1-42.7
			c83.5-13.7,111.9-61.6,110.7-101.8c-0.7-20.6-7.4-33.5-12.9-40.7c1.2-4.8,5.6-20.7,14.9-29.6c8.8-8.3,13.5-4,13.9-3.6
			c1,1.1,2.5,1.5,4,1.2s2.5-1.5,2.9-2.9c0.2-0.9,5.2-22.3-8.2-32.5c-6.7-5.1-15-7-22.8-5c-3,0.8-5.7,2-8.1,3.8
			c-1.2-14.8-4-29.2-8.2-43c0.3-0.4,0.5-0.9,0.6-1.5c0.3-1.5,6.8-36.2-23.6-77.8c2.2,0.5,4.5,0.8,6.9,0.8c7.2,0,15.4-2.7,23.2-11.3
			c8.2-9.1,10.3-21.4,5.6-32.9c-3.3-8.1-9.3-14.6-16.9-18.8c9.3-1.2,16.4-1.1,22.6,3.1c1.4,0.9,3.2,0.9,4.5,0s2-2.6,1.6-4.2
			c-0.2-1-4.7-18.4-29.4-23.9c45.9-13.7,77-37.2,93.6-61.1C663.6,445.2,651.7,411,641.3,394.1z M615.6,360.8
			c2.8-4.3,7.3-4.1,10.6-3.1c-0.7,1.2-1.3,2.7-1.8,4.4c-0.9,3.7-0.9,7.9,0.1,12.5c-3-2.5-6.1-4.8-9.3-6.9
			C614.4,365.9,614,363.4,615.6,360.8z M582.2,320c0.3-0.1,1-0.3,2.4,0.7c3.2,2.2,2.8,4.5-0.7,12.3c-1.6,3.5-3.4,7.7-4.1,12.1
			c-1-2.3-2-4.9-2.8-7.8c-0.2-3.6-0.2-6.9,0.2-10c0,0,0,0,0-0.1C577.8,325.1,580,320.8,582.2,320z M579.2,302.7
			c-1.3,1.4-2.4,2.9-3.4,4.5c0.5-1.6,1.2-3.2,2-4.8c6.3-12.1,15-14.2,21-12.1c0.2,0.1,0.4,0.1,0.5,0.2
			C593.4,292.2,585.5,295.6,579.2,302.7z M564.9,249.8c3.7-12.9,9.7-20.1,17.7-21.2c1.3-0.2,2.5-0.3,3.5-0.3c3.2,0,5.7,0.8,7.2,2.4
			c1.3,1.3,1.9,2.9,2.3,4.5c-1.2-0.1-2.6-0.1-4,0.2c-2.5,0.6-6,2.3-8.7,7.3c-6.6,12.2-13.5,20.9-21.3,26.5
			C561.9,266,562.5,258,564.9,249.8z M560.9,298.8c0-0.1,0.1-0.3,0.1-0.4c1-16,8.6-27.3,20.8-31c9.3-2.8,19.7-0.5,24.1,5.3
			c3.1,4.1,4.1,9.1,2.9,14.6c-1.9-2-4.4-3.6-7.4-4.6c-8.8-3-22.1-0.6-30.7,16c-5.8,11.1-6.3,25.1-1.6,40.5c0,0,0,0,0,0.1
			c0,0.1,0.1,0.2,0.1,0.3c1.7,5.4,3.7,10.1,5.4,13.5c-10-3.7-13.1-6.4-13.6-7L560.9,298.8L560.9,298.8z M560.9,346.1
			c0.1,0.1,0.1,0.2,0.1,0.2l-0.1,0.1V346.1z M540.3,236.4h12.6v96.2c-0.5-0.3-1.1-0.4-1.8-0.4c-0.3,0-0.6,0-0.8,0.1v-31.1
			c0-2.2-1.8-4-4-4s-4,1.8-4,4v38.6c-0.4-0.2-0.9-0.3-1.4-0.3c-0.2,0-0.4,0-0.6,0.1V236.4z M551.9,365.1c0,0,0.1,0,0.1,0
			c5.6-1.5,11.5-2,17.6-1.2c-1.3,0.4-2.5,0.7-3.5,1c-24,8.1-41.1,29.8-42.7,54c-0.9,13.6,2.4,24.5,9.7,32.5c0.7,0.8,1.4,1.5,2.2,2.2
			c-9,8.7-25.6,2.5-34.1-2c4.4-4.9,10.7-14.2,11.1-27.5c0.6-19.6,8.8-38.1,22-49.4C539.6,370,545.6,366.9,551.9,365.1z M186.5,488
			h6.8c0.6,5.5,3.5,18.6,11.8,37.4c-2.8-1.4-5.6-2.9-8.3-4.7C189.3,503.3,187.1,492.2,186.5,488z M187.6,514
			c-3.9-3.4-7.5-7.2-10.5-11.6c-2.1-6.9-3.1-11.8-3.4-14.4h6.8C180.9,492.3,182.8,501.2,187.6,514z M199.4,488h6.8
			c0.7,6,4,21,14.1,42.6c-2.3-0.5-4.6-1-7-1.7C202.8,506.8,200.1,492.9,199.4,488z M212.2,488h6.7c0.7,6.3,4.3,22.2,15.3,45.1
			c-2.2-0.3-4.4-0.7-6.7-1.1C215.9,508.1,212.9,493.1,212.2,488z M225,488h6.7c0.7,6.4,4.5,22.9,16.1,46.6c-2.1-0.2-4.3-0.4-6.4-0.6
			C228.9,509,225.8,493.3,225,488z M237.9,488h6.8c0.7,6.5,4.5,23.2,16.5,47.4c-2-0.1-4.1-0.2-6.3-0.3
			C241.8,509.5,238.6,493.3,237.9,488z M308.3,512.2c7.1-2,14.4-4,21-7.8c11.1-6.4,13.5-12.7,13.8-16.5h2.8
			c0.3,3.7,2.7,10,13.8,16.5c6.5,3.8,13.9,5.8,21,7.8c12.9,3.6,25.2,7,32.9,20.8c-5.6-3-17-8.6-28.7-10.3c-2.2-0.3-4.2,1.2-4.5,3.4
			c0,0.3,0,0.6,0,0.8c-20.5-9-32.5-23-32.7-23.2c-0.1-0.1-0.2-0.2-0.3-0.3c-0.1-0.1-0.1-0.1-0.2-0.2c0,0,0,0,0,0
			c-0.1-0.1-0.3-0.2-0.5-0.3c-0.1,0-0.1-0.1-0.2-0.1c-0.1-0.1-0.3-0.1-0.5-0.2c-0.1,0-0.2-0.1-0.3-0.1c-0.1,0-0.3-0.1-0.5-0.1
			c-0.1,0-0.2,0-0.3,0c-0.2,0-0.3,0-0.5,0c-0.1,0-0.2,0-0.3,0c-0.2,0-0.3,0-0.5,0.1c-0.1,0-0.2,0-0.3,0.1c-0.1,0-0.3,0.1-0.4,0.2
			c-0.1,0-0.2,0.1-0.3,0.1c-0.1,0.1-0.2,0.1-0.3,0.2c-0.1,0.1-0.2,0.1-0.3,0.2c0,0,0,0-0.1,0c-0.1,0.1-0.2,0.2-0.3,0.3
			c-0.1,0.1-0.2,0.1-0.2,0.2c-0.2,0.2-12.3,14.2-32.7,23.2c0-0.3,0-0.6,0-0.8c-0.3-2.2-2.4-3.7-4.5-3.4
			c-11.7,1.7-23.1,7.3-28.7,10.3C283.1,519.2,295.4,515.8,308.3,512.2z M289.1,488h6.8c0.4,3.2,1.5,9.4,4.4,18.2
			c-2,0.6-3.9,1.2-5.9,1.9C291,498.1,289.6,491.3,289.1,488z M302,488h6.8c0.3,2.8,1.3,7.9,3.3,14.8c-1.9,0.6-3.9,1.1-5.9,1.7
			c0,0,0,0-0.1,0C303.5,496.5,302.4,490.8,302,488z M314.8,488h6.8c0.3,2.2,0.9,5.7,2.1,10.4c-1.9,1-3.9,1.8-5.9,2.6
			C316,494.8,315.1,490.4,314.8,488z M327.6,488h7.3c-0.3,1.3-1.6,3.9-5.9,7.1C328.3,491.9,327.9,489.5,327.6,488z M353.9,488h7.3
			c-0.2,1.5-0.6,3.9-1.4,7.1C355.5,491.9,354.3,489.3,353.9,488z M365.2,498.4c1.2-4.7,1.8-8.2,2.1-10.4h6.8c-0.3,2.4-1.2,6.8-3,13
			C369.1,500.2,367.1,499.3,365.2,498.4z M376.8,502.8c2.1-7,3-12,3.3-14.8h6.8c-0.4,2.9-1.5,8.5-4.1,16.5c0,0,0,0-0.1,0
			C380.7,503.9,378.7,503.4,376.8,502.8z M388.6,506.2c2.9-8.8,4-15,4.4-18.2h6.8c-0.4,3.3-1.8,10.1-5.3,20.1
			C392.5,507.4,390.5,506.7,388.6,506.2z M415,521.2c-1.4-1.6-3-3.1-4.5-4.4c5.7-14.5,7.7-24.4,8.2-28.8h6.8
			C424.8,492.7,422.3,504.2,415,521.2z M431.5,488h6.8c-0.7,5.2-3.7,20.5-15.8,44.8c-1-2.2-2.1-4.3-3.3-6.1
			C427.9,507.1,430.8,493.5,431.5,488z M405.4,513.2c-1.8-1.1-3.6-2-5.4-2.9c3.9-11,5.4-18.7,5.8-22.3h6.8
			C412.1,491.8,410.3,500.5,405.4,513.2z M283.5,513.2c-4.9-12.7-6.7-21.3-7.2-25.2h6.8c0.4,3.7,1.9,11.3,5.8,22.3
			C287,511.2,285.3,512.1,283.5,513.2z M278.5,516.8c-1.6,1.3-3.1,2.8-4.5,4.4c-7.3-17-9.8-28.5-10.4-33.2h6.8
			C270.8,492.4,272.8,502.3,278.5,516.8z M269.8,526.7c-1.2,1.9-2.3,3.9-3.3,6.1c-12.1-24.4-15.1-39.6-15.8-44.8h6.7
			C258.1,493.5,261,507.1,269.8,526.7z M265.8,623.5c27.6,66,76,72.8,78.1,73c0.2,0,0.4,0,0.5,0s0.4,0,0.5,0c2.1-0.3,50.5-7,78.1-73
			c16.1,8.2,31,19,44.1,32.1c32.8,32.8,50.9,76.4,50.9,122.8s-18.1,90-50.9,122.8S390.8,952,344.4,952s-90-18.1-122.8-50.9
			s-50.9-76.4-50.9-122.8s18.1-90,50.9-122.8C234.8,642.5,249.7,631.7,265.8,623.5z M444.3,488h6.8c-0.8,5.4-4,21.5-17,47.1
			c-2.1,0.1-4.2,0.2-6.3,0.3C439.8,511.2,443.6,494.4,444.3,488z M457.1,488h6.7c-0.7,5.3-3.9,21-16.4,46c-2.2,0.3-4.3,0.5-6.5,0.6
			C452.7,510.9,456.4,494.4,457.1,488z M470,488h6.7c-0.7,5.1-3.7,20.1-15.4,44c-2.3,0.4-4.5,0.8-6.7,1.1
			C465.6,510.2,469.3,494.3,470,488z M482.8,488h6.8c-0.7,4.9-3.4,18.8-13.9,40.9c-2.4,0.6-4.7,1.2-7,1.7
			C478.8,509,482.1,494,482.8,488z M495.6,488h6.8c-0.6,4.3-2.7,15.3-10.2,32.8c-2.8,1.7-5.5,3.3-8.3,4.7
			C492.1,506.6,495,493.5,495.6,488z M508.4,488h6.8c-0.4,2.6-1.3,7.5-3.4,14.4c-3,4.4-6.6,8.3-10.5,11.6
			C506.1,501.2,508,492.3,508.4,488z M351.3,480h-13.7H165.3l-0.5-0.7c0.9-0.4,1.7-0.9,2.5-1.4h60c2.2,0,4-1.8,4-4s-1.8-4-4-4h-51.7
			c0.6-0.9,1.1-1.8,1.5-2.4h159h16.7h159c0.4,0.7,0.9,1.5,1.5,2.4h-51.7c-2.2,0-4,1.8-4,4s1.8,4,4,4h60c0.8,0.5,1.6,1,2.5,1.4
			l-0.5,0.7H351.3z M529.3,215.9h3v12.6h-23.5C513.9,219.9,523,216.9,529.3,215.9z M156.6,215.9h3c6.3,1,15.3,4,20.5,12.6h-23.6
			V215.9z M156.6,236.4h29.4c1.9,7.4,3.8,14.9,5.7,22.3c0.6,2.1,2.8,3.4,4.9,2.9c97-24.2,198.5-24.2,295.5,0
			c2.2,0.5,4.4-0.7,4.9-2.9c1.9-7.4,3.8-14.9,5.7-22.3h29.4V366c-1.1,0.8-2.2,1.6-3.2,2.5c-14.9,12.7-24.2,33.4-24.8,55.3
			c-0.5,16.1-11.6,25-12,25.3c-1,0.8-1.6,2-1.6,3.3c0,1.3,0.7,2.5,1.7,3.2c1.6,1.1,3.8,2.4,6.5,3.8h-146h-16.7h-146
			c2.7-1.4,4.9-2.7,6.5-3.8c1-0.7,1.7-1.9,1.7-3.2s-0.6-2.5-1.6-3.3c-0.5-0.4-11.6-9.2-12-25.3c-0.6-21.9-9.9-42.5-24.8-55.3
			c-1.1-0.9-2.1-1.7-3.2-2.5V236.4z M136,236.4h12.6v103.1c-0.2,0-0.4-0.1-0.6-0.1c-0.5,0-1,0.1-1.4,0.3v-38.6c0-2.2-1.8-4-4-4
			s-4,1.8-4,4v31.1c-0.3-0.1-0.6-0.1-0.9-0.1c-0.6,0-1.2,0.2-1.8,0.4V236.4z M136.8,365.1c0.1,0,0.1,0,0.1,0
			c6.4,1.8,12.3,5,17.7,9.5c13.2,11.3,21.4,29.8,22,49.4c0.4,13.3,6.7,22.6,11.1,27.5c-8.5,4.5-25.2,10.7-34.1,2
			c0.7-0.7,1.5-1.4,2.2-2.2c7.3-8,10.5-18.9,9.7-32.5c-1.6-24.2-18.7-45.9-42.7-54c-1-0.3-2.2-0.7-3.5-1
			C125.4,363.1,131.3,363.5,136.8,365.1z M127.9,346.3c0,0,0-0.1,0.1-0.2v0.2L127.9,346.3z M105.9,242.7c-2.7-5-6.2-6.8-8.7-7.3
			c-0.9-0.2-1.7-0.3-2.6-0.3c-0.5,0-0.9,0-1.4,0.1c0.3-1.6,1-3.3,2.3-4.5c2.1-2.1,5.7-2.8,10.8-2.1c8,1.1,14,8.3,17.7,21.2
			c2.3,8.1,3,16.2,3.2,19.4C119.4,263.6,112.4,254.9,105.9,242.7z M80.1,287.3c-1.2-5.6-0.2-10.5,2.9-14.6
			c4.4-5.8,14.8-8.1,24.1-5.3c12.3,3.7,19.9,15,20.8,31c0,0.1,0,0.3,0.1,0.4v47.3c-0.6,0.5-3.6,3.2-13.6,7c1.7-3.4,3.7-8.1,5.4-13.5
			c0-0.1,0.1-0.2,0.1-0.3c0,0,0,0,0-0.1c4.7-15.4,4.1-29.4-1.6-40.5c-8.7-16.6-22-19-30.7-16C84.5,283.7,82,285.4,80.1,287.3z
			 M89.5,290.5c0.2-0.1,0.4-0.1,0.6-0.2c6-2.1,14.8,0,21,12.1c0.8,1.5,1.5,3.1,2,4.8c-1-1.6-2.2-3-3.4-4.5
			C103.4,295.6,95.5,292.2,89.5,290.5z M104.3,320.7c1.4-1,2.1-0.8,2.4-0.7c2.1,0.7,4.3,4.8,5.1,7.3c0,0,0,0,0,0.1
			c0.3,3.1,0.4,6.5,0.2,10c-0.9,2.8-1.9,5.5-2.8,7.8c-0.7-4.5-2.6-8.6-4.1-12.1C101.6,325.2,101.1,322.9,104.3,320.7z M73.3,360.8
			c1.7,2.6,1.2,5.1,0.4,7c-3.2,2.1-6.3,4.4-9.3,6.9c1-4.6,1-8.8,0.1-12.5c-0.5-1.8-1.1-3.2-1.8-4.4C66,356.8,70.5,356.5,73.3,360.8z
			 M63.4,486.1c-21.8-31.3-24.8-62.7-8.6-88.4c1.1-1.8,2.3-3.5,3.5-5.1l0.1,0.1c17.6-20.2,40.1-27.5,61.8-20.2
			c20.6,7,35.9,26.3,37.2,47c0.7,11.3-1.8,20.3-7.5,26.6c-4.4,4.9-10,7.4-14.5,8.8c6-5,9.8-12.1,11.2-21.2
			c2.2-13.5-2.1-26.1-11.9-35.4c-11.4-10.8-28.3-15.1-45.1-11.6c-15.6,3.3-28.3,16.2-33,31.3c-3.2,8.9-1.7,17-1.6,17.4
			c0.4,2.1,2.4,3.5,4.5,3.2c2.1-0.3,3.6-2.3,3.4-4.4c-0.5-4.3-0.1-8.6,1-12.8c0.2-0.7,0.5-1.5,0.8-2.2c8.1-18.4,27.9-18.8,42.4-13.6
			c7.3,2.6,12.5,9.8,13.7,19.1c1.4,10.5-2.5,20.6-9.9,25.7c-5.1,3.5-15.6,4.2-22.6-0.6c-5.6-3.9-7.4-10.4-5.3-18.8
			c1.6-6.2,9.3-7.2,9.6-7.3c2.2-0.2,3.8-2.2,3.5-4.4c-0.2-2.2-2.2-3.8-4.4-3.5c-0.6,0.1-13.5,1.6-16.4,13.3c-4,15.9,3.6,24,8.5,27.4
			c3.9,2.7,8.9,4.3,13.9,4.7c0.5,0.5,1.2,0.9,2,1.1c0.4,0.1,4.4,0.9,10.1,0.9c2.3,0,4.7-0.1,7.3-0.5c2.4,6.4,5.7,14.4,10.9,21.3
			c9.4,12.6,21,23.4,34.6,32.2c-23.3-9-47.1-22.1-66.9-41.2c-1.1-1.1-2.8-1.1-4-0.1c-1.2,1-1.4,2.7-0.6,4c0.6,0.9,14.8,22.1,46,41.2
			c23.5,14.4,60.7,29.8,112.5,29.8c1.6,0,3.2,0,4.8,0c0,0.2-0.1,0.3-0.1,0.5c0,0.3-0.2,2.2-0.3,5.4
			C152.3,559.4,89.1,523.2,63.4,486.1z M128.7,423.4c-1.7-12.4-8.7-21.9-19-25.5c-6.9-2.5-13.1-3.5-18.7-3.5c0.1,0,0.1,0,0.2,0
			c14.3-3,28.5,0.5,38,9.5c7.8,7.4,11.2,17.5,9.5,28.4c-1.3,8-4.7,13.9-10.1,17.6c-3,2-6.3,3.3-9.6,4
			C126.5,446.6,130.3,435.2,128.7,423.4z M134.5,568.6c6.1-6,18.3-12.5,42.5-9.9c0.6,0.1,1.1,0,1.7-0.2c18.2,3.3,38.2,5.3,60.1,5.3
			c1.5,0,3,0,4.6,0c-0.6,1.5-2.2,4.1-6.6,6.7c-12.6,2.4-27.6,4.1-43.2,3.6c-9.6-0.3-17.7-1.3-25-2.4l0,0c-2.7-0.4-5.3-0.8-7.8-1.2
			C150.5,568.7,142.1,567.3,134.5,568.6z M187.9,612.5c10.8-14,28.9-22.9,40.9-27.6c-4.6,3.2-9.3,6.8-14.1,10.7
			c-10.2,8.3-19.3,17-27.4,26.3C188.1,618.2,188.2,615.1,187.9,612.5z M167,631.3c-8.3,1.9-15.9-0.8-22.5-8.1
			c-6.2-6.8-7.7-15.8-4.2-24.6c4.4-10.8,14.9-18,27.6-19c7.3,1.1,15.7,2.1,25.4,2.4c2,0.1,4,0.1,6,0.1c6,0,11.9-0.3,17.6-0.8
			c0,0-0.1,0-0.1,0.1c-13.6,6.4-24.4,13.9-32.1,22.5c-3.4-5.1-9.1-8.4-15.1-8.5c-5.5-0.1-10.4,2.6-12.8,7.2c-1,2-0.3,4.4,1.7,5.4
			c1.9,1,4.4,0.3,5.4-1.7c1.4-2.6,4.1-3,5.6-2.9c3.2,0.1,7.4,2,9.4,6.3c0.3,0.5,0.5,1.1,0.7,1.8c0,0.6,0.1,1.3,0.4,1.8
			c0.5,3.2,0,7.7-3,13.6C175.1,628.2,171.5,630.3,167,631.3z M219.6,601.9c8.6-7,17.2-13,25-17.9c2.7,0.8,6.3,2.8,9.3,7.7
			c-39.9,19.4-72.7,51.3-93.3,90.5C173.3,645.9,198.3,619.2,219.6,601.9z M124.8,794.5c-5.3-5-10.6-7.4-15.8-7.3
			c-1.3,0-2.4,0.2-3.4,0.5c-0.4-5.7,0.1-14.4,6.1-19c4.8-3.7,10.6-5,15.9-3.6c4,1,7.3,3.5,9.5,6.9c-0.1,2.1-0.1,4.2-0.1,6.3
			c0,15.1,1.6,29.9,4.7,44.1c-0.2,0.1-0.4,0.2-0.5,0.3c-0.1,0-0.2,0.2-0.4,0.3C138.4,815.4,133.5,802.7,124.8,794.5z M129.3,870.8
			c0.5-15.7,4.9-26.1,8.6-32.1c2.2-3.6,4.3-6,5.8-7.5c4.2,16,10.3,31.3,18,45.6c-0.5,6.4-0.8,29.7,17.3,52.8
			c10.9,14,26.3,25.1,45.9,33.3C153,948.4,128.2,906.3,129.3,870.8z M185.4,924.8c-9.4-11.9-13.3-24-14.9-33.2
			c19.6,30,46.7,54.6,78.7,71.2C220.5,954.9,199.1,942.2,185.4,924.8z M285.1,977.8c0.8,0.1,1.7,0.2,2.5,0.3c0.2,0,0.3,0.1,0.5,0.1
			c0.1,0,0.1,0.1,0.2,0.1c0.7,0.5,1.5,1,2.2,1.6C288.8,979.2,287,978.5,285.1,977.8z M398.4,979.9c0.8-0.5,1.5-1.1,2.2-1.6
			c0.1,0,0.1-0.1,0.2-0.1c0.2,0,0.3-0.1,0.5-0.1c0.9-0.1,1.7-0.2,2.5-0.3C401.9,978.5,400.1,979.2,398.4,979.9z M439.6,962.8
			c32-16.6,59.1-41.2,78.7-71.2c-1.6,9.1-5.5,21.3-14.9,33.2C489.8,942.2,468.4,954.9,439.6,962.8z M552,778.4c0-2.1,0-4.2-0.1-6.3
			c2.1-3.5,5.4-5.9,9.5-6.9c5.4-1.4,11.2-0.1,15.9,3.6c6,4.6,6.5,13.3,6,19c-1-0.3-2.2-0.5-3.4-0.5c-5.2-0.2-10.5,2.3-15.8,7.3
			c-8.7,8.2-13.6,20.9-15.9,28.6c-0.2-0.2-0.4-0.3-0.4-0.3c-0.2-0.1-0.3-0.2-0.5-0.3C550.4,808.3,552,793.5,552,778.4z M551,838.7
			c3.6,6,8.1,16.5,8.6,32.1c1.1,35.5-23.7,77.5-95.6,92.1c19.6-8.3,35-19.4,45.9-33.3c18.1-23.2,17.8-46.5,17.3-52.8
			c7.7-14.3,13.8-29.6,18-45.6C546.7,832.7,548.8,835.1,551,838.7z M543.1,778.4c0,90.9-61.4,167.7-144.8,191.3
			c-0.6-0.1-1.1,0-1.7,0.1c-16.9,4.6-34.5,6.9-52.1,6.9s-35.2-2.3-52.1-6.9c-0.6-0.2-1.1-0.2-1.7-0.1
			c-83.5-23.5-144.8-100.4-144.8-191.3c0-75.3,42.1-140.9,104-174.6c3.1,1.2,6.7,3.7,9.4,8.5c-60.2,31-101.4,93.7-101.4,166.1
			c0,103.1,83.6,186.6,186.6,186.6s186.6-83.6,186.6-186.7c0-72.4-41.2-135.1-101.4-166.1c2.7-4.9,6.4-7.3,9.4-8.5
			C501,637.5,543.1,703.1,543.1,778.4z M528.3,682.2c-20.6-39.2-53.4-71-93.3-90.5c3-4.9,6.6-6.9,9.3-7.7c7.8,4.9,16.4,10.9,25,17.9
			C490.6,619.2,515.6,645.9,528.3,682.2z M501.6,621.8c-8-9.2-17.2-18-27.4-26.3c-4.8-3.9-9.5-7.4-14.1-10.7
			c12,4.7,30.1,13.6,41,27.6C500.7,615.1,500.8,618.2,501.6,621.8z M548.5,598.6c3.5,8.8,2,17.7-4.2,24.6c-6.6,7.3-14.2,10-22.5,8.1
			c-4.5-1-8.1-3.1-9.9-4.4c-3-5.9-3.4-10.4-3-13.6c0.3-0.6,0.4-1.2,0.4-1.8c0.2-0.7,0.5-1.3,0.7-1.8c2.1-4.3,6.2-6.3,9.4-6.3
			c1.5,0,4.2,0.3,5.6,2.9c1,2,3.5,2.7,5.4,1.7c2-1,2.7-3.5,1.7-5.4c-2.5-4.6-7.3-7.3-12.8-7.2c-6,0.1-11.7,3.4-15.1,8.5
			c-7.7-8.6-18.5-16.1-32.1-22.5c0,0-0.1,0-0.1-0.1c5.7,0.5,11.5,0.8,17.6,0.8c2,0,4,0,6-0.1c9.7-0.3,18.1-1.3,25.4-2.4
			C533.6,580.6,544.2,587.8,548.5,598.6z M554.4,568.6c-7.6-1.3-16,0.1-26.3,1.8c-2.5,0.4-5.1,0.8-7.8,1.2h0
			c-7.3,1.1-15.4,2.1-25,2.4c-15.6,0.5-30.5-1.2-43.2-3.6c-4.3-2.6-6-5.1-6.5-6.7c1.5,0,3,0,4.5,0c21.9,0,41.9-1.9,60.1-5.3
			c0.5,0.2,1.1,0.2,1.7,0.2C536.1,556.1,548.4,562.5,554.4,568.6z M625.5,486.1c-25.8,37.1-88.9,73.4-190.5,69.3
			c-0.1-3.2-0.3-5.1-0.3-5.4c0-0.2,0-0.3-0.1-0.5c1.6,0,3.2,0,4.8,0c51.7,0,88.9-15.4,112.5-29.8c31.3-19.2,45.4-40.4,46-41.3
			c0.8-1.3,0.6-3-0.6-4c-1.2-1-2.9-0.9-4,0.1c-19.8,19-43.6,32.1-66.9,41.2c13.6-8.8,25.3-19.5,34.6-32.2c5.1-7,8.5-14.9,10.9-21.3
			c2.6,0.4,5.1,0.5,7.3,0.5c5.6,0,9.7-0.8,10.1-0.9c0.8-0.2,1.5-0.5,2-1.1c5-0.4,10-2,13.9-4.7c4.9-3.4,12.5-11.4,8.5-27.4
			c-2.9-11.6-15.9-13.2-16.4-13.3c-2.2-0.3-4.2,1.3-4.4,3.5c-0.3,2.2,1.3,4.2,3.5,4.4c0.3,0,8,1,9.6,7.3c2.1,8.5,0.3,15-5.3,18.8
			c-6.9,4.8-17.5,4.2-22.6,0.6c-7.4-5.1-11.3-15.2-9.9-25.7c1.2-9.3,6.4-16.5,13.7-19.1c14.5-5.2,34.3-4.7,42.4,13.6
			c0.3,0.7,0.6,1.5,0.8,2.2c1.1,4.1,1.5,8.5,1,12.8c-0.3,2.1,1.2,4.1,3.4,4.4c2.1,0.3,4.1-1.1,4.5-3.2c0.1-0.4,1.6-8.6-1.6-17.4
			c-4.7-15.2-17.4-28-33-31.3c-16.8-3.6-33.7,0.7-45.1,11.6c-9.8,9.3-14,21.9-11.8,35.4c1.5,9.1,5.2,16.2,11.2,21.2
			c-4.5-1.4-10.1-3.9-14.5-8.8c-5.7-6.3-8.3-15.3-7.5-26.6c1.3-20.7,16.7-40,37.2-47c21.7-7.3,44.2,0,61.8,20.2l0.1-0.1
			c1.2,1.6,2.4,3.3,3.5,5.1C650.3,423.3,647.3,454.7,625.5,486.1z M569.9,453.9c-3.3-0.7-6.6-2-9.6-4c-5.5-3.8-8.8-9.7-10.1-17.6
			c-1.7-10.9,1.6-20.9,9.5-28.4c7.3-6.9,17.3-10.6,28-10.6c3.3,0,6.6,0.4,10,1.1c0.1,0,0.1,0,0.2,0c-5.6,0-11.8,1.1-18.7,3.5
			c-10.2,3.6-17.3,13.2-19,25.5C558.6,435.2,562.4,446.6,569.9,453.9z"/>
		</g>
		<g>
			<g>
				<path class="st8" d="M433.9,179.1c11.7,1.5,23.3,3.4,34.9,5.5c-0.6,3.4-1.3,6.8-1.9,10.1c-6.9-1.3-13.9-2.4-20.8-3.5
				c-0.4,2.8-0.8,5.5-1.3,8.3c6,0.9,11.9,1.9,17.8,3c-0.6,3.4-1.2,6.7-1.8,10.1c-5.8-1.1-11.7-2-17.5-2.9c-0.4,2.9-0.9,5.7-1.3,8.6
				c6.7,1,13.3,2.1,20,3.4c-0.6,3.4-1.3,6.8-1.9,10.2c-10.8-2-21.6-3.7-32.4-5.1C429.7,210.7,431.8,194.9,433.9,179.1z"/>
			</g>
			<g>
				<path class="st8" d="M274.7,176.9c9-0.9,18-1.7,27-2.3c3.4-0.2,6.4,2.1,6.6,5c0.2,4.1,0.5,8.2,0.7,12.3c-4.5,0.3-9,0.5-13.5,0.9
				c-0.2-2.2-0.3-4.4-0.5-6.7c0-0.4-0.5-0.8-0.8-0.7c-3.3,0.3-6.6,0.5-10,0.8c-0.5,0-0.8,0.4-0.8,0.9c0.8,8.6,1.6,17.1,2.4,25.7
				c0,0.4,0.4,0.7,0.9,0.6c3.2-0.3,6.4-0.6,9.5-0.8c0.3,0,0.6-0.3,0.6-0.8c-0.2-2.3-0.3-4.5-0.5-6.8c4.4-0.3,8.8-0.6,13.3-0.9
				c0.2,4.1,0.5,8.3,0.7,12.4c0.2,3.1-2.4,5.6-5.5,5.8c-8.4,0.5-16.7,1.2-25.1,2.1c-3.2,0.3-6-1.7-6.3-4.8
				c-1.4-12.3-2.8-24.6-4.2-36.8C268.9,180,271.3,177.3,274.7,176.9z"/>
			</g>
			<g>
				<path class="st8" d="M225.4,183.9c9.2-1.6,18.4-3.1,27.6-4.4c0.5,3.4,0.9,6.8,1.4,10.2c-6.4,0.9-12.7,1.8-19,2.9
				c-0.5,0.1-0.7,0.5-0.6,0.9c0.4,2.3,0.8,4.6,1.2,6.9c0.1,0.3,0.4,0.6,0.9,0.5c4.5-0.7,8.9-1.4,13.4-2.1c3.6-0.5,6.4,1.4,6.8,4.7
				c0.8,5.9,1.6,11.9,2.4,17.8c0.4,3.3-1.6,5.9-5.1,6.4c-8.8,1.3-17.6,2.7-26.3,4.4c-0.6-3.4-1.3-6.8-1.9-10.2
				c6.3-1.2,12.6-2.3,18.9-3.3c0.5-0.1,0.8-0.4,0.7-0.8c-0.4-2.3-0.7-4.6-1.1-6.9c-0.1-0.4-0.4-0.6-0.9-0.5
				c-4.4,0.7-8.8,1.4-13.1,2.2c-3.5,0.6-6.4-1.1-7-4.4c-1.1-5.9-2.2-11.9-3.4-17.8C219.6,187.2,221.7,184.5,225.4,183.9z"/>
			</g>
			<g>
				<path class="st8" d="M356.7,173.3c-9.2-0.2-18.5-0.1-27.7,0.1c-3.8,0.1-6.2,2.4-6.1,5.8c0.4,12.2,0.8,24.5,1.2,36.7
				c0.1,3.3,2.6,5.5,6,5.4c8.6-0.2,17.2-0.2,25.7-0.1c3.5,0.1,5.9-2.1,6-5.5c0.3-12.2,0.6-24.5,1-36.7
				C363,175.8,360.5,173.4,356.7,173.3z M348.9,210.2c0,0.4-0.4,0.6-0.8,0.6c-3.4,0-6.9,0-10.3,0c-0.3,0-0.7-0.3-0.7-0.6
				c-0.1-8.6-0.2-17.2-0.3-25.8c0-0.4,0.4-0.8,0.7-0.8c3.6,0,7.2-0.1,10.8,0c0.5,0,0.9,0.4,0.9,0.8C349,193,349,201.6,348.9,210.2z" />
			</g>
			<g>
				<path class="st8" d="M412.5,176.6c-11.2-1.1-22.5-1.9-33.8-2.5c-0.8,16-1.6,31.9-2.4,47.9c4.3,0.2,8.6,0.5,12.9,0.8
				c0.4-5.1,0.7-10.1,1.1-15.2c1.9,0.1,3.7,0.3,5.6,0.4c1.7,5.2,3.4,10.4,5,15.7c4.2,0.4,8.4,0.8,12.6,1.2c-1.5-5.3-3-10.5-4.6-15.8
				c0.1,0,0.3,0,0.4,0c3.1,0.3,6-1.9,6.3-4.8c0.8-7.3,1.6-14.5,2.4-21.8C418.2,179.5,415.7,176.9,412.5,176.6z M402.8,198.2
				c0,0.3-0.4,0.6-0.8,0.6c-3.7-0.3-7.4-0.6-11.1-0.9c0.3-4.3,0.6-8.5,0.9-12.8c3.8,0.3,7.5,0.6,11.3,0.9c0.3,0,0.7,0.4,0.6,0.8
				C403.4,190.6,403.1,194.4,402.8,198.2z"/>
			</g>
		</g>
		<g>
			<g>
				<path class="st8" d="M399.7,589.9c0,2.5,0,5,0,7.5c-2.9,0.1-5.8,0.2-8.7,0.2c0,5.6,0,11.2,0,16.8c3.6-0.5,7.1-1,10.6-1.5
				c0,2.5,0,5.1,0,7.7c-6.5,1.5-13,2.7-19.5,3.6c0-20.2,0-40.3,0-60.5c6.5,1,13.1,2.2,19.5,3.6c0,2.5,0,5.1,0,7.7
				c-3.5-0.6-7.1-1.1-10.6-1.5c0,5.4,0,10.8,0,16.2C394,589.7,396.9,589.8,399.7,589.9z"/>
			</g>
			<g>
				<path class="st8" d="M356.3,609c-1,0-2.1,0-3.1,0.1c-1.9-7-3.7-14.1-5.6-21.2c0,13,0,26,0,39.1c-2.7,0-5.4,0-8,0
				c0-22,0-43.9,0-65.9c2.6,0,5.3-0.1,7.9,0c2.5,10.4,5,20.8,7.5,31.2c2.4-10.3,4.8-20.5,7.1-30.6c2.7,0.2,5.5,0.4,8.2,0.7
				c0,21.1,0,42.3,0,63.4c-2.8,0.3-5.6,0.5-8.4,0.7c0-12.8,0-25.6,0-38.4C360,594.9,358.1,602,356.3,609z"/>
			</g>
			<g>
				<path class="st8" d="M327.8,561.5c0,21.6,0,43.3,0,64.9c-2.8-0.2-5.7-0.4-8.5-0.7c0-21.2,0-42.4,0-63.5
				C322.1,561.9,324.9,561.7,327.8,561.5z"/>
			</g>
			<g>
				<path class="st8" d="M287.2,575c0-2.5,0-5.1,0-7.7c7.3-1.6,14.7-3,22.1-4c0,2.9,0,5.9,0,8.8c-2.2,0.2-4.5,0.5-6.7,0.7
				c0,16.9,0,33.8,0,50.7c-2.9-0.5-5.9-1-8.8-1.6c0-16,0-32,0-48C291.6,574.3,289.4,574.6,287.2,575z"/>
			</g>
		</g>
	</g>
</svg>
