<svg xmlns="http://www.w3.org/2000/svg" xmlns:xlink="http://www.w3.org/1999/xlink" viewBox="0 0 492.13 194.84"><defs><linearGradient id="be0922d1-1d34-4858-ab20-15b81449ce0e" x1="1961.28" y1="1697.68" x2="1962.28" y2="1697.68" gradientTransform="matrix(275.45, 248.21, 248.21, -275.45, -961491.82, -19176.09)" gradientUnits="userSpaceOnUse"><stop offset="0" stop-color="#c79333"/><stop offset="0.36" stop-color="#f0b948"/><stop offset="0.58" stop-color="#d7ab2d"/><stop offset="0.61" stop-color="#d7ab2e"/><stop offset="1" stop-color="#d3a636"/></linearGradient><linearGradient id="fd6b8090-5ff5-4070-a1d7-311c450e7387" x1="1921.74" y1="1697.74" x2="1922.74" y2="1697.74" gradientTransform="matrix(51.59, 0, 0, -51.59, -99037.33, 87649.76)" xlink:href="#be0922d1-1d34-4858-ab20-15b81449ce0e"/><linearGradient id="abebbf32-e486-4526-baa2-d37cddae3a39" x1="1921.74" y1="1697.45" x2="1922.74" y2="1697.45" gradientTransform="matrix(51.59, 0, 0, -51.59, -99037.33, 87649.76)" xlink:href="#be0922d1-1d34-4858-ab20-15b81449ce0e"/><linearGradient id="f00016d4-94ac-4570-adb8-7bdaca49ef41" x1="1921.95" y1="1697.08" x2="1921.96" y2="1697.08" gradientTransform="matrix(51.59, 0, 0, -51.59, -99037.33, 87649.76)" xlink:href="#be0922d1-1d34-4858-ab20-15b81449ce0e"/><linearGradient id="ad66349f-0a45-451c-915b-580efea69f80" x1="1921.74" y1="1697.41" x2="1922.74" y2="1697.41" gradientTransform="matrix(51.59, 0, 0, -51.59, -99037.33, 87649.76)" xlink:href="#be0922d1-1d34-4858-ab20-15b81449ce0e"/><linearGradient id="f9c6edf5-19a3-43fb-9de0-a04811d2f3e2" x1="1921.75" y1="1697.41" x2="1922.75" y2="1697.41" gradientTransform="matrix(51.59, 0, 0, -51.59, -98790.51, 87654.7)" xlink:href="#be0922d1-1d34-4858-ab20-15b81449ce0e"/><linearGradient id="a6d50694-c92e-42e9-a64f-dc3b0dddc4f8" x1="1921.75" y1="1697.45" x2="1922.75" y2="1697.45" gradientTransform="matrix(51.59, 0, 0, -51.59, -98790.51, 87654.7)" xlink:href="#be0922d1-1d34-4858-ab20-15b81449ce0e"/><linearGradient id="e3dc4685-314e-4f48-850b-69a285f1233c" x1="1921.75" y1="1697.74" x2="1922.75" y2="1697.74" gradientTransform="matrix(51.59, 0, 0, -51.59, -98790.51, 87654.7)" xlink:href="#be0922d1-1d34-4858-ab20-15b81449ce0e"/><linearGradient id="a2b46585-5fde-49d9-bf4e-42d81e7c8993" x1="1939.41" y1="1699.36" x2="1940.41" y2="1699.36" gradientTransform="matrix(86.73, 0, 0, -86.73, -168149.11, 147494.54)" xlink:href="#be0922d1-1d34-4858-ab20-15b81449ce0e"/><linearGradient id="a4697dad-e609-421d-a29f-d09a1670a9df" x1="1921.74" y1="1697.6" x2="1922.74" y2="1697.6" gradientTransform="matrix(51.59, 0, 0, -51.59, -99037.33, 87649.76)" xlink:href="#be0922d1-1d34-4858-ab20-15b81449ce0e"/><linearGradient id="efb8194f-4363-4b92-904c-9c68cd9ce330" x1="1939.41" y1="1699.72" x2="1940.41" y2="1699.72" gradientTransform="matrix(86.73, 0, 0, -86.73, -168149.11, 147494.54)" xlink:href="#be0922d1-1d34-4858-ab20-15b81449ce0e"/><linearGradient id="a83b024d-0009-4e2d-8d4b-ae1946bf9bab" x1="1939.09" y1="1699.33" x2="1940.09" y2="1699.33" gradientTransform="matrix(85.68, 0, 0, -85.68, -165785.27, 145708.47)" xlink:href="#be0922d1-1d34-4858-ab20-15b81449ce0e"/><linearGradient id="a675415f-9485-4af4-b75e-339c42d68ae7" x1="1921.75" y1="1697.6" x2="1922.75" y2="1697.6" gradientTransform="matrix(51.59, 0, 0, -51.59, -98790.51, 87654.7)" xlink:href="#be0922d1-1d34-4858-ab20-15b81449ce0e"/><linearGradient id="a132fd56-33b1-457f-986e-dc2c72767f23" x1="1939.09" y1="1699.69" x2="1940.09" y2="1699.69" gradientTransform="matrix(85.68, 0, 0, -85.68, -165785.27, 145708.47)" xlink:href="#be0922d1-1d34-4858-ab20-15b81449ce0e"/></defs><title>wildlifeBanner</title><g id="e6da61c7-c799-4d41-b51b-c6a769ff0d6d" data-name="Layer 2"><g id="ed0eb991-283f-498e-ad10-04f1e37bf5a0" data-name="Layer 1"><path d="M429.3,192.07l57.2-59c1.45-1.29,4.24-3.47,3.09-5-10.09-13.5-28.38-34.1-41.17-45.83-26.63-24.41-56.23-44.59-90.75-58a304.46,304.46,0,0,0-111.61-21A301.21,301.21,0,0,0,135,23.79C100.46,37.18,71.08,56.1,44.45,80.51c-12.33,11.3-21.72,22.13-32.54,34C4.83,122.34,1.59,126.73,3.06,128l65.15,62.7c33-54,94.34-99.95,178.74-99.95C319.68,90.77,396.44,137.57,429.3,192.07Z" style="fill:#3f2413"/><path d="M191.13,71.85,183.67,74l-5-9.1.72,10.31L172,77.3,157.47,49.18l7.41-2.11,9.6,19.2L172.3,45l4.3-1.23,9.6,19.2L184,41.64l4.22-1.2Z" style="fill:#fff"/><path d="M202.5,69.65l-5.19-30.57,7.21-1.23,5.19,30.57Z" style="fill:#fff"/><path d="M233.06,61.44l-.58,4.5L216.9,67.32l-2.72-30.89,7.28-.64,2.33,26.46Z" style="fill:#fff"/><path d="M247.91,34.67a11,11,0,0,1,4.91,1.2,12.52,12.52,0,0,1,4,3.21A15.31,15.31,0,0,1,259.46,44a19,19,0,0,1,.89,6.34,18,18,0,0,1-1.09,6,16.31,16.31,0,0,1-2.81,4.9,13.41,13.41,0,0,1-4.1,3.27,10.24,10.24,0,0,1-4.94,1.16l-8.62-.14.51-31Zm-1.73,25.92a5.31,5.31,0,0,0,2.53-1.13,8.43,8.43,0,0,0,2-2.3A12.08,12.08,0,0,0,252,54a15.05,15.05,0,0,0,.5-3.62,20,20,0,0,0-.37-4.3,12,12,0,0,0-1.21-3.38A6.72,6.72,0,0,0,249,40.48a4.28,4.28,0,0,0-2.49-.83Z" style="fill:#fff"/><path d="M283.4,64l-1.49,4.28L266.38,66.4l3.67-30.79,7.26.87-3.15,26.38Z" style="fill:#fff"/><path d="M288.38,69.42l6-30.42,7.18,1.41-6,30.42Z" style="fill:#fff"/><path d="M302.67,72.37,311,42.46l13.48,3.76L324,50.68l-7.12-2L315,55.45l4.74,1.32L318.53,61l-4.74-1.32-4.08,14.62Z" style="fill:#fff"/><path d="M339.39,79.81,337,83.63l-14.63-5.55,11-29,13.09,5-.91,4.4-6.92-2.63-2.49,6.56,4.6,1.74-1.57,4.15-4.6-1.74-3.81,10Z" style="fill:#fff"/><path d="M426.42,194.84,490.78,133a4.39,4.39,0,0,0,.54-5.71,303.27,303.27,0,0,0-33.06-39.17,300.66,300.66,0,0,0-425.56,0A303.39,303.39,0,0,0,.83,125.63a4.39,4.39,0,0,0,.52,5.74l65,62.41a210.05,210.05,0,0,1,360.1,1.06ZM246.06,87.44A214.87,214.87,0,0,0,65.35,185.91L5.19,128.13a299.51,299.51,0,0,1,31-36.46A296.2,296.2,0,0,1,487,129.78l-59.53,57.16a214.89,214.89,0,0,0-181.36-99.5Z" style="fill:url(#be0922d1-1d34-4858-ab20-15b81449ce0e)"/><path d="M140,65.55l-1.73,1,.94,1.58,1.64-.79Z" style="fill:url(#fd6b8090-5ff5-4070-a1d7-311c450e7387)"/><path d="M149.67,81.87l-.84-1.81-2,1L148,82.89Z" style="fill:url(#abebbf32-e486-4526-baa2-d37cddae3a39)"/><polygon points="112.48 101 112.48 101 112.48 101 112.48 101" style="fill:url(#f00016d4-94ac-4570-adb8-7bdaca49ef41)"/><path d="M139.16,63.74q-9.32,4.42-18.28,9.58-9.73,5.61-18.95,12l2.28,3.29q9.08-6.31,18.67-11.84,8-4.62,16.35-8.64l-.94-1.58,1.73-1,.85,1.81-1.64.79,2.78,4.7,3-1.42,1.69,3.63h0c-.88.41-1.74.83-2.61,1.25l2.78,4.7,2-1,.84,1.81-1.72,1L146.84,81q-8.42,4-16.54,8.67Q121.15,95,112.48,101l2.29,3.28q8.52-5.93,17.53-11.13t18.22-9.47l2-.93L140.81,63Z" style="fill:url(#ad66349f-0a45-451c-915b-580efea69f80)"/><path d="M363.48,71.93l1.9.92,2.78-4.7-1.64-.8.86-1.8,1.72,1-.94,1.58c5.77,2.8,11.46,5.8,17,9q9.24,5.35,18,11.44h0l2.29-3.28q-8.89-6.18-18.28-11.63t-19-10L366.58,63,354.87,82.75l2,.93q9.61,4.5,18.84,9.83,8.69,5,16.91,10.77l2.29-3.28q-8.36-5.82-17.19-11-8.42-4.87-17.17-9l-1.11,1.88-1.73-1,.85-1.81,2,1,2.78-4.7-1.56-.76Z" style="fill:url(#f9c6edf5-19a3-43fb-9de0-a04811d2f3e2)"/><path d="M357.71,81.87l1.73,1L360.55,81l-2-1Z" style="fill:url(#a6d50694-c92e-42e9-a64f-dc3b0dddc4f8)"/><path d="M367.38,65.55l-.86,1.8,1.64.8.94-1.58Z" style="fill:url(#e3dc4685-314e-4f48-850b-69a285f1233c)"/><path d="M125.59,81.5a258.29,258.29,0,0,0-65.07,53.36l3,2.64A254.48,254.48,0,0,1,127.59,85q8.07-4.65,16.47-8.66L142,72.85C136.45,75.54,131,78.41,125.59,81.5Z" style="fill:url(#a2b46585-5fde-49d9-bf4e-42d81e7c8993)"/><path d="M146.67,75.06,145,71.43l-3,1.42,2.05,3.46c.87-.42,1.73-.84,2.61-1.25Z" style="fill:url(#a4697dad-e609-421d-a29f-d09a1670a9df)"/><path d="M146.67,75.06,145,71.43l-3,1.42,2.05,3.46c.87-.42,1.73-.84,2.61-1.25Z" style="fill:url(#efb8194f-4363-4b92-904c-9c68cd9ce330)"/><path d="M382.45,81.88q-8.37-4.84-17.07-9l-2.05,3.46q8.71,4.18,17.12,9a254.36,254.36,0,0,1,63.41,52.16h0l3-2.64A258.17,258.17,0,0,0,382.45,81.88Z" style="fill:url(#a83b024d-0009-4e2d-8d4b-ae1946bf9bab)"/><path d="M363.48,71.93l-1.71,3.62,1.56.76,2.05-3.46Z" style="fill:url(#a675415f-9485-4af4-b75e-339c42d68ae7)"/><path d="M363.48,71.93l-1.71,3.62,1.56.76,2.05-3.46Z" style="fill:url(#a132fd56-33b1-457f-986e-dc2c72767f23)"/></g></g></svg>