<svg xmlns="http://www.w3.org/2000/svg" xmlns:xlink="http://www.w3.org/1999/xlink" viewBox="0 0 1917.94 1806.85"><defs><linearGradient id="a9c5e451-948b-4e7b-815b-4c12a0956ae6" x1="958.97" y1="1806.85" x2="958.97" gradientUnits="userSpaceOnUse"><stop offset="0.03" stop-color="#e9e3d8"/><stop offset="0.5" stop-color="#fff"/><stop offset="1" stop-color="#e9e3d8"/></linearGradient><linearGradient id="beebdabd-1a2f-400c-8236-d973164c5245" x1="1236.91" y1="148.19" x2="1806.87" y2="148.19" gradientUnits="userSpaceOnUse"><stop offset="0" stop-color="#a56e29"/><stop offset="0.36" stop-color="#e5b450"/><stop offset="0.39" stop-color="#dfab4a"/><stop offset="0.58" stop-color="#c17e2a"/><stop offset="0.82" stop-color="#be9131"/><stop offset="1" stop-color="#bc9a34"/></linearGradient><linearGradient id="bae224e6-062f-45e6-a5b6-944a30be21a8" x1="1236.91" y1="166.7" x2="1806.87" y2="166.7" xlink:href="#beebdabd-1a2f-400c-8236-d973164c5245"/><linearGradient id="ab3337a8-7453-4575-887a-fdab698f4c39" x1="1236.91" y1="184.65" x2="1806.87" y2="184.65" xlink:href="#beebdabd-1a2f-400c-8236-d973164c5245"/></defs><title>wildlifeDetailBg</title><g id="bbcc4344-2826-424d-9a51-f0d098054e43" data-name="Layer 2"><g id="bdc31513-49b9-46be-af06-da8af416f458" data-name="COIN DETAIL - WILDLIFE"><rect width="1917.94" height="1806.85" rx="60.24" style="fill:url(#a9c5e451-948b-4e7b-815b-4c12a0956ae6)"/><rect x="59.47" y="56.89" width="699.36" height="1693.17" rx="22.15" style="fill:#aa712a"/><path d="M637,1563.33l-9.4.8-7.66,7.66a788.64,788.64,0,0,0,127.79,68.47c3.7,1.56,7.4,3.08,11.12,4.59v-17.73l-4.74-2A773.24,773.24,0,0,1,637,1563.33Z" style="fill:none"/><path d="M434.9,650.25a673.1,673.1,0,0,0,144.37,738.56,652.49,652.49,0,0,0,79.93,68,5,5,0,0,0,5.86-8.15,640.46,640.46,0,0,1-78.69-67,663,663,0,0,1,0-938.5A645.37,645.37,0,0,1,663.91,377a5,5,0,1,0-5.89-8.12,656.89,656.89,0,0,0-78.75,67.23A671.39,671.39,0,0,0,434.9,650.25Z" style="fill:none"/><path d="M455.87,659.11a650.32,650.32,0,0,0,139.5,713.6,630,630,0,0,0,80.38,68,5,5,0,1,0,5.81-8.18,619.78,619.78,0,0,1-79.1-66.88,640.29,640.29,0,0,1,0-906.31,624.57,624.57,0,0,1,77.68-65.95,5,5,0,1,0-5.84-8.16,633.56,633.56,0,0,0-78.93,67A648.85,648.85,0,0,0,455.87,659.11Z" style="fill:none"/><path d="M476.85,668a627.63,627.63,0,0,0,134.61,688.65,608.77,608.77,0,0,0,80.85,67.93,5,5,0,1,0,5.76-8.22,598.45,598.45,0,0,1-79.51-66.81,617.56,617.56,0,0,1,0-874.12,602.8,602.8,0,0,1,77.82-65.69,5,5,0,0,0-5.79-8.19,612.57,612.57,0,0,0-79.13,66.79A625.77,625.77,0,0,0,476.85,668Z" style="fill:none"/><path d="M582.53,1529.5a787.67,787.67,0,0,1-76.64-67.31,776.76,776.76,0,0,1,0-1099.46,790,790,0,0,1,76.83-67.46,5,5,0,1,0-6.11-8,799,799,0,0,0-77.81,68.33,786.77,786.77,0,0,0,0,1113.64,796.27,796.27,0,0,0,77.61,68.17,5,5,0,1,0,6.12-8Z" style="fill:none"/><path d="M654.35,1560a762.31,762.31,0,0,0,104.46,54h0v-93.75q-21.47-10.5-42.24-22.52Z" style="fill:none"/><path d="M728.3,433.84a5,5,0,0,0-5.15.31,574.52,574.52,0,0,0-79.5,66.35,582.09,582.09,0,0,0,0,823.92,572.69,572.69,0,0,0,81.77,67.87,5,5,0,0,0,2.87.87V1486q15.08,8.61,30.54,16.39V322.51q-15.45,7.78-30.53,16.39Z" style="fill:none"/><path d="M619.91,253.12l7.66,7.65,9.41.81a773.24,773.24,0,0,1,117.11-61.82c1.57-.67,3.16-1.31,4.74-2V180.06q-5.58,2.25-11.12,4.59A789.15,789.15,0,0,0,619.91,253.12Z" style="fill:none"/><path d="M654.35,265,716.6,327.2q20.74-12,42.23-22.52V210.92h0A762.31,762.31,0,0,0,654.35,265Z" style="fill:none"/><path d="M599.35,232.56l11.82,11.82A801.45,801.45,0,0,1,743,173.48q7.89-3.33,15.84-6.48V149.37q-11.16,4.35-22.22,9A816.76,816.76,0,0,0,599.35,232.56Z" style="fill:none"/><path d="M497.82,676.83a604.85,604.85,0,0,0,129.74,663.69,589.17,589.17,0,0,0,81.31,67.9,5,5,0,0,0,5.71-8.25,579,579,0,0,1-79.93-66.75,594.81,594.81,0,0,1,0-841.92,582.62,582.62,0,0,1,78-65.44,5,5,0,0,0-5.75-8.22,592.18,592.18,0,0,0-79.31,66.56A603.33,603.33,0,0,0,497.82,676.83Z" style="fill:none"/><path d="M549.56,163A909.34,909.34,0,0,0,327.19,376.23a121.81,121.81,0,0,1-3.51,24.29,98.66,98.66,0,0,1-6.08,17.57A894,894,0,0,1,709.68,94.65Q733.61,84.54,758,75.88a25.62,25.62,0,0,0-9.56-14q-22.71,8.2-45.08,17.65A906.48,906.48,0,0,0,549.56,163Z" style="fill:none"/><path d="M395.44,253.36a941.14,941.14,0,0,0-74.75,84.33,87.89,87.89,0,0,1,5.45,19.73,919.68,919.68,0,0,1,372.44-289q14.19-6,28.53-11.49H683.83A934.54,934.54,0,0,0,395.44,253.36Z" style="fill:none"/><path d="M435.77,293.69A873.5,873.5,0,0,0,247.9,572.33C202.33,680.06,179.17,794.49,179,912.45c.14,118,23.3,232.39,68.87,340.13a879.78,879.78,0,0,0,466.51,466.51q20.77,8.79,41.89,16.45a25.59,25.59,0,0,0,2.53-11.12V1719q-19.16-7.05-38-15A859.4,859.4,0,0,1,195.43,913.54h0c0-.37,0-.73,0-1.09s0-.72,0-1.08h0A861.14,861.14,0,0,1,720.79,120.93q18.87-8,38-15V88.46q-22.4,8.06-44.42,17.36A873.61,873.61,0,0,0,435.77,293.69Z" style="fill:none"/><path d="M453.67,162.92a.75.75,0,0,0,0,.15,6.06,6.06,0,0,1-4.05,5.3c-.29.1-1.84.63-4.3,1.33q-36.56,30-70.05,63.49A970.6,970.6,0,0,0,304.68,312a93.24,93.24,0,0,1,10,13.7A946.63,946.63,0,0,1,654.42,56.89H617.18a964.11,964.11,0,0,0-99.51,58.81Q484.78,137.93,453.67,162.92Z" style="fill:none"/><path d="M592.89,303.63a764.68,764.68,0,0,0,.08,1217.7,5,5,0,1,0,6.06-8A754.77,754.77,0,0,1,599,311.62a5,5,0,0,0-6.07-8Z" style="fill:none"/><path d="M372,623.67A741.4,741.4,0,0,0,609.52,1505.2a5,5,0,0,0,6-8A719.63,719.63,0,0,1,538.08,1430,731.47,731.47,0,0,1,615.2,328a5,5,0,1,0-6-8A742.52,742.52,0,0,0,372,623.67Z" style="fill:none"/><path d="M393,632.53A718.57,718.57,0,0,0,547.08,1421a704.21,704.21,0,0,0,79,68.07,5,5,0,1,0,6-8.07,692.75,692.75,0,0,1-77.86-67.1,708.51,708.51,0,0,1,0-1002.88,695.81,695.81,0,0,1,77.25-66.7,5,5,0,1,0-6-8.06,707.11,707.11,0,0,0-78.38,67.66A716.89,716.89,0,0,0,393,632.53Z" style="fill:none"/><path d="M413.93,641.39A695.82,695.82,0,0,0,563.18,1404.9a675.9,675.9,0,0,0,79.46,68,5,5,0,0,0,5.91-8.11,666.32,666.32,0,0,1-78.28-67,685.82,685.82,0,0,1,0-970.7,670.11,670.11,0,0,1,77.4-66.44,5,5,0,0,0-5.93-8.1A681.2,681.2,0,0,0,563.18,420,694,694,0,0,0,413.93,641.39Z" style="fill:none"/><path d="M455.93,313.85a847.28,847.28,0,0,0,269.58,1379q16.54,7,33.32,13.26v-17.53q-13.55-5.19-26.94-10.84a828.8,828.8,0,0,1-141.28-76.59l-5.07,5.06-4.79-3.3A845,845,0,0,1,317,1308.43a837.56,837.56,0,0,1,0-791.94A845,845,0,0,1,580.75,222.05l4.79-3.3,5.06,5.06a828.94,828.94,0,0,1,141.29-76.6q13.4-5.67,26.94-10.84V118.84q-16.77,6.27-33.32,13.26A845.17,845.17,0,0,0,455.93,313.85Z" style="fill:none"/><path d="M611.18,1580.54l-11.82,11.81a816.28,816.28,0,0,0,137.25,74.18q11.05,4.68,22.22,9v-17.63c-5.3-2.11-10.58-4.26-15.84-6.49A800.85,800.85,0,0,1,611.18,1580.54Z" style="fill:none"/><path d="M103.63,1349.42a119.56,119.56,0,0,1,13.48-9.92q-6.08-13.27-11.76-26.69a1023.66,1023.66,0,0,1-45.88-133.37v57.46q13.61,41.64,30.77,82.29Q96.68,1334.4,103.63,1349.42Z" style="fill:none"/><path d="M127.75,1333.59a102.28,102.28,0,0,1,10.77-4.46c1.54-.54,3-1.09,4.47-1.64q-5.87-12.83-11.36-25.78a992.68,992.68,0,0,1-72.16-274.12v100.46a1010.07,1010.07,0,0,0,57.05,180Q122,1320.91,127.75,1333.59Z" style="fill:none"/><path d="M143,497.42c-1.45-.56-2.93-1.1-4.47-1.64a100.27,100.27,0,0,1-10.77-4.47Q122,504,116.52,516.82a1010.43,1010.43,0,0,0-57,180V797.31A992.71,992.71,0,0,1,131.63,523.2Q137.12,510.24,143,497.42Z" style="fill:none"/><path d="M82.62,1371.79a145.68,145.68,0,0,1,11.69-13.65q-7.92-17-15.23-34.23-10.48-24.79-19.61-50v45.49c1.48,3.63,3,7.25,4.5,10.86Q72.82,1351.22,82.62,1371.79Z" style="fill:none"/><path d="M66.51,1397.84q3.81-7.59,8.17-14.52-7.89-16.35-15.21-32.94v39.14q2.74,5.7,5.54,11.37C65.5,1399.86,66,1398.85,66.51,1397.84Z" style="fill:none"/><path d="M147.46,451.27c17.13,7.34,38.16,11.69,59.21,12.23,23.58.61,45.15-3.62,62.4-12.22,22.43-11.19,36.84-29.24,42.83-53.65,6.54-26.66,3.21-50-9.9-69.41a88.07,88.07,0,0,0-29-26.59,74.88,74.88,0,0,1-19.46-16.19,74.34,74.34,0,0,0,3.72,16.61,6.07,6.07,0,0,1-6.33,8c-10-1-18.06.94-23.23,5.62-6,5.42-7.24,13.48-7.24,19.29,0,10.72,7.55,16.91,12.25,19.72,4.43-4.13,13-9.18,26.48-5.8,15.65,3.91,25.46,16.82,25.46,32.49a38.66,38.66,0,0,1-.56,6.53,44.38,44.38,0,0,1-5.18,14.51c-3.44,10.06-10.94,18.72-22.2,25.49-16.13,9.7-38,14.27-59.6,13.69,19,4,38,3.21,54.81-2.81,20.23-7.24,34.38-21.09,39.85-39,14.47-47.35-21.94-71.4-22.31-71.64a4.18,4.18,0,1,1,4.52-7,69.36,69.36,0,0,1,19.14,20.39,68.34,68.34,0,0,1,10.43,36.57,82.59,82.59,0,0,1-3.78,24.16c-6.26,20.48-22.25,36.25-45,44.4-33.26,11.9-73.89,5.2-108.69-17.94l-.16-.13-.35-.29-.25-.24a2.88,2.88,0,0,1-.27-.34,3,3,0,0,1-.2-.29,2.64,2.64,0,0,1-.2-.37,3,3,0,0,1-.15-.31c0-.14-.09-.3-.13-.45a2.29,2.29,0,0,1-.08-.28,4.2,4.2,0,0,1-.07-.62c0-.05,0-.09,0-.14a3.91,3.91,0,0,1,.07-.76c0-.11.06-.21.09-.32a2.79,2.79,0,0,1,.1-.39l0-.05c0-.1.09-.2.14-.3a4.5,4.5,0,0,1,.23-.43.36.36,0,0,1,0-.09c0-.06.1-.11.14-.16l.3-.38.25-.23.33-.27a2.61,2.61,0,0,1,.3-.2,2.64,2.64,0,0,1,.37-.2l.31-.14.43-.13.3-.08a3.91,3.91,0,0,1,.48,0l.29,0a4.07,4.07,0,0,1,.49.05c.1,0,.2,0,.3,0h0a197.58,197.58,0,0,0,42.89,3c-24.78-2.74-46.76-12.68-64.32-29.24a4.18,4.18,0,0,1,4.94-6.67,152.6,152.6,0,0,0,38.83,14.12c19.55,4.18,37.12,3.71,52.49-1.37-21.85-2.31-61.85-10.54-86.79-39.66a85.32,85.32,0,0,1-16.53-29.68c-.06,3.35,0,6.5.1,9.38a4.18,4.18,0,0,1-8.25,1.12c-.24-1-5.8-25.51-2.88-61.23a243.4,243.4,0,0,1,28.42-96.05c-22.31,25-32,58-36.22,82.52a4.18,4.18,0,0,1-8.3-.92c.1-2,2.58-42.84,31.56-89.08-14.39,15.17-29.89,38.84-38.89,74.85C74.57,298.83,81,334,88.38,355.22c8,23,19,35.27,19.09,35.39a4.18,4.18,0,0,1-5.78,6c-.53-.44-13.14-11.23-22.86-35.68C70,338.75,61.94,300.39,73.62,243.71c5.38-26.08,15.06-49.24,28.87-69.17-.76.76-1.51,1.52-2.23,2.27A175.54,175.54,0,0,0,83.1,197.67c-1.93,2.91-3.79,5.88-5.59,8.88a209.75,209.75,0,0,0-18,68.28v36.49a195.51,195.51,0,0,0,23.77,78.41C99.36,418.58,122.17,440.43,147.46,451.27Z" style="fill:none"/><path d="M66.51,427.07c-.51-1-1-2-1.5-3.05q-2.81,5.67-5.54,11.37v39.14Q66.79,458,74.68,441.59,70.33,434.66,66.51,427.07Z" style="fill:none"/><path d="M83.1,1627.24a174.73,174.73,0,0,0,17.16,20.85c.72.75,1.47,1.51,2.23,2.28-13.81-19.93-23.49-43.09-28.87-69.17-11.68-56.68-3.62-95,5.21-117.24,9.72-24.44,22.33-35.23,22.86-35.67a4.18,4.18,0,0,1,5.78,6c-.11.12-11,12.34-19.09,35.39-7.42,21.26-13.81,56.39-2.16,103,9,36,24.5,59.67,38.89,74.84-29-46.23-31.46-87.1-31.56-89.07a4.18,4.18,0,0,1,8.3-.92c4.2,24.52,13.91,57.54,36.22,82.52a243.4,243.4,0,0,1-28.42-96c-2.92-35.72,2.64-60.21,2.88-61.24a4.18,4.18,0,0,1,8.25,1.13c-.13,2.88-.16,6-.1,9.38a85.32,85.32,0,0,1,16.53-29.68c24.94-29.12,64.94-37.35,86.79-39.66-15.37-5.08-32.94-5.56-52.49-1.37a152.6,152.6,0,0,0-38.83,14.12,4.18,4.18,0,0,1-4.94-6.67c17.56-16.56,39.54-26.5,64.32-29.24a197.58,197.58,0,0,0-42.89,3h0l-.3,0a4.07,4.07,0,0,1-.49,0l-.29,0-.48,0-.3-.08-.43-.13-.31-.14a2.64,2.64,0,0,1-.37-.2l-.3-.2-.33-.27a2.77,2.77,0,0,1-.25-.24,3.72,3.72,0,0,1-.3-.37c0-.06-.1-.1-.14-.17a.2.2,0,0,1,0-.08,3.68,3.68,0,0,1-.23-.44,2.59,2.59,0,0,1-.14-.29l0-.05a2.79,2.79,0,0,1-.1-.39c0-.11-.07-.21-.09-.32a3.91,3.91,0,0,1-.07-.76c0-.05,0-.09,0-.14a4.2,4.2,0,0,1,.07-.62,2.29,2.29,0,0,1,.08-.28c0-.16.08-.31.13-.45a3,3,0,0,1,.15-.31,3.48,3.48,0,0,1,.2-.38,2.83,2.83,0,0,1,.2-.28,2.88,2.88,0,0,1,.27-.34l.25-.24a3.17,3.17,0,0,1,.35-.29l.16-.13c34.8-23.14,75.43-29.85,108.69-17.94,22.78,8.15,38.77,23.92,45,44.4a82.59,82.59,0,0,1,3.78,24.16,68.3,68.3,0,0,1-10.43,36.56,69.48,69.48,0,0,1-19.14,20.4,4.18,4.18,0,1,1-4.52-7c.37-.24,36.78-24.29,22.31-71.64-5.47-17.9-19.62-31.74-39.85-39-16.83-6-35.77-6.84-54.81-2.81,21.59-.58,43.47,4,59.6,13.69,11.26,6.76,18.76,15.43,22.2,25.49a44.38,44.38,0,0,1,5.18,14.51,38.46,38.46,0,0,1,.56,6.52c0,15.68-9.81,28.59-25.46,32.5-13.51,3.38-22.05-1.67-26.48-5.8-4.7,2.81-12.25,9-12.25,19.72,0,5.81,1.26,13.87,7.24,19.29,5.17,4.68,13.21,6.62,23.23,5.62a6.07,6.07,0,0,1,6.33,8,74.34,74.34,0,0,0-3.72,16.61,75.1,75.1,0,0,1,19.46-16.2,87.9,87.9,0,0,0,29-26.58c13.11-19.39,16.44-42.75,9.9-69.41-6-24.41-20.4-42.46-42.83-53.65-17.25-8.61-38.82-12.83-62.4-12.22-21,.54-42.08,4.89-59.21,12.23-25.29,10.83-48.1,32.69-64.22,61.54a195.46,195.46,0,0,0-23.77,78.41v36.49a209.75,209.75,0,0,0,18,68.28Q80.21,1622.86,83.1,1627.24Z" style="fill:none"/><path d="M117.11,485.41a120.8,120.8,0,0,1-13.48-9.92q-6.93,15-13.39,30.23Q73.07,546.35,59.47,588v57.46A1023.15,1023.15,0,0,1,105.35,512.1Q111,498.67,117.11,485.41Z" style="fill:none"/><path d="M94.31,466.77a145.68,145.68,0,0,1-11.69-13.65Q72.85,473.68,64,494.62c-1.53,3.61-3,7.23-4.5,10.86V551q9.16-25.17,19.61-50Q86.37,483.77,94.31,466.77Z" style="fill:none"/><path d="M427.2,1539.8a892.38,892.38,0,0,1-109.6-133,98.66,98.66,0,0,1,6.08,17.57,121.82,121.82,0,0,1,3.51,24.28,907.28,907.28,0,0,0,376.12,296.69q5.66,2.4,11.33,4.7h18.55a25.49,25.49,0,0,0,14.74-4.67q-19.26-7.11-38.25-15.14A885.8,885.8,0,0,1,427.2,1539.8Z" style="fill:none"/><path d="M386.87,1580.13a952.44,952.44,0,0,1-72.15-81,93.24,93.24,0,0,1-10,13.7,970.6,970.6,0,0,0,70.59,78.85q33.41,33.39,70.05,63.49c2.46.7,4,1.22,4.3,1.32a6.09,6.09,0,0,1,4.05,5.31.75.75,0,0,0,0,.15q31.05,24.94,64,47.22,32.21,21.75,66.16,40.85h34.35a945.7,945.7,0,0,1-231.31-169.93Z" style="fill:none"/><path d="M445.6,1671c-3.29,2.82-7.31,7.38-8.71,13.67,0,.11,0,.22-.05.32q31.5,25.24,64.89,47.84,13,8.81,26.37,17.2h31.5q-24.81-14.68-48.71-30.81Q477.31,1696.57,445.6,1671Z" style="fill:none"/><path d="M407,1560a924.74,924.74,0,0,1-80.89-92.47,88,88,0,0,1-5.45,19.73A935.56,935.56,0,0,0,645,1750.06H683.7A918.57,918.57,0,0,1,407,1560Z" style="fill:none"/><path d="M296.91,1651.37c1.37,3.88,2.74,8,4.13,12.48A132.14,132.14,0,0,0,312,1689.34q31.35,30,65.08,57.39c2.53,1.16,5.13,2.26,7.77,3.33h22.79a1068.62,1068.62,0,0,1-101.42-89.27Q301.53,1656.11,296.91,1651.37Z" style="fill:none"/><path d="M126.58,136.71a291.36,291.36,0,0,1,25.27-19c29.07-19.45,63-34.89,100.92-45.89A467.73,467.73,0,0,1,317.88,58c2-.38,3.93-.74,5.91-1.1H256.85a5.81,5.81,0,0,1-1.49.82C202.26,77.73,159.1,104.23,126.58,136.71Z" style="fill:none"/><path d="M84.19,1686.63a197.31,197.31,0,0,1-24.72-42.37v12.61c13,37.2,40.43,65.76,61.7,83.48,4.24,3.52,8.39,6.76,12.37,9.71H154c-5.71-3.73-11.65-7.87-17.7-12.42C115.6,1722.08,98.06,1704.91,84.19,1686.63Z" style="fill:none"/><path d="M59.47,1678.17v7.58c7.27,27,26.61,49.21,43.49,64.31h16.89c-1.28-1-2.56-2.07-3.86-3.15C97.48,1731.52,74.5,1708.19,59.47,1678.17Z" style="fill:none"/><path d="M59.47,1708.76v7.84a109.62,109.62,0,0,0,17.07,32,25.58,25.58,0,0,0,8.57,1.47h5.52C80,1739.63,68,1725.57,59.47,1708.76Z" style="fill:none"/><path d="M94.56,1670.11A235.64,235.64,0,0,1,59.47,1606v12.53c5.84,22,16.34,43.15,31.3,62.9,13.38,17.65,30.33,34.26,50.37,49.36a327.35,327.35,0,0,0,28.66,19.23h19.66C150.22,1728,118.43,1701.26,94.56,1670.11Z" style="fill:none"/><path d="M126.58,1688.2c24,23.93,53.71,44.62,89,61.86h27.29c-33.91-10.75-64.48-25.13-91-42.87A289.25,289.25,0,0,1,126.58,1688.2Z" style="fill:none"/><path d="M346.54,1620.46A1008.24,1008.24,0,0,1,272.7,1538,68.64,68.64,0,0,0,261,1549.51a1027.1,1027.1,0,0,0,74,82.54q20.37,20.35,41.9,39.57a30.82,30.82,0,0,1,10.08-13Q366.19,1640.09,346.54,1620.46Z" style="fill:none"/><path d="M301,161.06c-1.39,4.45-2.76,8.6-4.13,12.48q4.62-4.74,9.29-9.42A1068.51,1068.51,0,0,1,422.55,63.5c-3.07.66-6.16,1.37-9.27,2.15a213.94,213.94,0,0,0-36.22,12.52q-33.68,27.39-65.08,57.4A131.87,131.87,0,0,0,301,161.06Z" style="fill:none"/><path d="M417.89,135.19a6.07,6.07,0,0,1-12,.32c-.15-.88-2.84-17.82,12.47-39.7a4.07,4.07,0,0,0-.54-2c-1.16-1.84-5-2.6-10.51-2.14a75.47,75.47,0,0,0-11.27,12.12c-9.08,12.41-12.37,26.26-9.5,40,1.38,6.61,4.61,11.28,9.88,14.27,6.9,3.91,17.43,5,30.48,3.19,2.66-.37,5.18-.83,7.46-1.32A36.28,36.28,0,0,1,425.1,143c-2.85-12.49,1.34-26.11,12.44-40.5.3-.39.63-.78.94-1.16l-.37.33a74,74,0,0,0-16.9,23.19A41.68,41.68,0,0,0,417.89,135.19Z" style="fill:none"/><path d="M497.21,80.49C472.59,89,455.57,99,447.14,109.92a63.07,63.07,0,0,0-7.67,12.42Q466.54,101.22,494.94,82Z" style="fill:none"/><path d="M289.94,113.91A157,157,0,0,1,307.5,93.32c-17.62,11.41-32.32,24.11-43.9,38-14.62,17.48-24.36,36.88-29,57.63a128.81,128.81,0,0,0-1.62,46.8c4.94-6.81,10.44-9.9,15.83-12.93,11.51-6.46,24.56-13.79,40.6-65.34a139.41,139.41,0,0,1,29.23-52.05,172.14,172.14,0,0,0-42.45,53.8,4.18,4.18,0,0,1-7.76-3C268.7,155.41,274,136.18,289.94,113.91Z" style="fill:none"/><path d="M373.7,139.84A58.69,58.69,0,0,1,376.27,116q-31.87,27.17-61.49,56.75-16.87,16.86-33,34.52c-6.68,11.13-13,17.1-18.82,21.17a1054,1054,0,0,0-76.14,99.37q-6.76,10-13.28,20.18a49.92,49.92,0,0,0,5.2,2.52,48.9,48.9,0,0,0,8.44,2.63c.81.12,1.6.21,2.37.29q5.35-8.29,10.87-16.47,4.58-6.77,9.27-13.46a33.43,33.43,0,0,1,9.83-16.74,32.71,32.71,0,0,1,4.68-3.49q8.35-11.36,17-22.48c.16-5.35,1.34-10.45,4.44-14.06a6.08,6.08,0,0,1,5.24-2.08,5.94,5.94,0,0,1,2.47.83,1038.14,1038.14,0,0,1,73-81.14Q349.31,161.36,373.7,139.84Z" style="fill:none"/><path d="M436.89,140.21c1.4,6.29,5.42,10.85,8.71,13.66q31.68-25.47,65.29-48.22,35.63-24.06,73.36-44.93c-11.82,1.71-25.73,4-40.14,7.08-2.46.52-4.87,1.06-7.25,1.59q-17.8,11-35.13,22.66-33.35,22.53-64.89,47.83C436.86,140,436.87,140.1,436.89,140.21Z" style="fill:none"/><path d="M386.92,166.27a30.82,30.82,0,0,1-10.08-13q-21.51,19.2-41.9,39.57a1027.1,1027.1,0,0,0-74,82.54,68.64,68.64,0,0,0,11.75,11.54,1008.24,1008.24,0,0,1,73.84-82.49Q366.16,184.82,386.92,166.27Z" style="fill:none"/><path d="M189.33,155.45a196.89,196.89,0,0,0-25.13,38.83q33.21-41.1,70.07-79A209.47,209.47,0,0,0,189.33,155.45Z" style="fill:none"/><path d="M398.68,172q-22.41,19.86-43.57,41A997.36,997.36,0,0,0,283,293.5a104.64,104.64,0,0,1,13.09,9.9,979.19,979.19,0,0,1,70.63-78.78Q393,198.3,421.39,174C413.94,174.49,406,174.15,398.68,172Z" style="fill:none"/><path d="M60.83,74.29a25.56,25.56,0,0,0-1.36,8.24v4.68A137.72,137.72,0,0,1,82,57.09c-.43,0-.86.11-1.29.19A33.55,33.55,0,0,0,60.83,74.29Z" style="fill:none"/><path d="M59.47,108.31v7.84C69,97.38,82.8,82,94.31,71.34a221.08,221.08,0,0,1,17.25-14.45H94.39C89.49,61.17,68.27,80.88,59.47,108.31Z" style="fill:none"/><path d="M211.57,1475.48a13.79,13.79,0,0,0-2-1.46,38.63,38.63,0,0,0-4.93-1.55c1.69,2.55,3.37,5.1,5.08,7.63A32.18,32.18,0,0,1,211.57,1475.48Z" style="fill:none"/><path d="M204.67,352.43a37.17,37.17,0,0,0,4.93-1.54,13.11,13.11,0,0,0,2-1.47,31.6,31.6,0,0,1-1.82-4.61C208,347.34,206.36,349.89,204.67,352.43Z" style="fill:none"/><path d="M90.77,143.44c-15,19.75-25.46,40.88-31.3,62.9v12.53A235.64,235.64,0,0,1,94.56,154.8c30.78-40.18,74.73-73,130.85-97.91h-21a325.05,325.05,0,0,0-63.28,37.19C121.1,109.18,104.15,125.79,90.77,143.44Z" style="fill:none"/><path d="M59.47,168v12.62a197.07,197.07,0,0,1,24.72-42.37c13.87-18.28,31.41-35.45,52.11-51a339,339,0,0,1,48.57-30.37h-24a282.94,282.94,0,0,0-39.74,27.67C99.9,102.28,72.46,130.84,59.47,168Z" style="fill:none"/><path d="M153.15,305a1090.67,1090.67,0,0,1,66.33-88.15,140.85,140.85,0,0,1,3-28.76,1109.79,1109.79,0,0,0-79.66,103,120.48,120.48,0,0,0,4.67,22.44Q150.28,309.29,153.15,305Z" style="fill:none"/><path d="M254.29,123.52c11.93-14.28,26.88-27.35,44.67-39.1a275.44,275.44,0,0,0-26.41,9.94q-9.23,8.83-18.27,17.84A1142.38,1142.38,0,0,0,149.82,232.43c-1.41,5.19-2.68,10.47-3.76,15.87a191.73,191.73,0,0,0-3.1,21.32,1126.74,1126.74,0,0,1,88.66-110A153.77,153.77,0,0,1,254.29,123.52Z" style="fill:none"/><path d="M59.47,139.16v7.58c15-30,38-53.35,56.52-68.74a294,294,0,0,1,28.8-21.11H126C110.8,67.12,70.71,97.44,59.47,139.16Z" style="fill:none"/><path d="M396.43,1666.87c-5.27,3-8.5,7.66-9.88,14.26-2.87,13.78.42,27.63,9.5,40a75.47,75.47,0,0,0,11.27,12.12c5.55.46,9.35-.3,10.51-2.14a4.07,4.07,0,0,0,.54-2.05c-15.31-21.89-12.62-38.82-12.47-39.7a6.07,6.07,0,0,1,12,.31,41.54,41.54,0,0,0,3.32,10.33,73.85,73.85,0,0,0,16.9,23.18l.37.34c-.31-.39-.64-.77-.94-1.16-11.1-14.39-15.29-28-12.44-40.5a36.28,36.28,0,0,1,9.27-16.9c-2.28-.49-4.8-1-7.46-1.32C413.86,1661.85,403.33,1663,396.43,1666.87Z" style="fill:none"/><path d="M248.86,1602.1c-5.39-3-10.89-6.11-15.83-12.93a128.81,128.81,0,0,0,1.62,46.8c4.59,20.76,14.33,40.15,29,57.64,11.58,13.87,26.28,26.57,43.9,38A158.34,158.34,0,0,1,289.94,1711c-15.91-22.27-21.24-41.51-21.46-42.31a4.18,4.18,0,0,1,7.76-3,172.14,172.14,0,0,0,42.45,53.8,139.41,139.41,0,0,1-29.23-52C273.42,1615.9,260.37,1608.57,248.86,1602.1Z" style="fill:none"/><path d="M497.21,1744.42l-2.27-1.52q-28.38-19.17-55.47-40.33a63.07,63.07,0,0,0,7.67,12.42C455.57,1725.91,472.59,1735.86,497.21,1744.42Z" style="fill:none"/><path d="M254.29,1701.39a154,154,0,0,1-22.67-36.1,1126.74,1126.74,0,0,1-88.66-110,191.73,191.73,0,0,0,3.1,21.32c1.08,5.4,2.35,10.67,3.76,15.86a1142.49,1142.49,0,0,0,104.46,120.24q9,9,18.27,17.83a273,273,0,0,0,26.41,10C281.17,1728.74,266.22,1715.67,254.29,1701.39Z" style="fill:none"/><path d="M373.7,1685.06q-24.37-21.48-47.33-44.44a1038.14,1038.14,0,0,1-73-81.14,6,6,0,0,1-7.71-1.25c-3.1-3.62-4.28-8.71-4.44-14.06q-8.65-11.13-17-22.48a32.71,32.71,0,0,1-4.68-3.49,33.43,33.43,0,0,1-9.83-16.74q-4.68-6.7-9.27-13.47-5.52-8.16-10.87-16.46c-.77.08-1.56.17-2.37.29a48,48,0,0,0-8.44,2.63,49.92,49.92,0,0,0-5.2,2.52q6.52,10.17,13.28,20.18A1054,1054,0,0,0,263,1596.52c5.83,4.07,12.14,10,18.82,21.16q16.11,17.65,33,34.53,29.55,29.57,61.49,56.74A58.65,58.65,0,0,1,373.7,1685.06Z" style="fill:none"/><path d="M189.33,1669.45a209.25,209.25,0,0,0,44.94,40.21q-36.79-37.85-70.07-79A196.53,196.53,0,0,0,189.33,1669.45Z" style="fill:none"/><path d="M220.6,1590.34a110,110,0,0,1,4.49-20.6q-25.41-32-48.3-65.8-6.64-9.86-13.07-19.87A56.73,56.73,0,0,0,153,1497.6q5.06,7.79,10.24,15.5Q190.09,1552.91,220.6,1590.34Z" style="fill:none"/><path d="M219.48,1608a1092.43,1092.43,0,0,1-66.33-88.15q-2.88-4.26-5.71-8.56a120.15,120.15,0,0,0-4.67,22.44,1109.66,1109.66,0,0,0,79.66,103A140.76,140.76,0,0,1,219.48,1608Z" style="fill:none"/><path d="M168.45,1314.57q-5.43-11.91-10.54-24c-50.53-119.46-76.27-246.32-76.56-377.07h0c0-.37,0-.73,0-1.09s0-.72,0-1.08h0c.29-130.76,26-257.61,76.56-377.07q5.09-12,10.54-24a117.09,117.09,0,0,0-14.32-8.14q-5.85,12.8-11.33,25.72C91.28,649.73,65.1,779.09,65,912.45c.15,133.36,26.33,262.73,77.85,384.53q5.46,12.94,11.33,25.72A115.84,115.84,0,0,0,168.45,1314.57Z" style="fill:none"/><path d="M142.51,1340.58c-26.31,9.15-49.45,31.42-65.17,62.7q-2.24,4.46-4.24,9.07c13.83-22.07,31.77-37.56,47.56-48,30.05-19.85,58.22-25.92,59.4-26.17a6,6,0,0,1,3.68.39,27.86,27.86,0,0,0,2.17-22.13C178.58,1323,164.89,1332.79,142.51,1340.58Z" style="fill:none"/><path d="M274.48,462.13c-1.59.79-3.2,1.53-4.82,2.25a900.59,900.59,0,0,0-48,96.85c-47.06,111.25-71,229.41-71.12,351.22.14,121.81,24.06,240,71.12,351.23a900.59,900.59,0,0,0,48,96.85c1.62.71,3.23,1.45,4.82,2.25a93.94,93.94,0,0,1,28.5,21.54,886.57,886.57,0,0,1-66.24-127c-46.07-108.92-69.55-224.56-69.83-343.77h0c0-.37,0-.73,0-1.09s0-.72,0-1.08h0c.28-119.21,23.76-234.86,69.83-343.77a886,886,0,0,1,66.24-127A93.94,93.94,0,0,1,274.48,462.13Z" style="fill:none"/><path d="M283,1531.41a997.36,997.36,0,0,0,72.13,80.47q21.13,21.13,43.57,41c7.28-2.13,15.26-2.47,22.71-2q-28.31-24.29-54.69-50.64a980.9,980.9,0,0,1-70.63-78.78A104.64,104.64,0,0,1,283,1531.41Z" style="fill:none"/><path d="M109.87,913.54h0c0-.37,0-.73,0-1.09s0-.72,0-1.08h0c.28-126.91,25.27-250,74.31-366q15-35.5,33-69.82a179.49,179.49,0,0,1-18.29-.32q-1.81,3.56-3.6,7.12a39,39,0,0,1,4.16,17.4c0,6.64-1.73,14.14-6.29,22.35a6.07,6.07,0,0,1-10.19.65A40.21,40.21,0,0,0,178.3,518q-4.74,10.49-9.23,21.07c-50,118.29-75.46,243.92-75.6,373.43.14,129.51,25.57,255.15,75.6,373.43q4.49,10.59,9.23,21.07a40.71,40.71,0,0,0,4.67-4.82,6.07,6.07,0,0,1,10.19.64c4.56,8.22,6.29,15.71,6.29,22.36a39,39,0,0,1-4.16,17.4q1.78,3.57,3.6,7.11a182.43,182.43,0,0,1,18.29-.31q-17.94-34.27-33-69.82C135.14,1163.56,110.15,1040.44,109.87,913.54Z" style="fill:none"/><path d="M138.39,913.54h0v-2.17h0c.28-123.06,24.52-242.44,72.07-354.87a915.74,915.74,0,0,1,41.85-86,146.62,146.62,0,0,1-20.84,4q-19.77,37-36.12,75.62C146.81,664.89,122.13,786.79,122,912.45c.14,125.66,24.82,247.56,73.36,362.33q16.29,38.54,36.12,75.63a145.23,145.23,0,0,1,20.84,4,915.74,915.74,0,0,1-41.85-86C162.91,1156,138.67,1036.6,138.39,913.54Z" style="fill:none"/><path d="M183.74,486.34a6.12,6.12,0,0,1-3.68.39c-1.18-.25-29.35-6.32-59.4-26.18-15.79-10.43-33.73-25.93-47.56-48q2,4.62,4.24,9.08c15.72,31.28,38.86,53.55,65.17,62.7,22.38,7.79,36.07,17.6,43.4,24.14A27.86,27.86,0,0,0,183.74,486.34Z" style="fill:none"/><path d="M225.09,255.16a109.63,109.63,0,0,1-4.49-20.59q-30.42,37.37-57.41,77.24Q158,319.51,153,327.31a56.93,56.93,0,0,0,10.77,13.53q6.42-10,13.07-19.87Q199.61,287.2,225.09,255.16Z" style="fill:none"/><path d="M59.47,116.15v23c11.24-41.72,51.33-72,66.54-82.27H111.56A221.08,221.08,0,0,0,94.31,71.34C82.8,82,69,97.38,59.47,116.15Z" style="fill:#3f2413"/><path d="M126,56.89H111.56A221.08,221.08,0,0,0,94.31,71.34C82.8,82,69,97.38,59.47,116.15v23c11.24-41.72,51.33-72,66.54-82.27Z" style="fill:#3f2413"/><path d="M59.47,108.31c8.8-27.43,30-47.14,34.92-51.42H85.11a24.77,24.77,0,0,0-3.12.2A137.72,137.72,0,0,0,59.47,87.21Z" style="fill:#3f2413"/><path d="M94.39,56.89H85.11a24.77,24.77,0,0,0-3.12.2A137.72,137.72,0,0,0,59.47,87.21v21.1c8.8-27.43,30-47.14,34.92-51.42Z" style="fill:#3f2413"/><path d="M59.47,1724.42a25.65,25.65,0,0,0,17.07,24.17,109.62,109.62,0,0,1-17.07-32Z" style="fill:#3f2413"/><path d="M59.47,1716.6v7.82a25.63,25.63,0,0,0,17.07,24.16,109.43,109.43,0,0,1-17.07-32Z" style="fill:#3f2413"/><path d="M80.7,57.28a25.64,25.64,0,0,0-19.87,17A33.55,33.55,0,0,1,80.7,57.28Z" style="fill:#3f2413"/><path d="M80.7,57.28a25.64,25.64,0,0,0-19.87,17,33.55,33.55,0,0,1,19.87-17Z" style="fill:#3f2413"/><path d="M84.19,138.28a197.07,197.07,0,0,0-24.72,42.37v25.69c5.84-22,16.34-43.15,31.3-62.9,13.38-17.65,30.33-34.26,50.37-49.36a325.05,325.05,0,0,1,63.28-37.19H184.87A339,339,0,0,0,136.3,87.26C115.6,102.83,98.06,120,84.19,138.28Z" style="fill:#3f2413"/><path d="M204.42,56.89H184.87A339,339,0,0,0,136.3,87.26c-20.7,15.57-38.24,32.74-52.11,51a197.07,197.07,0,0,0-24.72,42.37v25.69c5.84-22,16.34-43.15,31.3-62.9,13.38-17.65,30.33-34.26,50.37-49.36a325.05,325.05,0,0,1,63.28-37.19Z" style="fill:#3f2413"/><path d="M431.73,1735.56a19.2,19.2,0,0,0,1.11-5.42l4.5-4.22a69.4,69.4,0,0,0,10.18,9.64Zm-99.54,0-14.16-14,3.47-3.56q9.75,8.87,19.72,17.52Zm-87.1,0a369.26,369.26,0,0,1-49.41-19.87l-26.16-48.14q4.14,5.75,8.65,11.17a224.79,224.79,0,0,0,48,43l20.68,13.85Zm-67.38-29.4q-9.19-5.27-17.79-11a275,275,0,0,1-24-18l-8.16,8.91a252.84,252.84,0,0,1-21.68-24.72q-2.86-3.74-5.57-7.58l6.23-5.19c2.51,3.11,5.14,6.1,7.86,9l11.61-9,1.06,1.2ZM126.27,1560.6c-1-6.5-1.73-12.48-2.17-17.79-.3-3.75-.51-7.37-.63-10.84l2.32-7.23,2.73,31.79q.33,3.88.84,7.9Zm3.69-48.82,4.53-14.08a72.15,72.15,0,0,1,6.64-14.81l-4.19,13.42-1,1.73.31.48L133.6,1507c-.73,2.33-1.4,4.71-2,7.1Zm13.59-32.68a70.2,70.2,0,0,1,4.67-6.09,86.15,86.15,0,0,1,26.11-20.19l4.16,6.31c-1.78.56-3.54,1.21-5.28,1.93s-3.64,1.6-5.41,2.54l-1.19-1.85-6.9,6.32-6.69,3.72,1,1.52-.07.07a69,69,0,0,0-8.21,9Zm107.08-16.5a11.22,11.22,0,0,1-8-3l-8-7.43-9.35,5.59a44.56,44.56,0,0,0-6.64,4.84c-.47-.33-1-.64-1.45-.95l-1.09-.66-1.19-.47a53.28,53.28,0,0,0-6.8-2.13l-30.24-7.3c17.35-8.22,35.65-11.47,47.69-12.74l42.72-4.52a28.32,28.32,0,0,1,1.52,5.56,24.33,24.33,0,0,1,.36,4.12c0,9.28-5.41,16.16-14.47,18.43A20.88,20.88,0,0,1,250.63,1462.6ZM74,1415.73l.65-1.35,3.27,1.72q-2,3-3.92,6.19Zm154.58-5.58a101.21,101.21,0,0,0-31.84-4.92c-1.11,0-2.22,0-3.34,0L193,1390.6c1.19-.31,2.38-.6,3.57-.88l1,8.07c1.09,0,2.18,0,3.27,0,18.47,0,36.14,4.25,48.47,11.67,5.8,3.48,10.17,7.46,13.07,11.89Zm-32-975c-1.19-.28-2.38-.57-3.57-.89l.42-14.67c1.12,0,2.23.05,3.34.05a101.21,101.21,0,0,0,31.84-4.92l33.73-11.15C259.39,408,255,412,249.22,415.5c-12.33,7.42-30,11.67-48.47,11.67-1.09,0-2.18,0-3.27-.05ZM154.5,417l-.07,0,.08,0ZM74,409.17v-6.56q1.91,3.15,3.92,6.2l-3.27,1.72Zm151.56-22.6c-12-1.28-30.34-4.52-47.69-12.74l30.24-7.3a53.28,53.28,0,0,0,6.8-2.13l1.19-.47,1.09-.67c.5-.3,1-.61,1.45-.94a43.82,43.82,0,0,0,6.64,4.83l9.36,5.6,8-7.44a11.26,11.26,0,0,1,8-3,20.92,20.92,0,0,1,5,.68c9.06,2.26,14.47,9.15,14.47,18.43a24.42,24.42,0,0,1-.36,4.12,28.61,28.61,0,0,1-1.52,5.57Zm-51.2-14.48a86.31,86.31,0,0,1-26.11-20.19,68.85,68.85,0,0,1-4.67-6.1l2.16-3.27a68.46,68.46,0,0,0,8.21,9l.07.07-1,1.52,6.69,3.71,6.9,6.33,1.19-1.85c1.77.93,3.59,1.79,5.41,2.54s3.5,1.36,5.28,1.92ZM141.13,342a71.83,71.83,0,0,1-6.64-14.8L130,313.13l1.64-2.33q.9,3.6,2,7.11l2.65,8.48-.31.48,1,1.73Zm-17.66-49.08q.18-5.21.63-10.83c.44-5.32,1.12-11.29,2.17-17.79l3.09-3.84q-.51,4-.84,7.91l-2.73,31.79Zm-8.88-125.52c-2.72,2.88-5.35,5.87-7.86,9l-6.23-5.19q2.7-3.84,5.57-7.59a253,253,0,0,1,21.67-24.71l8.17,8.91a277.13,277.13,0,0,1,24-18.05q8.6-5.74,17.8-11l-50.46,56.47-1.06,1.2Zm81.1-58.21a370.4,370.4,0,0,1,52.86-21l-22.35,15a224.79,224.79,0,0,0-48,43q-4.5,5.42-8.65,11.17ZM318,103.3,350.4,71.39h12.05c-13.89,11.45-27.59,23.32-40.95,35.48Zm114.81-8.53A18.36,18.36,0,0,0,430.11,86a17.68,17.68,0,0,0-5.84-5.69q3.47-2.62,7-5.23l5-3.73h44c-19.88,8.08-34,17.17-42.85,27.59Z" style="fill:#3f2413"/><path d="M733.19,56.89h-6.08q-14.34,5.51-28.53,11.49a920.79,920.79,0,0,0-372.44,289,87.89,87.89,0,0,0-5.45-19.73A935.45,935.45,0,0,1,683.83,56.89H654.42a947.57,947.57,0,0,0-339.7,268.85,93.24,93.24,0,0,0-10-13.7,970.6,970.6,0,0,1,70.59-78.85q33.41-33.39,70.05-63.49c2.46-.7,4-1.23,4.3-1.33a6.06,6.06,0,0,0,4.05-5.3.75.75,0,0,1,0-.15q31.05-24.94,64-47.22a964.11,964.11,0,0,1,99.51-58.81H323.79c-2,.36-4,.72-5.91,1.1a467.73,467.73,0,0,0-65.11,13.83c-37.9,11-71.85,26.44-100.92,45.9a289.25,289.25,0,0,0-25.27,19c32.52-32.48,75.68-59,128.78-79a5.81,5.81,0,0,0,1.49-.82H225.41C169.29,81.77,125.34,114.62,94.56,154.8a235.64,235.64,0,0,0-35.09,64.07v56a209.75,209.75,0,0,1,18-68.28c1.8-3,3.66-6,5.59-8.88a175.54,175.54,0,0,1,17.16-20.86c.72-.75,1.47-1.51,2.23-2.27C88.68,194.47,79,217.63,73.62,243.71c-11.68,56.68-3.62,95,5.21,117.23,9.72,24.45,22.33,35.24,22.86,35.68a4.13,4.13,0,0,0,2.68,1,4.18,4.18,0,0,0,3.1-7c-.11-.12-11-12.34-19.09-35.39C81,334,74.57,298.83,86.22,252.24c9-36,24.5-59.68,38.89-74.85-29,46.24-31.46,87.1-31.56,89.08a4.17,4.17,0,0,0,3.71,4.37,3.77,3.77,0,0,0,.47,0,4.18,4.18,0,0,0,4.12-3.47c4.2-24.52,13.91-57.55,36.22-82.52a243.4,243.4,0,0,0-28.42,96.05c-2.92,35.72,2.64,60.21,2.88,61.23a4.18,4.18,0,0,0,4.07,3.24,3.82,3.82,0,0,0,.57,0,4.18,4.18,0,0,0,3.61-4.32c-.13-2.88-.16-6-.1-9.38a85.48,85.48,0,0,0,16.53,29.68C162.15,390.45,202.15,398.68,224,401a86.59,86.59,0,0,1-27.29,4.19,120.83,120.83,0,0,1-25.2-2.82,152.6,152.6,0,0,1-38.83-14.12,4.18,4.18,0,0,0-4.94,6.67c17.56,16.56,39.54,26.5,64.32,29.24-2.67.14-5.33.2-7.94.2a202.15,202.15,0,0,1-35-3.19h0c-.1,0-.2,0-.3,0a4.07,4.07,0,0,0-.49-.05h0l-.29,0a3.91,3.91,0,0,0-.48,0l-.3.08-.43.13-.31.14a2.64,2.64,0,0,0-.37.2,2.61,2.61,0,0,0-.3.2l-.33.27-.25.23-.3.38c0,.05-.1.1-.14.16a.36.36,0,0,0,0,.09,4.5,4.5,0,0,0-.23.43,2,2,0,0,0-.14.3l0,.05a2.79,2.79,0,0,0-.1.39c0,.11-.07.21-.09.32a3.91,3.91,0,0,0-.07.76c0,.05,0,.09,0,.14a4.2,4.2,0,0,0,.07.62,2.29,2.29,0,0,0,.08.28c0,.15.08.31.13.45a3,3,0,0,0,.15.31,3.48,3.48,0,0,0,.2.38l.2.28a2.88,2.88,0,0,0,.27.34l.25.24.35.29.16.13c23.45,15.59,49.55,23.72,74.26,23.72a102.05,102.05,0,0,0,34.43-5.78c22.78-8.15,38.77-23.92,45-44.4a82.59,82.59,0,0,0,3.78-24.16,68.34,68.34,0,0,0-10.43-36.57A69.36,69.36,0,0,0,274,321.16a4.18,4.18,0,1,0-4.52,7c.37.24,36.78,24.29,22.31,71.64-5.47,17.89-19.62,31.74-39.85,39a93.81,93.81,0,0,1-31.61,5.29,112.2,112.2,0,0,1-23.2-2.48c1.21,0,2.44.05,3.66.05,20.39,0,40.72-4.59,55.94-13.74,11.26-6.77,18.76-15.43,22.2-25.49a44.38,44.38,0,0,0,5.18-14.51,38.66,38.66,0,0,0,.56-6.53c0-15.67-9.81-28.58-25.46-32.49a35.46,35.46,0,0,0-8.54-1.11,25.74,25.74,0,0,0-17.94,6.91c-4.7-2.81-12.25-9-12.25-19.72,0-5.81,1.26-13.87,7.24-19.29,4.29-3.88,10.54-5.88,18.27-5.88,1.59,0,3.25.09,5,.26q.3,0,.6,0a6.07,6.07,0,0,0,5.73-8.06,74.34,74.34,0,0,1-3.72-16.61A74.88,74.88,0,0,0,273,301.63a88.07,88.07,0,0,1,29,26.59c13.11,19.39,16.44,42.75,9.9,69.41-6,24.41-20.4,42.46-42.83,53.65-16.16,8.06-36.11,12.28-58,12.28q-2.21,0-4.44-.06c-21-.54-42.08-4.89-59.21-12.23-25.29-10.84-48.1-32.69-64.22-61.54a195.51,195.51,0,0,1-23.77-78.41V435.39Q62.22,429.69,65,424c.49,1,1,2,1.5,3.05q3.81,7.59,8.17,14.52-7.89,16.35-15.21,32.94v31c1.48-3.63,3-7.25,4.5-10.86q8.85-20.92,18.65-41.5a145.68,145.68,0,0,0,11.69,13.65q-7.92,17-15.23,34.23Q68.6,525.78,59.47,551v37q13.61-41.64,30.77-82.29,6.44-15.21,13.39-30.23a120.8,120.8,0,0,0,13.48,9.92Q111,498.68,105.35,512.1A1023.15,1023.15,0,0,0,59.47,645.47v51.39a1010.43,1010.43,0,0,1,57.05-180Q122,504,127.75,491.31a100.27,100.27,0,0,0,10.77,4.47c1.54.54,3,1.08,4.47,1.64q-5.87,12.81-11.36,25.78A992.71,992.71,0,0,0,59.47,797.31v230.28a992.68,992.68,0,0,0,72.16,274.12q5.49,13,11.36,25.78c-1.45.55-2.93,1.1-4.47,1.64a102.28,102.28,0,0,0-10.77,4.46q-5.79-12.67-11.23-25.51a1010.07,1010.07,0,0,1-57-180v51.39a1023.66,1023.66,0,0,0,45.88,133.37q5.69,13.43,11.76,26.69a119.56,119.56,0,0,0-13.48,9.92q-6.93-15-13.39-30.23-17.17-40.64-30.77-82.29v37q9.16,25.17,19.61,50,7.29,17.23,15.23,34.23a145.68,145.68,0,0,0-11.69,13.65q-9.77-20.58-18.65-41.5c-1.53-3.61-3-7.23-4.5-10.86v30.94q7.32,16.59,15.21,33-4.35,6.93-8.17,14.52c-.51,1-1,2-1.5,3.05q-2.81-5.67-5.54-11.37v124.07a195.46,195.46,0,0,1,23.77-78.41c16.12-28.85,38.93-50.71,64.22-61.54,17.13-7.34,38.16-11.69,59.21-12.23q2.24-.06,4.44-.06c21.85,0,41.8,4.22,58,12.28,22.43,11.19,36.84,29.24,42.83,53.65,6.54,26.66,3.21,50-9.9,69.41a87.9,87.9,0,0,1-29,26.58,75.1,75.1,0,0,0-19.46,16.2,74.34,74.34,0,0,1,3.72-16.61,6.07,6.07,0,0,0-5.73-8.06l-.6,0c-1.71.17-3.37.26-5,.26-7.73,0-14-2-18.27-5.88-6-5.42-7.24-13.48-7.24-19.29,0-10.73,7.55-16.91,12.25-19.72a25.74,25.74,0,0,0,17.94,6.9,35.41,35.41,0,0,0,8.54-1.1c15.65-3.92,25.46-16.82,25.46-32.5a38.46,38.46,0,0,0-.56-6.52,44.38,44.38,0,0,0-5.18-14.51c-3.44-10.06-10.94-18.73-22.2-25.49-15.22-9.15-35.56-13.74-55.94-13.74-1.22,0-2.44,0-3.66,0a112.15,112.15,0,0,1,23.2-2.49,93.57,93.57,0,0,1,31.61,5.3c20.23,7.24,34.38,21.08,39.85,39,14.47,47.35-21.94,71.4-22.31,71.64a4.18,4.18,0,0,0,4.52,7,69.48,69.48,0,0,0,19.14-20.4,68.3,68.3,0,0,0,10.43-36.56,82.59,82.59,0,0,0-3.78-24.16c-6.26-20.48-22.25-36.25-45-44.4a102,102,0,0,0-34.43-5.79c-24.71,0-50.81,8.13-74.26,23.73l-.16.13a3.17,3.17,0,0,0-.35.29l-.25.24a2.88,2.88,0,0,0-.27.34,2.83,2.83,0,0,0-.2.28,3.48,3.48,0,0,0-.2.38,3,3,0,0,0-.15.31c0,.14-.09.29-.13.45a2.29,2.29,0,0,0-.08.28,4.2,4.2,0,0,0-.07.62s0,.09,0,.14a3.91,3.91,0,0,0,.07.76c0,.11.06.21.09.32a2.79,2.79,0,0,0,.1.39l0,.05a1.55,1.55,0,0,0,.14.29,3.68,3.68,0,0,0,.23.44.2.2,0,0,0,0,.08c0,.07.1.11.14.17a3.72,3.72,0,0,0,.3.37,2.77,2.77,0,0,0,.25.24l.33.27.3.2a2.64,2.64,0,0,0,.37.2l.31.14.43.13.3.08.48,0,.29,0a4.07,4.07,0,0,0,.49,0l.3,0h0a201.56,201.56,0,0,1,35-3.2c2.61,0,5.27.07,7.94.21-24.78,2.74-46.76,12.68-64.32,29.24a4.18,4.18,0,0,0,4.94,6.67,152.6,152.6,0,0,1,38.83-14.12,120.81,120.81,0,0,1,25.19-2.82,86.61,86.61,0,0,1,27.3,4.19c-21.85,2.31-61.85,10.54-86.79,39.66a85.48,85.48,0,0,0-16.53,29.68c-.06-3.36,0-6.5.1-9.38a4.17,4.17,0,0,0-3.61-4.32,3.82,3.82,0,0,0-.57,0,4.18,4.18,0,0,0-4.07,3.23c-.24,1-5.8,25.52-2.88,61.24a243.4,243.4,0,0,0,28.42,96c-22.31-25-32-58-36.22-82.52a4.19,4.19,0,0,0-4.12-3.48l-.47,0a4.16,4.16,0,0,0-3.71,4.37c.1,2,2.58,42.84,31.56,89.07-14.39-15.17-29.89-38.83-38.89-74.84-11.65-46.59-5.26-81.72,2.16-103,8-23,19-35.27,19.09-35.39a4.18,4.18,0,0,0-3.1-7,4.13,4.13,0,0,0-2.68,1c-.53.44-13.14,11.23-22.86,35.67-8.83,22.2-16.89,60.56-5.21,117.24,5.38,26.08,15.06,49.24,28.87,69.17-.76-.77-1.51-1.53-2.23-2.28a174.73,174.73,0,0,1-17.16-20.85q-2.89-4.38-5.59-8.88a209.75,209.75,0,0,1-18-68.28v56a235.64,235.64,0,0,0,35.09,64.07c23.87,31.15,55.66,57.9,94.9,80h26.08c-35.25-17.24-65-37.93-89-61.86a287.75,287.75,0,0,0,25.27,19c26.5,17.74,57.07,32.12,91,42.87h142c-2.64-1.07-5.24-2.17-7.77-3.33q-33.68-27.37-65.08-57.39A132.14,132.14,0,0,1,301,1663.85c-1.39-4.45-2.76-8.6-4.13-12.48q4.62,4.74,9.29,9.42a1068.62,1068.62,0,0,0,101.42,89.27H528.1q-13.32-8.4-26.37-17.2-33.35-22.54-64.9-47.84a3,3,0,0,0,.06-.32c1.4-6.29,5.42-10.85,8.71-13.67q31.68,25.48,65.29,48.22,23.86,16.13,48.71,30.81h24.23q-33.89-19.1-66.16-40.85-32.89-22.23-64-47.22a.75.75,0,0,1,0-.15,6.09,6.09,0,0,0-4.05-5.31c-.29-.1-1.84-.62-4.3-1.32q-36.56-30-70.05-63.49a970.6,970.6,0,0,1-70.59-78.85,93.24,93.24,0,0,0,10-13.7,946.43,946.43,0,0,0,303.46,250.89H645a937.12,937.12,0,0,1-324.3-262.84,88,88,0,0,0,5.45-19.73A919.48,919.48,0,0,0,683.7,1750.06h30.94q-5.67-2.31-11.33-4.7a908.05,908.05,0,0,1-376.12-296.69,121.82,121.82,0,0,0-3.51-24.28,98.66,98.66,0,0,0-6.08-17.57,893.85,893.85,0,0,0,392.09,323.43q19,8,38.24,15.14a25.84,25.84,0,0,0,8.37-9.85q-21.1-7.68-41.89-16.45A879.78,879.78,0,0,1,247.9,1252.58c-45.57-107.74-68.73-222.17-68.87-340.13.14-118,23.3-232.39,68.87-340.12A879.78,879.78,0,0,1,714.41,105.82q22-9.31,44.42-17.36V82.53a25.59,25.59,0,0,0-.88-6.65q-24.35,8.66-48.26,18.77A893.93,893.93,0,0,0,317.6,418.09a98.66,98.66,0,0,0,6.08-17.57,121.81,121.81,0,0,0,3.51-24.29A907.53,907.53,0,0,1,703.31,79.54q22.35-9.45,45.08-17.65a25.5,25.5,0,0,0-15.2-5Zm-287.59,97c-3.29-2.81-7.31-7.37-8.71-13.66,0-.11,0-.22-.06-.33q31.51-25.23,64.9-47.83Q519,80.37,536.86,69.39c2.38-.53,4.79-1.07,7.25-1.59,14.41-3,28.32-5.37,40.14-7.08q-37.65,20.85-73.36,44.93-33.58,22.69-65.29,48.22ZM296.91,173.54c1.37-3.88,2.74-8,4.13-12.48A131.87,131.87,0,0,1,312,135.57q31.35-30,65.08-57.4a213.94,213.94,0,0,1,36.22-12.52c3.11-.78,6.2-1.49,9.26-2.15A1069.35,1069.35,0,0,0,306.2,164.12q-4.67,4.68-9.29,9.42Zm142.56-51.2a63.07,63.07,0,0,1,7.67-12.42C455.57,99,472.59,89,497.21,80.49L494.94,82q-28.38,19.17-55.47,40.33ZM143,269.62a191.73,191.73,0,0,1,3.1-21.32c1.08-5.4,2.35-10.68,3.76-15.87A1142.38,1142.38,0,0,1,254.28,112.2q9-9,18.27-17.84A276.45,276.45,0,0,1,299,84.42c-17.79,11.75-32.74,24.82-44.67,39.1a153.77,153.77,0,0,0-22.67,36.1,1126.74,1126.74,0,0,0-88.66,110ZM415.4,162.09c-7.79,0-14.24-1.36-19-4.05-5.27-3-8.5-7.66-9.88-14.27-2.87-13.77.42-27.62,9.5-40a75.47,75.47,0,0,1,11.27-12.12c1.06-.09,2.07-.13,3-.13,3.92,0,6.58.78,7.51,2.27a4.07,4.07,0,0,1,.54,2c-15.31,21.88-12.62,38.82-12.47,39.7a6.05,6.05,0,0,0,6,5H412a6.08,6.08,0,0,0,5.87-5.31,41.68,41.68,0,0,1,3.32-10.32,74,74,0,0,1,16.9-23.19l.37-.33c-.31.38-.64.77-.94,1.16-11.1,14.39-15.29,28-12.44,40.5a36.28,36.28,0,0,0,9.27,16.9c-2.28.49-4.8,1-7.46,1.32a83.83,83.83,0,0,1-11.51.86ZM233,235.73a128.94,128.94,0,0,1,1.61-46.79c4.6-20.76,14.34-40.16,29-57.64,11.58-13.87,26.28-26.57,43.9-38a157,157,0,0,0-17.56,20.59c-15.91,22.27-21.24,41.5-21.46,42.31a4.18,4.18,0,0,0,7.76,3,172.14,172.14,0,0,1,42.45-53.8,139.41,139.41,0,0,0-29.23,52.05c-16,51.55-29.09,58.88-40.6,65.34-5.39,3-10.89,6.12-15.83,12.93ZM164.2,194.28a196.89,196.89,0,0,1,25.13-38.83,209.47,209.47,0,0,1,44.94-40.2q-36.79,37.84-70.07,79Zm25.37,159.1c-.77-.08-1.56-.17-2.37-.29a48.9,48.9,0,0,1-8.44-2.63,49.92,49.92,0,0,1-5.2-2.52q6.52-10.17,13.28-20.18A1054,1054,0,0,1,263,228.39c5.83-4.07,12.14-10,18.82-21.17q16.11-17.64,33-34.52,29.55-29.56,61.49-56.74a58.62,58.62,0,0,0-2.57,23.88q-24.37,21.49-47.33,44.45a1038.14,1038.14,0,0,0-73,81.14,5.94,5.94,0,0,0-2.47-.83,4.49,4.49,0,0,0-.64,0,6.08,6.08,0,0,0-4.6,2.12c-3.1,3.61-4.28,8.71-4.44,14.06q-8.65,11.13-17,22.48a32.71,32.71,0,0,0-4.68,3.49,33.43,33.43,0,0,0-9.83,16.74q-4.68,6.71-9.27,13.47-5.52,8.16-10.87,16.46Zm83.13-66.44A68.64,68.64,0,0,1,261,275.4a1027.1,1027.1,0,0,1,74-82.54q20.37-20.36,41.9-39.57a30.82,30.82,0,0,0,10.08,13q-20.73,18.54-40.38,38.18a1008.24,1008.24,0,0,0-73.84,82.49Zm23.37,16.46A104.64,104.64,0,0,0,283,293.5,997.36,997.36,0,0,1,355.11,213q21.13-21.15,43.57-41a60.39,60.39,0,0,0,16.8,2.17c2,0,4-.08,5.91-.21q-28.31,24.28-54.69,50.64a979.19,979.19,0,0,0-70.63,78.78ZM147.44,313.59a119.68,119.68,0,0,1-4.67-22.44,1109.79,1109.79,0,0,1,79.66-103,140.85,140.85,0,0,0-3,28.76A1090.67,1090.67,0,0,0,153.15,305q-2.88,4.26-5.71,8.56Zm16.28,27.25A56.93,56.93,0,0,1,153,327.31q5.06-7.79,10.24-15.5,26.9-39.81,57.41-77.24a109.63,109.63,0,0,0,4.49,20.59q-25.41,32-48.3,65.81-6.64,9.86-13.07,19.87Zm40.95,11.59c1.69-2.54,3.37-5.09,5.08-7.62a31.6,31.6,0,0,0,1.82,4.61,13.11,13.11,0,0,1-2,1.47,37.17,37.17,0,0,1-4.93,1.54Zm-18.76,156c-7.33-6.54-21-16.35-43.4-24.14-26.31-9.15-49.45-31.42-65.17-62.7q-2.24-4.45-4.24-9.08c13.83,22.07,31.77,37.57,47.56,48,30.05,19.86,58.22,25.93,59.4,26.18a6.59,6.59,0,0,0,1.24.12,6.13,6.13,0,0,0,2.44-.51,27.86,27.86,0,0,1,2.17,22.13ZM303,1384.32a93.94,93.94,0,0,0-28.5-21.54c-1.59-.8-3.2-1.54-4.82-2.25a900.59,900.59,0,0,1-48-96.85c-47.06-111.25-71-229.42-71.12-351.23.14-121.81,24.06-240,71.12-351.22a900.59,900.59,0,0,1,48-96.85c1.62-.72,3.23-1.46,4.82-2.25A93.94,93.94,0,0,0,303,440.59a886,886,0,0,0-66.24,127c-46.07,108.91-69.55,224.56-69.83,343.77h0c0,.36,0,.72,0,1.08s0,.72,0,1.09h0c.28,119.21,23.76,234.85,69.83,343.77a886.57,886.57,0,0,0,66.24,127Zm-50.67-29.89a145.23,145.23,0,0,0-20.84-4q-19.77-37-36.12-75.63C146.81,1160,122.13,1038.11,122,912.45c.14-125.66,24.82-247.56,73.36-362.33q16.29-38.52,36.12-75.62a145.23,145.23,0,0,0,20.84-4,915.74,915.74,0,0,0-41.85,86c-47.55,112.43-71.79,231.81-72.07,354.87h0v2.17h0c.28,123.06,24.52,242.44,72.07,354.87a915.74,915.74,0,0,0,41.85,86ZM187.86,525.25h.38a6.06,6.06,0,0,0,4.92-3.11c4.56-8.21,6.29-15.71,6.29-22.35a39,39,0,0,0-4.16-17.4q1.78-3.57,3.6-7.12,6.11.42,12.34.42,3,0,6-.1-17.94,34.28-33,69.82c-49,115.94-74,239.06-74.31,366h0c0,.36,0,.72,0,1.08s0,.72,0,1.09h0c.28,126.91,25.27,250,74.31,366q15,35.49,33,69.82-3-.11-6-.1-6.21,0-12.34.41-1.81-3.54-3.6-7.11a39,39,0,0,0,4.16-17.4c0-6.65-1.73-14.14-6.29-22.36a6.07,6.07,0,0,0-4.92-3.1h-.38a6.08,6.08,0,0,0-4.89,2.47,40.71,40.71,0,0,1-4.67,4.82q-4.74-10.48-9.23-21.07C119,1167.6,93.61,1042,93.47,912.45,93.61,782.94,119,657.31,169.07,539q4.49-10.57,9.23-21.07a40.21,40.21,0,0,1,4.67,4.83,6.08,6.08,0,0,0,4.89,2.47ZM154.13,1322.7q-5.85-12.78-11.33-25.72C91.28,1175.18,65.1,1045.81,65,912.45c.15-133.36,26.33-262.72,77.85-384.53q5.46-12.93,11.33-25.72a117.09,117.09,0,0,1,14.32,8.14q-5.43,11.91-10.54,24C107.38,653.76,81.64,780.61,81.35,911.37h0c0,.36,0,.72,0,1.08s0,.72,0,1.09h0c.29,130.75,26,257.61,76.56,377.07q5.09,12,10.54,24a115.84,115.84,0,0,1-14.32,8.13Zm-81,89.65q2-4.61,4.24-9.07c15.72-31.28,38.86-53.55,65.17-62.7,22.38-7.79,36.07-17.6,43.4-24.14a27.86,27.86,0,0,1-2.17,22.13,6.14,6.14,0,0,0-2.44-.52,6.61,6.61,0,0,0-1.24.13c-1.18.25-29.35,6.32-59.4,26.17-15.79,10.44-33.73,25.93-47.56,48ZM376.27,1709q-31.87-27.15-61.49-56.74-16.87-16.86-33-34.53c-6.68-11.12-13-17.09-18.82-21.16a1054,1054,0,0,1-76.14-99.37q-6.76-10-13.28-20.18a49.92,49.92,0,0,1,5.2-2.52,48,48,0,0,1,8.44-2.63c.81-.12,1.6-.21,2.37-.29q5.35,8.28,10.87,16.46,4.58,6.78,9.27,13.47a33.43,33.43,0,0,0,9.83,16.74,32.71,32.71,0,0,0,4.68,3.49q8.35,11.34,17,22.48c.16,5.35,1.34,10.44,4.44,14.06a6.08,6.08,0,0,0,4.6,2.12,4.49,4.49,0,0,0,.64,0,6.08,6.08,0,0,0,2.47-.83,1038.14,1038.14,0,0,0,73,81.14q22.94,22.94,47.33,44.44a58.65,58.65,0,0,0,2.57,23.89ZM209.75,1480.1c-1.71-2.53-3.39-5.08-5.08-7.63a38.63,38.63,0,0,1,4.93,1.55,13.79,13.79,0,0,1,2,1.46,32.18,32.18,0,0,0-1.82,4.62Zm10.85,110.24q-30.42-37.38-57.41-77.24-5.19-7.69-10.24-15.5a56.73,56.73,0,0,1,10.77-13.53q6.42,10,13.07,19.87,22.82,33.76,48.3,65.8a110,110,0,0,0-4.49,20.6Zm1.83,46.44a1109.66,1109.66,0,0,1-79.66-103,119.35,119.35,0,0,1,4.67-22.44q2.84,4.31,5.71,8.56A1092.43,1092.43,0,0,0,219.48,1608a140.76,140.76,0,0,0,3,28.75Zm176.25,16.11q-22.41-19.86-43.57-41A997.36,997.36,0,0,1,283,1531.41a104.64,104.64,0,0,0,13.09-9.9,980.9,980.9,0,0,0,70.63,78.78q26.32,26.32,54.69,50.64c-1.94-.14-3.92-.21-5.91-.21a60.34,60.34,0,0,0-16.8,2.17Zm-21.84,18.73q-21.51-19.2-41.9-39.57a1027.1,1027.1,0,0,1-74-82.54A68.64,68.64,0,0,1,272.7,1538a1008.24,1008.24,0,0,0,73.84,82.49q19.62,19.63,40.38,38.18a30.82,30.82,0,0,0-10.08,13ZM299,1740.49a274,274,0,0,1-26.41-10q-9.23-8.82-18.27-17.83a1143.5,1143.5,0,0,1-104.46-120.24c-1.41-5.19-2.68-10.46-3.76-15.86a191.73,191.73,0,0,1-3.1-21.32,1126.74,1126.74,0,0,0,88.66,110,154,154,0,0,0,22.67,36.1c11.93,14.28,26.88,27.35,44.67,39.1Zm8.54-8.91c-17.62-11.4-32.32-24.1-43.9-38-14.62-17.49-24.36-36.88-29-57.64a129,129,0,0,1-1.61-46.8c4.94,6.82,10.44,9.91,15.83,12.93,11.51,6.47,24.56,13.8,40.6,65.35a139.41,139.41,0,0,0,29.23,52,172.14,172.14,0,0,1-42.45-53.8,4.18,4.18,0,0,0-7.76,3c.22.8,5.55,20,21.46,42.31a157.64,157.64,0,0,0,17.56,20.58Zm-73.23-21.92a209.25,209.25,0,0,1-44.94-40.21,196.53,196.53,0,0,1-25.13-38.82q33.21,41.1,70.07,79Zm176,23.76c-.93,0-1.94,0-3-.13a75.47,75.47,0,0,1-11.27-12.12c-9.08-12.41-12.37-26.26-9.5-40,1.38-6.6,4.61-11.27,9.88-14.26,4.73-2.69,11.18-4,19-4a82.25,82.25,0,0,1,11.5.86c2.66.37,5.18.83,7.46,1.32a36.28,36.28,0,0,0-9.27,16.9c-2.85,12.49,1.34,26.11,12.44,40.5.3.39.63.77.94,1.16l-.37-.34a73.85,73.85,0,0,1-16.9-23.18,41.54,41.54,0,0,1-3.32-10.33,6.07,6.07,0,0,0-5.87-5.3h-.15a6.06,6.06,0,0,0-6,5c-.15.88-2.84,17.81,12.47,39.7a4.07,4.07,0,0,1-.54,2.05c-.93,1.49-3.59,2.27-7.51,2.27Zm86.89,11c-24.62-8.56-41.64-18.51-50.07-29.43a63.07,63.07,0,0,1-7.67-12.42q27.07,21.12,55.47,40.33l2.27,1.52Z" style="fill:#3f2413"/><path d="M59.47,1656.87v21.3c15,30,38,53.35,56.52,68.74,1.3,1.08,2.58,2.12,3.86,3.15h13.69c-4-3-8.13-6.19-12.37-9.71C99.9,1722.63,72.46,1694.07,59.47,1656.87Z" style="fill:#3f2413"/><path d="M59.47,1656.87v21.3c15,30,38,53.35,56.52,68.74,1.3,1.08,2.58,2.12,3.86,3.15h13.69c-4-3-8.13-6.19-12.37-9.71-21.27-17.72-48.71-46.28-61.7-83.48Z" style="fill:#3f2413"/><path d="M90.77,1681.47c-15-19.75-25.46-40.88-31.3-62.9v25.69a197.31,197.31,0,0,0,24.72,42.37c13.87,18.28,31.41,35.45,52.11,51,6,4.55,12,8.69,17.7,12.42h15.8a327.35,327.35,0,0,1-28.66-19.23C121.1,1715.73,104.15,1699.12,90.77,1681.47Z" style="fill:#3f2413"/><path d="M59.47,1618.57v25.69a197,197,0,0,0,24.72,42.36c13.87,18.29,31.41,35.46,52.11,51,6,4.55,12,8.69,17.7,12.42h15.8a327.35,327.35,0,0,1-28.66-19.23c-20-15.1-37-31.71-50.37-49.36-15-19.75-25.46-40.88-31.3-62.9Z" style="fill:#3f2413"/><path d="M59.47,1685.75v23c8.51,16.81,20.48,30.87,31.16,41.3H103C86.08,1735,66.74,1712.74,59.47,1685.75Z" style="fill:#3f2413"/><path d="M59.47,1685.75v23c8.51,16.81,20.48,30.87,31.16,41.3H103c-16.88-15.1-36.22-37.32-43.49-64.31Z" style="fill:#3f2413"/><path d="M59.47,146.74V168c13-37.19,40.43-65.75,61.7-83.47a282.94,282.94,0,0,1,39.74-27.67H144.79A294,294,0,0,0,116,78C97.48,93.39,74.5,116.72,59.47,146.74Z" style="fill:#3f2413"/><path d="M160.91,56.89H144.79A294,294,0,0,0,116,78C97.48,93.39,74.5,116.72,59.47,146.74V168c13-37.19,40.43-65.75,61.7-83.47a282.94,282.94,0,0,1,39.74-27.67Z" style="fill:#3f2413"/><path d="M447.36,305.28A857.35,857.35,0,0,0,195.43,911.37h0c0,.36,0,.72,0,1.08s0,.72,0,1.09h0A861.14,861.14,0,0,0,720.79,1704q18.87,8,38,15v-12.93q-16.77-6.27-33.32-13.26a847.28,847.28,0,0,1,0-1560.71q16.54-7,33.32-13.26V105.9q-19.16,7-38,15A857.35,857.35,0,0,0,447.36,305.28Z" style="fill:#3f2413"/><path d="M758.83,105.9q-19.16,7-38,15A859.4,859.4,0,0,0,195.43,911.37h0c0,.36,0,.72,0,1.08s0,.72,0,1.09h0A861.14,861.14,0,0,0,720.79,1704q18.87,8,38,15v-12.93q-16.77-6.27-33.32-13.26a847.28,847.28,0,0,1,0-1560.71q16.54-7,33.32-13.26V105.9Z" style="fill:#3f2413"/><path d="M583.84,1587.36a830.51,830.51,0,0,1-254.08-285.8,823,823,0,0,1,0-778.2,830.51,830.51,0,0,1,254.08-285.8l37.22,37.21,19.61,1.68,2.85-1.83L713.8,344.9v58c-.34-.07-.68-.14-1-.19a19.49,19.49,0,0,0-16.26-16.33,19.38,19.38,0,0,0-3.41-8.41A19.59,19.59,0,0,0,680.25,370a19.32,19.32,0,0,0-3.48-8.5A19.62,19.62,0,0,0,664,353.67a19.51,19.51,0,0,0-16.25-16.33,19.4,19.4,0,0,0-3.63-8.68A19.6,19.6,0,0,0,631.49,321a19.56,19.56,0,0,0-16.27-16.33A19.5,19.5,0,0,0,599,288.35a19.6,19.6,0,0,0-3.82-9,19.36,19.36,0,0,0-15.48-7.63,19.64,19.64,0,0,0-11.88,4,813.07,813.07,0,0,0-79.24,69.58,801.31,801.31,0,0,0,0,1134.15,815.29,815.29,0,0,0,79,69.41,19.62,19.62,0,0,0,11.89,4,19.5,19.5,0,0,0,19.26-16.34,19.46,19.46,0,0,0,16.53-16.15,19.48,19.48,0,0,0,16.54-16.14,19.64,19.64,0,0,0,13-7.73,19.35,19.35,0,0,0,3.56-8.42,19.53,19.53,0,0,0,16.54-16.15,19.55,19.55,0,0,0,16.53-16.15,19.53,19.53,0,0,0,16.53-16.14,19.54,19.54,0,0,0,13.25-8.13,19.29,19.29,0,0,0,2.62-5.28V1480l-70.27,70.28-2.85-1.83-19.6,1.68Z" style="fill:#3f2413"/><path d="M582.26,256.48l1,1c-.71-.08-1.42-.13-2.13-.16l1.14-.83m42.55,33.16.28,0,9.42.8,4.76.41,56.83,56.83,3.2,3.2v12.5a33.88,33.88,0,0,0-7.51-4.86,33.69,33.69,0,0,0-3.28-5.55,34,34,0,0,0-13-10.78,34,34,0,0,0-16.25-16.32A34,34,0,0,0,643,309.57a34.62,34.62,0,0,0-3.64-6,34.1,34.1,0,0,0-12.63-10.29,34.85,34.85,0,0,0-2-3.6m74.48,1174V1474l-3.2,3.2L639.27,1534l-4.76.4-9.4.81-.2,0a35.38,35.38,0,0,0,1.71-3.14,34.09,34.09,0,0,0,13.14-10.55,33.58,33.58,0,0,0,3.39-5.59,34,34,0,0,0,13.27-10.73,34.75,34.75,0,0,0,3.29-5.43,34,34,0,0,0,13.37-10.9,33.4,33.4,0,0,0,3.15-5.24,34.12,34.12,0,0,0,13.51-11.08,34.84,34.84,0,0,0,3-5.06,34.54,34.54,0,0,0,6.53-3.91M583.45,1567.26l-1.19,1.18-1.35-1c.85,0,1.7-.1,2.54-.2M758.83,136.37q-13.55,5.19-26.94,10.84a828.94,828.94,0,0,0-141.29,76.6l-5.06-5.06-4.79,3.3A845,845,0,0,0,317,516.49a837.56,837.56,0,0,0,0,791.94,845,845,0,0,0,263.76,294.44l4.79,3.3,5.07-5.06a828.8,828.8,0,0,0,141.28,76.59q13.4,5.67,26.94,10.84v-13q-11.16-4.35-22.22-9a816.28,816.28,0,0,1-137.25-74.18l11.82-11.81A800.85,800.85,0,0,0,743,1651.42c5.26,2.23,10.54,4.38,15.84,6.49v-13.06c-3.72-1.51-7.42-3-11.12-4.59a788.64,788.64,0,0,1-127.79-68.47l7.66-7.66,9.4-.8a773.24,773.24,0,0,0,117.11,61.82l4.74,2V1614h0a762.31,762.31,0,0,1-104.46-54l62.25-62.24q20.74,12,42.23,22.52v-17.83q-15.47-7.79-30.54-16.39v-92.86h0a5,5,0,0,1-2.83-.87,572.69,572.69,0,0,1-81.77-67.87,582.09,582.09,0,0,1,0-823.92,574.52,574.52,0,0,1,79.5-66.35,5,5,0,0,1,2.81-.88,5.18,5.18,0,0,1,2.34.57V338.9q15.06-8.61,30.53-16.39V304.68q-21.47,10.5-42.23,22.52L654.35,265a762.31,762.31,0,0,1,104.46-54h0V197.79c-1.58.66-3.17,1.3-4.74,2A773.24,773.24,0,0,0,637,261.58l-9.41-.81-7.66-7.65a789.15,789.15,0,0,1,127.8-68.47q5.55-2.34,11.12-4.59V167q-8,3.15-15.84,6.49a800.65,800.65,0,0,0-131.82,70.89l-11.82-11.82a816.76,816.76,0,0,1,137.26-74.18q11.05-4.68,22.22-9v-13ZM579.46,1538.49a5,5,0,0,1-3.05-1,796.27,796.27,0,0,1-77.61-68.17,786.77,786.77,0,0,1,0-1113.64,799,799,0,0,1,77.81-68.33,5,5,0,0,1,7,.92,5.09,5.09,0,0,1,1,3.06,5,5,0,0,1-2,4,790,790,0,0,0-76.83,67.46,776.76,776.76,0,0,0,0,1099.46,787.67,787.67,0,0,0,76.64,67.31,5,5,0,0,1-3.07,9ZM596,1522.35a5,5,0,0,1-3-1,764.76,764.76,0,0,1-.08-1217.7,5,5,0,0,1,6.07,8A754.67,754.67,0,0,0,599,1513.33a5,5,0,0,1-3,9Zm16.53-16.15a5.06,5.06,0,0,1-3-1A731.4,731.4,0,0,1,531,1437.09,741.6,741.6,0,0,1,609.17,319.94a5,5,0,1,1,6,8,731.31,731.31,0,0,0-77.12,1102,719.63,719.63,0,0,0,77.46,67.16,5,5,0,0,1-3,9Zm16.53-16.15a5,5,0,0,1-3-1,704.21,704.21,0,0,1-79-68.07,718.57,718.57,0,0,1,0-1017.08,707.11,707.11,0,0,1,78.38-67.66,4.94,4.94,0,0,1,3-1,5,5,0,0,1,3,9.05A695.81,695.81,0,0,0,554.18,411a708.49,708.49,0,0,0,0,1002.88A692.75,692.75,0,0,0,632,1481a5,5,0,0,1-3,9Zm16.53-16.15a5,5,0,0,1-3-1,675.9,675.9,0,0,1-79.46-68,695.82,695.82,0,0,1,0-984.88,681.2,681.2,0,0,1,78.56-67.45,5,5,0,0,1,5.93,8.1,670.11,670.11,0,0,0-77.4,66.44,685.8,685.8,0,0,0,0,970.7,666.32,666.32,0,0,0,78.28,67,5,5,0,0,1-3,9.07Zm16.53-16.15a5,5,0,0,1-2.92-.94,652.49,652.49,0,0,1-79.93-68,673.08,673.08,0,0,1,0-952.69A656.89,656.89,0,0,1,658,368.89a5,5,0,0,1,7,1.12,5,5,0,0,1-1.12,7,645.37,645.37,0,0,0-77.54,66.2,663,663,0,0,0,0,938.5,640.46,640.46,0,0,0,78.69,67,5,5,0,0,1-2.94,9.09Zm16.53-16.14a5,5,0,0,1-2.9-.93,630,630,0,0,1-80.38-68,650.32,650.32,0,0,1,0-920.5,633.56,633.56,0,0,1,78.93-67,5,5,0,1,1,5.84,8.16,624.57,624.57,0,0,0-77.68,65.95,640.29,640.29,0,0,0,0,906.31,620.6,620.6,0,0,0,79.1,66.88,5,5,0,0,1-2.91,9.11Zm16.54-16.15a5,5,0,0,1-2.88-.91,609.53,609.53,0,0,1-80.85-67.93,627.61,627.61,0,0,1,0-888.31,612.57,612.57,0,0,1,79.13-66.79,5,5,0,0,1,5.79,8.19,603.6,603.6,0,0,0-77.82,65.69,617.55,617.55,0,0,0,0,874.12,598.45,598.45,0,0,0,79.51,66.81,5,5,0,0,1-2.88,9.13Zm16.53-16.15a5,5,0,0,1-2.85-.89,589.17,589.17,0,0,1-81.31-67.9,604.85,604.85,0,0,1,0-856.12,592.18,592.18,0,0,1,79.31-66.56,4.93,4.93,0,0,1,2.87-.91,5,5,0,0,1,2.88,9.13,582.62,582.62,0,0,0-78,65.44,594.8,594.8,0,0,0,0,841.92,579,579,0,0,0,79.93,66.75,5,5,0,0,1-2.86,9.14Z" style="fill:#3f2413"/><line x1="1239.41" y1="148.19" x2="1804.37" y2="148.19" style="fill:none;stroke-linecap:round;stroke-miterlimit:10;stroke-width:5px;stroke:url(#beebdabd-1a2f-400c-8236-d973164c5245)"/><line x1="1239.41" y1="166.7" x2="1804.37" y2="166.7" style="fill:none;stroke-linecap:round;stroke-miterlimit:10;stroke-width:5px;stroke:url(#bae224e6-062f-45e6-a5b6-944a30be21a8)"/><line x1="1239.41" y1="184.65" x2="1804.37" y2="184.65" style="fill:none;stroke-linecap:round;stroke-miterlimit:10;stroke-width:5px;stroke:url(#ab3337a8-7453-4575-887a-fdab698f4c39)"/><path d="M934.37,189.13H920.66l-4.07-14.9-3.76,14.9H899.12l-11-45.68h13.64l7,31.06,6.58-31.06h7.91l7,31.06,6.58-31.06h7.76Z" style="fill:#3f2413"/><path d="M955.29,189.13V143.45h12.93v45.68Z" style="fill:#3f2413"/><path d="M1010.13,182.6l-1.73,6.53H980.75V143.45h12.93V182.6Z" style="fill:#3f2413"/><path d="M1037.19,143.45a23,23,0,0,1,8.71,1.65,21.5,21.5,0,0,1,12,11.81,23.66,23.66,0,0,1,1.77,9.31,22.54,22.54,0,0,1-1.77,8.89,22.92,22.92,0,0,1-4.83,7.28,23.46,23.46,0,0,1-7.14,4.92,21.05,21.05,0,0,1-8.71,1.82H1022V143.45Zm-2.31,38.23a10.2,10.2,0,0,0,4.43-1.72,13.39,13.39,0,0,0,3.44-3.44,16.34,16.34,0,0,0,2.24-4.68,18.45,18.45,0,0,0,.78-5.34,24.15,24.15,0,0,0-.78-6.32,15.93,15.93,0,0,0-2.24-5,10.76,10.76,0,0,0-3.44-3.23,8.6,8.6,0,0,0-4.43-1.16Z" style="fill:#3f2413"/><path d="M1100.61,182.6l-1.73,6.53h-27.65V143.45h12.93V182.6Z" style="fill:#3f2413"/><path d="M1111.65,189.13V143.45h12.93v45.68Z" style="fill:#3f2413"/><path d="M1137.11,189.13V143.38h24.76l1.25,6.53H1150v10.34h8.7v6.53H1150v22.35Z" style="fill:#3f2413"/><path d="M1204.41,182.6l-1.65,6.53h-27.65V143.38h24.75l1.26,6.53H1188v10.34h8.7v6.53H1188V182.6Z" style="fill:#3f2413"/></g></g></svg>