<svg xmlns="http://www.w3.org/2000/svg" xmlns:xlink="http://www.w3.org/1999/xlink" viewBox="0 0 1755.13 999.4"><defs><linearGradient id="aadf3041-9410-40a6-9d38-7473523badea" x1="1124.4" y1="73.47" x2="1607.54" y2="73.47" gradientUnits="userSpaceOnUse"><stop offset="0" stop-color="#a56e29"/><stop offset="0.36" stop-color="#e5b450"/><stop offset="0.39" stop-color="#dfab4a"/><stop offset="0.58" stop-color="#c17e2a"/><stop offset="0.82" stop-color="#be9131"/><stop offset="1" stop-color="#bc9a34"/></linearGradient><linearGradient id="f0a71ce1-7440-4d8d-b1d5-e780a7015a12" x1="1124.4" y1="93.97" x2="1607.54" y2="93.97" xlink:href="#aadf3041-9410-40a6-9d38-7473523badea"/><linearGradient id="ed6125ee-5b5f-4124-9acb-a9b2f87e5f72" x1="1124.4" y1="113.86" x2="1607.54" y2="113.86" xlink:href="#aadf3041-9410-40a6-9d38-7473523badea"/><linearGradient id="a6945ee8-8136-42ac-b2ce-8fb65850c1d1" x1="436.56" y1="73.47" x2="657.22" y2="73.47" xlink:href="#aadf3041-9410-40a6-9d38-7473523badea"/><linearGradient id="a482b776-6b39-4a7d-bac9-6703aa684a8d" x1="436.56" y1="93.97" x2="657.22" y2="93.97" xlink:href="#aadf3041-9410-40a6-9d38-7473523badea"/><linearGradient id="f14d04b5-d764-44ff-85b5-0648d9424bfe" x1="436.56" y1="113.86" x2="657.22" y2="113.86" xlink:href="#aadf3041-9410-40a6-9d38-7473523badea"/></defs><title>wildlifePanel</title><g id="ae28252b-e315-46f9-87fb-bfa946f9bb48" data-name="Layer 2"><g id="adc8e48c-e7c1-4aac-ada3-743cfe572754" data-name="CAT - WILDLIFE"><rect width="1755.13" height="999.4" rx="42.86" style="fill:#3f2413"/><polygon points="38.38 160.72 38.38 29.23 387.49 29.23 415.65 95.82 387.49 160.72 38.38 160.72" style="fill:#aa712a"/><path d="M115.5,102.86v14.5c0,4-2.56,6.76-6.59,6.76H97.37a6.38,6.38,0,0,1-6.67-6.76v-43c0-4.2,2.72-6.84,6.67-6.84h11.54c4,0,6.59,2.64,6.59,6.84V88.61h-9.23V76.5c0-.49-.33-.9-.58-.9h-5.1c-.33,0-.58.41-.58.9v38.72c0,.5.25.82.58.82h5.1a.75.75,0,0,0,.58-.82V102.86Z" style="fill:#debf98"/><path d="M148.05,123.62h-9.14V107.48h-6.59v16.14h-9.14V73.7a5.42,5.42,0,0,1,5.6-5.68h13.59a5.44,5.44,0,0,1,5.68,5.68Zm-9.14-23.8V77.33a1.15,1.15,0,0,0-1.15-1.24h-4.29a1.15,1.15,0,0,0-1.15,1.24V99.82Z" style="fill:#debf98"/><path d="M171.1,76v47.61h-9.22V76h-7V68H178.1v8Z" style="fill:#debf98"/><path d="M185.15,68h20.51v8h-11.2V91.66h9.14V99.4h-9.14v16.23h11.2v8H185.15Z" style="fill:#debf98"/><path d="M220,124c-4.12,0-6.67-2.72-6.67-6.76V74.36c0-4.2,2.55-6.84,6.67-6.84h17.71v8.65h-14.5c-.24,0-.57.42-.57.91v37.56c0,.5.33.83.57.83h5.44c.41,0,.66-.33.66-.83V97.51h-3.13V89.68h14.17v7.83h-2.72v19.77a6.36,6.36,0,0,1-6.76,6.76Z" style="fill:#debf98"/><path d="M267.66,67.52a5.5,5.5,0,0,1,5.69,5.69v45.14a5.5,5.5,0,0,1-5.69,5.69H253.41a5.45,5.45,0,0,1-5.68-5.69V73.21a5.45,5.45,0,0,1,5.68-5.69ZM264,76.17c0-.49-.33-.9-.5-.9h-6.09c-.41,0-.41.57-.41.9V115.3c0,.25.08.74.41.74h6.09a.75.75,0,0,0,.5-.74Z" style="fill:#debf98"/><path d="M294.59,105.09h-3.13v18.53h-9.31V68h18.7c4.12,0,6.67,2.72,6.67,6.84V98.25c0,3.21-1.56,5.52-4.11,6.43l4.2,18.94h-9.15Zm3.87-28.26c0-.41-.33-.82-.57-.82h-6.43V97.43h6.43c.24,0,.57-.41.57-.74Z" style="fill:#debf98"/><path d="M332.46,106.49v17.13h-9.14V106.49H322c-4.12,0-6.76-2.55-6.76-6.59V68h9.23V97.67a.9.9,0,0,0,.66.83H331c.33,0,.33-.41.33-.83V68h9.22V99.9c0,4-2.63,6.59-6.83,6.59Z" style="fill:#debf98"/><g style="opacity:0.25"><line x1="1126.9" y1="73.47" x2="1605.04" y2="73.47" style="fill:none;stroke-linecap:round;stroke-miterlimit:10;stroke-width:5px;stroke:url(#aadf3041-9410-40a6-9d38-7473523badea)"/><line x1="1126.9" y1="93.97" x2="1605.04" y2="93.97" style="fill:none;stroke-linecap:round;stroke-miterlimit:10;stroke-width:5px;stroke:url(#f0a71ce1-7440-4d8d-b1d5-e780a7015a12)"/><line x1="1126.9" y1="113.86" x2="1605.04" y2="113.86" style="fill:none;stroke-linecap:round;stroke-miterlimit:10;stroke-width:5px;stroke:url(#ed6125ee-5b5f-4124-9acb-a9b2f87e5f72)"/></g><g style="opacity:0.25"><line x1="439.06" y1="73.47" x2="654.72" y2="73.47" style="fill:none;stroke-linecap:round;stroke-miterlimit:10;stroke-width:5px;stroke:url(#a6945ee8-8136-42ac-b2ce-8fb65850c1d1)"/><line x1="439.06" y1="93.97" x2="654.72" y2="93.97" style="fill:none;stroke-linecap:round;stroke-miterlimit:10;stroke-width:5px;stroke:url(#a482b776-6b39-4a7d-bac9-6703aa684a8d)"/><line x1="439.06" y1="113.86" x2="654.72" y2="113.86" style="fill:none;stroke-linecap:round;stroke-miterlimit:10;stroke-width:5px;stroke:url(#f14d04b5-d764-44ff-85b5-0648d9424bfe)"/></g><path d="M777.71,118.83H762.52L758,102.32l-4.17,16.51H738.65L726.42,73.9h15.1l7.81,28.73,7.29-28.73h8.76l7.82,28.73,7.28-28.73h8.6Z" style="fill:#fff"/><path d="M796.54,118.83V74.29h14.32v44.54Z" style="fill:#fff"/><path d="M853,111.59,851,118.83H820.41V74.29h14.32v37.3Z" style="fill:#fff"/><path d="M878.59,74.29a28.9,28.9,0,0,1,9.65,1.59,24.56,24.56,0,0,1,7.91,4.52,21.2,21.2,0,0,1,5.35,7,20.65,20.65,0,0,1,2,9.07,19.77,19.77,0,0,1-2,8.68,22.52,22.52,0,0,1-5.35,7.13,25.75,25.75,0,0,1-7.91,4.79,26.66,26.66,0,0,1-9.65,1.75H861.72V74.29ZM876,111.66a11.71,11.71,0,0,0,4.9-1.67,14.73,14.73,0,0,0,3.82-3.39,15.3,15.3,0,0,0,2.47-4.55,15.87,15.87,0,0,0,.87-5.18,20.68,20.68,0,0,0-.87-6.15,15.2,15.2,0,0,0-2.47-4.87,11.41,11.41,0,0,0-3.82-3.19,10.68,10.68,0,0,0-4.9-1.13Z" style="fill:#fff"/><path d="M944.51,111.59l-1.91,7.24H912V74.29h14.32v37.3Z" style="fill:#fff"/><path d="M952.41,118.83V74.29h14.31v44.54Z" style="fill:#fff"/><path d="M976.27,118.83V74.29h27.43l1.38,7.24H990.59V92.9h9.63v7.24h-9.63v18.69Z" style="fill:#fff"/><path d="M1046.48,111.59l-1.82,7.24H1014V74.29h27.43l1.39,7.24h-14.5V92.9H1038v7.24h-9.64v11.45Z" style="fill:#fff"/></g></g></svg>